<svg width="300" height="280" viewBox="0 0 300 280" fill="none" xmlns="http://www.w3.org/2000/svg">
<rect x="160" y="270" width="10" height="10" fill="black"/>
<rect x="170" y="270" width="10" height="10" fill="black"/>
<rect x="120" y="270" width="10" height="10" fill="black"/>
<rect x="130" y="270" width="10" height="10" fill="black"/>
<rect x="110" y="260" width="10" height="10" fill="black"/>
<rect x="180" y="260" width="10" height="10" fill="black"/>
<rect x="90" y="250" width="10" height="10" fill="black"/>
<rect x="100" y="260" width="10" height="10" fill="black"/>
<rect x="100" y="250" width="10" height="10" fill="black"/>
<rect x="100" y="240" width="10" height="10" fill="black"/>
<rect x="100" y="220" width="10" height="10" fill="black"/>
<rect x="100" y="230" width="10" height="10" fill="black"/>
<rect x="100" y="210" width="10" height="10" fill="black"/>
<rect x="100" y="200" width="10" height="10" fill="black"/>
<rect x="120" y="190" width="10" height="10" fill="black"/>
<rect x="200" y="250" width="10" height="10" fill="black"/>
<rect x="190" y="260" width="10" height="10" fill="black"/>
<rect x="190" y="250" width="10" height="10" fill="black"/>
<rect x="190" y="220" width="10" height="10" fill="black"/>
<rect x="190" y="240" width="10" height="10" fill="black"/>
<rect x="190" y="230" width="10" height="10" fill="black"/>
<rect x="190" y="210" width="10" height="10" fill="black"/>
<rect x="190" y="200" width="10" height="10" fill="black"/>
<rect x="170" y="190" width="10" height="10" fill="black"/>
<rect x="180" y="190" width="10" height="10" fill="black"/>
<rect x="190" y="190" width="10" height="10" fill="black"/>
<rect x="200" y="190" width="10" height="10" fill="black"/>
<rect x="210" y="190" width="10" height="10" fill="black"/>
<rect x="220" y="200" width="10" height="10" fill="black"/>
<rect x="230" y="200" width="10" height="10" fill="black"/>
<rect x="240" y="210" width="10" height="10" fill="black"/>
<rect x="250" y="210" width="10" height="10" fill="black"/>
<rect x="260" y="220" width="10" height="10" fill="black"/>
<rect x="270" y="220" width="10" height="10" fill="black"/>
<rect x="280" y="230" width="10" height="10" fill="black"/>
<rect x="290" y="230" width="10" height="10" fill="black"/>
<rect x="290" y="220" width="10" height="10" fill="black"/>
<rect x="290" y="210" width="10" height="10" fill="black"/>
<rect x="290" y="200" width="10" height="10" fill="black"/>
<rect x="290" y="190" width="10" height="10" fill="black"/>
<rect x="290" y="180" width="10" height="10" fill="black"/>
<rect x="280" y="170" width="10" height="10" fill="black"/>
<rect x="270" y="160" width="10" height="10" fill="black"/>
<rect x="260" y="150" width="10" height="10" fill="black"/>
<rect x="250" y="140" width="10" height="10" fill="black"/>
<rect x="240" y="130" width="10" height="10" fill="black"/>
<rect x="230" y="120" width="10" height="10" fill="black"/>
<rect x="220" y="110" width="10" height="10" fill="black"/>
<rect x="210" y="100" width="10" height="10" fill="black"/>
<rect x="200" y="90" width="10" height="10" fill="black"/>
<rect x="190" y="90" width="10" height="10" fill="black"/>
<rect x="190" y="80" width="10" height="10" fill="black"/>
<rect x="190" y="70" width="10" height="10" fill="black"/>
<rect x="190" y="60" width="10" height="10" fill="black"/>
<rect x="180" y="50" width="10" height="10" fill="black"/>
<rect x="170" y="30" width="10" height="10" fill="black"/>
<rect x="180" y="40" width="10" height="10" fill="black"/>
<rect x="170" y="20" width="10" height="10" fill="black"/>
<rect x="160" y="10" width="10" height="10" fill="black"/>
<rect width="10" height="10" transform="matrix(-1 0 0 1 110 80)" fill="black"/>
<rect width="10" height="10" transform="matrix(-1 0 0 1 110 70)" fill="black"/>
<rect width="10" height="10" transform="matrix(-1 0 0 1 110 60)" fill="black"/>
<rect width="10" height="10" transform="matrix(-1 0 0 1 120 50)" fill="black"/>
<rect width="10" height="10" transform="matrix(-1 0 0 1 130 30)" fill="black"/>
<rect width="10" height="10" transform="matrix(-1 0 0 1 120 40)" fill="black"/>
<rect width="10" height="10" transform="matrix(-1 0 0 1 130 20)" fill="black"/>
<rect width="10" height="10" transform="matrix(-1 0 0 1 140 10)" fill="black"/>
<rect x="150" width="10" height="10" fill="black"/>
<rect x="140" width="10" height="10" fill="black"/>
<rect x="190" y="100" width="10" height="10" fill="black"/>
<rect x="200" y="100" width="10" height="10" fill="#C7DCD0"/>
<rect x="140" y="20" width="10" height="10" fill="#C7DCD0"/>
<rect x="130" y="30" width="10" height="10" fill="#C7DCD0"/>
<rect x="120" y="50" width="10" height="10" fill="#C7DCD0"/>
<rect x="110" y="70" width="10" height="10" fill="#C7DCD0"/>
<rect x="120" y="70" width="10" height="10" fill="#484A77"/>
<rect x="130" y="70" width="10" height="10" fill="#484A77"/>
<rect x="160" y="70" width="10" height="10" fill="#4D9BE6"/>
<rect x="170" y="70" width="10" height="10" fill="#4D9BE6"/>
<rect x="140" y="70" width="10" height="10" fill="#4D65B4"/>
<rect x="140" y="80" width="10" height="10" fill="#4D65B4"/>
<rect x="150" y="70" width="10" height="10" fill="#4D65B4"/>
<rect x="140" y="50" width="10" height="10" fill="#4D65B4"/>
<rect x="150" y="80" width="10" height="10" fill="#4D65B4"/>
<rect x="130" y="50" width="10" height="10" fill="#484A77"/>
<rect x="160" y="50" width="10" height="10" fill="#4D9BE6"/>
<rect x="150" y="50" width="10" height="10" fill="#4D65B4"/>
<rect x="110" y="90" width="10" height="10" fill="#9BABB2"/>
<rect x="120" y="110" width="10" height="10" fill="#9BABB2"/>
<rect x="120" y="130" width="10" height="10" fill="#9BABB2"/>
<rect x="120" y="150" width="10" height="10" fill="#9BABB2"/>
<rect x="120" y="170" width="10" height="10" fill="#9BABB2"/>
<rect x="120" y="180" width="10" height="10" fill="#9BABB2"/>
<rect x="140" y="10" width="10" height="10" fill="#C7DCD0"/>
<rect x="130" y="20" width="10" height="10" fill="#C7DCD0"/>
<rect x="120" y="40" width="10" height="10" fill="#C7DCD0"/>
<rect x="120" y="100" width="10" height="10" fill="#9BABB2"/>
<rect x="90" y="100" width="10" height="10" fill="#9BABB2"/>
<rect x="120" y="120" width="10" height="10" fill="#9BABB2"/>
<rect x="110" y="80" width="10" height="10" fill="#9BABB2"/>
<rect x="110" y="60" width="10" height="10" fill="#C7DCD0"/>
<rect x="140" y="60" width="10" height="10" fill="#4D65B4"/>
<rect x="120" y="140" width="10" height="10" fill="#9BABB2"/>
<rect x="140" y="40" width="10" height="10" fill="#4D65B4"/>
<rect x="140" y="30" width="10" height="10" fill="#4D65B4"/>
<rect x="120" y="60" width="10" height="10" fill="#484A77"/>
<rect x="160" y="60" width="10" height="10" fill="#4D9BE6"/>
<rect x="130" y="60" width="10" height="10" fill="#484A77"/>
<rect x="170" y="60" width="10" height="10" fill="#4D9BE6"/>
<rect x="150" y="60" width="10" height="10" fill="#4D65B4"/>
<rect x="130" y="40" width="10" height="10" fill="#484A77"/>
<rect x="160" y="40" width="10" height="10" fill="#4D9BE6"/>
<rect x="150" y="40" width="10" height="10" fill="#4D65B4"/>
<rect x="150" y="30" width="10" height="10" fill="#4D65B4"/>
<rect x="120" y="160" width="10" height="10" fill="#9BABB2"/>
<rect x="180" y="90" width="10" height="10" fill="#C7DCD0"/>
<rect x="190" y="110" width="10" height="10" fill="black"/>
<rect x="180" y="100" width="10" height="10" fill="black"/>
<rect x="200" y="110" width="10" height="10" fill="#C7DCD0"/>
<rect x="170" y="110" width="10" height="10" fill="#C7DCD0"/>
<rect x="130" y="110" width="10" height="10" fill="#C7DCD0"/>
<rect x="130" y="100" width="10" height="10" fill="#C7DCD0"/>
<rect x="120" y="90" width="10" height="10" fill="#C7DCD0"/>
<rect x="130" y="90" width="10" height="10" fill="#C7DCD0"/>
<rect x="120" y="80" width="10" height="10" fill="#C7DCD0"/>
<rect x="130" y="80" width="10" height="10" fill="#C7DCD0"/>
<rect x="190" y="120" width="10" height="10" fill="black"/>
<rect x="90" y="110" width="10" height="10" fill="#9BABB2"/>
<rect x="80" y="110" width="10" height="10" fill="#C7DCD0"/>
<rect x="190" y="130" width="10" height="10" fill="black"/>
<rect x="170" y="120" width="10" height="10" fill="#C7DCD0"/>
<rect x="130" y="120" width="10" height="10" fill="#C7DCD0"/>
<rect x="200" y="120" width="10" height="10" fill="#C7DCD0"/>
<rect x="140" y="180" width="10" height="10" fill="#C7DCD0"/>
<rect x="140" y="120" width="10" height="10" fill="white"/>
<rect x="150" y="120" width="10" height="10" fill="white"/>
<rect x="150" y="150" width="10" height="10" fill="white"/>
<rect x="250" y="160" width="10" height="10" fill="white"/>
<rect x="240" y="150" width="10" height="10" fill="white"/>
<rect x="230" y="140" width="10" height="10" fill="white"/>
<rect x="220" y="130" width="10" height="10" fill="white"/>
<rect x="210" y="120" width="10" height="10" fill="white"/>
<rect x="160" y="120" width="10" height="10" fill="white"/>
<rect x="160" y="150" width="10" height="10" fill="white"/>
<rect x="180" y="110" width="10" height="10" fill="black"/>
<rect x="90" y="120" width="10" height="10" fill="#9BABB2"/>
<rect x="190" y="140" width="10" height="10" fill="black"/>
<rect x="80" y="120" width="10" height="10" fill="#C7DCD0"/>
<rect x="170" y="130" width="10" height="10" fill="#C7DCD0"/>
<rect x="130" y="130" width="10" height="10" fill="#C7DCD0"/>
<rect x="200" y="130" width="10" height="10" fill="#C7DCD0"/>
<rect x="150" y="130" width="10" height="10" fill="white"/>
<rect x="140" y="190" width="10" height="10" fill="#C7DCD0"/>
<rect x="190" y="150" width="10" height="10" fill="black"/>
<rect x="160" y="130" width="10" height="10" fill="white"/>
<rect x="150" y="160" width="10" height="10" fill="white"/>
<rect x="140" y="130" width="10" height="10" fill="white"/>
<rect x="250" y="170" width="10" height="10" fill="white"/>
<rect x="260" y="170" width="10" height="10" fill="white"/>
<rect x="270" y="180" width="10" height="10" fill="white"/>
<rect x="180" y="120" width="10" height="10" fill="black"/>
<rect x="90" y="130" width="10" height="10" fill="#9BABB2"/>
<rect x="170" y="140" width="10" height="10" fill="#C7DCD0"/>
<rect x="190" y="160" width="10" height="10" fill="black"/>
<rect x="130" y="140" width="10" height="10" fill="#C7DCD0"/>
<rect x="130" y="190" width="10" height="10" fill="#C7DCD0"/>
<rect x="120" y="250" width="10" height="10" fill="#C7DCD0"/>
<rect x="130" y="250" width="10" height="10" fill="#C7DCD0"/>
<rect x="130" y="260" width="10" height="10" fill="#C7DCD0"/>
<rect x="140" y="260" width="10" height="10" fill="#E9F6EE"/>
<rect x="150" y="260" width="10" height="10" fill="#E9F6EE"/>
<rect x="170" y="240" width="10" height="10" fill="#E9F6EE"/>
<rect x="150" y="220" width="10" height="10" fill="#E9F6EE"/>
<rect x="150" y="240" width="10" height="10" fill="#E9F6EE"/>
<rect x="170" y="220" width="10" height="10" fill="#E9F6EE"/>
<rect x="150" y="200" width="10" height="10" fill="#E9F6EE"/>
<rect x="160" y="200" width="10" height="10" fill="#E9F6EE"/>
<rect x="160" y="170" width="10" height="10" fill="#E9F6EE"/>
<rect x="150" y="250" width="10" height="10" fill="#E9F6EE"/>
<rect x="170" y="230" width="10" height="10" fill="#E9F6EE"/>
<rect x="160" y="210" width="10" height="10" fill="#E9F6EE"/>
<rect x="150" y="210" width="10" height="10" fill="#E9F6EE"/>
<rect x="160" y="180" width="10" height="10" fill="#E9F6EE"/>
<rect x="160" y="260" width="10" height="10" fill="#E9F6EE"/>
<rect x="150" y="230" width="10" height="10" fill="#E9F6EE"/>
<rect x="170" y="210" width="10" height="10" fill="#E9F6EE"/>
<rect x="160" y="190" width="10" height="10" fill="#E9F6EE"/>
<rect x="150" y="190" width="10" height="10" fill="#E9F6EE"/>
<rect x="150" y="180" width="10" height="10" fill="#E9F6EE"/>
<rect x="170" y="200" width="10" height="10" fill="#E9F6EE"/>
<rect x="270" y="170" width="10" height="10" fill="#E9F6EE"/>
<rect x="220" y="180" width="10" height="10" fill="#E9F6EE"/>
<rect x="230" y="180" width="10" height="10" fill="#E9F6EE"/>
<rect x="230" y="170" width="10" height="10" fill="#E9F6EE"/>
<rect x="230" y="160" width="10" height="10" fill="#E9F6EE"/>
<rect x="230" y="150" width="10" height="10" fill="#E9F6EE"/>
<rect x="240" y="190" width="10" height="10" fill="#E9F6EE"/>
<rect x="250" y="190" width="10" height="10" fill="#E9F6EE"/>
<rect x="260" y="200" width="10" height="10" fill="#E9F6EE"/>
<rect x="240" y="180" width="10" height="10" fill="#E9F6EE"/>
<rect x="210" y="170" width="10" height="10" fill="#E9F6EE"/>
<rect x="260" y="160" width="10" height="10" fill="#E9F6EE"/>
<rect x="220" y="170" width="10" height="10" fill="#E9F6EE"/>
<rect x="210" y="160" width="10" height="10" fill="#E9F6EE"/>
<rect x="210" y="140" width="10" height="10" fill="#E9F6EE"/>
<rect x="210" y="150" width="10" height="10" fill="#E9F6EE"/>
<rect x="210" y="130" width="10" height="10" fill="#E9F6EE"/>
<rect x="160" y="160" width="10" height="10" fill="#E9F6EE"/>
<rect x="160" y="250" width="10" height="10" fill="#E9F6EE"/>
<rect x="170" y="250" width="10" height="10" fill="#E9F6EE"/>
<rect x="140" y="150" width="10" height="10" fill="#C7DCD0"/>
<rect x="120" y="230" width="10" height="10" fill="#C7DCD0"/>
<rect x="150" y="140" width="10" height="10" fill="white"/>
<rect x="150" y="90" width="10" height="10" fill="white"/>
<rect x="250" y="150" width="10" height="10" fill="white"/>
<rect x="240" y="140" width="10" height="10" fill="white"/>
<rect x="200" y="140" width="10" height="10" fill="#C7DCD0"/>
<rect x="220" y="120" width="10" height="10" fill="white"/>
<rect x="230" y="130" width="10" height="10" fill="white"/>
<rect x="210" y="110" width="10" height="10" fill="white"/>
<rect x="140" y="200" width="10" height="10" fill="#C7DCD0"/>
<rect x="140" y="90" width="10" height="10" fill="white"/>
<rect x="160" y="90" width="10" height="10" fill="white"/>
<rect x="160" y="80" width="10" height="10" fill="white"/>
<rect x="170" y="90" width="10" height="10" fill="white"/>
<rect x="170" y="80" width="10" height="10" fill="white"/>
<rect x="180" y="70" width="10" height="10" fill="white"/>
<rect x="180" y="60" width="10" height="10" fill="white"/>
<rect x="170" y="50" width="10" height="10" fill="white"/>
<rect x="170" y="40" width="10" height="10" fill="white"/>
<rect x="160" y="30" width="10" height="10" fill="white"/>
<rect x="160" y="20" width="10" height="10" fill="white"/>
<rect x="150" y="20" width="10" height="10" fill="white"/>
<rect x="150" y="10" width="10" height="10" fill="white"/>
<rect x="80" y="130" width="10" height="10" fill="#C7DCD0"/>
<rect x="150" y="170" width="10" height="10" fill="white"/>
<rect x="160" y="140" width="10" height="10" fill="white"/>
<rect x="130" y="150" width="10" height="10" fill="#C7DCD0"/>
<rect x="250" y="180" width="10" height="10" fill="white"/>
<rect x="260" y="180" width="10" height="10" fill="white"/>
<rect x="260" y="190" width="10" height="10" fill="white"/>
<rect x="140" y="140" width="10" height="10" fill="white"/>
<rect x="270" y="190" width="10" height="10" fill="white"/>
<rect x="270" y="200" width="10" height="10" fill="white"/>
<rect x="280" y="200" width="10" height="10" fill="white"/>
<rect x="280" y="210" width="10" height="10" fill="white"/>
<rect x="140" y="210" width="10" height="10" fill="#C7DCD0"/>
<rect x="140" y="160" width="10" height="10" fill="#C7DCD0"/>
<rect x="170" y="150" width="10" height="10" fill="#C7DCD0"/>
<rect x="150" y="100" width="10" height="10" fill="white"/>
<rect x="200" y="150" width="10" height="10" fill="#C7DCD0"/>
<rect x="190" y="170" width="10" height="10" fill="black"/>
<rect x="140" y="170" width="10" height="10" fill="#C7DCD0"/>
<rect x="90" y="140" width="10" height="10" fill="#9BABB2"/>
<rect x="160" y="100" width="10" height="10" fill="white"/>
<rect x="170" y="100" width="10" height="10" fill="white"/>
<rect x="180" y="80" width="10" height="10" fill="white"/>
<rect x="150" y="110" width="10" height="10" fill="white"/>
<rect x="140" y="100" width="10" height="10" fill="white"/>
<rect x="130" y="160" width="10" height="10" fill="#C7DCD0"/>
<rect x="180" y="130" width="10" height="10" fill="black"/>
<rect x="90" y="150" width="10" height="10" fill="#9BABB2"/>
<rect x="140" y="110" width="10" height="10" fill="white"/>
<rect x="160" y="110" width="10" height="10" fill="white"/>
<rect x="170" y="160" width="10" height="10" fill="#C7DCD0"/>
<rect x="140" y="220" width="10" height="10" fill="#C7DCD0"/>
<rect x="140" y="240" width="10" height="10" fill="#C7DCD0"/>
<rect x="190" y="180" width="10" height="10" fill="black"/>
<rect x="130" y="170" width="10" height="10" fill="#C7DCD0"/>
<rect x="140" y="230" width="10" height="10" fill="#C7DCD0"/>
<rect x="80" y="140" width="10" height="10" fill="#C7DCD0"/>
<rect x="140" y="250" width="10" height="10" fill="#C7DCD0"/>
<rect x="180" y="140" width="10" height="10" fill="black"/>
<rect x="200" y="160" width="10" height="10" fill="#C7DCD0"/>
<rect x="170" y="170" width="10" height="10" fill="#C7DCD0"/>
<rect x="80" y="150" width="10" height="10" fill="#C7DCD0"/>
<rect x="110" y="200" width="10" height="10" fill="#9BABB2"/>
<rect x="120" y="210" width="10" height="10" fill="#C7DCD0"/>
<rect x="130" y="200" width="10" height="10" fill="#C7DCD0"/>
<rect x="120" y="200" width="10" height="10" fill="#9BABB2"/>
<rect x="130" y="180" width="10" height="10" fill="#C7DCD0"/>
<rect x="120" y="240" width="10" height="10" fill="#C7DCD0"/>
<rect x="120" y="220" width="10" height="10" fill="#C7DCD0"/>
<rect x="180" y="200" width="10" height="10" fill="#C7DCD0"/>
<rect x="220" y="150" width="10" height="10" fill="#4D65B4"/>
<rect x="70" y="150" width="10" height="10" fill="#484A77"/>
<rect x="110" y="210" width="10" height="10" fill="#9BABB2"/>
<rect x="50" y="160" width="10" height="10" fill="#484A77"/>
<rect x="200" y="170" width="10" height="10" fill="#C7DCD0"/>
<rect x="180" y="210" width="10" height="10" fill="#C7DCD0"/>
<rect x="220" y="140" width="10" height="10" fill="#4D65B4"/>
<rect x="240" y="160" width="10" height="10" fill="#4D65B4"/>
<rect x="130" y="220" width="10" height="10" fill="#4D65B4"/>
<rect x="130" y="210" width="10" height="10" fill="#4D65B4"/>
<rect x="160" y="220" width="10" height="10" fill="#4D65B4"/>
<rect x="170" y="180" width="10" height="10" fill="#C7DCD0"/>
<rect x="220" y="160" width="10" height="10" fill="#4D65B4"/>
<rect x="90" y="160" width="10" height="10" fill="#9BABB2"/>
<rect x="110" y="220" width="10" height="10" fill="#9BABB2"/>
<rect x="70" y="140" width="10" height="10" fill="#484A77"/>
<rect x="70" y="160" width="10" height="10" fill="#484A77"/>
<rect x="110" y="230" width="10" height="10" fill="#9BABB2"/>
<rect x="110" y="250" width="10" height="10" fill="#9BABB2"/>
<rect x="120" y="260" width="10" height="10" fill="#9BABB2"/>
<rect x="180" y="220" width="10" height="10" fill="#C7DCD0"/>
<rect x="90" y="170" width="10" height="10" fill="#9BABB2"/>
<rect x="110" y="240" width="10" height="10" fill="#9BABB2"/>
<rect x="130" y="230" width="10" height="10" fill="#4D65B4"/>
<rect x="180" y="150" width="10" height="10" fill="black"/>
<rect x="160" y="230" width="10" height="10" fill="#4D65B4"/>
<rect x="180" y="250" width="10" height="10" fill="#C7DCD0"/>
<rect x="180" y="230" width="10" height="10" fill="#C7DCD0"/>
<rect x="50" y="170" width="10" height="10" fill="#484A77"/>
<rect x="130" y="240" width="10" height="10" fill="#4D65B4"/>
<rect x="180" y="240" width="10" height="10" fill="#C7DCD0"/>
<rect x="170" y="260" width="10" height="10" fill="#C7DCD0"/>
<rect x="160" y="240" width="10" height="10" fill="#4D65B4"/>
<rect x="80" y="160" width="10" height="10" fill="#C7DCD0"/>
<rect x="240" y="170" width="10" height="10" fill="#4D65B4"/>
<rect x="280" y="180" width="10" height="10" fill="#C7DCD0"/>
<rect x="80" y="170" width="10" height="10" fill="#C7DCD0"/>
<rect x="60" y="170" width="10" height="10" fill="#C7DCD0"/>
<rect x="60" y="150" width="10" height="10" fill="#C7DCD0"/>
<rect x="60" y="130" width="10" height="10" fill="#C7DCD0"/>
<rect x="70" y="120" width="10" height="10" fill="#C7DCD0"/>
<rect x="50" y="140" width="10" height="10" fill="#C7DCD0"/>
<rect x="50" y="180" width="10" height="10" fill="#C7DCD0"/>
<rect x="60" y="180" width="10" height="10" fill="#C7DCD0"/>
<rect x="20" y="180" width="10" height="10" fill="#C7DCD0"/>
<rect x="20" y="190" width="10" height="10" fill="#C7DCD0"/>
<rect x="20" y="170" width="10" height="10" fill="#C7DCD0"/>
<rect x="10" y="200" width="10" height="10" fill="#C7DCD0"/>
<rect x="10" y="210" width="10" height="10" fill="#C7DCD0"/>
<rect x="30" y="180" width="10" height="10" fill="#C7DCD0"/>
<rect x="30" y="190" width="10" height="10" fill="#C7DCD0"/>
<rect x="20" y="200" width="10" height="10" fill="#C7DCD0"/>
<rect x="30" y="160" width="10" height="10" fill="#C7DCD0"/>
<rect x="30" y="170" width="10" height="10" fill="#C7DCD0"/>
<rect x="30" y="200" width="10" height="10" fill="#C7DCD0"/>
<rect x="40" y="150" width="10" height="10" fill="#C7DCD0"/>
<rect x="40" y="160" width="10" height="10" fill="#C7DCD0"/>
<rect x="40" y="170" width="10" height="10" fill="#C7DCD0"/>
<rect x="60" y="160" width="10" height="10" fill="#C7DCD0"/>
<rect x="70" y="170" width="10" height="10" fill="#C7DCD0"/>
<rect x="70" y="130" width="10" height="10" fill="#C7DCD0"/>
<rect x="50" y="150" width="10" height="10" fill="#C7DCD0"/>
<rect x="70" y="180" width="10" height="10" fill="#C7DCD0"/>
<rect x="60" y="140" width="10" height="10" fill="#C7DCD0"/>
<rect x="50" y="190" width="10" height="10" fill="#C7DCD0"/>
<rect x="40" y="180" width="10" height="10" fill="#C7DCD0"/>
<rect x="40" y="190" width="10" height="10" fill="#C7DCD0"/>
<rect x="180" y="160" width="10" height="10" fill="black"/>
<rect x="280" y="190" width="10" height="10" fill="#C7DCD0"/>
<rect x="180" y="170" width="10" height="10" fill="black"/>
<rect x="200" y="180" width="10" height="10" fill="#C7DCD0"/>
<rect x="90" y="180" width="10" height="10" fill="#9BABB2"/>
<rect x="80" y="180" width="10" height="10" fill="#9BABB2"/>
<rect x="70" y="190" width="10" height="10" fill="#9BABB2"/>
<rect x="60" y="190" width="10" height="10" fill="#9BABB2"/>
<rect x="50" y="200" width="10" height="10" fill="#9BABB2"/>
<rect x="40" y="200" width="10" height="10" fill="#9BABB2"/>
<rect x="30" y="210" width="10" height="10" fill="#9BABB2"/>
<rect x="20" y="210" width="10" height="10" fill="#9BABB2"/>
<rect x="10" y="220" width="10" height="10" fill="#9BABB2"/>
<rect x="10" y="180" width="10" height="10" fill="#9BABB2"/>
<rect x="10" y="190" width="10" height="10" fill="#9BABB2"/>
<rect x="210" y="180" width="10" height="10" fill="#C7DCD0"/>
<rect x="220" y="190" width="10" height="10" fill="#C7DCD0"/>
<rect x="230" y="190" width="10" height="10" fill="#C7DCD0"/>
<rect x="240" y="200" width="10" height="10" fill="#C7DCD0"/>
<rect x="250" y="200" width="10" height="10" fill="#C7DCD0"/>
<rect x="260" y="210" width="10" height="10" fill="#C7DCD0"/>
<rect x="270" y="210" width="10" height="10" fill="#C7DCD0"/>
<rect x="280" y="220" width="10" height="10" fill="#C7DCD0"/>
<rect x="180" y="180" width="10" height="10" fill="black"/>
<rect width="10" height="10" transform="matrix(-1 0 0 1 120 190)" fill="black"/>
<rect width="10" height="10" transform="matrix(-1 0 0 1 110 190)" fill="black"/>
<rect width="10" height="10" transform="matrix(-1 0 0 1 100 190)" fill="black"/>
<rect width="10" height="10" transform="matrix(-1 0 0 1 90 190)" fill="black"/>
<rect width="10" height="10" transform="matrix(-1 0 0 1 80 200)" fill="black"/>
<rect width="10" height="10" transform="matrix(-1 0 0 1 70 200)" fill="black"/>
<rect width="10" height="10" transform="matrix(-1 0 0 1 60 210)" fill="black"/>
<rect width="10" height="10" transform="matrix(-1 0 0 1 50 210)" fill="black"/>
<rect width="10" height="10" transform="matrix(-1 0 0 1 40 220)" fill="black"/>
<rect width="10" height="10" transform="matrix(-1 0 0 1 30 220)" fill="black"/>
<rect width="10" height="10" transform="matrix(-1 0 0 1 20 230)" fill="black"/>
<rect width="10" height="10" transform="matrix(-1 0 0 1 10 230)" fill="black"/>
<rect width="10" height="10" transform="matrix(-1 0 0 1 10 220)" fill="black"/>
<rect width="10" height="10" transform="matrix(-1 0 0 1 10 210)" fill="black"/>
<rect width="10" height="10" transform="matrix(-1 0 0 1 10 200)" fill="black"/>
<rect width="10" height="10" transform="matrix(-1 0 0 1 10 190)" fill="black"/>
<rect width="10" height="10" transform="matrix(-1 0 0 1 10 180)" fill="black"/>
<rect width="10" height="10" transform="matrix(-1 0 0 1 20 170)" fill="black"/>
<rect width="10" height="10" transform="matrix(-1 0 0 1 30 160)" fill="black"/>
<rect width="10" height="10" transform="matrix(-1 0 0 1 40 150)" fill="black"/>
<rect width="10" height="10" transform="matrix(-1 0 0 1 50 140)" fill="black"/>
<rect width="10" height="10" transform="matrix(-1 0 0 1 60 130)" fill="black"/>
<rect width="10" height="10" transform="matrix(-1 0 0 1 70 120)" fill="black"/>
<rect width="10" height="10" transform="matrix(-1 0 0 1 80 110)" fill="black"/>
<rect width="10" height="10" transform="matrix(-1 0 0 1 90 100)" fill="black"/>
<rect width="10" height="10" transform="matrix(-1 0 0 1 100 90)" fill="black"/>
<rect width="10" height="10" transform="matrix(-1 0 0 1 110 90)" fill="black"/>
<rect width="10" height="10" transform="matrix(-1 0 0 1 110 100)" fill="black"/>
<rect width="10" height="10" transform="matrix(-1 0 0 1 120 100)" fill="black"/>
<rect width="10" height="10" transform="matrix(-1 0 0 1 110 110)" fill="black"/>
<rect width="10" height="10" transform="matrix(-1 0 0 1 120 110)" fill="black"/>
<rect width="10" height="10" transform="matrix(-1 0 0 1 110 120)" fill="black"/>
<rect width="10" height="10" transform="matrix(-1 0 0 1 120 120)" fill="black"/>
<rect width="10" height="10" transform="matrix(-1 0 0 1 110 130)" fill="black"/>
<rect width="10" height="10" transform="matrix(-1 0 0 1 120 130)" fill="black"/>
<rect width="10" height="10" transform="matrix(-1 0 0 1 110 140)" fill="black"/>
<rect width="10" height="10" transform="matrix(-1 0 0 1 120 140)" fill="black"/>
<rect width="10" height="10" transform="matrix(-1 0 0 1 110 150)" fill="black"/>
<rect width="10" height="10" transform="matrix(-1 0 0 1 120 150)" fill="black"/>
<rect width="10" height="10" transform="matrix(-1 0 0 1 110 160)" fill="black"/>
<rect width="10" height="10" transform="matrix(-1 0 0 1 120 160)" fill="black"/>
<rect width="10" height="10" transform="matrix(-1 0 0 1 110 170)" fill="black"/>
<rect width="10" height="10" transform="matrix(-1 0 0 1 120 170)" fill="black"/>
<rect width="10" height="10" transform="matrix(-1 0 0 1 110 180)" fill="black"/>
<rect width="10" height="10" transform="matrix(-1 0 0 1 120 180)" fill="black"/>
<rect x="150" y="270" width="10" height="10" fill="black"/>
<rect x="140" y="270" width="10" height="10" fill="black"/>
</svg>
