<svg width="300" height="359" viewBox="0 0 300 359" fill="none" xmlns="http://www.w3.org/2000/svg">
<rect x="160" y="349" width="10" height="10" fill="black"/>
<rect x="170" y="349" width="10" height="10" fill="black"/>
<rect x="120" y="349" width="10" height="10" fill="black"/>
<rect x="130" y="349" width="10" height="10" fill="black"/>
<rect x="110" y="339" width="10" height="10" fill="black"/>
<rect x="180" y="339" width="10" height="10" fill="black"/>
<rect x="90" y="329" width="10" height="10" fill="black"/>
<rect x="100" y="339" width="10" height="10" fill="black"/>
<rect x="100" y="329" width="10" height="10" fill="black"/>
<rect x="100" y="319" width="10" height="10" fill="black"/>
<rect x="100" y="299" width="10" height="10" fill="black"/>
<rect x="100" y="309" width="10" height="10" fill="black"/>
<rect x="100" y="289" width="10" height="10" fill="black"/>
<rect x="100" y="279" width="10" height="10" fill="black"/>
<rect x="120" y="269" width="10" height="10" fill="black"/>
<rect x="200" y="329" width="10" height="10" fill="black"/>
<rect x="190" y="339" width="10" height="10" fill="black"/>
<rect x="190" y="329" width="10" height="10" fill="black"/>
<rect x="190" y="299" width="10" height="10" fill="black"/>
<rect x="190" y="319" width="10" height="10" fill="black"/>
<rect x="190" y="309" width="10" height="10" fill="black"/>
<rect x="190" y="289" width="10" height="10" fill="black"/>
<rect x="190" y="279" width="10" height="10" fill="black"/>
<rect x="170" y="269" width="10" height="10" fill="black"/>
<rect x="180" y="269" width="10" height="10" fill="black"/>
<rect x="190" y="269" width="10" height="10" fill="black"/>
<rect x="200" y="269" width="10" height="10" fill="black"/>
<rect x="210" y="269" width="10" height="10" fill="black"/>
<rect x="220" y="279" width="10" height="10" fill="black"/>
<rect x="230" y="279" width="10" height="10" fill="black"/>
<rect x="240" y="289" width="10" height="10" fill="black"/>
<rect x="250" y="289" width="10" height="10" fill="black"/>
<rect x="260" y="299" width="10" height="10" fill="black"/>
<rect x="270" y="299" width="10" height="10" fill="black"/>
<rect x="280" y="309" width="10" height="10" fill="black"/>
<rect x="290" y="309" width="10" height="10" fill="black"/>
<rect x="290" y="299" width="10" height="10" fill="black"/>
<rect x="290" y="289" width="10" height="10" fill="black"/>
<rect x="290" y="279" width="10" height="10" fill="black"/>
<rect x="290" y="269" width="10" height="10" fill="black"/>
<rect x="290" y="259" width="10" height="10" fill="black"/>
<rect x="280" y="249" width="10" height="10" fill="black"/>
<rect x="270" y="239" width="10" height="10" fill="black"/>
<rect x="260" y="229" width="10" height="10" fill="black"/>
<rect x="250" y="219" width="10" height="10" fill="black"/>
<rect x="240" y="209" width="10" height="10" fill="black"/>
<rect x="230" y="199" width="10" height="10" fill="black"/>
<rect x="220" y="189" width="10" height="10" fill="black"/>
<rect x="210" y="179" width="10" height="10" fill="black"/>
<rect x="200" y="169" width="10" height="10" fill="black"/>
<rect x="190" y="169" width="10" height="10" fill="black"/>
<rect x="190" y="159" width="10" height="10" fill="black"/>
<rect x="190" y="149" width="10" height="10" fill="black"/>
<rect x="190" y="139" width="10" height="10" fill="black"/>
<rect x="180" y="129" width="10" height="10" fill="black"/>
<rect x="170" y="109" width="10" height="10" fill="black"/>
<rect x="180" y="119" width="10" height="10" fill="black"/>
<rect x="170" y="99" width="10" height="10" fill="black"/>
<rect x="160" y="89" width="10" height="10" fill="black"/>
<rect width="10" height="10" transform="matrix(-1 0 0 1 110 159)" fill="black"/>
<rect width="10" height="10" transform="matrix(-1 0 0 1 110 149)" fill="black"/>
<rect width="10" height="10" transform="matrix(-1 0 0 1 110 139)" fill="black"/>
<rect width="10" height="10" transform="matrix(-1 0 0 1 120 129)" fill="black"/>
<rect width="10" height="10" transform="matrix(-1 0 0 1 130 109)" fill="black"/>
<rect width="10" height="10" transform="matrix(-1 0 0 1 120 119)" fill="black"/>
<rect width="10" height="10" transform="matrix(-1 0 0 1 130 99)" fill="black"/>
<rect width="10" height="10" transform="matrix(-1 0 0 1 140 89)" fill="black"/>
<rect x="150" y="79" width="10" height="10" fill="black"/>
<rect x="140" y="79" width="10" height="10" fill="black"/>
<rect x="190" y="179" width="10" height="10" fill="black"/>
<rect x="200" y="179" width="10" height="10" fill="#C7DCD0"/>
<rect x="140" y="99" width="10" height="10" fill="#C7DCD0"/>
<rect x="130" y="109" width="10" height="10" fill="#C7DCD0"/>
<rect x="120" y="129" width="10" height="10" fill="#C7DCD0"/>
<rect x="110" y="149" width="10" height="10" fill="#C7DCD0"/>
<rect x="120" y="149" width="10" height="10" fill="#484A77"/>
<rect x="130" y="149" width="10" height="10" fill="#484A77"/>
<rect x="160" y="149" width="10" height="10" fill="#4D9BE6"/>
<rect x="170" y="149" width="10" height="10" fill="#4D9BE6"/>
<rect x="140" y="149" width="10" height="10" fill="#4D65B4"/>
<rect x="140" y="159" width="10" height="10" fill="#4D65B4"/>
<rect x="150" y="149" width="10" height="10" fill="#4D65B4"/>
<rect x="140" y="129" width="10" height="10" fill="#4D65B4"/>
<rect x="150" y="159" width="10" height="10" fill="#4D65B4"/>
<rect x="130" y="129" width="10" height="10" fill="#484A77"/>
<rect x="160" y="129" width="10" height="10" fill="#4D9BE6"/>
<rect x="150" y="129" width="10" height="10" fill="#4D65B4"/>
<rect x="110" y="169" width="10" height="10" fill="#9BABB2"/>
<rect x="120" y="189" width="10" height="10" fill="#9BABB2"/>
<rect x="120" y="209" width="10" height="10" fill="#9BABB2"/>
<rect x="120" y="229" width="10" height="10" fill="#9BABB2"/>
<rect x="120" y="249" width="10" height="10" fill="#9BABB2"/>
<rect x="120" y="259" width="10" height="10" fill="#9BABB2"/>
<rect x="140" y="89" width="10" height="10" fill="#C7DCD0"/>
<rect x="130" y="99" width="10" height="10" fill="#C7DCD0"/>
<rect x="120" y="119" width="10" height="10" fill="#C7DCD0"/>
<rect x="120" y="179" width="10" height="10" fill="#9BABB2"/>
<rect x="90" y="179" width="10" height="10" fill="#9BABB2"/>
<rect x="120" y="199" width="10" height="10" fill="#9BABB2"/>
<rect x="110" y="159" width="10" height="10" fill="#9BABB2"/>
<rect x="110" y="139" width="10" height="10" fill="#C7DCD0"/>
<rect x="140" y="139" width="10" height="10" fill="#4D65B4"/>
<rect x="120" y="219" width="10" height="10" fill="#9BABB2"/>
<rect x="140" y="119" width="10" height="10" fill="#4D65B4"/>
<rect x="140" y="109" width="10" height="10" fill="#4D65B4"/>
<rect x="120" y="139" width="10" height="10" fill="#484A77"/>
<rect x="160" y="139" width="10" height="10" fill="#4D9BE6"/>
<rect x="130" y="139" width="10" height="10" fill="#484A77"/>
<rect x="170" y="139" width="10" height="10" fill="#4D9BE6"/>
<rect x="150" y="139" width="10" height="10" fill="#4D65B4"/>
<rect x="130" y="119" width="10" height="10" fill="#484A77"/>
<rect x="160" y="119" width="10" height="10" fill="#4D9BE6"/>
<rect x="150" y="119" width="10" height="10" fill="#4D65B4"/>
<rect x="150" y="109" width="10" height="10" fill="#4D65B4"/>
<rect x="120" y="239" width="10" height="10" fill="#9BABB2"/>
<rect x="180" y="169" width="10" height="10" fill="#C7DCD0"/>
<rect x="190" y="189" width="10" height="10" fill="black"/>
<rect x="180" y="179" width="10" height="10" fill="black"/>
<rect x="200" y="189" width="10" height="10" fill="#C7DCD0"/>
<rect x="170" y="189" width="10" height="10" fill="#C7DCD0"/>
<rect x="130" y="189" width="10" height="10" fill="#C7DCD0"/>
<rect x="130" y="179" width="10" height="10" fill="#C7DCD0"/>
<rect x="120" y="169" width="10" height="10" fill="#C7DCD0"/>
<rect x="130" y="169" width="10" height="10" fill="#C7DCD0"/>
<rect x="120" y="159" width="10" height="10" fill="#C7DCD0"/>
<rect x="130" y="159" width="10" height="10" fill="#C7DCD0"/>
<rect x="190" y="199" width="10" height="10" fill="black"/>
<rect x="90" y="189" width="10" height="10" fill="#9BABB2"/>
<rect x="80" y="189" width="10" height="10" fill="#C7DCD0"/>
<rect x="190" y="209" width="10" height="10" fill="black"/>
<rect x="170" y="199" width="10" height="10" fill="#C7DCD0"/>
<rect x="130" y="199" width="10" height="10" fill="#C7DCD0"/>
<rect x="200" y="199" width="10" height="10" fill="#C7DCD0"/>
<rect x="140" y="259" width="10" height="10" fill="#C7DCD0"/>
<rect x="140" y="199" width="10" height="10" fill="white"/>
<rect x="150" y="199" width="10" height="10" fill="white"/>
<rect x="150" y="229" width="10" height="10" fill="white"/>
<rect x="250" y="239" width="10" height="10" fill="white"/>
<rect x="240" y="229" width="10" height="10" fill="white"/>
<rect x="230" y="219" width="10" height="10" fill="white"/>
<rect x="220" y="209" width="10" height="10" fill="white"/>
<rect x="210" y="199" width="10" height="10" fill="white"/>
<rect x="160" y="199" width="10" height="10" fill="white"/>
<rect x="160" y="229" width="10" height="10" fill="white"/>
<rect x="180" y="189" width="10" height="10" fill="black"/>
<rect x="90" y="199" width="10" height="10" fill="#9BABB2"/>
<rect x="190" y="219" width="10" height="10" fill="black"/>
<rect x="80" y="199" width="10" height="10" fill="#C7DCD0"/>
<rect x="170" y="209" width="10" height="10" fill="#C7DCD0"/>
<rect x="130" y="209" width="10" height="10" fill="#C7DCD0"/>
<rect x="200" y="209" width="10" height="10" fill="#C7DCD0"/>
<rect x="150" y="209" width="10" height="10" fill="white"/>
<rect x="140" y="269" width="10" height="10" fill="#C7DCD0"/>
<rect x="190" y="229" width="10" height="10" fill="black"/>
<rect x="160" y="209" width="10" height="10" fill="white"/>
<rect x="150" y="239" width="10" height="10" fill="white"/>
<rect x="140" y="209" width="10" height="10" fill="white"/>
<rect x="250" y="249" width="10" height="10" fill="white"/>
<rect x="260" y="249" width="10" height="10" fill="white"/>
<rect x="270" y="259" width="10" height="10" fill="white"/>
<rect x="180" y="199" width="10" height="10" fill="black"/>
<rect x="90" y="209" width="10" height="10" fill="#9BABB2"/>
<rect x="170" y="219" width="10" height="10" fill="#C7DCD0"/>
<rect x="190" y="239" width="10" height="10" fill="black"/>
<rect x="130" y="219" width="10" height="10" fill="#C7DCD0"/>
<rect x="130" y="269" width="10" height="10" fill="#C7DCD0"/>
<rect x="120" y="329" width="10" height="10" fill="#C7DCD0"/>
<rect x="130" y="329" width="10" height="10" fill="#C7DCD0"/>
<rect x="130" y="339" width="10" height="10" fill="#C7DCD0"/>
<rect x="140" y="339" width="10" height="10" fill="#E9F6EE"/>
<rect x="150" y="339" width="10" height="10" fill="#E9F6EE"/>
<rect x="170" y="319" width="10" height="10" fill="#E9F6EE"/>
<rect x="150" y="299" width="10" height="10" fill="#E9F6EE"/>
<rect x="150" y="319" width="10" height="10" fill="#E9F6EE"/>
<rect x="170" y="299" width="10" height="10" fill="#E9F6EE"/>
<rect x="150" y="279" width="10" height="10" fill="#E9F6EE"/>
<rect x="160" y="279" width="10" height="10" fill="#E9F6EE"/>
<rect x="160" y="249" width="10" height="10" fill="#E9F6EE"/>
<rect x="150" y="329" width="10" height="10" fill="#E9F6EE"/>
<rect x="170" y="309" width="10" height="10" fill="#E9F6EE"/>
<rect x="160" y="289" width="10" height="10" fill="#E9F6EE"/>
<rect x="150" y="289" width="10" height="10" fill="#E9F6EE"/>
<rect x="160" y="259" width="10" height="10" fill="#E9F6EE"/>
<rect x="160" y="339" width="10" height="10" fill="#E9F6EE"/>
<rect x="150" y="309" width="10" height="10" fill="#E9F6EE"/>
<rect x="170" y="289" width="10" height="10" fill="#E9F6EE"/>
<rect x="160" y="269" width="10" height="10" fill="#E9F6EE"/>
<rect x="150" y="269" width="10" height="10" fill="#E9F6EE"/>
<rect x="150" y="259" width="10" height="10" fill="#E9F6EE"/>
<rect x="170" y="279" width="10" height="10" fill="#E9F6EE"/>
<rect x="270" y="249" width="10" height="10" fill="#E9F6EE"/>
<rect x="220" y="259" width="10" height="10" fill="#E9F6EE"/>
<rect x="230" y="259" width="10" height="10" fill="#E9F6EE"/>
<rect x="230" y="249" width="10" height="10" fill="#E9F6EE"/>
<rect x="230" y="239" width="10" height="10" fill="#E9F6EE"/>
<rect x="230" y="229" width="10" height="10" fill="#E9F6EE"/>
<rect x="240" y="269" width="10" height="10" fill="#E9F6EE"/>
<rect x="250" y="269" width="10" height="10" fill="#E9F6EE"/>
<rect x="260" y="279" width="10" height="10" fill="#E9F6EE"/>
<rect x="240" y="259" width="10" height="10" fill="#E9F6EE"/>
<rect x="210" y="249" width="10" height="10" fill="#E9F6EE"/>
<rect x="260" y="239" width="10" height="10" fill="#E9F6EE"/>
<rect x="220" y="249" width="10" height="10" fill="#E9F6EE"/>
<rect x="210" y="239" width="10" height="10" fill="#E9F6EE"/>
<rect x="210" y="219" width="10" height="10" fill="#E9F6EE"/>
<rect x="210" y="229" width="10" height="10" fill="#E9F6EE"/>
<rect x="210" y="209" width="10" height="10" fill="#E9F6EE"/>
<rect x="160" y="239" width="10" height="10" fill="#E9F6EE"/>
<rect x="160" y="329" width="10" height="10" fill="#E9F6EE"/>
<rect x="170" y="329" width="10" height="10" fill="#E9F6EE"/>
<rect x="140" y="229" width="10" height="10" fill="#C7DCD0"/>
<rect x="120" y="309" width="10" height="10" fill="#C7DCD0"/>
<rect x="150" y="219" width="10" height="10" fill="white"/>
<rect x="150" y="169" width="10" height="10" fill="white"/>
<rect x="250" y="229" width="10" height="10" fill="white"/>
<rect x="240" y="219" width="10" height="10" fill="white"/>
<rect x="200" y="219" width="10" height="10" fill="#C7DCD0"/>
<rect x="220" y="199" width="10" height="10" fill="white"/>
<rect x="230" y="209" width="10" height="10" fill="white"/>
<rect x="210" y="189" width="10" height="10" fill="white"/>
<rect x="140" y="279" width="10" height="10" fill="#C7DCD0"/>
<rect x="140" y="169" width="10" height="10" fill="white"/>
<rect x="160" y="169" width="10" height="10" fill="white"/>
<rect x="160" y="159" width="10" height="10" fill="white"/>
<rect x="170" y="169" width="10" height="10" fill="white"/>
<rect x="170" y="159" width="10" height="10" fill="white"/>
<rect x="180" y="149" width="10" height="10" fill="white"/>
<rect x="180" y="139" width="10" height="10" fill="white"/>
<rect x="170" y="129" width="10" height="10" fill="white"/>
<rect x="170" y="119" width="10" height="10" fill="white"/>
<rect x="160" y="109" width="10" height="10" fill="white"/>
<rect x="160" y="99" width="10" height="10" fill="white"/>
<rect x="150" y="99" width="10" height="10" fill="white"/>
<rect x="150" y="89" width="10" height="10" fill="white"/>
<rect x="80" y="209" width="10" height="10" fill="#C7DCD0"/>
<rect x="150" y="249" width="10" height="10" fill="white"/>
<rect x="160" y="219" width="10" height="10" fill="white"/>
<rect x="130" y="229" width="10" height="10" fill="#C7DCD0"/>
<rect x="250" y="259" width="10" height="10" fill="white"/>
<rect x="260" y="259" width="10" height="10" fill="white"/>
<rect x="260" y="269" width="10" height="10" fill="white"/>
<rect x="140" y="219" width="10" height="10" fill="white"/>
<rect x="270" y="269" width="10" height="10" fill="white"/>
<rect x="270" y="279" width="10" height="10" fill="white"/>
<rect x="280" y="279" width="10" height="10" fill="white"/>
<rect x="280" y="289" width="10" height="10" fill="white"/>
<rect x="140" y="289" width="10" height="10" fill="#C7DCD0"/>
<rect x="140" y="239" width="10" height="10" fill="#C7DCD0"/>
<rect x="170" y="229" width="10" height="10" fill="#C7DCD0"/>
<rect x="150" y="179" width="10" height="10" fill="white"/>
<rect x="200" y="229" width="10" height="10" fill="#C7DCD0"/>
<rect x="190" y="249" width="10" height="10" fill="black"/>
<rect x="140" y="249" width="10" height="10" fill="#C7DCD0"/>
<rect x="90" y="219" width="10" height="10" fill="#9BABB2"/>
<rect x="160" y="179" width="10" height="10" fill="white"/>
<rect x="170" y="179" width="10" height="10" fill="white"/>
<rect x="180" y="159" width="10" height="10" fill="white"/>
<rect x="150" y="189" width="10" height="10" fill="white"/>
<rect x="140" y="179" width="10" height="10" fill="white"/>
<rect x="130" y="239" width="10" height="10" fill="#C7DCD0"/>
<rect x="180" y="209" width="10" height="10" fill="black"/>
<rect x="90" y="229" width="10" height="10" fill="#9BABB2"/>
<rect x="140" y="189" width="10" height="10" fill="white"/>
<rect x="160" y="189" width="10" height="10" fill="white"/>
<rect x="170" y="239" width="10" height="10" fill="#C7DCD0"/>
<rect x="140" y="299" width="10" height="10" fill="#C7DCD0"/>
<rect x="140" y="319" width="10" height="10" fill="#C7DCD0"/>
<rect x="190" y="259" width="10" height="10" fill="black"/>
<rect x="130" y="249" width="10" height="10" fill="#C7DCD0"/>
<rect x="140" y="309" width="10" height="10" fill="#C7DCD0"/>
<rect x="80" y="219" width="10" height="10" fill="#C7DCD0"/>
<rect x="140" y="329" width="10" height="10" fill="#C7DCD0"/>
<rect x="180" y="219" width="10" height="10" fill="black"/>
<rect x="200" y="239" width="10" height="10" fill="#C7DCD0"/>
<rect x="170" y="249" width="10" height="10" fill="#C7DCD0"/>
<rect x="80" y="229" width="10" height="10" fill="#C7DCD0"/>
<rect x="110" y="279" width="10" height="10" fill="#9BABB2"/>
<rect x="120" y="289" width="10" height="10" fill="#C7DCD0"/>
<rect x="130" y="279" width="10" height="10" fill="#C7DCD0"/>
<rect x="120" y="279" width="10" height="10" fill="#9BABB2"/>
<rect x="130" y="259" width="10" height="10" fill="#C7DCD0"/>
<rect x="120" y="319" width="10" height="10" fill="#C7DCD0"/>
<rect x="120" y="299" width="10" height="10" fill="#C7DCD0"/>
<rect x="180" y="279" width="10" height="10" fill="#C7DCD0"/>
<rect x="220" y="229" width="10" height="10" fill="#4D65B4"/>
<rect x="70" y="229" width="10" height="10" fill="#484A77"/>
<rect x="110" y="289" width="10" height="10" fill="#9BABB2"/>
<rect x="50" y="239" width="10" height="10" fill="#484A77"/>
<rect x="200" y="249" width="10" height="10" fill="#C7DCD0"/>
<rect x="180" y="289" width="10" height="10" fill="#C7DCD0"/>
<rect x="220" y="219" width="10" height="10" fill="#4D65B4"/>
<rect x="240" y="239" width="10" height="10" fill="#4D65B4"/>
<rect x="130" y="299" width="10" height="10" fill="#4D65B4"/>
<rect x="130" y="289" width="10" height="10" fill="#4D65B4"/>
<rect x="160" y="299" width="10" height="10" fill="#4D65B4"/>
<rect x="170" y="259" width="10" height="10" fill="#C7DCD0"/>
<rect x="220" y="239" width="10" height="10" fill="#4D65B4"/>
<rect x="90" y="239" width="10" height="10" fill="#9BABB2"/>
<rect x="110" y="299" width="10" height="10" fill="#9BABB2"/>
<rect x="70" y="219" width="10" height="10" fill="#484A77"/>
<rect x="70" y="239" width="10" height="10" fill="#484A77"/>
<rect x="110" y="309" width="10" height="10" fill="#9BABB2"/>
<rect x="110" y="329" width="10" height="10" fill="#9BABB2"/>
<rect x="120" y="339" width="10" height="10" fill="#9BABB2"/>
<rect x="180" y="299" width="10" height="10" fill="#C7DCD0"/>
<rect x="90" y="249" width="10" height="10" fill="#9BABB2"/>
<rect x="110" y="319" width="10" height="10" fill="#9BABB2"/>
<rect x="130" y="309" width="10" height="10" fill="#4D65B4"/>
<rect x="180" y="229" width="10" height="10" fill="black"/>
<rect x="160" y="309" width="10" height="10" fill="#4D65B4"/>
<rect x="180" y="329" width="10" height="10" fill="#C7DCD0"/>
<rect x="180" y="309" width="10" height="10" fill="#C7DCD0"/>
<rect x="50" y="249" width="10" height="10" fill="#484A77"/>
<rect x="130" y="319" width="10" height="10" fill="#4D65B4"/>
<rect x="180" y="319" width="10" height="10" fill="#C7DCD0"/>
<rect x="170" y="339" width="10" height="10" fill="#C7DCD0"/>
<rect x="160" y="319" width="10" height="10" fill="#4D65B4"/>
<rect x="80" y="239" width="10" height="10" fill="#C7DCD0"/>
<rect x="240" y="249" width="10" height="10" fill="#4D65B4"/>
<rect x="280" y="259" width="10" height="10" fill="#C7DCD0"/>
<rect x="80" y="249" width="10" height="10" fill="#C7DCD0"/>
<rect x="60" y="249" width="10" height="10" fill="#C7DCD0"/>
<rect x="60" y="229" width="10" height="10" fill="#C7DCD0"/>
<rect x="60" y="209" width="10" height="10" fill="#C7DCD0"/>
<rect x="70" y="199" width="10" height="10" fill="#C7DCD0"/>
<rect x="50" y="219" width="10" height="10" fill="#C7DCD0"/>
<rect x="50" y="259" width="10" height="10" fill="#C7DCD0"/>
<rect x="60" y="259" width="10" height="10" fill="#C7DCD0"/>
<rect x="20" y="259" width="10" height="10" fill="#C7DCD0"/>
<rect x="20" y="269" width="10" height="10" fill="#C7DCD0"/>
<rect x="20" y="249" width="10" height="10" fill="#C7DCD0"/>
<rect x="10" y="279" width="10" height="10" fill="#C7DCD0"/>
<rect x="10" y="289" width="10" height="10" fill="#C7DCD0"/>
<rect x="30" y="259" width="10" height="10" fill="#C7DCD0"/>
<rect x="30" y="269" width="10" height="10" fill="#C7DCD0"/>
<rect x="20" y="279" width="10" height="10" fill="#C7DCD0"/>
<rect x="30" y="239" width="10" height="10" fill="#C7DCD0"/>
<rect x="30" y="249" width="10" height="10" fill="#C7DCD0"/>
<rect x="30" y="279" width="10" height="10" fill="#C7DCD0"/>
<rect x="40" y="229" width="10" height="10" fill="#C7DCD0"/>
<rect x="40" y="239" width="10" height="10" fill="#C7DCD0"/>
<rect x="40" y="249" width="10" height="10" fill="#C7DCD0"/>
<rect x="60" y="239" width="10" height="10" fill="#C7DCD0"/>
<rect x="70" y="249" width="10" height="10" fill="#C7DCD0"/>
<rect x="70" y="209" width="10" height="10" fill="#C7DCD0"/>
<rect x="50" y="229" width="10" height="10" fill="#C7DCD0"/>
<rect x="70" y="259" width="10" height="10" fill="#C7DCD0"/>
<rect x="60" y="219" width="10" height="10" fill="#C7DCD0"/>
<rect x="50" y="269" width="10" height="10" fill="#C7DCD0"/>
<rect x="40" y="259" width="10" height="10" fill="#C7DCD0"/>
<rect x="40" y="269" width="10" height="10" fill="#C7DCD0"/>
<rect x="180" y="239" width="10" height="10" fill="black"/>
<rect x="280" y="269" width="10" height="10" fill="#C7DCD0"/>
<rect x="180" y="249" width="10" height="10" fill="black"/>
<rect x="200" y="259" width="10" height="10" fill="#C7DCD0"/>
<rect x="90" y="259" width="10" height="10" fill="#9BABB2"/>
<rect x="80" y="259" width="10" height="10" fill="#9BABB2"/>
<rect x="70" y="269" width="10" height="10" fill="#9BABB2"/>
<rect x="60" y="269" width="10" height="10" fill="#9BABB2"/>
<rect x="50" y="279" width="10" height="10" fill="#9BABB2"/>
<rect x="40" y="279" width="10" height="10" fill="#9BABB2"/>
<rect x="30" y="289" width="10" height="10" fill="#9BABB2"/>
<rect x="20" y="289" width="10" height="10" fill="#9BABB2"/>
<rect x="10" y="299" width="10" height="10" fill="#9BABB2"/>
<rect x="10" y="259" width="10" height="10" fill="#9BABB2"/>
<rect x="10" y="269" width="10" height="10" fill="#9BABB2"/>
<rect x="210" y="259" width="10" height="10" fill="#C7DCD0"/>
<rect x="220" y="269" width="10" height="10" fill="#C7DCD0"/>
<rect x="230" y="269" width="10" height="10" fill="#C7DCD0"/>
<rect x="240" y="279" width="10" height="10" fill="#C7DCD0"/>
<rect x="250" y="279" width="10" height="10" fill="#C7DCD0"/>
<rect x="260" y="289" width="10" height="10" fill="#C7DCD0"/>
<rect x="270" y="289" width="10" height="10" fill="#C7DCD0"/>
<rect x="280" y="299" width="10" height="10" fill="#C7DCD0"/>
<rect x="180" y="259" width="10" height="10" fill="black"/>
<rect width="10" height="10" transform="matrix(-1 0 0 1 120 269)" fill="black"/>
<rect width="10" height="10" transform="matrix(-1 0 0 1 110 269)" fill="black"/>
<rect width="10" height="10" transform="matrix(-1 0 0 1 100 269)" fill="black"/>
<rect width="10" height="10" transform="matrix(-1 0 0 1 90 269)" fill="black"/>
<rect width="10" height="10" transform="matrix(-1 0 0 1 80 279)" fill="black"/>
<rect width="10" height="10" transform="matrix(-1 0 0 1 70 279)" fill="black"/>
<rect width="10" height="10" transform="matrix(-1 0 0 1 60 289)" fill="black"/>
<rect width="10" height="10" transform="matrix(-1 0 0 1 50 289)" fill="black"/>
<rect width="10" height="10" transform="matrix(-1 0 0 1 40 299)" fill="black"/>
<rect width="10" height="10" transform="matrix(-1 0 0 1 30 299)" fill="black"/>
<rect width="10" height="10" transform="matrix(-1 0 0 1 20 309)" fill="black"/>
<rect width="10" height="10" transform="matrix(-1 0 0 1 10 309)" fill="black"/>
<rect width="10" height="10" transform="matrix(-1 0 0 1 10 299)" fill="black"/>
<rect width="10" height="10" transform="matrix(-1 0 0 1 10 289)" fill="black"/>
<rect width="10" height="10" transform="matrix(-1 0 0 1 10 279)" fill="black"/>
<rect width="10" height="10" transform="matrix(-1 0 0 1 10 269)" fill="black"/>
<rect width="10" height="10" transform="matrix(-1 0 0 1 10 259)" fill="black"/>
<rect width="10" height="10" transform="matrix(-1 0 0 1 20 249)" fill="black"/>
<rect width="10" height="10" transform="matrix(-1 0 0 1 30 239)" fill="black"/>
<rect width="10" height="10" transform="matrix(-1 0 0 1 40 229)" fill="black"/>
<rect width="10" height="10" transform="matrix(-1 0 0 1 50 219)" fill="black"/>
<rect width="10" height="10" transform="matrix(-1 0 0 1 60 209)" fill="black"/>
<rect width="10" height="10" transform="matrix(-1 0 0 1 70 199)" fill="black"/>
<rect width="10" height="10" transform="matrix(-1 0 0 1 80 189)" fill="black"/>
<rect width="10" height="10" transform="matrix(-1 0 0 1 90 179)" fill="black"/>
<rect width="10" height="10" transform="matrix(-1 0 0 1 100 169)" fill="black"/>
<rect width="10" height="10" transform="matrix(-1 0 0 1 110 169)" fill="black"/>
<rect width="10" height="10" transform="matrix(-1 0 0 1 110 179)" fill="black"/>
<rect width="10" height="10" transform="matrix(-1 0 0 1 120 179)" fill="black"/>
<rect width="10" height="10" transform="matrix(-1 0 0 1 110 189)" fill="black"/>
<rect width="10" height="10" transform="matrix(-1 0 0 1 120 189)" fill="black"/>
<rect width="10" height="10" transform="matrix(-1 0 0 1 110 199)" fill="black"/>
<rect width="10" height="10" transform="matrix(-1 0 0 1 120 199)" fill="black"/>
<rect width="10" height="10" transform="matrix(-1 0 0 1 110 209)" fill="black"/>
<rect width="10" height="10" transform="matrix(-1 0 0 1 120 209)" fill="black"/>
<rect width="10" height="10" transform="matrix(-1 0 0 1 110 219)" fill="black"/>
<rect width="10" height="10" transform="matrix(-1 0 0 1 120 219)" fill="black"/>
<rect width="10" height="10" transform="matrix(-1 0 0 1 110 229)" fill="black"/>
<rect width="10" height="10" transform="matrix(-1 0 0 1 120 229)" fill="black"/>
<rect width="10" height="10" transform="matrix(-1 0 0 1 110 239)" fill="black"/>
<rect width="10" height="10" transform="matrix(-1 0 0 1 120 239)" fill="black"/>
<rect width="10" height="10" transform="matrix(-1 0 0 1 110 249)" fill="black"/>
<rect width="10" height="10" transform="matrix(-1 0 0 1 120 249)" fill="black"/>
<rect width="10" height="10" transform="matrix(-1 0 0 1 110 259)" fill="black"/>
<rect width="10" height="10" transform="matrix(-1 0 0 1 120 259)" fill="black"/>
<rect x="150" y="349" width="10" height="10" fill="black"/>
<rect x="140" y="349" width="10" height="10" fill="black"/>
<rect x="140" width="10" height="10" fill="#48FC34"/>
<rect x="140" y="10" width="10" height="10" fill="#57DE48" fill-opacity="0.75"/>
<rect x="100" y="10" width="10" height="10" fill="#48FC34"/>
<rect x="140" y="20" width="10" height="10" fill="#57DE48" fill-opacity="0.75"/>
<rect x="100" y="20" width="10" height="10" fill="#A6FF9B" fill-opacity="0.75"/>
<rect x="90" y="20" width="10" height="10" fill="#48FC34"/>
<rect x="140" y="30" width="10" height="10" fill="#57DE48" fill-opacity="0.75"/>
<rect x="140" y="40" width="10" height="10" fill="#57DE48" fill-opacity="0.75"/>
<rect x="100" y="30" width="10" height="10" fill="#57DE48" fill-opacity="0.75"/>
<rect x="90" y="30" width="10" height="10" fill="#A6FF9B" fill-opacity="0.75"/>
<rect x="80" y="30" width="10" height="10" fill="#48FC34"/>
<rect x="70" y="30" width="10" height="10" fill="#48FC34"/>
<rect x="100" y="40" width="10" height="10" fill="#57DE48" fill-opacity="0.75"/>
<rect x="90" y="40" width="10" height="10" fill="#57DE48" fill-opacity="0.75"/>
<rect x="80" y="40" width="10" height="10" fill="#57DE48" fill-opacity="0.75"/>
<rect x="70" y="40" width="10" height="10" fill="#A6FF9B" fill-opacity="0.75"/>
<rect x="90" y="50" width="10" height="10" fill="#57DE48" fill-opacity="0.75"/>
<rect x="80" y="50" width="10" height="10" fill="#A6FF9B" fill-opacity="0.75"/>
<rect x="70" y="50" width="10" height="10" fill="#57DE48" fill-opacity="0.75"/>
<rect x="60" y="50" width="10" height="10" fill="#A6FF9B" fill-opacity="0.75"/>
<rect x="60" y="40" width="10" height="10" fill="#48FC34"/>
<rect x="50" y="50" width="10" height="10" fill="#48FC34"/>
<rect x="120" width="10" height="10" fill="#48FC34"/>
<rect x="110" y="10" width="10" height="10" fill="#48FC34"/>
<rect x="120" y="10" width="10" height="10" fill="#A6FF9B" fill-opacity="0.75"/>
<rect x="130" y="10" width="10" height="10" fill="#57DE48" fill-opacity="0.75"/>
<rect x="110" y="20" width="10" height="10" fill="#57DE48" fill-opacity="0.75"/>
<rect x="120" y="20" width="10" height="10" fill="#57DE48" fill-opacity="0.75"/>
<rect x="130" y="20" width="10" height="10" fill="#57DE48" fill-opacity="0.75"/>
<rect x="110" y="30" width="10" height="10" fill="#A6FF9B" fill-opacity="0.75"/>
<rect x="120" y="30" width="10" height="10" fill="#57DE48" fill-opacity="0.75"/>
<rect x="130" y="30" width="10" height="10" fill="#57DE48" fill-opacity="0.75"/>
<rect x="110" y="40" width="10" height="10" fill="#A6FF9B" fill-opacity="0.75"/>
<rect x="120" y="40" width="10" height="10" fill="#57DE48" fill-opacity="0.75"/>
<rect x="130" y="40" width="10" height="10" fill="#57DE48" fill-opacity="0.75"/>
<rect x="130" width="10" height="10" fill="#48FC34"/>
<rect x="100" y="50" width="10" height="10" fill="#A6FF9B" fill-opacity="0.75"/>
<rect x="110" y="50" width="10" height="10" fill="#57DE48" fill-opacity="0.75"/>
<rect x="120" y="50" width="10" height="10" fill="#A6FF9B" fill-opacity="0.75"/>
<rect x="30" y="90" width="10" height="10" fill="#57DE48" fill-opacity="0.75"/>
<rect x="90" y="60" width="10" height="10" fill="#57DE48" fill-opacity="0.75"/>
<rect x="90" y="70" width="10" height="10" fill="#57DE48" fill-opacity="0.75"/>
<rect x="30" y="120" width="10" height="10" fill="#57DE48" fill-opacity="0.75"/>
<rect x="30" y="130" width="10" height="10" fill="#57DE48" fill-opacity="0.75"/>
<rect x="80" y="80" width="10" height="10" fill="#A6FF9B" fill-opacity="0.75"/>
<rect x="80" y="90" width="10" height="10" fill="#A6FF9B" fill-opacity="0.75"/>
<rect x="80" y="100" width="10" height="10" fill="#A6FF9B" fill-opacity="0.75"/>
<rect x="30" y="110" width="10" height="10" fill="#57DE48" fill-opacity="0.75"/>
<rect x="30" y="100" width="10" height="10" fill="#57DE48" fill-opacity="0.75"/>
<rect x="80" y="70" width="10" height="10" fill="#A6FF9B" fill-opacity="0.75"/>
<rect x="70" y="80" width="10" height="10" fill="#57DE48" fill-opacity="0.75"/>
<rect x="70" y="90" width="10" height="10" fill="#57DE48" fill-opacity="0.75"/>
<rect x="80" y="60" width="10" height="10" fill="#A6FF9B" fill-opacity="0.75"/>
<rect x="70" y="100" width="10" height="10" fill="#57DE48" fill-opacity="0.75"/>
<rect x="70" y="110" width="10" height="10" fill="#57DE48" fill-opacity="0.75"/>
<rect x="70" y="120" width="10" height="10" fill="#57DE48" fill-opacity="0.75"/>
<rect x="70" y="130" width="10" height="10" fill="#57DE48" fill-opacity="0.75"/>
<rect x="70" y="70" width="10" height="10" fill="#57DE48" fill-opacity="0.75"/>
<rect x="60" y="80" width="10" height="10" fill="#A6FF9B" fill-opacity="0.75"/>
<rect x="70" y="60" width="10" height="10" fill="#57DE48" fill-opacity="0.75"/>
<rect x="60" y="90" width="10" height="10" fill="#A6FF9B" fill-opacity="0.75"/>
<rect x="60" y="70" width="10" height="10" fill="#A6FF9B" fill-opacity="0.75"/>
<rect x="50" y="80" width="10" height="10" fill="#57DE48" fill-opacity="0.75"/>
<rect x="50" y="90" width="10" height="10" fill="#57DE48" fill-opacity="0.75"/>
<rect x="60" y="100" width="10" height="10" fill="#A6FF9B" fill-opacity="0.75"/>
<rect x="60" y="120" width="10" height="10" fill="#A6FF9B" fill-opacity="0.75"/>
<rect x="60" y="130" width="10" height="10" fill="#A6FF9B" fill-opacity="0.75"/>
<rect x="60" y="110" width="10" height="10" fill="#A6FF9B" fill-opacity="0.75"/>
<rect x="60" y="140" width="10" height="10" fill="#A6FF9B" fill-opacity="0.75"/>
<rect x="50" y="70" width="10" height="10" fill="#57DE48" fill-opacity="0.75"/>
<rect x="50" y="100" width="10" height="10" fill="#57DE48" fill-opacity="0.75"/>
<rect x="60" y="60" width="10" height="10" fill="#A6FF9B" fill-opacity="0.75"/>
<rect x="50" y="110" width="10" height="10" fill="#57DE48" fill-opacity="0.75"/>
<rect x="50" y="120" width="10" height="10" fill="#57DE48" fill-opacity="0.75"/>
<rect x="50" y="130" width="10" height="10" fill="#57DE48" fill-opacity="0.75"/>
<rect x="50" y="60" width="10" height="10" fill="#57DE48" fill-opacity="0.75"/>
<rect x="40" y="80" width="10" height="10" fill="#A6FF9B" fill-opacity="0.75"/>
<rect x="10" y="120" width="10" height="10" fill="#57DE48" fill-opacity="0.75"/>
<rect x="10" y="130" width="10" height="10" fill="#57DE48" fill-opacity="0.75"/>
<rect x="10" y="140" width="10" height="10" fill="#57DE48" fill-opacity="0.75"/>
<rect x="10" y="150" width="10" height="10" fill="#57DE48" fill-opacity="0.75"/>
<rect x="20" y="110" width="10" height="10" fill="#A6FF9B" fill-opacity="0.75"/>
<rect x="20" y="120" width="10" height="10" fill="#A6FF9B" fill-opacity="0.75"/>
<rect x="20" y="130" width="10" height="10" fill="#A6FF9B" fill-opacity="0.75"/>
<rect x="20" y="140" width="10" height="10" fill="#A6FF9B" fill-opacity="0.75"/>
<rect x="20" y="150" width="10" height="10" fill="#A6FF9B" fill-opacity="0.75"/>
<rect x="20" y="160" width="10" height="10" fill="#A6FF9B" fill-opacity="0.75"/>
<rect x="20" y="170" width="10" height="10" fill="#A6FF9B" fill-opacity="0.75"/>
<rect x="40" y="90" width="10" height="10" fill="#A6FF9B" fill-opacity="0.75"/>
<rect x="40" y="100" width="10" height="10" fill="#A6FF9B" fill-opacity="0.75"/>
<rect x="40" y="110" width="10" height="10" fill="#A6FF9B" fill-opacity="0.75"/>
<rect x="40" y="120" width="10" height="10" fill="#A6FF9B" fill-opacity="0.75"/>
<rect x="40" y="130" width="10" height="10" fill="#A6FF9B" fill-opacity="0.75"/>
<rect x="40" y="140" width="10" height="10" fill="#A6FF9B" fill-opacity="0.75"/>
<rect x="40" y="60" width="10" height="10" fill="#48FC34"/>
<rect x="40" y="70" width="10" height="10" fill="#48FC34"/>
<rect x="30" y="80" width="10" height="10" fill="#48FC34"/>
<rect x="100" y="70" width="10" height="10" fill="#A6FF9B" fill-opacity="0.75"/>
<rect x="90" y="80" width="10" height="10" fill="#57DE48" fill-opacity="0.75"/>
<rect x="20" y="90" width="10" height="10" fill="#48FC34"/>
<rect x="20" y="100" width="10" height="10" fill="#48FC34"/>
<rect x="10" y="110" width="10" height="10" fill="#48FC34"/>
<rect x="100" y="60" width="10" height="10" fill="#57DE48" fill-opacity="0.75"/>
<rect x="30" y="150" width="10" height="10" fill="#57DE48" fill-opacity="0.75"/>
<rect x="30" y="140" width="10" height="10" fill="#57DE48" fill-opacity="0.75"/>
<rect x="30" y="160" width="10" height="10" fill="#57DE48" fill-opacity="0.75"/>
<rect x="110" y="60" width="10" height="10" fill="#A6FF9B" fill-opacity="0.75"/>
<rect width="10" height="10" transform="matrix(-1 0 0 1 160 0)" fill="#48FC34"/>
<rect width="10" height="10" transform="matrix(-1 0 0 1 160 10)" fill="#57DE48" fill-opacity="0.75"/>
<rect width="10" height="10" transform="matrix(-1 0 0 1 200 10)" fill="#48FC34"/>
<rect width="10" height="10" transform="matrix(-1 0 0 1 160 20)" fill="#57DE48" fill-opacity="0.75"/>
<rect width="10" height="10" transform="matrix(-1 0 0 1 200 20)" fill="#A6FF9B" fill-opacity="0.75"/>
<rect width="10" height="10" transform="matrix(-1 0 0 1 210 20)" fill="#48FC34"/>
<rect width="10" height="10" transform="matrix(-1 0 0 1 160 30)" fill="#57DE48" fill-opacity="0.75"/>
<rect width="10" height="10" transform="matrix(-1 0 0 1 160 40)" fill="#57DE48" fill-opacity="0.75"/>
<rect width="10" height="10" transform="matrix(-1 0 0 1 200 30)" fill="#57DE48" fill-opacity="0.75"/>
<rect width="10" height="10" transform="matrix(-1 0 0 1 210 30)" fill="#A6FF9B" fill-opacity="0.75"/>
<rect width="10" height="10" transform="matrix(-1 0 0 1 220 30)" fill="#48FC34"/>
<rect width="10" height="10" transform="matrix(-1 0 0 1 230 30)" fill="#48FC34"/>
<rect width="10" height="10" transform="matrix(-1 0 0 1 200 40)" fill="#57DE48" fill-opacity="0.75"/>
<rect width="10" height="10" transform="matrix(-1 0 0 1 210 40)" fill="#57DE48" fill-opacity="0.75"/>
<rect width="10" height="10" transform="matrix(-1 0 0 1 220 40)" fill="#57DE48" fill-opacity="0.75"/>
<rect width="10" height="10" transform="matrix(-1 0 0 1 230 40)" fill="#A6FF9B" fill-opacity="0.75"/>
<rect width="10" height="10" transform="matrix(-1 0 0 1 210 50)" fill="#57DE48" fill-opacity="0.75"/>
<rect width="10" height="10" transform="matrix(-1 0 0 1 220 50)" fill="#A6FF9B" fill-opacity="0.75"/>
<rect width="10" height="10" transform="matrix(-1 0 0 1 230 50)" fill="#57DE48" fill-opacity="0.75"/>
<rect width="10" height="10" transform="matrix(-1 0 0 1 240 50)" fill="#A6FF9B" fill-opacity="0.75"/>
<rect width="10" height="10" transform="matrix(-1 0 0 1 240 40)" fill="#48FC34"/>
<rect width="10" height="10" transform="matrix(-1 0 0 1 250 50)" fill="#48FC34"/>
<rect width="10" height="10" transform="matrix(-1 0 0 1 180 0)" fill="#48FC34"/>
<rect width="10" height="10" transform="matrix(-1 0 0 1 190 10)" fill="#48FC34"/>
<rect width="10" height="10" transform="matrix(-1 0 0 1 180 10)" fill="#A6FF9B" fill-opacity="0.75"/>
<rect width="10" height="10" transform="matrix(-1 0 0 1 170 10)" fill="#57DE48" fill-opacity="0.75"/>
<rect width="10" height="10" transform="matrix(-1 0 0 1 190 20)" fill="#57DE48" fill-opacity="0.75"/>
<rect width="10" height="10" transform="matrix(-1 0 0 1 180 20)" fill="#57DE48" fill-opacity="0.75"/>
<rect width="10" height="10" transform="matrix(-1 0 0 1 170 20)" fill="#57DE48" fill-opacity="0.75"/>
<rect width="10" height="10" transform="matrix(-1 0 0 1 190 30)" fill="#A6FF9B" fill-opacity="0.75"/>
<rect width="10" height="10" transform="matrix(-1 0 0 1 180 30)" fill="#57DE48" fill-opacity="0.75"/>
<rect width="10" height="10" transform="matrix(-1 0 0 1 170 30)" fill="#57DE48" fill-opacity="0.75"/>
<rect width="10" height="10" transform="matrix(-1 0 0 1 190 40)" fill="#A6FF9B" fill-opacity="0.75"/>
<rect width="10" height="10" transform="matrix(-1 0 0 1 180 40)" fill="#57DE48" fill-opacity="0.75"/>
<rect width="10" height="10" transform="matrix(-1 0 0 1 170 40)" fill="#57DE48" fill-opacity="0.75"/>
<rect width="10" height="10" transform="matrix(-1 0 0 1 170 0)" fill="#48FC34"/>
<rect width="10" height="10" transform="matrix(-1 0 0 1 200 50)" fill="#A6FF9B" fill-opacity="0.75"/>
<rect width="10" height="10" transform="matrix(-1 0 0 1 190 50)" fill="#57DE48" fill-opacity="0.75"/>
<rect width="10" height="10" transform="matrix(-1 0 0 1 180 50)" fill="#A6FF9B" fill-opacity="0.75"/>
<rect width="10" height="10" transform="matrix(-1 0 0 1 270 90)" fill="#57DE48" fill-opacity="0.75"/>
<rect width="10" height="10" transform="matrix(-1 0 0 1 210 60)" fill="#57DE48" fill-opacity="0.75"/>
<rect width="10" height="10" transform="matrix(-1 0 0 1 210 70)" fill="#57DE48" fill-opacity="0.75"/>
<rect width="10" height="10" transform="matrix(-1 0 0 1 270 120)" fill="#57DE48" fill-opacity="0.75"/>
<rect width="10" height="10" transform="matrix(-1 0 0 1 270 130)" fill="#57DE48" fill-opacity="0.75"/>
<rect width="10" height="10" transform="matrix(-1 0 0 1 220 80)" fill="#A6FF9B" fill-opacity="0.75"/>
<rect width="10" height="10" transform="matrix(-1 0 0 1 220 90)" fill="#A6FF9B" fill-opacity="0.75"/>
<rect width="10" height="10" transform="matrix(-1 0 0 1 220 100)" fill="#A6FF9B" fill-opacity="0.75"/>
<rect width="10" height="10" transform="matrix(-1 0 0 1 270 110)" fill="#57DE48" fill-opacity="0.75"/>
<rect width="10" height="10" transform="matrix(-1 0 0 1 270 100)" fill="#57DE48" fill-opacity="0.75"/>
<rect width="10" height="10" transform="matrix(-1 0 0 1 220 70)" fill="#A6FF9B" fill-opacity="0.75"/>
<rect width="10" height="10" transform="matrix(-1 0 0 1 230 80)" fill="#57DE48" fill-opacity="0.75"/>
<rect width="10" height="10" transform="matrix(-1 0 0 1 230 90)" fill="#57DE48" fill-opacity="0.75"/>
<rect width="10" height="10" transform="matrix(-1 0 0 1 220 60)" fill="#A6FF9B" fill-opacity="0.75"/>
<rect width="10" height="10" transform="matrix(-1 0 0 1 230 100)" fill="#57DE48" fill-opacity="0.75"/>
<rect width="10" height="10" transform="matrix(-1 0 0 1 230 110)" fill="#57DE48" fill-opacity="0.75"/>
<rect width="10" height="10" transform="matrix(-1 0 0 1 230 120)" fill="#57DE48" fill-opacity="0.75"/>
<rect width="10" height="10" transform="matrix(-1 0 0 1 230 130)" fill="#57DE48" fill-opacity="0.75"/>
<rect width="10" height="10" transform="matrix(-1 0 0 1 230 70)" fill="#57DE48" fill-opacity="0.75"/>
<rect width="10" height="10" transform="matrix(-1 0 0 1 240 80)" fill="#A6FF9B" fill-opacity="0.75"/>
<rect width="10" height="10" transform="matrix(-1 0 0 1 230 60)" fill="#57DE48" fill-opacity="0.75"/>
<rect width="10" height="10" transform="matrix(-1 0 0 1 240 90)" fill="#A6FF9B" fill-opacity="0.75"/>
<rect width="10" height="10" transform="matrix(-1 0 0 1 240 70)" fill="#A6FF9B" fill-opacity="0.75"/>
<rect width="10" height="10" transform="matrix(-1 0 0 1 250 80)" fill="#57DE48" fill-opacity="0.75"/>
<rect width="10" height="10" transform="matrix(-1 0 0 1 250 90)" fill="#57DE48" fill-opacity="0.75"/>
<rect width="10" height="10" transform="matrix(-1 0 0 1 240 100)" fill="#A6FF9B" fill-opacity="0.75"/>
<rect width="10" height="10" transform="matrix(-1 0 0 1 240 120)" fill="#A6FF9B" fill-opacity="0.75"/>
<rect width="10" height="10" transform="matrix(-1 0 0 1 240 130)" fill="#A6FF9B" fill-opacity="0.75"/>
<rect width="10" height="10" transform="matrix(-1 0 0 1 240 110)" fill="#A6FF9B" fill-opacity="0.75"/>
<rect width="10" height="10" transform="matrix(-1 0 0 1 240 140)" fill="#A6FF9B" fill-opacity="0.75"/>
<rect width="10" height="10" transform="matrix(-1 0 0 1 250 70)" fill="#57DE48" fill-opacity="0.75"/>
<rect width="10" height="10" transform="matrix(-1 0 0 1 250 100)" fill="#57DE48" fill-opacity="0.75"/>
<rect width="10" height="10" transform="matrix(-1 0 0 1 240 60)" fill="#A6FF9B" fill-opacity="0.75"/>
<rect width="10" height="10" transform="matrix(-1 0 0 1 250 110)" fill="#57DE48" fill-opacity="0.75"/>
<rect width="10" height="10" transform="matrix(-1 0 0 1 250 120)" fill="#57DE48" fill-opacity="0.75"/>
<rect width="10" height="10" transform="matrix(-1 0 0 1 250 130)" fill="#57DE48" fill-opacity="0.75"/>
<rect width="10" height="10" transform="matrix(-1 0 0 1 250 60)" fill="#57DE48" fill-opacity="0.75"/>
<rect width="10" height="10" transform="matrix(-1 0 0 1 260 80)" fill="#A6FF9B" fill-opacity="0.75"/>
<rect width="10" height="10" transform="matrix(-1 0 0 1 290 120)" fill="#57DE48" fill-opacity="0.75"/>
<rect width="10" height="10" transform="matrix(-1 0 0 1 290 130)" fill="#57DE48" fill-opacity="0.75"/>
<rect width="10" height="10" transform="matrix(-1 0 0 1 290 140)" fill="#57DE48" fill-opacity="0.75"/>
<rect width="10" height="10" transform="matrix(-1 0 0 1 290 150)" fill="#57DE48" fill-opacity="0.75"/>
<rect width="10" height="10" transform="matrix(-1 0 0 1 280 110)" fill="#A6FF9B" fill-opacity="0.75"/>
<rect width="10" height="10" transform="matrix(-1 0 0 1 280 120)" fill="#A6FF9B" fill-opacity="0.75"/>
<rect width="10" height="10" transform="matrix(-1 0 0 1 280 130)" fill="#A6FF9B" fill-opacity="0.75"/>
<rect width="10" height="10" transform="matrix(-1 0 0 1 280 140)" fill="#A6FF9B" fill-opacity="0.75"/>
<rect width="10" height="10" transform="matrix(-1 0 0 1 280 150)" fill="#A6FF9B" fill-opacity="0.75"/>
<rect width="10" height="10" transform="matrix(-1 0 0 1 280 160)" fill="#A6FF9B" fill-opacity="0.75"/>
<rect width="10" height="10" transform="matrix(-1 0 0 1 280 170)" fill="#A6FF9B" fill-opacity="0.75"/>
<rect width="10" height="10" transform="matrix(-1 0 0 1 260 90)" fill="#A6FF9B" fill-opacity="0.75"/>
<rect width="10" height="10" transform="matrix(-1 0 0 1 260 100)" fill="#A6FF9B" fill-opacity="0.75"/>
<rect width="10" height="10" transform="matrix(-1 0 0 1 260 110)" fill="#A6FF9B" fill-opacity="0.75"/>
<rect width="10" height="10" transform="matrix(-1 0 0 1 260 120)" fill="#A6FF9B" fill-opacity="0.75"/>
<rect width="10" height="10" transform="matrix(-1 0 0 1 260 130)" fill="#A6FF9B" fill-opacity="0.75"/>
<rect width="10" height="10" transform="matrix(-1 0 0 1 260 140)" fill="#A6FF9B" fill-opacity="0.75"/>
<rect width="10" height="10" transform="matrix(-1 0 0 1 260 60)" fill="#48FC34"/>
<rect width="10" height="10" transform="matrix(-1 0 0 1 260 70)" fill="#48FC34"/>
<rect width="10" height="10" transform="matrix(-1 0 0 1 270 80)" fill="#48FC34"/>
<rect width="10" height="10" transform="matrix(-1 0 0 1 200 70)" fill="#A6FF9B" fill-opacity="0.75"/>
<rect width="10" height="10" transform="matrix(-1 0 0 1 210 80)" fill="#57DE48" fill-opacity="0.75"/>
<rect width="10" height="10" transform="matrix(-1 0 0 1 280 90)" fill="#48FC34"/>
<rect width="10" height="10" transform="matrix(-1 0 0 1 280 100)" fill="#48FC34"/>
<rect width="10" height="10" transform="matrix(-1 0 0 1 290 110)" fill="#48FC34"/>
<rect width="10" height="10" transform="matrix(-1 0 0 1 200 60)" fill="#57DE48" fill-opacity="0.75"/>
<rect width="10" height="10" transform="matrix(-1 0 0 1 270 150)" fill="#57DE48" fill-opacity="0.75"/>
<rect width="10" height="10" transform="matrix(-1 0 0 1 270 140)" fill="#57DE48" fill-opacity="0.75"/>
<rect width="10" height="10" transform="matrix(-1 0 0 1 270 160)" fill="#57DE48" fill-opacity="0.75"/>
<rect width="10" height="10" transform="matrix(-1 0 0 1 190 60)" fill="#A6FF9B" fill-opacity="0.75"/>
</svg>
