<svg width="300" height="360" viewBox="0 0 300 360" fill="none" xmlns="http://www.w3.org/2000/svg">
<rect x="160" y="350" width="10" height="10" fill="black"/>
<rect x="170" y="350" width="10" height="10" fill="black"/>
<rect x="120" y="350" width="10" height="10" fill="black"/>
<rect x="130" y="350" width="10" height="10" fill="black"/>
<rect x="110" y="340" width="10" height="10" fill="black"/>
<rect x="180" y="340" width="10" height="10" fill="black"/>
<rect x="90" y="330" width="10" height="10" fill="black"/>
<rect x="100" y="340" width="10" height="10" fill="black"/>
<rect x="100" y="330" width="10" height="10" fill="black"/>
<rect x="100" y="320" width="10" height="10" fill="black"/>
<rect x="100" y="300" width="10" height="10" fill="black"/>
<rect x="100" y="310" width="10" height="10" fill="black"/>
<rect x="100" y="290" width="10" height="10" fill="black"/>
<rect x="100" y="280" width="10" height="10" fill="black"/>
<rect x="120" y="270" width="10" height="10" fill="black"/>
<rect x="200" y="330" width="10" height="10" fill="black"/>
<rect x="190" y="340" width="10" height="10" fill="black"/>
<rect x="190" y="330" width="10" height="10" fill="black"/>
<rect x="190" y="300" width="10" height="10" fill="black"/>
<rect x="190" y="320" width="10" height="10" fill="black"/>
<rect x="190" y="310" width="10" height="10" fill="black"/>
<rect x="190" y="290" width="10" height="10" fill="black"/>
<rect x="190" y="280" width="10" height="10" fill="black"/>
<rect x="170" y="270" width="10" height="10" fill="black"/>
<rect x="180" y="270" width="10" height="10" fill="black"/>
<rect x="190" y="270" width="10" height="10" fill="black"/>
<rect x="200" y="270" width="10" height="10" fill="black"/>
<rect x="210" y="270" width="10" height="10" fill="black"/>
<rect x="220" y="280" width="10" height="10" fill="black"/>
<rect x="230" y="280" width="10" height="10" fill="black"/>
<rect x="240" y="290" width="10" height="10" fill="black"/>
<rect x="250" y="290" width="10" height="10" fill="black"/>
<rect x="260" y="300" width="10" height="10" fill="black"/>
<rect x="270" y="300" width="10" height="10" fill="black"/>
<rect x="280" y="310" width="10" height="10" fill="black"/>
<rect x="290" y="310" width="10" height="10" fill="black"/>
<rect x="290" y="300" width="10" height="10" fill="black"/>
<rect x="290" y="290" width="10" height="10" fill="black"/>
<rect x="290" y="280" width="10" height="10" fill="black"/>
<rect x="290" y="270" width="10" height="10" fill="black"/>
<rect x="290" y="260" width="10" height="10" fill="black"/>
<rect x="280" y="250" width="10" height="10" fill="black"/>
<rect x="270" y="240" width="10" height="10" fill="black"/>
<rect x="260" y="230" width="10" height="10" fill="black"/>
<rect x="250" y="220" width="10" height="10" fill="black"/>
<rect x="240" y="210" width="10" height="10" fill="black"/>
<rect x="230" y="200" width="10" height="10" fill="black"/>
<rect x="220" y="190" width="10" height="10" fill="black"/>
<rect x="210" y="180" width="10" height="10" fill="black"/>
<rect x="200" y="170" width="10" height="10" fill="black"/>
<rect x="190" y="170" width="10" height="10" fill="black"/>
<rect x="190" y="160" width="10" height="10" fill="black"/>
<rect x="190" y="150" width="10" height="10" fill="black"/>
<rect x="190" y="140" width="10" height="10" fill="black"/>
<rect x="180" y="130" width="10" height="10" fill="black"/>
<rect x="170" y="110" width="10" height="10" fill="black"/>
<rect x="180" y="120" width="10" height="10" fill="black"/>
<rect x="170" y="100" width="10" height="10" fill="black"/>
<rect x="160" y="90" width="10" height="10" fill="black"/>
<rect width="10" height="10" transform="matrix(-1 0 0 1 110 160)" fill="black"/>
<rect width="10" height="10" transform="matrix(-1 0 0 1 110 150)" fill="black"/>
<rect width="10" height="10" transform="matrix(-1 0 0 1 110 140)" fill="black"/>
<rect width="10" height="10" transform="matrix(-1 0 0 1 120 130)" fill="black"/>
<rect width="10" height="10" transform="matrix(-1 0 0 1 130 110)" fill="black"/>
<rect width="10" height="10" transform="matrix(-1 0 0 1 120 120)" fill="black"/>
<rect width="10" height="10" transform="matrix(-1 0 0 1 130 100)" fill="black"/>
<rect width="10" height="10" transform="matrix(-1 0 0 1 140 90)" fill="black"/>
<rect x="150" y="80" width="10" height="10" fill="black"/>
<rect x="140" y="80" width="10" height="10" fill="black"/>
<rect x="190" y="180" width="10" height="10" fill="black"/>
<rect x="200" y="180" width="10" height="10" fill="#C7DCD0"/>
<rect x="140" y="100" width="10" height="10" fill="#C7DCD0"/>
<rect x="130" y="110" width="10" height="10" fill="#C7DCD0"/>
<rect x="120" y="130" width="10" height="10" fill="#C7DCD0"/>
<rect x="110" y="150" width="10" height="10" fill="#C7DCD0"/>
<rect x="120" y="150" width="10" height="10" fill="#484A77"/>
<rect x="130" y="150" width="10" height="10" fill="#484A77"/>
<rect x="160" y="150" width="10" height="10" fill="#323353"/>
<rect x="170" y="150" width="10" height="10" fill="#4D9BE6"/>
<rect x="140" y="150" width="10" height="10" fill="#4D65B4"/>
<rect x="140" y="160" width="10" height="10" fill="#4D65B4"/>
<rect x="150" y="150" width="10" height="10" fill="#4D65B4"/>
<rect x="140" y="130" width="10" height="10" fill="#4D65B4"/>
<rect x="150" y="160" width="10" height="10" fill="#4D65B4"/>
<rect x="130" y="130" width="10" height="10" fill="#323353"/>
<rect x="160" y="130" width="10" height="10" fill="#4D9BE6"/>
<rect x="150" y="130" width="10" height="10" fill="#323353"/>
<rect x="110" y="170" width="10" height="10" fill="#9BABB2"/>
<rect x="120" y="190" width="10" height="10" fill="#7F708A"/>
<rect x="120" y="210" width="10" height="10" fill="#9BABB2"/>
<rect x="120" y="230" width="10" height="10" fill="#9BABB2"/>
<rect x="120" y="250" width="10" height="10" fill="#694F62"/>
<rect x="120" y="260" width="10" height="10" fill="#E6904E"/>
<rect x="140" y="90" width="10" height="10" fill="#C7DCD0"/>
<rect x="130" y="100" width="10" height="10" fill="#C7DCD0"/>
<rect x="120" y="120" width="10" height="10" fill="#C7DCD0"/>
<rect x="120" y="180" width="10" height="10" fill="#9BABB2"/>
<rect x="90" y="180" width="10" height="10" fill="#9BABB2"/>
<rect x="120" y="200" width="10" height="10" fill="#7F708A"/>
<rect x="110" y="160" width="10" height="10" fill="#9BABB2"/>
<rect x="110" y="140" width="10" height="10" fill="#C7DCD0"/>
<rect x="140" y="140" width="10" height="10" fill="#323353"/>
<rect x="120" y="220" width="10" height="10" fill="#9BABB2"/>
<rect x="140" y="120" width="10" height="10" fill="#4D65B4"/>
<rect x="140" y="110" width="10" height="10" fill="#4D65B4"/>
<rect x="120" y="140" width="10" height="10" fill="#484A77"/>
<rect x="160" y="140" width="10" height="10" fill="#4D9BE6"/>
<rect x="130" y="140" width="10" height="10" fill="#484A77"/>
<rect x="170" y="140" width="10" height="10" fill="#4D9BE6"/>
<rect x="150" y="140" width="10" height="10" fill="#323353"/>
<rect x="130" y="120" width="10" height="10" fill="#323353"/>
<rect x="160" y="120" width="10" height="10" fill="#4D9BE6"/>
<rect x="150" y="120" width="10" height="10" fill="#4D65B4"/>
<rect x="150" y="110" width="10" height="10" fill="#4D65B4"/>
<rect x="120" y="240" width="10" height="10" fill="#694F62"/>
<rect x="180" y="170" width="10" height="10" fill="#C7DCD0"/>
<rect x="190" y="190" width="10" height="10" fill="black"/>
<rect x="180" y="180" width="10" height="10" fill="black"/>
<rect x="200" y="190" width="10" height="10" fill="#C7DCD0"/>
<rect x="170" y="190" width="10" height="10" fill="#C7DCD0"/>
<rect x="130" y="190" width="10" height="10" fill="#9E4539"/>
<rect x="130" y="180" width="10" height="10" fill="#7F708A"/>
<rect x="120" y="170" width="10" height="10" fill="#C7DCD0"/>
<rect x="130" y="170" width="10" height="10" fill="#C7DCD0"/>
<rect x="120" y="160" width="10" height="10" fill="#C7DCD0"/>
<rect x="130" y="160" width="10" height="10" fill="#C7DCD0"/>
<rect x="190" y="200" width="10" height="10" fill="black"/>
<rect x="90" y="190" width="10" height="10" fill="#9BABB2"/>
<rect x="80" y="190" width="10" height="10" fill="#E6904E"/>
<rect x="190" y="210" width="10" height="10" fill="black"/>
<rect x="170" y="200" width="10" height="10" fill="#7F708A"/>
<rect x="130" y="200" width="10" height="10" fill="#C7DCD0"/>
<rect x="200" y="200" width="10" height="10" fill="#C7DCD0"/>
<rect x="140" y="260" width="10" height="10" fill="#C7DCD0"/>
<rect x="180" y="190" width="10" height="10" fill="black"/>
<rect x="90" y="200" width="10" height="10" fill="#9BABB2"/>
<rect x="190" y="220" width="10" height="10" fill="black"/>
<rect x="80" y="200" width="10" height="10" fill="#C7DCD0"/>
<rect x="170" y="210" width="10" height="10" fill="#7F708A"/>
<rect x="130" y="210" width="10" height="10" fill="#C7DCD0"/>
<rect x="200" y="210" width="10" height="10" fill="#C7DCD0"/>
<rect x="190" y="230" width="10" height="10" fill="black"/>
<rect x="140" y="270" width="10" height="10" fill="#CD683D"/>
<rect x="180" y="200" width="10" height="10" fill="black"/>
<rect x="90" y="210" width="10" height="10" fill="#9BABB2"/>
<rect x="170" y="220" width="10" height="10" fill="#9E4539"/>
<rect x="190" y="240" width="10" height="10" fill="black"/>
<rect x="130" y="220" width="10" height="10" fill="#C7DCD0"/>
<rect x="130" y="270" width="10" height="10" fill="#E6904E"/>
<rect x="120" y="330" width="10" height="10" fill="#C7DCD0"/>
<rect x="130" y="330" width="10" height="10" fill="#C7DCD0"/>
<rect x="130" y="340" width="10" height="10" fill="#CD683D"/>
<rect x="140" y="340" width="10" height="10" fill="#CD683D"/>
<rect x="150" y="340" width="10" height="10" fill="#7F708A"/>
<rect x="170" y="320" width="10" height="10" fill="#E9F6EE"/>
<rect x="150" y="300" width="10" height="10" fill="#E6904E"/>
<rect x="150" y="320" width="10" height="10" fill="#E9F6EE"/>
<rect x="170" y="300" width="10" height="10" fill="#E9F6EE"/>
<rect x="150" y="280" width="10" height="10" fill="#E9F6EE"/>
<rect x="160" y="280" width="10" height="10" fill="#E9F6EE"/>
<rect x="160" y="250" width="10" height="10" fill="#E9F6EE"/>
<rect x="150" y="330" width="10" height="10" fill="#E9F6EE"/>
<rect x="170" y="310" width="10" height="10" fill="#E9F6EE"/>
<rect x="160" y="290" width="10" height="10" fill="#E9F6EE"/>
<rect x="150" y="290" width="10" height="10" fill="#E9F6EE"/>
<rect x="160" y="260" width="10" height="10" fill="#E9F6EE"/>
<rect x="160" y="340" width="10" height="10" fill="#E9F6EE"/>
<rect x="150" y="310" width="10" height="10" fill="#E6904E"/>
<rect x="170" y="290" width="10" height="10" fill="#E9F6EE"/>
<rect x="160" y="270" width="10" height="10" fill="#E9F6EE"/>
<rect x="150" y="270" width="10" height="10" fill="#E9F6EE"/>
<rect x="150" y="260" width="10" height="10" fill="#E9F6EE"/>
<rect x="170" y="280" width="10" height="10" fill="#E9F6EE"/>
<rect x="270" y="250" width="10" height="10" fill="#E9F6EE"/>
<rect x="220" y="260" width="10" height="10" fill="#E9F6EE"/>
<rect x="230" y="260" width="10" height="10" fill="#9E4539"/>
<rect x="230" y="250" width="10" height="10" fill="#E9F6EE"/>
<rect x="230" y="240" width="10" height="10" fill="#E9F6EE"/>
<rect x="230" y="230" width="10" height="10" fill="#CD683D"/>
<rect x="240" y="270" width="10" height="10" fill="#694F62"/>
<rect x="250" y="270" width="10" height="10" fill="#694F62"/>
<rect x="260" y="280" width="10" height="10" fill="#694F62"/>
<rect x="240" y="260" width="10" height="10" fill="#694F62"/>
<rect x="210" y="250" width="10" height="10" fill="#E9F6EE"/>
<rect x="260" y="240" width="10" height="10" fill="#E9F6EE"/>
<rect x="220" y="250" width="10" height="10" fill="#694F62"/>
<rect x="210" y="240" width="10" height="10" fill="#694F62"/>
<rect x="210" y="220" width="10" height="10" fill="#E9F6EE"/>
<rect x="210" y="230" width="10" height="10" fill="#694F62"/>
<rect x="210" y="210" width="10" height="10" fill="#E9F6EE"/>
<rect x="160" y="240" width="10" height="10" fill="#E9F6EE"/>
<rect x="160" y="330" width="10" height="10" fill="#9E4539"/>
<rect x="170" y="330" width="10" height="10" fill="#E6904E"/>
<rect x="120" y="310" width="10" height="10" fill="#694F62"/>
<rect x="200" y="220" width="10" height="10" fill="#C7DCD0"/>
<rect x="140" y="230" width="10" height="10" fill="#7F708A"/>
<rect x="160" y="190" width="10" height="10" fill="#7F708A"/>
<rect x="80" y="210" width="10" height="10" fill="#694F62"/>
<rect x="130" y="230" width="10" height="10" fill="#694F62"/>
<rect x="140" y="280" width="10" height="10" fill="#C7DCD0"/>
<rect x="140" y="290" width="10" height="10" fill="#C7DCD0"/>
<rect x="170" y="230" width="10" height="10" fill="#C7DCD0"/>
<rect x="200" y="230" width="10" height="10" fill="#C7DCD0"/>
<rect x="190" y="250" width="10" height="10" fill="black"/>
<rect x="90" y="220" width="10" height="10" fill="#9BABB2"/>
<rect x="140" y="240" width="10" height="10" fill="#C7DCD0"/>
<rect x="130" y="240" width="10" height="10" fill="#7F708A"/>
<rect x="180" y="210" width="10" height="10" fill="black"/>
<rect x="90" y="230" width="10" height="10" fill="#9BABB2"/>
<rect x="140" y="250" width="10" height="10" fill="#7F708A"/>
<rect x="170" y="240" width="10" height="10" fill="#C7DCD0"/>
<rect x="140" y="300" width="10" height="10" fill="#C7DCD0"/>
<rect x="140" y="320" width="10" height="10" fill="#694F62"/>
<rect x="190" y="260" width="10" height="10" fill="black"/>
<rect x="130" y="250" width="10" height="10" fill="#C7DCD0"/>
<rect x="140" y="310" width="10" height="10" fill="#C7DCD0"/>
<rect x="80" y="220" width="10" height="10" fill="#694F62"/>
<rect x="140" y="330" width="10" height="10" fill="#7F708A"/>
<rect x="180" y="220" width="10" height="10" fill="black"/>
<rect x="200" y="240" width="10" height="10" fill="#C7DCD0"/>
<rect x="170" y="250" width="10" height="10" fill="#C7DCD0"/>
<rect x="80" y="230" width="10" height="10" fill="#C7DCD0"/>
<rect x="110" y="280" width="10" height="10" fill="#CD683D"/>
<rect x="120" y="290" width="10" height="10" fill="#CD683D"/>
<rect x="130" y="280" width="10" height="10" fill="#E6904E"/>
<rect x="120" y="280" width="10" height="10" fill="#9BABB2"/>
<rect x="130" y="260" width="10" height="10" fill="#C7DCD0"/>
<rect x="120" y="320" width="10" height="10" fill="#CD683D"/>
<rect x="120" y="300" width="10" height="10" fill="#694F62"/>
<rect x="180" y="280" width="10" height="10" fill="#C7DCD0"/>
<rect x="220" y="230" width="10" height="10" fill="#4D65B4"/>
<rect x="70" y="230" width="10" height="10" fill="#484A77"/>
<rect x="110" y="290" width="10" height="10" fill="#9BABB2"/>
<rect x="50" y="240" width="10" height="10" fill="#484A77"/>
<rect x="200" y="250" width="10" height="10" fill="#9E4539"/>
<rect x="180" y="290" width="10" height="10" fill="#C7DCD0"/>
<rect x="220" y="220" width="10" height="10" fill="#4D65B4"/>
<rect x="240" y="240" width="10" height="10" fill="#7A3045"/>
<rect x="130" y="300" width="10" height="10" fill="#4D65B4"/>
<rect x="130" y="290" width="10" height="10" fill="#4D65B4"/>
<rect x="160" y="300" width="10" height="10" fill="#4D65B4"/>
<rect x="170" y="260" width="10" height="10" fill="#C7DCD0"/>
<rect x="220" y="240" width="10" height="10" fill="#4D65B4"/>
<rect x="90" y="240" width="10" height="10" fill="#9BABB2"/>
<rect x="110" y="300" width="10" height="10" fill="#CD683D"/>
<rect x="70" y="220" width="10" height="10" fill="#484A77"/>
<rect x="70" y="240" width="10" height="10" fill="#484A77"/>
<rect x="110" y="310" width="10" height="10" fill="#9BABB2"/>
<rect x="110" y="330" width="10" height="10" fill="#9BABB2"/>
<rect x="120" y="340" width="10" height="10" fill="#9BABB2"/>
<rect x="180" y="300" width="10" height="10" fill="#C7DCD0"/>
<rect x="90" y="250" width="10" height="10" fill="#9BABB2"/>
<rect x="110" y="320" width="10" height="10" fill="#7F708A"/>
<rect x="130" y="310" width="10" height="10" fill="#4D65B4"/>
<rect x="180" y="230" width="10" height="10" fill="black"/>
<rect x="160" y="310" width="10" height="10" fill="#4D65B4"/>
<rect x="180" y="330" width="10" height="10" fill="#9E4539"/>
<rect x="180" y="310" width="10" height="10" fill="#E6904E"/>
<rect x="140" y="200" width="10" height="10" fill="white"/>
<rect x="150" y="200" width="10" height="10" fill="white"/>
<rect x="150" y="230" width="10" height="10" fill="white"/>
<rect x="160" y="200" width="10" height="10" fill="#9E4539"/>
<rect x="160" y="230" width="10" height="10" fill="white"/>
<rect x="150" y="210" width="10" height="10" fill="white"/>
<rect x="160" y="210" width="10" height="10" fill="#9E4539"/>
<rect x="150" y="240" width="10" height="10" fill="white"/>
<rect x="140" y="210" width="10" height="10" fill="white"/>
<rect x="150" y="220" width="10" height="10" fill="white"/>
<rect x="150" y="170" width="10" height="10" fill="white"/>
<rect x="140" y="170" width="10" height="10" fill="white"/>
<rect x="160" y="170" width="10" height="10" fill="white"/>
<rect x="160" y="160" width="10" height="10" fill="white"/>
<rect x="170" y="170" width="10" height="10" fill="white"/>
<rect x="170" y="160" width="10" height="10" fill="white"/>
<rect x="180" y="150" width="10" height="10" fill="#E6904E"/>
<rect x="180" y="140" width="10" height="10" fill="#CD683D"/>
<rect x="170" y="130" width="10" height="10" fill="#E6904E"/>
<rect x="170" y="120" width="10" height="10" fill="#CD683D"/>
<rect x="160" y="110" width="10" height="10" fill="#E6904E"/>
<rect x="160" y="100" width="10" height="10" fill="#CD683D"/>
<rect x="150" y="100" width="10" height="10" fill="white"/>
<rect x="150" y="90" width="10" height="10" fill="white"/>
<rect x="150" y="250" width="10" height="10" fill="white"/>
<rect x="160" y="220" width="10" height="10" fill="white"/>
<rect x="140" y="220" width="10" height="10" fill="white"/>
<rect x="150" y="180" width="10" height="10" fill="white"/>
<rect x="160" y="180" width="10" height="10" fill="white"/>
<rect x="170" y="180" width="10" height="10" fill="white"/>
<rect x="180" y="160" width="10" height="10" fill="white"/>
<rect x="150" y="190" width="10" height="10" fill="white"/>
<rect x="140" y="180" width="10" height="10" fill="white"/>
<rect x="140" y="190" width="10" height="10" fill="white"/>
<rect x="210" y="190" width="10" height="10" fill="#CD683D"/>
<rect x="210" y="200" width="10" height="10" fill="white"/>
<rect x="220" y="200" width="10" height="10" fill="#CD683D"/>
<rect x="220" y="210" width="10" height="10" fill="white"/>
<rect x="230" y="210" width="10" height="10" fill="white"/>
<rect x="240" y="220" width="10" height="10" fill="white"/>
<rect x="250" y="230" width="10" height="10" fill="white"/>
<rect x="250" y="250" width="10" height="10" fill="#CD683D"/>
<rect x="260" y="260" width="10" height="10" fill="white"/>
<rect x="270" y="270" width="10" height="10" fill="#CD683D"/>
<rect x="280" y="280" width="10" height="10" fill="white"/>
<rect x="250" y="240" width="10" height="10" fill="#CD683D"/>
<rect x="250" y="260" width="10" height="10" fill="white"/>
<rect x="230" y="220" width="10" height="10" fill="white"/>
<rect x="240" y="230" width="10" height="10" fill="white"/>
<rect x="260" y="250" width="10" height="10" fill="white"/>
<rect x="270" y="260" width="10" height="10" fill="white"/>
<rect x="260" y="270" width="10" height="10" fill="#9E4539"/>
<rect x="270" y="280" width="10" height="10" fill="white"/>
<rect x="280" y="290" width="10" height="10" fill="#CD683D"/>
<rect x="50" y="250" width="10" height="10" fill="#484A77"/>
<rect x="130" y="320" width="10" height="10" fill="#4D65B4"/>
<rect x="180" y="320" width="10" height="10" fill="#E6904E"/>
<rect x="170" y="340" width="10" height="10" fill="#9E4539"/>
<rect x="160" y="320" width="10" height="10" fill="#4D65B4"/>
<rect x="80" y="240" width="10" height="10" fill="#C7DCD0"/>
<rect x="240" y="250" width="10" height="10" fill="#7A3045"/>
<rect x="280" y="260" width="10" height="10" fill="#C7DCD0"/>
<rect x="80" y="250" width="10" height="10" fill="#C7DCD0"/>
<rect x="60" y="250" width="10" height="10" fill="#694F62"/>
<rect x="60" y="230" width="10" height="10" fill="#C7DCD0"/>
<rect x="60" y="210" width="10" height="10" fill="#C7DCD0"/>
<rect x="70" y="200" width="10" height="10" fill="#E6904E"/>
<rect x="50" y="220" width="10" height="10" fill="#9E4539"/>
<rect x="50" y="260" width="10" height="10" fill="#694F62"/>
<rect x="60" y="260" width="10" height="10" fill="#C7DCD0"/>
<rect x="20" y="260" width="10" height="10" fill="#C7DCD0"/>
<rect x="20" y="270" width="10" height="10" fill="#C7DCD0"/>
<rect x="20" y="250" width="10" height="10" fill="#C7DCD0"/>
<rect x="10" y="280" width="10" height="10" fill="#E6904E"/>
<rect x="10" y="290" width="10" height="10" fill="#694F62"/>
<rect x="30" y="260" width="10" height="10" fill="#C7DCD0"/>
<rect x="30" y="270" width="10" height="10" fill="#E6904E"/>
<rect x="20" y="280" width="10" height="10" fill="#694F62"/>
<rect x="30" y="240" width="10" height="10" fill="#9E4539"/>
<rect x="30" y="250" width="10" height="10" fill="#C7DCD0"/>
<rect x="30" y="280" width="10" height="10" fill="#E6904E"/>
<rect x="40" y="230" width="10" height="10" fill="#C7DCD0"/>
<rect x="40" y="240" width="10" height="10" fill="#C7DCD0"/>
<rect x="40" y="250" width="10" height="10" fill="#9E4539"/>
<rect x="60" y="240" width="10" height="10" fill="#694F62"/>
<rect x="70" y="250" width="10" height="10" fill="#694F62"/>
<rect x="70" y="210" width="10" height="10" fill="#C7DCD0"/>
<rect x="50" y="230" width="10" height="10" fill="#9E4539"/>
<rect x="70" y="260" width="10" height="10" fill="#C7DCD0"/>
<rect x="60" y="220" width="10" height="10" fill="#C7DCD0"/>
<rect x="50" y="270" width="10" height="10" fill="#694F62"/>
<rect x="40" y="260" width="10" height="10" fill="#C7DCD0"/>
<rect x="40" y="270" width="10" height="10" fill="#694F62"/>
<rect x="180" y="240" width="10" height="10" fill="black"/>
<rect x="280" y="270" width="10" height="10" fill="#C7DCD0"/>
<rect x="180" y="250" width="10" height="10" fill="black"/>
<rect x="200" y="260" width="10" height="10" fill="#9E4539"/>
<rect x="90" y="260" width="10" height="10" fill="#9BABB2"/>
<rect x="80" y="260" width="10" height="10" fill="#694F62"/>
<rect x="70" y="270" width="10" height="10" fill="#9BABB2"/>
<rect x="60" y="270" width="10" height="10" fill="#9BABB2"/>
<rect x="50" y="280" width="10" height="10" fill="#9BABB2"/>
<rect x="40" y="280" width="10" height="10" fill="#9BABB2"/>
<rect x="30" y="290" width="10" height="10" fill="#9BABB2"/>
<rect x="20" y="290" width="10" height="10" fill="#9BABB2"/>
<rect x="10" y="300" width="10" height="10" fill="#694F62"/>
<rect x="10" y="260" width="10" height="10" fill="#9BABB2"/>
<rect x="10" y="270" width="10" height="10" fill="#9BABB2"/>
<rect x="210" y="260" width="10" height="10" fill="#9E4539"/>
<rect x="220" y="270" width="10" height="10" fill="#C7DCD0"/>
<rect x="230" y="270" width="10" height="10" fill="#C7DCD0"/>
<rect x="240" y="280" width="10" height="10" fill="#9E4539"/>
<rect x="250" y="280" width="10" height="10" fill="#9E4539"/>
<rect x="260" y="290" width="10" height="10" fill="#C7DCD0"/>
<rect x="270" y="290" width="10" height="10" fill="#C7DCD0"/>
<rect x="280" y="300" width="10" height="10" fill="#C7DCD0"/>
<rect x="180" y="260" width="10" height="10" fill="black"/>
<rect width="10" height="10" transform="matrix(-1 0 0 1 120 270)" fill="black"/>
<rect width="10" height="10" transform="matrix(-1 0 0 1 110 270)" fill="black"/>
<rect width="10" height="10" transform="matrix(-1 0 0 1 100 270)" fill="black"/>
<rect width="10" height="10" transform="matrix(-1 0 0 1 90 270)" fill="black"/>
<rect width="10" height="10" transform="matrix(-1 0 0 1 80 280)" fill="black"/>
<rect width="10" height="10" transform="matrix(-1 0 0 1 70 280)" fill="black"/>
<rect width="10" height="10" transform="matrix(-1 0 0 1 60 290)" fill="black"/>
<rect width="10" height="10" transform="matrix(-1 0 0 1 50 290)" fill="black"/>
<rect width="10" height="10" transform="matrix(-1 0 0 1 40 300)" fill="black"/>
<rect width="10" height="10" transform="matrix(-1 0 0 1 30 300)" fill="black"/>
<rect width="10" height="10" transform="matrix(-1 0 0 1 20 310)" fill="black"/>
<rect width="10" height="10" transform="matrix(-1 0 0 1 10 310)" fill="black"/>
<rect width="10" height="10" transform="matrix(-1 0 0 1 10 300)" fill="black"/>
<rect width="10" height="10" transform="matrix(-1 0 0 1 10 290)" fill="black"/>
<rect width="10" height="10" transform="matrix(-1 0 0 1 10 280)" fill="black"/>
<rect width="10" height="10" transform="matrix(-1 0 0 1 10 270)" fill="black"/>
<rect width="10" height="10" transform="matrix(-1 0 0 1 10 260)" fill="black"/>
<rect width="10" height="10" transform="matrix(-1 0 0 1 20 250)" fill="black"/>
<rect width="10" height="10" transform="matrix(-1 0 0 1 30 240)" fill="black"/>
<rect width="10" height="10" transform="matrix(-1 0 0 1 40 230)" fill="black"/>
<rect width="10" height="10" transform="matrix(-1 0 0 1 50 220)" fill="black"/>
<rect width="10" height="10" transform="matrix(-1 0 0 1 60 210)" fill="black"/>
<rect width="10" height="10" transform="matrix(-1 0 0 1 70 200)" fill="black"/>
<rect width="10" height="10" transform="matrix(-1 0 0 1 80 190)" fill="black"/>
<rect width="10" height="10" transform="matrix(-1 0 0 1 90 180)" fill="black"/>
<rect width="10" height="10" transform="matrix(-1 0 0 1 100 170)" fill="black"/>
<rect width="10" height="10" transform="matrix(-1 0 0 1 110 170)" fill="black"/>
<rect width="10" height="10" transform="matrix(-1 0 0 1 110 180)" fill="black"/>
<rect width="10" height="10" transform="matrix(-1 0 0 1 120 180)" fill="black"/>
<rect width="10" height="10" transform="matrix(-1 0 0 1 110 190)" fill="black"/>
<rect width="10" height="10" transform="matrix(-1 0 0 1 120 190)" fill="black"/>
<rect width="10" height="10" transform="matrix(-1 0 0 1 110 200)" fill="black"/>
<rect width="10" height="10" transform="matrix(-1 0 0 1 120 200)" fill="black"/>
<rect width="10" height="10" transform="matrix(-1 0 0 1 110 210)" fill="black"/>
<rect width="10" height="10" transform="matrix(-1 0 0 1 120 210)" fill="black"/>
<rect width="10" height="10" transform="matrix(-1 0 0 1 110 220)" fill="black"/>
<rect width="10" height="10" transform="matrix(-1 0 0 1 120 220)" fill="black"/>
<rect width="10" height="10" transform="matrix(-1 0 0 1 110 230)" fill="black"/>
<rect width="10" height="10" transform="matrix(-1 0 0 1 120 230)" fill="black"/>
<rect width="10" height="10" transform="matrix(-1 0 0 1 110 240)" fill="black"/>
<rect width="10" height="10" transform="matrix(-1 0 0 1 120 240)" fill="black"/>
<rect width="10" height="10" transform="matrix(-1 0 0 1 110 250)" fill="black"/>
<rect width="10" height="10" transform="matrix(-1 0 0 1 120 250)" fill="black"/>
<rect width="10" height="10" transform="matrix(-1 0 0 1 110 260)" fill="black"/>
<rect width="10" height="10" transform="matrix(-1 0 0 1 120 260)" fill="black"/>
<rect x="150" y="350" width="10" height="10" fill="black"/>
<rect x="140" y="350" width="10" height="10" fill="black"/>
<rect x="140" width="10" height="10" fill="#48FC34"/>
<rect x="140" y="10" width="10" height="10" fill="#57DE48" fill-opacity="0.75"/>
<rect x="100" y="10" width="10" height="10" fill="#48FC34"/>
<rect x="140" y="20" width="10" height="10" fill="#57DE48" fill-opacity="0.75"/>
<rect x="100" y="20" width="10" height="10" fill="#A6FF9B" fill-opacity="0.75"/>
<rect x="90" y="20" width="10" height="10" fill="#48FC34"/>
<rect x="140" y="30" width="10" height="10" fill="#57DE48" fill-opacity="0.75"/>
<rect x="140" y="40" width="10" height="10" fill="#57DE48" fill-opacity="0.75"/>
<rect x="100" y="30" width="10" height="10" fill="#57DE48" fill-opacity="0.75"/>
<rect x="90" y="30" width="10" height="10" fill="#A6FF9B" fill-opacity="0.75"/>
<rect x="80" y="30" width="10" height="10" fill="#48FC34"/>
<rect x="70" y="30" width="10" height="10" fill="#48FC34"/>
<rect x="100" y="40" width="10" height="10" fill="#57DE48" fill-opacity="0.75"/>
<rect x="90" y="40" width="10" height="10" fill="#57DE48" fill-opacity="0.75"/>
<rect x="80" y="40" width="10" height="10" fill="#57DE48" fill-opacity="0.75"/>
<rect x="70" y="40" width="10" height="10" fill="#A6FF9B" fill-opacity="0.75"/>
<rect x="90" y="50" width="10" height="10" fill="#57DE48" fill-opacity="0.75"/>
<rect x="80" y="50" width="10" height="10" fill="#A6FF9B" fill-opacity="0.75"/>
<rect x="70" y="50" width="10" height="10" fill="#57DE48" fill-opacity="0.75"/>
<rect x="60" y="50" width="10" height="10" fill="#A6FF9B" fill-opacity="0.75"/>
<rect x="60" y="40" width="10" height="10" fill="#48FC34"/>
<rect x="50" y="50" width="10" height="10" fill="#48FC34"/>
<rect x="120" width="10" height="10" fill="#48FC34"/>
<rect x="110" y="10" width="10" height="10" fill="#48FC34"/>
<rect x="120" y="10" width="10" height="10" fill="#A6FF9B" fill-opacity="0.75"/>
<rect x="130" y="10" width="10" height="10" fill="#57DE48" fill-opacity="0.75"/>
<rect x="110" y="20" width="10" height="10" fill="#57DE48" fill-opacity="0.75"/>
<rect x="120" y="20" width="10" height="10" fill="#57DE48" fill-opacity="0.75"/>
<rect x="130" y="20" width="10" height="10" fill="#57DE48" fill-opacity="0.75"/>
<rect x="110" y="30" width="10" height="10" fill="#A6FF9B" fill-opacity="0.75"/>
<rect x="120" y="30" width="10" height="10" fill="#57DE48" fill-opacity="0.75"/>
<rect x="130" y="30" width="10" height="10" fill="#57DE48" fill-opacity="0.75"/>
<rect x="110" y="40" width="10" height="10" fill="#A6FF9B" fill-opacity="0.75"/>
<rect x="120" y="40" width="10" height="10" fill="#57DE48" fill-opacity="0.75"/>
<rect x="130" y="40" width="10" height="10" fill="#57DE48" fill-opacity="0.75"/>
<rect x="130" width="10" height="10" fill="#48FC34"/>
<rect x="100" y="50" width="10" height="10" fill="#A6FF9B" fill-opacity="0.75"/>
<rect x="110" y="50" width="10" height="10" fill="#57DE48" fill-opacity="0.75"/>
<rect x="120" y="50" width="10" height="10" fill="#A6FF9B" fill-opacity="0.75"/>
<rect x="30" y="90" width="10" height="10" fill="#57DE48" fill-opacity="0.75"/>
<rect x="90" y="60" width="10" height="10" fill="#57DE48" fill-opacity="0.75"/>
<rect x="90" y="70" width="10" height="10" fill="#57DE48" fill-opacity="0.75"/>
<rect x="30" y="120" width="10" height="10" fill="#57DE48" fill-opacity="0.75"/>
<rect x="30" y="130" width="10" height="10" fill="#57DE48" fill-opacity="0.75"/>
<rect x="80" y="80" width="10" height="10" fill="#A6FF9B" fill-opacity="0.75"/>
<rect x="80" y="90" width="10" height="10" fill="#A6FF9B" fill-opacity="0.75"/>
<rect x="80" y="100" width="10" height="10" fill="#A6FF9B" fill-opacity="0.75"/>
<rect x="30" y="110" width="10" height="10" fill="#57DE48" fill-opacity="0.75"/>
<rect x="30" y="100" width="10" height="10" fill="#57DE48" fill-opacity="0.75"/>
<rect x="80" y="70" width="10" height="10" fill="#A6FF9B" fill-opacity="0.75"/>
<rect x="70" y="80" width="10" height="10" fill="#57DE48" fill-opacity="0.75"/>
<rect x="70" y="90" width="10" height="10" fill="#57DE48" fill-opacity="0.75"/>
<rect x="80" y="60" width="10" height="10" fill="#A6FF9B" fill-opacity="0.75"/>
<rect x="70" y="100" width="10" height="10" fill="#57DE48" fill-opacity="0.75"/>
<rect x="70" y="110" width="10" height="10" fill="#57DE48" fill-opacity="0.75"/>
<rect x="70" y="120" width="10" height="10" fill="#57DE48" fill-opacity="0.75"/>
<rect x="70" y="130" width="10" height="10" fill="#57DE48" fill-opacity="0.75"/>
<rect x="70" y="70" width="10" height="10" fill="#57DE48" fill-opacity="0.75"/>
<rect x="60" y="80" width="10" height="10" fill="#A6FF9B" fill-opacity="0.75"/>
<rect x="70" y="60" width="10" height="10" fill="#57DE48" fill-opacity="0.75"/>
<rect x="60" y="90" width="10" height="10" fill="#A6FF9B" fill-opacity="0.75"/>
<rect x="60" y="70" width="10" height="10" fill="#A6FF9B" fill-opacity="0.75"/>
<rect x="50" y="80" width="10" height="10" fill="#57DE48" fill-opacity="0.75"/>
<rect x="50" y="90" width="10" height="10" fill="#57DE48" fill-opacity="0.75"/>
<rect x="60" y="100" width="10" height="10" fill="#A6FF9B" fill-opacity="0.75"/>
<rect x="60" y="120" width="10" height="10" fill="#A6FF9B" fill-opacity="0.75"/>
<rect x="60" y="130" width="10" height="10" fill="#A6FF9B" fill-opacity="0.75"/>
<rect x="60" y="110" width="10" height="10" fill="#A6FF9B" fill-opacity="0.75"/>
<rect x="60" y="140" width="10" height="10" fill="#A6FF9B" fill-opacity="0.75"/>
<rect x="50" y="70" width="10" height="10" fill="#57DE48" fill-opacity="0.75"/>
<rect x="50" y="100" width="10" height="10" fill="#57DE48" fill-opacity="0.75"/>
<rect x="60" y="60" width="10" height="10" fill="#A6FF9B" fill-opacity="0.75"/>
<rect x="50" y="110" width="10" height="10" fill="#57DE48" fill-opacity="0.75"/>
<rect x="50" y="120" width="10" height="10" fill="#57DE48" fill-opacity="0.75"/>
<rect x="50" y="130" width="10" height="10" fill="#57DE48" fill-opacity="0.75"/>
<rect x="50" y="60" width="10" height="10" fill="#57DE48" fill-opacity="0.75"/>
<rect x="40" y="80" width="10" height="10" fill="#A6FF9B" fill-opacity="0.75"/>
<rect x="10" y="120" width="10" height="10" fill="#57DE48" fill-opacity="0.75"/>
<rect x="10" y="130" width="10" height="10" fill="#57DE48" fill-opacity="0.75"/>
<rect x="10" y="140" width="10" height="10" fill="#57DE48" fill-opacity="0.75"/>
<rect x="10" y="150" width="10" height="10" fill="#57DE48" fill-opacity="0.75"/>
<rect x="20" y="110" width="10" height="10" fill="#A6FF9B" fill-opacity="0.75"/>
<rect x="20" y="120" width="10" height="10" fill="#A6FF9B" fill-opacity="0.75"/>
<rect x="20" y="130" width="10" height="10" fill="#A6FF9B" fill-opacity="0.75"/>
<rect x="20" y="140" width="10" height="10" fill="#A6FF9B" fill-opacity="0.75"/>
<rect x="20" y="150" width="10" height="10" fill="#A6FF9B" fill-opacity="0.75"/>
<rect x="20" y="160" width="10" height="10" fill="#A6FF9B" fill-opacity="0.75"/>
<rect x="20" y="170" width="10" height="10" fill="#A6FF9B" fill-opacity="0.75"/>
<rect x="40" y="90" width="10" height="10" fill="#A6FF9B" fill-opacity="0.75"/>
<rect x="40" y="100" width="10" height="10" fill="#A6FF9B" fill-opacity="0.75"/>
<rect x="40" y="110" width="10" height="10" fill="#A6FF9B" fill-opacity="0.75"/>
<rect x="40" y="120" width="10" height="10" fill="#A6FF9B" fill-opacity="0.75"/>
<rect x="40" y="130" width="10" height="10" fill="#A6FF9B" fill-opacity="0.75"/>
<rect x="40" y="140" width="10" height="10" fill="#A6FF9B" fill-opacity="0.75"/>
<rect x="40" y="60" width="10" height="10" fill="#48FC34"/>
<rect x="40" y="70" width="10" height="10" fill="#48FC34"/>
<rect x="30" y="80" width="10" height="10" fill="#48FC34"/>
<rect x="100" y="70" width="10" height="10" fill="#A6FF9B" fill-opacity="0.75"/>
<rect x="90" y="80" width="10" height="10" fill="#57DE48" fill-opacity="0.75"/>
<rect x="20" y="90" width="10" height="10" fill="#48FC34"/>
<rect x="20" y="100" width="10" height="10" fill="#48FC34"/>
<rect x="10" y="110" width="10" height="10" fill="#48FC34"/>
<rect x="100" y="60" width="10" height="10" fill="#57DE48" fill-opacity="0.75"/>
<rect x="30" y="150" width="10" height="10" fill="#57DE48" fill-opacity="0.75"/>
<rect x="30" y="140" width="10" height="10" fill="#57DE48" fill-opacity="0.75"/>
<rect x="30" y="160" width="10" height="10" fill="#57DE48" fill-opacity="0.75"/>
<rect x="110" y="60" width="10" height="10" fill="#A6FF9B" fill-opacity="0.75"/>
<rect width="10" height="10" transform="matrix(-1 0 0 1 160 0)" fill="#48FC34"/>
<rect width="10" height="10" transform="matrix(-1 0 0 1 160 10)" fill="#57DE48" fill-opacity="0.75"/>
<rect width="10" height="10" transform="matrix(-1 0 0 1 200 10)" fill="#48FC34"/>
<rect width="10" height="10" transform="matrix(-1 0 0 1 160 20)" fill="#57DE48" fill-opacity="0.75"/>
<rect width="10" height="10" transform="matrix(-1 0 0 1 200 20)" fill="#A6FF9B" fill-opacity="0.75"/>
<rect width="10" height="10" transform="matrix(-1 0 0 1 210 20)" fill="#48FC34"/>
<rect width="10" height="10" transform="matrix(-1 0 0 1 160 30)" fill="#57DE48" fill-opacity="0.75"/>
<rect width="10" height="10" transform="matrix(-1 0 0 1 160 40)" fill="#57DE48" fill-opacity="0.75"/>
<rect width="10" height="10" transform="matrix(-1 0 0 1 200 30)" fill="#57DE48" fill-opacity="0.75"/>
<rect width="10" height="10" transform="matrix(-1 0 0 1 210 30)" fill="#A6FF9B" fill-opacity="0.75"/>
<rect width="10" height="10" transform="matrix(-1 0 0 1 220 30)" fill="#48FC34"/>
<rect width="10" height="10" transform="matrix(-1 0 0 1 230 30)" fill="#48FC34"/>
<rect width="10" height="10" transform="matrix(-1 0 0 1 200 40)" fill="#57DE48" fill-opacity="0.75"/>
<rect width="10" height="10" transform="matrix(-1 0 0 1 210 40)" fill="#57DE48" fill-opacity="0.75"/>
<rect width="10" height="10" transform="matrix(-1 0 0 1 220 40)" fill="#57DE48" fill-opacity="0.75"/>
<rect width="10" height="10" transform="matrix(-1 0 0 1 230 40)" fill="#A6FF9B" fill-opacity="0.75"/>
<rect width="10" height="10" transform="matrix(-1 0 0 1 210 50)" fill="#57DE48" fill-opacity="0.75"/>
<rect width="10" height="10" transform="matrix(-1 0 0 1 220 50)" fill="#A6FF9B" fill-opacity="0.75"/>
<rect width="10" height="10" transform="matrix(-1 0 0 1 230 50)" fill="#57DE48" fill-opacity="0.75"/>
<rect width="10" height="10" transform="matrix(-1 0 0 1 240 50)" fill="#A6FF9B" fill-opacity="0.75"/>
<rect width="10" height="10" transform="matrix(-1 0 0 1 240 40)" fill="#48FC34"/>
<rect width="10" height="10" transform="matrix(-1 0 0 1 250 50)" fill="#48FC34"/>
<rect width="10" height="10" transform="matrix(-1 0 0 1 180 0)" fill="#48FC34"/>
<rect width="10" height="10" transform="matrix(-1 0 0 1 190 10)" fill="#48FC34"/>
<rect width="10" height="10" transform="matrix(-1 0 0 1 180 10)" fill="#A6FF9B" fill-opacity="0.75"/>
<rect width="10" height="10" transform="matrix(-1 0 0 1 170 10)" fill="#57DE48" fill-opacity="0.75"/>
<rect width="10" height="10" transform="matrix(-1 0 0 1 190 20)" fill="#57DE48" fill-opacity="0.75"/>
<rect width="10" height="10" transform="matrix(-1 0 0 1 180 20)" fill="#57DE48" fill-opacity="0.75"/>
<rect width="10" height="10" transform="matrix(-1 0 0 1 170 20)" fill="#57DE48" fill-opacity="0.75"/>
<rect width="10" height="10" transform="matrix(-1 0 0 1 190 30)" fill="#A6FF9B" fill-opacity="0.75"/>
<rect width="10" height="10" transform="matrix(-1 0 0 1 180 30)" fill="#57DE48" fill-opacity="0.75"/>
<rect width="10" height="10" transform="matrix(-1 0 0 1 170 30)" fill="#57DE48" fill-opacity="0.75"/>
<rect width="10" height="10" transform="matrix(-1 0 0 1 190 40)" fill="#A6FF9B" fill-opacity="0.75"/>
<rect width="10" height="10" transform="matrix(-1 0 0 1 180 40)" fill="#57DE48" fill-opacity="0.75"/>
<rect width="10" height="10" transform="matrix(-1 0 0 1 170 40)" fill="#57DE48" fill-opacity="0.75"/>
<rect width="10" height="10" transform="matrix(-1 0 0 1 170 0)" fill="#48FC34"/>
<rect width="10" height="10" transform="matrix(-1 0 0 1 200 50)" fill="#A6FF9B" fill-opacity="0.75"/>
<rect width="10" height="10" transform="matrix(-1 0 0 1 190 50)" fill="#57DE48" fill-opacity="0.75"/>
<rect width="10" height="10" transform="matrix(-1 0 0 1 180 50)" fill="#A6FF9B" fill-opacity="0.75"/>
<rect width="10" height="10" transform="matrix(-1 0 0 1 270 90)" fill="#57DE48" fill-opacity="0.75"/>
<rect width="10" height="10" transform="matrix(-1 0 0 1 210 60)" fill="#57DE48" fill-opacity="0.75"/>
<rect width="10" height="10" transform="matrix(-1 0 0 1 210 70)" fill="#57DE48" fill-opacity="0.75"/>
<rect width="10" height="10" transform="matrix(-1 0 0 1 270 120)" fill="#57DE48" fill-opacity="0.75"/>
<rect width="10" height="10" transform="matrix(-1 0 0 1 270 130)" fill="#57DE48" fill-opacity="0.75"/>
<rect width="10" height="10" transform="matrix(-1 0 0 1 220 80)" fill="#A6FF9B" fill-opacity="0.75"/>
<rect width="10" height="10" transform="matrix(-1 0 0 1 220 90)" fill="#A6FF9B" fill-opacity="0.75"/>
<rect width="10" height="10" transform="matrix(-1 0 0 1 220 100)" fill="#A6FF9B" fill-opacity="0.75"/>
<rect width="10" height="10" transform="matrix(-1 0 0 1 270 110)" fill="#57DE48" fill-opacity="0.75"/>
<rect width="10" height="10" transform="matrix(-1 0 0 1 270 100)" fill="#57DE48" fill-opacity="0.75"/>
<rect width="10" height="10" transform="matrix(-1 0 0 1 220 70)" fill="#A6FF9B" fill-opacity="0.75"/>
<rect width="10" height="10" transform="matrix(-1 0 0 1 230 80)" fill="#57DE48" fill-opacity="0.75"/>
<rect width="10" height="10" transform="matrix(-1 0 0 1 230 90)" fill="#57DE48" fill-opacity="0.75"/>
<rect width="10" height="10" transform="matrix(-1 0 0 1 220 60)" fill="#A6FF9B" fill-opacity="0.75"/>
<rect width="10" height="10" transform="matrix(-1 0 0 1 230 100)" fill="#57DE48" fill-opacity="0.75"/>
<rect width="10" height="10" transform="matrix(-1 0 0 1 230 110)" fill="#57DE48" fill-opacity="0.75"/>
<rect width="10" height="10" transform="matrix(-1 0 0 1 230 120)" fill="#57DE48" fill-opacity="0.75"/>
<rect width="10" height="10" transform="matrix(-1 0 0 1 230 130)" fill="#57DE48" fill-opacity="0.75"/>
<rect width="10" height="10" transform="matrix(-1 0 0 1 230 70)" fill="#57DE48" fill-opacity="0.75"/>
<rect width="10" height="10" transform="matrix(-1 0 0 1 240 80)" fill="#A6FF9B" fill-opacity="0.75"/>
<rect width="10" height="10" transform="matrix(-1 0 0 1 230 60)" fill="#57DE48" fill-opacity="0.75"/>
<rect width="10" height="10" transform="matrix(-1 0 0 1 240 90)" fill="#A6FF9B" fill-opacity="0.75"/>
<rect width="10" height="10" transform="matrix(-1 0 0 1 240 70)" fill="#A6FF9B" fill-opacity="0.75"/>
<rect width="10" height="10" transform="matrix(-1 0 0 1 250 80)" fill="#57DE48" fill-opacity="0.75"/>
<rect width="10" height="10" transform="matrix(-1 0 0 1 250 90)" fill="#57DE48" fill-opacity="0.75"/>
<rect width="10" height="10" transform="matrix(-1 0 0 1 240 100)" fill="#A6FF9B" fill-opacity="0.75"/>
<rect width="10" height="10" transform="matrix(-1 0 0 1 240 120)" fill="#A6FF9B" fill-opacity="0.75"/>
<rect width="10" height="10" transform="matrix(-1 0 0 1 240 130)" fill="#A6FF9B" fill-opacity="0.75"/>
<rect width="10" height="10" transform="matrix(-1 0 0 1 240 110)" fill="#A6FF9B" fill-opacity="0.75"/>
<rect width="10" height="10" transform="matrix(-1 0 0 1 240 140)" fill="#A6FF9B" fill-opacity="0.75"/>
<rect width="10" height="10" transform="matrix(-1 0 0 1 250 70)" fill="#57DE48" fill-opacity="0.75"/>
<rect width="10" height="10" transform="matrix(-1 0 0 1 250 100)" fill="#57DE48" fill-opacity="0.75"/>
<rect width="10" height="10" transform="matrix(-1 0 0 1 240 60)" fill="#A6FF9B" fill-opacity="0.75"/>
<rect width="10" height="10" transform="matrix(-1 0 0 1 250 110)" fill="#57DE48" fill-opacity="0.75"/>
<rect width="10" height="10" transform="matrix(-1 0 0 1 250 120)" fill="#57DE48" fill-opacity="0.75"/>
<rect width="10" height="10" transform="matrix(-1 0 0 1 250 130)" fill="#57DE48" fill-opacity="0.75"/>
<rect width="10" height="10" transform="matrix(-1 0 0 1 250 60)" fill="#57DE48" fill-opacity="0.75"/>
<rect width="10" height="10" transform="matrix(-1 0 0 1 260 80)" fill="#A6FF9B" fill-opacity="0.75"/>
<rect width="10" height="10" transform="matrix(-1 0 0 1 290 120)" fill="#57DE48" fill-opacity="0.75"/>
<rect width="10" height="10" transform="matrix(-1 0 0 1 290 130)" fill="#57DE48" fill-opacity="0.75"/>
<rect width="10" height="10" transform="matrix(-1 0 0 1 290 140)" fill="#57DE48" fill-opacity="0.75"/>
<rect width="10" height="10" transform="matrix(-1 0 0 1 290 150)" fill="#57DE48" fill-opacity="0.75"/>
<rect width="10" height="10" transform="matrix(-1 0 0 1 280 110)" fill="#A6FF9B" fill-opacity="0.75"/>
<rect width="10" height="10" transform="matrix(-1 0 0 1 280 120)" fill="#A6FF9B" fill-opacity="0.75"/>
<rect width="10" height="10" transform="matrix(-1 0 0 1 280 130)" fill="#A6FF9B" fill-opacity="0.75"/>
<rect width="10" height="10" transform="matrix(-1 0 0 1 280 140)" fill="#A6FF9B" fill-opacity="0.75"/>
<rect width="10" height="10" transform="matrix(-1 0 0 1 280 150)" fill="#A6FF9B" fill-opacity="0.75"/>
<rect width="10" height="10" transform="matrix(-1 0 0 1 280 160)" fill="#A6FF9B" fill-opacity="0.75"/>
<rect width="10" height="10" transform="matrix(-1 0 0 1 280 170)" fill="#A6FF9B" fill-opacity="0.75"/>
<rect width="10" height="10" transform="matrix(-1 0 0 1 260 90)" fill="#A6FF9B" fill-opacity="0.75"/>
<rect width="10" height="10" transform="matrix(-1 0 0 1 260 100)" fill="#A6FF9B" fill-opacity="0.75"/>
<rect width="10" height="10" transform="matrix(-1 0 0 1 260 110)" fill="#A6FF9B" fill-opacity="0.75"/>
<rect width="10" height="10" transform="matrix(-1 0 0 1 260 120)" fill="#A6FF9B" fill-opacity="0.75"/>
<rect width="10" height="10" transform="matrix(-1 0 0 1 260 130)" fill="#A6FF9B" fill-opacity="0.75"/>
<rect width="10" height="10" transform="matrix(-1 0 0 1 260 140)" fill="#A6FF9B" fill-opacity="0.75"/>
<rect width="10" height="10" transform="matrix(-1 0 0 1 260 60)" fill="#48FC34"/>
<rect width="10" height="10" transform="matrix(-1 0 0 1 260 70)" fill="#48FC34"/>
<rect width="10" height="10" transform="matrix(-1 0 0 1 270 80)" fill="#48FC34"/>
<rect width="10" height="10" transform="matrix(-1 0 0 1 200 70)" fill="#A6FF9B" fill-opacity="0.75"/>
<rect width="10" height="10" transform="matrix(-1 0 0 1 210 80)" fill="#57DE48" fill-opacity="0.75"/>
<rect width="10" height="10" transform="matrix(-1 0 0 1 280 90)" fill="#48FC34"/>
<rect width="10" height="10" transform="matrix(-1 0 0 1 280 100)" fill="#48FC34"/>
<rect width="10" height="10" transform="matrix(-1 0 0 1 290 110)" fill="#48FC34"/>
<rect width="10" height="10" transform="matrix(-1 0 0 1 200 60)" fill="#57DE48" fill-opacity="0.75"/>
<rect width="10" height="10" transform="matrix(-1 0 0 1 270 150)" fill="#57DE48" fill-opacity="0.75"/>
<rect width="10" height="10" transform="matrix(-1 0 0 1 270 140)" fill="#57DE48" fill-opacity="0.75"/>
<rect width="10" height="10" transform="matrix(-1 0 0 1 270 160)" fill="#57DE48" fill-opacity="0.75"/>
<rect width="10" height="10" transform="matrix(-1 0 0 1 190 60)" fill="#A6FF9B" fill-opacity="0.75"/>
</svg>
