<svg width="90" height="90" viewBox="0 0 90 90" fill="none" xmlns="http://www.w3.org/2000/svg">
<rect width="10" height="10" transform="matrix(-1 0 0 1 10 40)" fill="white"/>
<rect width="10" height="10" transform="matrix(-1 0 0 1 10 30)" fill="white"/>
<rect width="10" height="10" transform="matrix(-1 0 0 1 10 20)" fill="white"/>
<rect width="10" height="10" transform="matrix(-1 0 0 1 20 40)" fill="white"/>
<rect width="10" height="10" transform="matrix(-1 0 0 1 20 50)" fill="white"/>
<rect width="10" height="10" transform="matrix(-1 0 0 1 20 30)" fill="white"/>
<rect width="10" height="10" transform="matrix(-1 0 0 1 20 20)" fill="white"/>
<rect width="10" height="10" transform="matrix(-1 0 0 1 20 10)" fill="white"/>
<rect width="10" height="10" transform="matrix(-1 0 0 1 30 40)" fill="white"/>
<rect width="10" height="10" transform="matrix(-1 0 0 1 30 50)" fill="white"/>
<rect width="10" height="10" transform="matrix(-1 0 0 1 30 60)" fill="white"/>
<rect width="10" height="10" transform="matrix(-1 0 0 1 30 30)" fill="white"/>
<rect width="10" height="10" transform="matrix(-1 0 0 1 30 20)" fill="white"/>
<rect width="10" height="10" transform="matrix(-1 0 0 1 30 10)" fill="white"/>
<rect width="10" height="10" transform="matrix(-1 0 0 1 30 0)" fill="white"/>
<rect width="10" height="10" transform="matrix(-1 0 0 1 40 40)" fill="white"/>
<rect width="10" height="10" transform="matrix(-1 0 0 1 40 50)" fill="white"/>
<rect width="10" height="10" transform="matrix(-1 0 0 1 40 60)" fill="white"/>
<rect width="10" height="10" transform="matrix(-1 0 0 1 40 70)" fill="white"/>
<rect width="10" height="10" transform="matrix(-1 0 0 1 50 40)" fill="white"/>
<rect width="10" height="10" transform="matrix(-1 0 0 1 50 50)" fill="white"/>
<rect width="10" height="10" transform="matrix(-1 0 0 1 50 60)" fill="white"/>
<rect width="10" height="10" transform="matrix(-1 0 0 1 50 70)" fill="white"/>
<rect width="10" height="10" transform="matrix(-1 0 0 1 50 80)" fill="white"/>
<rect width="10" height="10" transform="matrix(-1 0 0 1 60 40)" fill="white"/>
<rect width="10" height="10" transform="matrix(-1 0 0 1 60 50)" fill="white"/>
<rect width="10" height="10" transform="matrix(-1 0 0 1 60 60)" fill="white"/>
<rect width="10" height="10" transform="matrix(-1 0 0 1 60 70)" fill="white"/>
<rect width="10" height="10" transform="matrix(-1 0 0 1 70 40)" fill="white"/>
<rect width="10" height="10" transform="matrix(-1 0 0 1 70 50)" fill="white"/>
<rect width="10" height="10" transform="matrix(-1 0 0 1 70 60)" fill="white"/>
<rect width="10" height="10" transform="matrix(-1 0 0 1 80 40)" fill="white"/>
<rect width="10" height="10" transform="matrix(-1 0 0 1 80 50)" fill="white"/>
<rect width="10" height="10" transform="matrix(-1 0 0 1 90 40)" fill="white"/>
<rect width="10" height="10" transform="matrix(-1 0 0 1 40 30)" fill="white"/>
<rect width="10" height="10" transform="matrix(-1 0 0 1 50 30)" fill="white"/>
<rect width="10" height="10" transform="matrix(-1 0 0 1 60 30)" fill="white"/>
<rect width="10" height="10" transform="matrix(-1 0 0 1 70 30)" fill="white"/>
<rect width="10" height="10" transform="matrix(-1 0 0 1 80 30)" fill="white"/>
<rect width="10" height="10" transform="matrix(-1 0 0 1 90 30)" fill="white"/>
<rect width="10" height="10" transform="matrix(-1 0 0 1 40 20)" fill="white"/>
<rect width="10" height="10" transform="matrix(-1 0 0 1 50 20)" fill="white"/>
<rect width="10" height="10" transform="matrix(-1 0 0 1 60 20)" fill="white"/>
<rect width="10" height="10" transform="matrix(-1 0 0 1 70 20)" fill="white"/>
<rect width="10" height="10" transform="matrix(-1 0 0 1 80 20)" fill="white"/>
<rect width="10" height="10" transform="matrix(-1 0 0 1 90 20)" fill="white"/>
<rect width="10" height="10" transform="matrix(-1 0 0 1 40 10)" fill="white"/>
<rect width="10" height="10" transform="matrix(-1 0 0 1 60 10)" fill="white"/>
<rect width="10" height="10" transform="matrix(-1 0 0 1 70 10)" fill="white"/>
<rect width="10" height="10" transform="matrix(-1 0 0 1 80 10)" fill="white"/>
<rect width="10" height="10" transform="matrix(-1 0 0 1 70 0)" fill="white"/>
</svg>
