<svg width="180" height="180" viewBox="0 0 180 180" fill="none" xmlns="http://www.w3.org/2000/svg">
<rect x="10" y="10" width="10" height="10" fill="#D9D9D9"/>
<rect x="20" width="10" height="10" fill="#D9D9D9"/>
<rect x="30" width="10" height="10" fill="#D9D9D9"/>
<rect x="40" width="10" height="10" fill="#D9D9D9"/>
<rect x="50" width="10" height="10" fill="#D9D9D9"/>
<rect x="60" width="10" height="10" fill="#D9D9D9"/>
<rect x="70" width="10" height="10" fill="#D9D9D9"/>
<rect x="80" width="10" height="10" fill="#D9D9D9"/>
<rect x="90" width="10" height="10" fill="#D9D9D9"/>
<rect x="100" width="10" height="10" fill="#D9D9D9"/>
<rect x="110" width="10" height="10" fill="#D9D9D9"/>
<rect x="120" width="10" height="10" fill="#D9D9D9"/>
<rect x="130" width="10" height="10" fill="#D9D9D9"/>
<rect x="140" width="10" height="10" fill="#D9D9D9"/>
<rect x="150" width="10" height="10" fill="#D9D9D9"/>
<rect x="170" y="10" width="10" height="10" transform="rotate(90 170 10)" fill="#D9D9D9"/>
<rect x="180" y="20" width="10" height="10" transform="rotate(90 180 20)" fill="#D9D9D9"/>
<rect x="180" y="30" width="10" height="10" transform="rotate(90 180 30)" fill="#D9D9D9"/>
<rect x="180" y="40" width="10" height="10" transform="rotate(90 180 40)" fill="#D9D9D9"/>
<rect x="180" y="50" width="10" height="10" transform="rotate(90 180 50)" fill="#D9D9D9"/>
<rect x="180" y="60" width="10" height="10" transform="rotate(90 180 60)" fill="#D9D9D9"/>
<rect x="180" y="70" width="10" height="10" transform="rotate(90 180 70)" fill="#D9D9D9"/>
<rect x="180" y="80" width="10" height="10" transform="rotate(90 180 80)" fill="#D9D9D9"/>
<rect x="180" y="90" width="10" height="10" transform="rotate(90 180 90)" fill="#D9D9D9"/>
<rect x="180" y="100" width="10" height="10" transform="rotate(90 180 100)" fill="#D9D9D9"/>
<rect x="180" y="110" width="10" height="10" transform="rotate(90 180 110)" fill="#D9D9D9"/>
<rect x="180" y="120" width="10" height="10" transform="rotate(90 180 120)" fill="#D9D9D9"/>
<rect x="180" y="130" width="10" height="10" transform="rotate(90 180 130)" fill="#D9D9D9"/>
<rect x="180" y="140" width="10" height="10" transform="rotate(90 180 140)" fill="#D9D9D9"/>
<rect x="180" y="150" width="10" height="10" transform="rotate(90 180 150)" fill="#D9D9D9"/>
<rect x="170" y="160" width="10" height="10" transform="rotate(90 170 160)" fill="#D9D9D9"/>
<rect x="160" y="180" width="10" height="10" transform="rotate(-180 160 180)" fill="#D9D9D9"/>
<rect x="150" y="180" width="10" height="10" transform="rotate(-180 150 180)" fill="#D9D9D9"/>
<rect x="140" y="180" width="10" height="10" transform="rotate(-180 140 180)" fill="#D9D9D9"/>
<rect x="130" y="180" width="10" height="10" transform="rotate(-180 130 180)" fill="#D9D9D9"/>
<rect x="120" y="180" width="10" height="10" transform="rotate(-180 120 180)" fill="#D9D9D9"/>
<rect x="110" y="180" width="10" height="10" transform="rotate(-180 110 180)" fill="#D9D9D9"/>
<rect x="100" y="180" width="10" height="10" transform="rotate(-180 100 180)" fill="#D9D9D9"/>
<rect x="90" y="180" width="10" height="10" transform="rotate(-180 90 180)" fill="#D9D9D9"/>
<rect x="80" y="180" width="10" height="10" transform="rotate(-180 80 180)" fill="#D9D9D9"/>
<rect x="70" y="180" width="10" height="10" transform="rotate(-180 70 180)" fill="#D9D9D9"/>
<rect x="60" y="180" width="10" height="10" transform="rotate(-180 60 180)" fill="#D9D9D9"/>
<rect x="50" y="180" width="10" height="10" transform="rotate(-180 50 180)" fill="#D9D9D9"/>
<rect x="40" y="180" width="10" height="10" transform="rotate(-180 40 180)" fill="#D9D9D9"/>
<rect x="30" y="180" width="10" height="10" transform="rotate(-180 30 180)" fill="#D9D9D9"/>
<rect x="10" y="170" width="10" height="10" transform="rotate(-90 10 170)" fill="#D9D9D9"/>
<rect y="160" width="10" height="10" transform="rotate(-90 0 160)" fill="#D9D9D9"/>
<rect y="150" width="10" height="10" transform="rotate(-90 0 150)" fill="#D9D9D9"/>
<rect y="140" width="10" height="10" transform="rotate(-90 0 140)" fill="#D9D9D9"/>
<rect y="130" width="10" height="10" transform="rotate(-90 0 130)" fill="#D9D9D9"/>
<rect y="120" width="10" height="10" transform="rotate(-90 0 120)" fill="#D9D9D9"/>
<rect y="110" width="10" height="10" transform="rotate(-90 0 110)" fill="#D9D9D9"/>
<rect y="100" width="10" height="10" transform="rotate(-90 0 100)" fill="#D9D9D9"/>
<rect y="90" width="10" height="10" transform="rotate(-90 0 90)" fill="#D9D9D9"/>
<rect y="80" width="10" height="10" transform="rotate(-90 0 80)" fill="#D9D9D9"/>
<rect y="70" width="10" height="10" transform="rotate(-90 0 70)" fill="#D9D9D9"/>
<rect y="60" width="10" height="10" transform="rotate(-90 0 60)" fill="#D9D9D9"/>
<rect y="50" width="10" height="10" transform="rotate(-90 0 50)" fill="#D9D9D9"/>
<rect y="40" width="10" height="10" transform="rotate(-90 0 40)" fill="#D9D9D9"/>
<rect y="30" width="10" height="10" transform="rotate(-90 0 30)" fill="#D9D9D9"/>
</svg>
