<svg width="231" height="105" viewBox="0 0 231 105" fill="none" xmlns="http://www.w3.org/2000/svg">
<rect x="21" y="98" width="7" height="7" fill="white"/>
<rect x="35" y="98" width="7" height="7" fill="white"/>
<rect x="133" y="98" width="7" height="7" fill="white"/>
<rect x="42" y="98" width="7" height="7" fill="white"/>
<rect x="49" y="98" width="7" height="7" fill="white"/>
<rect x="63" y="98" width="7" height="7" fill="white"/>
<rect x="56" y="98" width="7" height="7" fill="white"/>
<rect x="70" y="98" width="7" height="7" fill="white"/>
<rect x="77" y="98" width="7" height="7" fill="white"/>
<rect x="91" y="98" width="7" height="7" fill="white"/>
<rect x="84" y="98" width="7" height="7" fill="white"/>
<rect x="105" y="98" width="7" height="7" fill="white"/>
<rect x="119" y="98" width="7" height="7" fill="white"/>
<rect x="112" y="98" width="7" height="7" fill="white"/>
<rect x="126" y="98" width="7" height="7" fill="white"/>
<rect x="98" y="98" width="7" height="7" fill="white"/>
<rect x="140" y="98" width="7" height="7" fill="white"/>
<rect x="147" y="98" width="7" height="7" fill="white"/>
<rect x="161" y="98" width="7" height="7" fill="white"/>
<rect x="154" y="98" width="7" height="7" fill="white"/>
<rect x="168" y="98" width="7" height="7" fill="white"/>
<rect x="175" y="98" width="7" height="7" fill="white"/>
<rect x="189" y="98" width="7" height="7" fill="white"/>
<rect x="182" y="98" width="7" height="7" fill="white"/>
<rect x="196" y="98" width="7" height="7" fill="white"/>
<rect x="203" y="98" width="7" height="7" fill="white"/>
<rect x="28" y="98" width="7" height="7" fill="white"/>
<rect x="231" y="21" width="7" height="7" transform="rotate(90 231 21)" fill="white"/>
<rect x="224" y="14" width="7" height="7" transform="rotate(90 224 14)" fill="white"/>
<rect x="217" y="7" width="7" height="7" transform="rotate(90 217 7)" fill="white"/>
<rect x="231" y="35" width="7" height="7" transform="rotate(90 231 35)" fill="white"/>
<rect x="231" y="28" width="7" height="7" transform="rotate(90 231 28)" fill="white"/>
<rect x="231" y="42" width="7" height="7" transform="rotate(90 231 42)" fill="white"/>
<rect x="231" y="49" width="7" height="7" transform="rotate(90 231 49)" fill="white"/>
<rect x="231" y="63" width="7" height="7" transform="rotate(90 231 63)" fill="white"/>
<rect x="231" y="56" width="7" height="7" transform="rotate(90 231 56)" fill="white"/>
<rect x="231" y="70" width="7" height="7" transform="rotate(90 231 70)" fill="white"/>
<rect x="231" y="77" width="7" height="7" transform="rotate(90 231 77)" fill="white"/>
<rect x="210" y="91" width="7" height="7" fill="white"/>
<rect x="217" y="84" width="7" height="7" fill="white"/>
<rect x="210" y="7" width="7" height="7" transform="rotate(-180 210 7)" fill="white"/>
<rect x="196" y="7" width="7" height="7" transform="rotate(-180 196 7)" fill="white"/>
<rect x="98" y="7" width="7" height="7" transform="rotate(-180 98 7)" fill="white"/>
<rect x="189" y="7" width="7" height="7" transform="rotate(-180 189 7)" fill="white"/>
<rect x="182" y="7" width="7" height="7" transform="rotate(-180 182 7)" fill="white"/>
<rect x="168" y="7" width="7" height="7" transform="rotate(-180 168 7)" fill="white"/>
<rect x="175" y="7" width="7" height="7" transform="rotate(-180 175 7)" fill="white"/>
<rect x="161" y="7" width="7" height="7" transform="rotate(-180 161 7)" fill="white"/>
<rect x="154" y="7" width="7" height="7" transform="rotate(-180 154 7)" fill="white"/>
<rect x="140" y="7" width="7" height="7" transform="rotate(-180 140 7)" fill="white"/>
<rect x="147" y="7" width="7" height="7" transform="rotate(-180 147 7)" fill="white"/>
<rect x="126" y="7" width="7" height="7" transform="rotate(-180 126 7)" fill="white"/>
<rect x="112" y="7" width="7" height="7" transform="rotate(-180 112 7)" fill="white"/>
<rect x="119" y="7" width="7" height="7" transform="rotate(-180 119 7)" fill="white"/>
<rect x="105" y="7" width="7" height="7" transform="rotate(-180 105 7)" fill="white"/>
<rect x="133" y="7" width="7" height="7" transform="rotate(-180 133 7)" fill="white"/>
<rect x="91" y="7" width="7" height="7" transform="rotate(-180 91 7)" fill="white"/>
<rect x="84" y="7" width="7" height="7" transform="rotate(-180 84 7)" fill="white"/>
<rect x="70" y="7" width="7" height="7" transform="rotate(-180 70 7)" fill="white"/>
<rect x="77" y="7" width="7" height="7" transform="rotate(-180 77 7)" fill="white"/>
<rect x="63" y="7" width="7" height="7" transform="rotate(-180 63 7)" fill="white"/>
<rect x="56" y="7" width="7" height="7" transform="rotate(-180 56 7)" fill="white"/>
<rect x="42" y="7" width="7" height="7" transform="rotate(-180 42 7)" fill="white"/>
<rect x="49" y="7" width="7" height="7" transform="rotate(-180 49 7)" fill="white"/>
<rect x="35" y="7" width="7" height="7" transform="rotate(-180 35 7)" fill="white"/>
<rect x="28" y="7" width="7" height="7" transform="rotate(-180 28 7)" fill="white"/>
<rect x="203" y="7" width="7" height="7" transform="rotate(-180 203 7)" fill="white"/>
<rect y="84" width="7" height="7" transform="rotate(-90 0 84)" fill="white"/>
<rect x="7" y="91" width="7" height="7" transform="rotate(-90 7 91)" fill="white"/>
<rect x="14" y="98" width="7" height="7" transform="rotate(-90 14 98)" fill="white"/>
<rect y="70" width="7" height="7" transform="rotate(-90 0 70)" fill="white"/>
<rect y="77" width="7" height="7" transform="rotate(-90 0 77)" fill="white"/>
<rect y="63" width="7" height="7" transform="rotate(-90 0 63)" fill="white"/>
<rect y="56" width="7" height="7" transform="rotate(-90 0 56)" fill="white"/>
<rect y="42" width="7" height="7" transform="rotate(-90 0 42)" fill="white"/>
<rect y="49" width="7" height="7" transform="rotate(-90 0 49)" fill="white"/>
<rect y="35" width="7" height="7" transform="rotate(-90 0 35)" fill="white"/>
<rect y="28" width="7" height="7" transform="rotate(-90 0 28)" fill="white"/>
<rect x="21" y="14" width="7" height="7" transform="rotate(-180 21 14)" fill="white"/>
<rect x="14" y="21" width="7" height="7" transform="rotate(-180 14 21)" fill="white"/>
</svg>
