<svg width="172" height="240" viewBox="0 0 172 240" fill="none" xmlns="http://www.w3.org/2000/svg">
<rect x="137.143" width="17.1429" height="17.1429" fill="#110D15"/>
<rect x="137.143" y="17.1428" width="17.1429" height="17.1429" fill="#E7901E"/>
<rect x="154.286" width="17.1429" height="17.1429" fill="#110D15"/>
<rect x="154.286" y="17.1428" width="17.1429" height="17.1429" fill="#110D15"/>
<rect x="154.286" y="85.7144" width="17.1429" height="17.1429" fill="#110D15"/>
<rect x="154.286" y="102.857" width="17.1429" height="17.1429" fill="#110D15"/>
<rect x="137.143" y="120" width="17.1429" height="17.1429" fill="#110D15"/>
<rect x="120" y="137.143" width="17.1429" height="17.1429" fill="#110D15"/>
<rect x="102.857" y="154.286" width="17.1429" height="17.1429" fill="#110D15"/>
<rect x="85.7144" y="171.428" width="17.1429" height="17.1429" fill="#110D15"/>
<rect x="68.5715" y="188.572" width="17.1429" height="17.1429" fill="#110D15"/>
<rect x="51.4285" y="205.714" width="17.1429" height="17.1429" fill="#110D15"/>
<rect x="34.2856" y="222.857" width="17.1429" height="17.1429" fill="#110D15"/>
<rect x="17.1428" y="222.857" width="17.1429" height="17.1429" fill="#110D15"/>
<rect x="17.1428" y="205.714" width="17.1429" height="17.1429" fill="#110D15"/>
<rect x="34.2856" y="188.572" width="17.1429" height="17.1429" fill="#110D15"/>
<rect x="34.2856" y="171.428" width="17.1429" height="17.1429" fill="#110D15"/>
<rect x="51.4285" y="154.286" width="17.1429" height="17.1429" fill="#110D15"/>
<rect x="51.4285" y="137.143" width="17.1429" height="17.1429" fill="#110D15"/>
<rect x="51.4285" y="120" width="17.1429" height="17.1429" fill="#110D15"/>
<rect x="68.5715" y="120" width="17.1429" height="17.1429" fill="#110D15"/>
<rect x="34.2856" y="120" width="17.1429" height="17.1429" fill="#110D15"/>
<rect x="17.1428" y="120" width="17.1429" height="17.1429" fill="#110D15"/>
<rect y="120" width="17.1429" height="17.1429" fill="#110D15"/>
<rect y="102.857" width="17.1429" height="17.1429" fill="#110D15"/>
<rect y="85.7144" width="17.1429" height="17.1429" fill="#110D15"/>
<rect x="17.1428" y="68.5715" width="17.1429" height="17.1429" fill="#110D15"/>
<rect x="17.1428" y="51.4285" width="17.1429" height="17.1429" fill="#110D15"/>
<rect x="34.2856" y="34.2856" width="17.1429" height="17.1429" fill="#110D15"/>
<rect x="51.4285" width="17.1429" height="17.1429" fill="#110D15"/>
<rect x="68.5715" width="17.1429" height="17.1429" fill="#110D15"/>
<rect x="102.857" width="17.1429" height="17.1429" fill="#110D15"/>
<rect x="85.7144" width="17.1429" height="17.1429" fill="#110D15"/>
<rect x="120" width="17.1429" height="17.1429" fill="#110D15"/>
<rect x="34.2856" y="17.1428" width="17.1429" height="17.1429" fill="#110D15"/>
<rect x="51.4285" y="17.1428" width="17.1429" height="17.1429" fill="#FDFB97"/>
<rect x="68.5715" y="17.1428" width="17.1429" height="17.1429" fill="#F3CB1E"/>
<rect x="102.857" y="17.1428" width="17.1429" height="17.1429" fill="#F3CB1E"/>
<rect x="85.7144" y="17.1428" width="17.1429" height="17.1429" fill="#F3CB1E"/>
<rect x="120" y="17.1428" width="17.1429" height="17.1429" fill="#F3CB1E"/>
<rect x="51.4285" y="34.2856" width="17.1429" height="17.1429" fill="#FDFB97"/>
<rect x="34.2856" y="51.4285" width="17.1429" height="17.1429" fill="#FDFB97"/>
<rect x="34.2856" y="68.5715" width="17.1429" height="17.1429" fill="#FDFB97"/>
<rect x="17.1428" y="85.7144" width="17.1429" height="17.1429" fill="#FDFB97"/>
<rect x="85.7144" y="85.7144" width="17.1429" height="17.1429" fill="#F3CB1E"/>
<rect x="17.1428" y="102.857" width="17.1429" height="17.1429" fill="#FDFB97"/>
<rect x="85.7144" y="102.857" width="17.1429" height="17.1429" fill="#F3CB1E"/>
<rect x="85.7144" y="120" width="17.1429" height="17.1429" fill="#F3CB1E"/>
<rect x="68.5715" y="137.143" width="17.1429" height="17.1429" fill="#FDFB97"/>
<rect x="68.5715" y="154.286" width="17.1429" height="17.1429" fill="#FDFB97"/>
<rect x="51.4285" y="171.428" width="17.1429" height="17.1429" fill="#FDFB97"/>
<rect x="51.4285" y="188.572" width="17.1429" height="17.1429" fill="#FDFB97"/>
<rect x="34.2856" y="205.714" width="17.1429" height="17.1429" fill="#FDFB97"/>
<rect x="68.5715" y="34.2856" width="17.1429" height="17.1429" fill="#F3CB1E"/>
<rect x="34.2856" y="85.7144" width="17.1429" height="17.1429" fill="#F3CB1E"/>
<rect x="102.857" y="85.7144" width="17.1429" height="17.1429" fill="#F3CB1E"/>
<rect x="51.4285" y="68.5715" width="17.1429" height="17.1429" fill="#F3CB1E"/>
<rect x="51.4285" y="51.4285" width="17.1429" height="17.1429" fill="#F3CB1E"/>
<rect x="102.857" y="102.857" width="17.1429" height="17.1429" fill="#F3CB1E"/>
<rect x="102.857" y="120" width="17.1429" height="17.1429" fill="#F3CB1E"/>
<rect x="34.2856" y="102.857" width="17.1429" height="17.1429" fill="#F3CB1E"/>
<rect x="85.7144" y="137.143" width="17.1429" height="17.1429" fill="#F3CB1E"/>
<rect x="85.7144" y="154.286" width="17.1429" height="17.1429" fill="#E7901E"/>
<rect x="68.5715" y="171.428" width="17.1429" height="17.1429" fill="#E7901E"/>
<rect x="68.5715" y="85.7144" width="17.1429" height="17.1429" fill="#F3CB1E"/>
<rect x="137.143" y="85.7144" width="17.1429" height="17.1429" fill="#FDFB97"/>
<rect x="85.7144" y="68.5715" width="17.1429" height="17.1429" fill="#E7901E"/>
<rect x="102.857" y="34.2856" width="17.1429" height="17.1429" fill="#F3CB1E"/>
<rect x="51.4285" y="85.7144" width="17.1429" height="17.1429" fill="#F3CB1E"/>
<rect x="120" y="85.7144" width="17.1429" height="17.1429" fill="#FDFB97"/>
<rect x="85.7144" y="51.4285" width="17.1429" height="17.1429" fill="#F3CB1E"/>
<rect x="68.5715" y="68.5715" width="17.1429" height="17.1429" fill="#F3CB1E"/>
<rect x="68.5715" y="102.857" width="17.1429" height="17.1429" fill="#F3CB1E"/>
<rect x="137.143" y="102.857" width="17.1429" height="17.1429" fill="#E7901E"/>
<rect x="85.7144" y="34.2856" width="17.1429" height="17.1429" fill="#F3CB1E"/>
<rect x="120" y="102.857" width="17.1429" height="17.1429" fill="#F3CB1E"/>
<rect x="120" y="120" width="17.1429" height="17.1429" fill="#E7901E"/>
<rect x="68.5715" y="51.4285" width="17.1429" height="17.1429" fill="#F3CB1E"/>
<rect x="51.4285" y="102.857" width="17.1429" height="17.1429" fill="#F3CB1E"/>
<rect x="102.857" y="137.143" width="17.1429" height="17.1429" fill="#E7901E"/>
<rect x="120" y="34.2856" width="17.1429" height="17.1429" fill="#E7901E"/>
<rect x="102.857" y="51.4285" width="17.1429" height="17.1429" fill="#E7901E"/>
<rect x="137.143" y="34.2856" width="17.1429" height="17.1429" fill="#110D15"/>
<rect x="120" y="51.4285" width="17.1429" height="17.1429" fill="#110D15"/>
<rect x="120" y="68.5715" width="17.1429" height="17.1429" fill="#110D15"/>
<rect x="102.857" y="68.5715" width="17.1429" height="17.1429" fill="#110D15"/>
<rect x="154.286" y="68.5715" width="17.1429" height="17.1429" fill="#110D15"/>
<rect x="137.143" y="68.5715" width="17.1429" height="17.1429" fill="#110D15"/>
</svg>
