<svg width="240" height="240" viewBox="0 0 240 240" fill="none" xmlns="http://www.w3.org/2000/svg">
<rect x="97.5" y="240" width="7.5" height="7.5" transform="rotate(-90 97.5 240)" fill="#2DC91C"/>
<rect x="97.5" y="232.5" width="7.5" height="7.5" transform="rotate(-90 97.5 232.5)" fill="#2DC91C"/>
<rect x="97.5" y="225" width="7.5" height="7.5" transform="rotate(-90 97.5 225)" fill="#6EFF5E"/>
<rect x="97.5" y="217.5" width="7.5" height="7.5" transform="rotate(-90 97.5 217.5)" fill="#48FC34"/>
<rect x="97.5" y="210" width="7.5" height="7.5" transform="rotate(-90 97.5 210)" fill="#48FC34"/>
<rect x="97.5" y="202.5" width="7.5" height="7.5" transform="rotate(-90 97.5 202.5)" fill="#48FC34"/>
<rect x="97.5" y="195" width="7.5" height="7.5" transform="rotate(-90 97.5 195)" fill="#48FC34"/>
<rect x="97.5" y="187.5" width="7.5" height="7.5" transform="rotate(-90 97.5 187.5)" fill="#48FC34"/>
<rect x="97.5" y="180" width="7.5" height="7.5" transform="rotate(-90 97.5 180)" fill="#48FC34"/>
<rect x="82.5" y="240" width="7.5" height="7.5" transform="rotate(-90 82.5 240)" fill="#2DC91C"/>
<rect x="105" y="240" width="7.5" height="7.5" transform="rotate(-90 105 240)" fill="#2DC91C"/>
<rect x="97.5" y="135" width="7.5" height="7.5" transform="rotate(-90 97.5 135)" fill="#48FC34"/>
<rect x="82.5" y="225" width="7.5" height="7.5" transform="rotate(-90 82.5 225)" fill="#6EFF5E"/>
<rect x="82.5" y="202.5" width="7.5" height="7.5" transform="rotate(-90 82.5 202.5)" fill="#48FC34"/>
<rect x="82.5" y="217.5" width="7.5" height="7.5" transform="rotate(-90 82.5 217.5)" fill="#6EFF5E"/>
<rect x="82.5" y="195" width="7.5" height="7.5" transform="rotate(-90 82.5 195)" fill="#48FC34"/>
<rect x="82.5" y="172.5" width="7.5" height="7.5" transform="rotate(-90 82.5 172.5)" fill="#48FC34"/>
<rect x="82.5" y="232.5" width="7.5" height="7.5" transform="rotate(-90 82.5 232.5)" fill="#2DC91C"/>
<rect x="82.5" y="187.5" width="7.5" height="7.5" transform="rotate(-90 82.5 187.5)" fill="#48FC34"/>
<rect x="82.5" y="165" width="7.5" height="7.5" transform="rotate(-90 82.5 165)" fill="#48FC34"/>
<rect x="127.5" y="240" width="7.5" height="7.5" transform="rotate(-90 127.5 240)" fill="#2DC91C"/>
<rect x="82.5" y="210" width="7.5" height="7.5" transform="rotate(-90 82.5 210)" fill="#48FC34"/>
<rect x="82.5" y="180" width="7.5" height="7.5" transform="rotate(-90 82.5 180)" fill="#48FC34"/>
<rect x="105" y="202.5" width="7.5" height="7.5" transform="rotate(-90 105 202.5)" fill="#48FC34"/>
<rect x="105" y="225" width="7.5" height="7.5" transform="rotate(-90 105 225)" fill="#6EFF5E"/>
<rect x="105" y="195" width="7.5" height="7.5" transform="rotate(-90 105 195)" fill="#48FC34"/>
<rect x="105" y="217.5" width="7.5" height="7.5" transform="rotate(-90 105 217.5)" fill="#48FC34"/>
<rect x="105" y="187.5" width="7.5" height="7.5" transform="rotate(-90 105 187.5)" fill="#48FC34"/>
<rect x="127.5" y="202.5" width="7.5" height="7.5" transform="rotate(-90 127.5 202.5)" fill="#48FC34"/>
<rect x="105" y="150" width="7.5" height="7.5" transform="rotate(-90 105 150)" fill="#48FC34"/>
<rect x="105" y="142.5" width="7.5" height="7.5" transform="rotate(-90 105 142.5)" fill="#48FC34"/>
<rect x="105" y="232.5" width="7.5" height="7.5" transform="rotate(-90 105 232.5)" fill="#2DC91C"/>
<rect x="105" y="210" width="7.5" height="7.5" transform="rotate(-90 105 210)" fill="#48FC34"/>
<rect x="105" y="180" width="7.5" height="7.5" transform="rotate(-90 105 180)" fill="#48FC34"/>
<rect x="127.5" y="172.5" width="7.5" height="7.5" transform="rotate(-90 127.5 172.5)" fill="#48FC34"/>
<rect x="105" y="135" width="7.5" height="7.5" transform="rotate(-90 105 135)" fill="#48FC34"/>
<rect x="105" y="127.5" width="7.5" height="7.5" transform="rotate(-90 105 127.5)" fill="#48FC34"/>
<rect x="127.5" y="195" width="7.5" height="7.5" transform="rotate(-90 127.5 195)" fill="#48FC34"/>
<rect x="90" y="240" width="7.5" height="7.5" transform="rotate(-90 90 240)" fill="#2DC91C"/>
<rect x="127.5" y="225" width="7.5" height="7.5" transform="rotate(-90 127.5 225)" fill="#6EFF5E"/>
<rect x="127.5" y="217.5" width="7.5" height="7.5" transform="rotate(-90 127.5 217.5)" fill="#48FC34"/>
<rect x="127.5" y="165" width="7.5" height="7.5" transform="rotate(-90 127.5 165)" fill="#48FC34"/>
<rect x="127.5" y="187.5" width="7.5" height="7.5" transform="rotate(-90 127.5 187.5)" fill="#48FC34"/>
<rect x="135" y="240" width="7.5" height="7.5" transform="rotate(-90 135 240)" fill="#2DC91C"/>
<rect x="127.5" y="232.5" width="7.5" height="7.5" transform="rotate(-90 127.5 232.5)" fill="#2DC91C"/>
<rect x="127.5" y="210" width="7.5" height="7.5" transform="rotate(-90 127.5 210)" fill="#48FC34"/>
<rect x="90" y="202.5" width="7.5" height="7.5" transform="rotate(-90 90 202.5)" fill="#48FC34"/>
<rect x="127.5" y="180" width="7.5" height="7.5" transform="rotate(-90 127.5 180)" fill="#48FC34"/>
<rect x="127.5" y="127.5" width="7.5" height="7.5" transform="rotate(-90 127.5 127.5)" fill="#48FC34"/>
<rect x="135" y="202.5" width="7.5" height="7.5" transform="rotate(-90 135 202.5)" fill="#48FC34"/>
<rect x="90" y="172.5" width="7.5" height="7.5" transform="rotate(-90 90 172.5)" fill="#48FC34"/>
<rect x="105" y="172.5" width="7.5" height="7.5" transform="rotate(-90 105 172.5)" fill="#48FC34"/>
<rect x="90" y="157.5" width="7.5" height="7.5" transform="rotate(-90 90 157.5)" fill="#48FC34"/>
<rect x="90" y="225" width="7.5" height="7.5" transform="rotate(-90 90 225)" fill="#48FC34"/>
<rect x="90" y="195" width="7.5" height="7.5" transform="rotate(-90 90 195)" fill="#48FC34"/>
<rect x="232.5" y="127.5" width="7.5" height="7.5" fill="#2DC91C"/>
<rect x="90" y="217.5" width="7.5" height="7.5" transform="rotate(-90 90 217.5)" fill="#48FC34"/>
<rect width="7.5" height="7.5" transform="matrix(9.26126e-08 -1 -1 -9.26126e-08 127.5 240)" fill="#2DC91C"/>
<rect x="135" y="172.5" width="7.5" height="7.5" transform="rotate(-90 135 172.5)" fill="#48FC34"/>
<rect x="135" y="195" width="7.5" height="7.5" transform="rotate(-90 135 195)" fill="#48FC34"/>
<rect x="135" y="225" width="7.5" height="7.5" transform="rotate(-90 135 225)" fill="#48FC34"/>
<rect x="90" y="165" width="7.5" height="7.5" transform="rotate(-90 90 165)" fill="#48FC34"/>
<rect x="90" y="187.5" width="7.5" height="7.5" transform="rotate(-90 90 187.5)" fill="#48FC34"/>
<rect x="135" y="217.5" width="7.5" height="7.5" transform="rotate(-90 135 217.5)" fill="#48FC34"/>
<rect x="135" y="165" width="7.5" height="7.5" transform="rotate(-90 135 165)" fill="#48FC34"/>
<rect x="90" y="232.5" width="7.5" height="7.5" transform="rotate(-90 90 232.5)" fill="#2DC91C"/>
<rect x="135" y="187.5" width="7.5" height="7.5" transform="rotate(-90 135 187.5)" fill="#48FC34"/>
<rect width="7.5" height="7.5" transform="matrix(9.26126e-08 -1 -1 -9.26126e-08 127.5 202.5)" fill="#48FC34"/>
<rect x="90" y="210" width="7.5" height="7.5" transform="rotate(-90 90 210)" fill="#48FC34"/>
<rect x="90" y="180" width="7.5" height="7.5" transform="rotate(-90 90 180)" fill="#48FC34"/>
<rect x="90" y="135" width="7.5" height="7.5" transform="rotate(-90 90 135)" fill="#48FC34"/>
<rect x="135" y="232.5" width="7.5" height="7.5" transform="rotate(-90 135 232.5)" fill="#2DC91C"/>
<rect width="7.5" height="7.5" transform="matrix(9.26126e-08 -1 -1 -9.26126e-08 120 240)" fill="#2DC91C"/>
<rect x="135" y="210" width="7.5" height="7.5" transform="rotate(-90 135 210)" fill="#48FC34"/>
<rect width="7.5" height="7.5" transform="matrix(9.26126e-08 -1 -1 -9.26126e-08 157.5 240)" fill="#2DC91C"/>
<rect width="7.5" height="7.5" transform="matrix(9.26126e-08 -1 -1 -9.26126e-08 127.5 172.5)" fill="#48FC34"/>
<rect x="135" y="180" width="7.5" height="7.5" transform="rotate(-90 135 180)" fill="#48FC34"/>
<rect x="135" y="127.5" width="7.5" height="7.5" transform="rotate(-90 135 127.5)" fill="#48FC34"/>
<rect width="7.5" height="7.5" transform="matrix(9.26126e-08 -1 -1 -9.26126e-08 127.5 195)" fill="#48FC34"/>
<rect width="7.5" height="7.5" transform="matrix(9.26126e-08 -1 -1 -9.26126e-08 120 202.5)" fill="#48FC34"/>
<rect width="7.5" height="7.5" transform="matrix(9.26126e-08 -1 -1 -9.26126e-08 127.5 225)" fill="#6EFF5E"/>
<rect width="7.5" height="7.5" transform="matrix(9.26126e-08 -1 -1 -9.26126e-08 127.5 217.5)" fill="#48FC34"/>
<rect width="7.5" height="7.5" transform="matrix(9.26126e-08 -1 -1 -9.26126e-08 127.5 165)" fill="#48FC34"/>
<rect width="7.5" height="7.5" transform="matrix(9.26126e-08 -1 -1 -9.26126e-08 157.5 202.5)" fill="#48FC34"/>
<rect x="232.5" y="135" width="7.5" height="7.5" fill="#2DC91C"/>
<rect width="7.5" height="7.5" transform="matrix(9.26126e-08 -1 -1 -9.26126e-08 127.5 187.5)" fill="#48FC34"/>
<rect width="7.5" height="7.5" transform="matrix(9.26126e-08 -1 -1 -9.26126e-08 127.5 150)" fill="#48FC34"/>
<rect width="7.5" height="7.5" transform="matrix(9.26126e-08 -1 -1 -9.26126e-08 127.5 142.5)" fill="#48FC34"/>
<rect width="7.5" height="7.5" transform="matrix(9.26126e-08 -1 -1 -9.26126e-08 127.5 157.5)" fill="#48FC34"/>
<rect width="7.5" height="7.5" transform="matrix(9.26126e-08 -1 -1 -9.26126e-08 120 195)" fill="#48FC34"/>
<rect width="7.5" height="7.5" transform="matrix(9.26126e-08 -1 -1 -9.26126e-08 120 225)" fill="#6EFF5E"/>
<rect width="7.5" height="7.5" transform="matrix(9.26126e-08 -1 -1 -9.26126e-08 127.5 232.5)" fill="#2DC91C"/>
<rect width="7.5" height="7.5" transform="matrix(9.26126e-08 -1 -1 -9.26126e-08 120 217.5)" fill="#48FC34"/>
<rect width="7.5" height="7.5" transform="matrix(9.26126e-08 -1 -1 -9.26126e-08 157.5 225)" fill="#48FC34"/>
<rect width="7.5" height="7.5" transform="matrix(9.26126e-08 -1 -1 -9.26126e-08 157.5 195)" fill="#48FC34"/>
<rect width="7.5" height="7.5" transform="matrix(9.26126e-08 -1 -1 -9.26126e-08 127.5 210)" fill="#48FC34"/>
<rect width="7.5" height="7.5" transform="matrix(9.26126e-08 -1 -1 -9.26126e-08 127.5 180)" fill="#48FC34"/>
<rect width="7.5" height="7.5" transform="matrix(9.26126e-08 -1 -1 -9.26126e-08 127.5 135)" fill="#48FC34"/>
<rect width="7.5" height="7.5" transform="matrix(9.26126e-08 -1 -1 -9.26126e-08 127.5 127.5)" fill="#48FC34"/>
<rect width="7.5" height="7.5" transform="matrix(9.26126e-08 -1 -1 -9.26126e-08 120 187.5)" fill="#48FC34"/>
<rect width="7.5" height="7.5" transform="matrix(9.26126e-08 -1 -1 -9.26126e-08 120 150)" fill="#48FC34"/>
<rect width="7.5" height="7.5" transform="matrix(9.26126e-08 -1 -1 -9.26126e-08 120 142.5)" fill="#48FC34"/>
<rect width="7.5" height="7.5" transform="matrix(9.26126e-08 -1 -1 -9.26126e-08 165 202.5)" fill="#48FC34"/>
<rect width="7.5" height="7.5" transform="matrix(9.26126e-08 -1 -1 -9.26126e-08 157.5 217.5)" fill="#48FC34"/>
<rect width="7.5" height="7.5" transform="matrix(1 1.36324e-07 1.36324e-07 -1 232.5 127.5)" fill="#2DC91C"/>
<rect width="7.5" height="7.5" transform="matrix(9.26126e-08 -1 -1 -9.26126e-08 180 202.5)" fill="#48FC34"/>
<rect width="7.5" height="7.5" transform="matrix(9.26126e-08 -1 -1 -9.26126e-08 165 225)" fill="#2DC91C"/>
<rect width="7.5" height="7.5" transform="matrix(9.26126e-08 -1 -1 -9.26126e-08 157.5 187.5)" fill="#48FC34"/>
<rect width="7.5" height="7.5" transform="matrix(9.26126e-08 -1 -1 -9.26126e-08 157.5 157.5)" fill="#6EFF5E"/>
<rect width="7.5" height="7.5" transform="matrix(9.26126e-08 -1 -1 -9.26126e-08 195 202.5)" fill="#48FC34"/>
<rect width="7.5" height="7.5" transform="matrix(9.26126e-08 -1 -1 -9.26126e-08 120 232.5)" fill="#2DC91C"/>
<rect width="7.5" height="7.5" transform="matrix(9.26126e-08 -1 -1 -9.26126e-08 120 210)" fill="#48FC34"/>
<rect width="7.5" height="7.5" transform="matrix(9.26126e-08 -1 -1 -9.26126e-08 120 180)" fill="#48FC34"/>
<rect width="7.5" height="7.5" transform="matrix(9.26126e-08 -1 -1 -9.26126e-08 157.5 150)" fill="#48FC34"/>
<rect width="7.5" height="7.5" transform="matrix(9.26126e-08 -1 -1 -9.26126e-08 157.5 142.5)" fill="#48FC34"/>
<rect width="7.5" height="7.5" transform="matrix(9.26126e-08 -1 -1 -9.26126e-08 120 135)" fill="#48FC34"/>
<rect width="7.5" height="7.5" transform="matrix(9.26126e-08 -1 -1 -9.26126e-08 120 127.5)" fill="#48FC34"/>
<rect width="7.5" height="7.5" transform="matrix(9.26126e-08 -1 -1 -9.26126e-08 172.5 202.5)" fill="#48FC34"/>
<rect width="7.5" height="7.5" transform="matrix(9.26126e-08 -1 -1 -9.26126e-08 180 225)" fill="#2DC91C"/>
<rect width="7.5" height="7.5" transform="matrix(9.26126e-08 -1 -1 -9.26126e-08 165 195)" fill="#48FC34"/>
<rect width="7.5" height="7.5" transform="matrix(9.26126e-08 -1 -1 -9.26126e-08 187.5 202.5)" fill="#48FC34"/>
<rect width="7.5" height="7.5" transform="matrix(9.26126e-08 -1 -1 -9.26126e-08 165 217.5)" fill="#48FC34"/>
<rect width="7.5" height="7.5" transform="matrix(9.26126e-08 -1 -1 -9.26126e-08 157.5 232.5)" fill="#2DC91C"/>
<rect width="7.5" height="7.5" transform="matrix(9.26126e-08 -1 -1 -9.26126e-08 150 202.5)" fill="#48FC34"/>
<rect width="7.5" height="7.5" transform="matrix(9.26126e-08 -1 -1 -9.26126e-08 180 195)" fill="#48FC34"/>
<rect width="7.5" height="7.5" transform="matrix(9.26126e-08 -1 -1 -9.26126e-08 157.5 210)" fill="#48FC34"/>
<rect width="7.5" height="7.5" transform="matrix(9.26126e-08 -1 -1 -9.26126e-08 157.5 180)" fill="#48FC34"/>
<rect width="7.5" height="7.5" transform="matrix(9.26126e-08 -1 -1 -9.26126e-08 195 172.5)" fill="#48FC34"/>
<rect width="7.5" height="7.5" transform="matrix(9.26126e-08 -1 -1 -9.26126e-08 157.5 135)" fill="#48FC34"/>
<rect width="7.5" height="7.5" transform="matrix(1 1.36324e-07 1.36324e-07 -1 202.5 150)" fill="#48FC34"/>
<rect width="7.5" height="7.5" transform="matrix(1 1.36324e-07 1.36324e-07 -1 15 150)" fill="#48FC34"/>
<rect width="7.5" height="7.5" transform="matrix(9.26126e-08 -1 -1 -9.26126e-08 195 195)" fill="#48FC34"/>
<rect width="7.5" height="7.5" transform="matrix(9.26126e-08 -1 -1 -9.26126e-08 202.5 202.5)" fill="#2DC91C"/>
<rect width="7.5" height="7.5" transform="matrix(9.26126e-08 -1 -1 -9.26126e-08 180 217.5)" fill="#2DC91C"/>
<rect width="7.5" height="7.5" transform="matrix(1 1.36324e-07 1.36324e-07 -1 210 150)" fill="#48FC34"/>
<rect width="7.5" height="7.5" transform="matrix(9.26126e-08 -1 -1 -9.26126e-08 195 217.5)" fill="#2DC91C"/>
<rect width="7.5" height="7.5" transform="matrix(1 1.36324e-07 1.36324e-07 -1 22.5 150)" fill="#48FC34"/>
<rect width="7.5" height="7.5" transform="matrix(9.26126e-08 -1 -1 -9.26126e-08 172.5 195)" fill="#48FC34"/>
<rect width="7.5" height="7.5" transform="matrix(9.26126e-08 -1 -1 -9.26126e-08 172.5 225)" fill="#2DC91C"/>
<rect width="7.5" height="7.5" transform="matrix(9.26126e-08 -1 -1 -9.26126e-08 165 187.5)" fill="#48FC34"/>
<rect width="7.5" height="7.5" transform="matrix(1 1.36324e-07 1.36324e-07 -1 202.5 142.5)" fill="#48FC34"/>
<rect width="7.5" height="7.5" transform="matrix(9.26126e-08 -1 -1 -9.26126e-08 165 157.5)" fill="#48FC34"/>
<rect width="7.5" height="7.5" transform="matrix(9.26126e-08 -1 -1 -9.26126e-08 187.5 195)" fill="#48FC34"/>
<rect width="7.5" height="7.5" transform="matrix(1 1.36324e-07 1.36324e-07 -1 232.5 157.5)" fill="#2DC91C"/>
<rect width="7.5" height="7.5" transform="matrix(9.26126e-08 -1 -1 -9.26126e-08 172.5 217.5)" fill="#48FC34"/>
<rect width="7.5" height="7.5" transform="matrix(1 1.36324e-07 1.36324e-07 -1 15 142.5)" fill="#48FC34"/>
<rect width="7.5" height="7.5" transform="matrix(1 1.36324e-07 1.36324e-07 -1 202.5 135)" fill="#48FC34"/>
<rect width="7.5" height="7.5" transform="matrix(1 1.36324e-07 1.36324e-07 -1 210 142.5)" fill="#48FC34"/>
<rect width="7.5" height="7.5" transform="matrix(1 1.36324e-07 1.36324e-07 -1 15 135)" fill="#48FC34"/>
<rect width="7.5" height="7.5" transform="matrix(9.26126e-08 -1 -1 -9.26126e-08 187.5 225)" fill="#2DC91C"/>
<rect width="7.5" height="7.5" transform="matrix(9.26126e-08 -1 -1 -9.26126e-08 150 195)" fill="#48FC34"/>
<rect width="7.5" height="7.5" transform="matrix(9.26126e-08 -1 -1 -9.26126e-08 195 165)" fill="#6EFF5E"/>
<rect width="7.5" height="7.5" transform="matrix(9.26126e-08 -1 -1 -9.26126e-08 180 157.5)" fill="#48FC34"/>
<rect width="7.5" height="7.5" transform="matrix(1 1.36324e-07 1.36324e-07 -1 202.5 165)" fill="#48FC34"/>
<rect width="7.5" height="7.5" transform="matrix(1 1.36324e-07 1.36324e-07 -1 22.5 142.5)" fill="#48FC34"/>
<rect width="7.5" height="7.5" transform="matrix(1 1.36324e-07 1.36324e-07 -1 210 135)" fill="#48FC34"/>
<rect width="7.5" height="7.5" transform="matrix(9.26126e-08 -1 -1 -9.26126e-08 180 187.5)" fill="#48FC34"/>
<rect width="7.5" height="7.5" transform="matrix(1 1.36324e-07 1.36324e-07 -1 15 165)" fill="#2DC91C"/>
<rect width="7.5" height="7.5" transform="matrix(1 1.36324e-07 1.36324e-07 -1 22.5 135)" fill="#48FC34"/>
<rect width="7.5" height="7.5" transform="matrix(9.26126e-08 -1 -1 -9.26126e-08 202.5 172.5)" fill="#48FC34"/>
<rect width="7.5" height="7.5" transform="matrix(9.26126e-08 -1 -1 -9.26126e-08 165 150)" fill="#48FC34"/>
<rect width="7.5" height="7.5" transform="matrix(9.26126e-08 -1 -1 -9.26126e-08 165 142.5)" fill="#48FC34"/>
<rect width="7.5" height="7.5" transform="matrix(9.26126e-08 -1 -1 -9.26126e-08 180 150)" fill="#48FC34"/>
<rect width="7.5" height="7.5" transform="matrix(9.26126e-08 -1 -1 -9.26126e-08 180 142.5)" fill="#48FC34"/>
<rect width="7.5" height="7.5" transform="matrix(9.26126e-08 -1 -1 -9.26126e-08 187.5 217.5)" fill="#2DC91C"/>
<rect width="7.5" height="7.5" transform="matrix(1 1.36324e-07 1.36324e-07 -1 210 165)" fill="#48FC34"/>
<rect width="7.5" height="7.5" transform="matrix(1 1.36324e-07 1.36324e-07 -1 217.5 150)" fill="#48FC34"/>
<rect width="7.5" height="7.5" transform="matrix(1 1.36324e-07 1.36324e-07 -1 225 150)" fill="#2DC91C"/>
<rect width="7.5" height="7.5" transform="matrix(1 1.36324e-07 1.36324e-07 -1 7.5 150)" fill="#2DC91C"/>
<rect width="7.5" height="7.5" transform="matrix(9.26126e-08 -1 -1 -9.26126e-08 195 142.5)" fill="#48FC34"/>
<rect width="7.5" height="7.5" transform="matrix(1 1.36324e-07 1.36324e-07 -1 202.5 127.5)" fill="#48FC34"/>
<rect width="7.5" height="7.5" transform="matrix(9.26126e-08 -1 -1 -9.26126e-08 195 187.5)" fill="#48FC34"/>
<rect width="7.5" height="7.5" transform="matrix(1 1.36324e-07 1.36324e-07 -1 22.5 165)" fill="#48FC34"/>
<rect width="7.5" height="7.5" transform="matrix(1 1.36324e-07 1.36324e-07 -1 22.5 180)" fill="#2DC91C"/>
<rect width="7.5" height="7.5" transform="matrix(1 1.36324e-07 1.36324e-07 -1 210 180)" fill="#2DC91C"/>
<rect width="7.5" height="7.5" transform="matrix(1 1.36324e-07 1.36324e-07 -1 202.5 157.5)" fill="#48FC34"/>
<rect width="7.5" height="7.5" transform="matrix(1 1.36324e-07 1.36324e-07 -1 15 127.5)" fill="#48FC34"/>
<rect width="7.5" height="7.5" transform="matrix(9.26126e-08 -1 -1 -9.26126e-08 172.5 157.5)" fill="#48FC34"/>
<rect width="7.5" height="7.5" transform="matrix(9.26126e-08 -1 -1 -9.26126e-08 172.5 150)" fill="#48FC34"/>
<rect width="7.5" height="7.5" transform="matrix(9.26126e-08 -1 -1 -9.26126e-08 172.5 142.5)" fill="#48FC34"/>
<rect width="7.5" height="7.5" transform="matrix(1 1.36324e-07 1.36324e-07 -1 217.5 142.5)" fill="#48FC34"/>
<rect width="7.5" height="7.5" transform="matrix(1 1.36324e-07 1.36324e-07 -1 225 142.5)" fill="#2DC91C"/>
<rect width="7.5" height="7.5" transform="matrix(9.26126e-08 -1 -1 -9.26126e-08 202.5 195)" fill="#48FC34"/>
<rect width="7.5" height="7.5" transform="matrix(9.26126e-08 -1 -1 -9.26126e-08 210 195)" fill="#2DC91C"/>
<rect width="7.5" height="7.5" transform="matrix(9.26126e-08 -1 -1 -9.26126e-08 37.5 195)" fill="#2DC91C"/>
<rect width="7.5" height="7.5" transform="matrix(1 1.36324e-07 1.36324e-07 -1 7.5 142.5)" fill="#2DC91C"/>
<rect width="7.5" height="7.5" transform="matrix(1 1.36324e-07 1.36324e-07 -1 30 150)" fill="#48FC34"/>
<rect width="7.5" height="7.5" transform="matrix(1 1.36324e-07 1.36324e-07 -1 210 127.5)" fill="#48FC34"/>
<rect width="7.5" height="7.5" transform="matrix(9.26126e-08 -1 -1 -9.26126e-08 187.5 150)" fill="#48FC34"/>
<rect width="7.5" height="7.5" transform="matrix(9.26126e-08 -1 -1 -9.26126e-08 165 232.5)" fill="#2DC91C"/>
<rect width="7.5" height="7.5" transform="matrix(9.26126e-08 -1 -1 -9.26126e-08 150 217.5)" fill="#48FC34"/>
<rect width="7.5" height="7.5" transform="matrix(9.26126e-08 -1 -1 -9.26126e-08 187.5 142.5)" fill="#48FC34"/>
<rect width="7.5" height="7.5" transform="matrix(1 1.36324e-07 1.36324e-07 -1 15 157.5)" fill="#48FC34"/>
<rect width="7.5" height="7.5" transform="matrix(9.26126e-08 -1 -1 -9.26126e-08 150 225)" fill="#48FC34"/>
<rect width="7.5" height="7.5" transform="matrix(9.26126e-08 -1 -1 -9.26126e-08 187.5 157.5)" fill="#48FC34"/>
<rect width="7.5" height="7.5" transform="matrix(9.26126e-08 -1 -1 -9.26126e-08 172.5 187.5)" fill="#48FC34"/>
<rect width="7.5" height="7.5" transform="matrix(1 1.36324e-07 1.36324e-07 -1 22.5 127.5)" fill="#48FC34"/>
<rect width="7.5" height="7.5" transform="matrix(1 1.36324e-07 1.36324e-07 -1 210 157.5)" fill="#48FC34"/>
<rect width="7.5" height="7.5" transform="matrix(9.26126e-08 -1 -1 -9.26126e-08 165 210)" fill="#48FC34"/>
<rect width="7.5" height="7.5" transform="matrix(9.26126e-08 -1 -1 -9.26126e-08 150 240)" fill="#2DC91C"/>
<rect width="7.5" height="7.5" transform="matrix(9.26126e-08 -1 -1 -9.26126e-08 202.5 165)" fill="#48FC34"/>
<rect width="7.5" height="7.5" transform="matrix(9.26126e-08 -1 -1 -9.26126e-08 165 180)" fill="#48FC34"/>
<rect width="7.5" height="7.5" transform="matrix(1 1.36324e-07 1.36324e-07 -1 30 142.5)" fill="#48FC34"/>
<rect width="7.5" height="7.5" transform="matrix(9.26126e-08 -1 -1 -9.26126e-08 165 135)" fill="#48FC34"/>
<rect width="7.5" height="7.5" transform="matrix(9.26126e-08 -1 -1 -9.26126e-08 202.5 142.5)" fill="#48FC34"/>
<rect width="7.5" height="7.5" transform="matrix(1 1.36324e-07 1.36324e-07 -1 202.5 172.5)" fill="#48FC34"/>
<rect width="7.5" height="7.5" transform="matrix(9.26126e-08 -1 -1 -9.26126e-08 180 135)" fill="#48FC34"/>
<rect width="7.5" height="7.5" transform="matrix(9.26126e-08 -1 -1 -9.26126e-08 187.5 187.5)" fill="#48FC34"/>
<rect width="7.5" height="7.5" transform="matrix(1 1.36324e-07 1.36324e-07 -1 22.5 157.5)" fill="#48FC34"/>
<rect width="7.5" height="7.5" transform="matrix(1 1.36324e-07 1.36324e-07 -1 217.5 135)" fill="#48FC34"/>
<rect width="7.5" height="7.5" transform="matrix(9.26126e-08 -1 -1 -9.26126e-08 150 150)" fill="#6EFF5E"/>
<rect width="7.5" height="7.5" transform="matrix(9.26126e-08 -1 -1 -9.26126e-08 150 142.5)" fill="#48FC34"/>
<rect width="7.5" height="7.5" transform="matrix(1 1.36324e-07 1.36324e-07 -1 225 135)" fill="#2DC91C"/>
<rect width="7.5" height="7.5" transform="matrix(1 1.36324e-07 1.36324e-07 -1 7.5 135)" fill="#2DC91C"/>
<rect width="7.5" height="7.5" transform="matrix(9.26126e-08 -1 -1 -9.26126e-08 195 135)" fill="#48FC34"/>
<rect width="7.5" height="7.5" transform="matrix(9.26126e-08 -1 -1 -9.26126e-08 195 127.5)" fill="#48FC34"/>
<rect width="7.5" height="7.5" transform="matrix(9.26126e-08 -1 -1 -9.26126e-08 180 210)" fill="#48FC34"/>
<rect width="7.5" height="7.5" transform="matrix(1 1.36324e-07 1.36324e-07 -1 217.5 165)" fill="#2DC91C"/>
<rect width="7.5" height="7.5" transform="matrix(1 1.36324e-07 1.36324e-07 -1 15 172.5)" fill="#2DC91C"/>
<rect width="7.5" height="7.5" transform="matrix(1 1.36324e-07 1.36324e-07 -1 210 172.5)" fill="#48FC34"/>
<rect width="7.5" height="7.5" transform="matrix(9.26126e-08 -1 -1 -9.26126e-08 150 187.5)" fill="#48FC34"/>
<rect width="7.5" height="7.5" transform="matrix(9.26126e-08 -1 -1 -9.26126e-08 150 157.5)" fill="#6EFF5E"/>
<rect width="7.5" height="7.5" transform="matrix(9.26126e-08 -1 -1 -9.26126e-08 172.5 135)" fill="#48FC34"/>
<rect width="7.5" height="7.5" transform="matrix(1 1.36324e-07 1.36324e-07 -1 217.5 127.5)" fill="#48FC34"/>
<rect width="7.5" height="7.5" transform="matrix(1 1.36324e-07 1.36324e-07 -1 225 127.5)" fill="#2DC91C"/>
<rect width="7.5" height="7.5" transform="matrix(9.26126e-08 -1 -1 -9.26126e-08 180 180)" fill="#48FC34"/>
<rect width="7.5" height="7.5" transform="matrix(1 1.36324e-07 1.36324e-07 -1 7.5 127.5)" fill="#2DC91C"/>
<rect width="7.5" height="7.5" transform="matrix(1 1.36324e-07 1.36324e-07 -1 30 135)" fill="#48FC34"/>
<rect width="7.5" height="7.5" transform="matrix(9.26126e-08 -1 -1 -9.26126e-08 187.5 135)" fill="#48FC34"/>
<rect width="7.5" height="7.5" transform="matrix(1 1.36324e-07 1.36324e-07 -1 217.5 157.5)" fill="#48FC34"/>
<rect width="7.5" height="7.5" transform="matrix(1 1.36324e-07 1.36324e-07 -1 225 157.5)" fill="#2DC91C"/>
<rect width="7.5" height="7.5" transform="matrix(9.26126e-08 -1 -1 -9.26126e-08 195 210)" fill="#2DC91C"/>
<rect width="7.5" height="7.5" transform="matrix(1 1.36324e-07 1.36324e-07 -1 7.5 157.5)" fill="#2DC91C"/>
<rect width="7.5" height="7.5" transform="matrix(9.26126e-08 -1 -1 -9.26126e-08 195 180)" fill="#48FC34"/>
<rect width="7.5" height="7.5" transform="matrix(1 1.36324e-07 1.36324e-07 -1 30 165)" fill="#48FC34"/>
<rect width="7.5" height="7.5" transform="matrix(9.26126e-08 -1 -1 -9.26126e-08 202.5 187.5)" fill="#48FC34"/>
<rect width="7.5" height="7.5" transform="matrix(9.26126e-08 -1 -1 -9.26126e-08 210 187.5)" fill="#48FC34"/>
<rect width="7.5" height="7.5" transform="matrix(9.26126e-08 -1 -1 -9.26126e-08 37.5 187.5)" fill="#48FC34"/>
<rect width="7.5" height="7.5" transform="matrix(1 1.36324e-07 1.36324e-07 -1 22.5 187.5)" fill="#2DC91C"/>
<rect width="7.5" height="7.5" transform="matrix(1 1.36324e-07 1.36324e-07 -1 22.5 172.5)" fill="#48FC34"/>
<rect width="7.5" height="7.5" transform="matrix(1 1.36324e-07 1.36324e-07 -1 210 187.5)" fill="#2DC91C"/>
<rect width="7.5" height="7.5" transform="matrix(9.26126e-08 -1 -1 -9.26126e-08 172.5 232.5)" fill="#2DC91C"/>
<rect width="7.5" height="7.5" transform="matrix(9.26126e-08 -1 -1 -9.26126e-08 172.5 210)" fill="#48FC34"/>
<rect width="7.5" height="7.5" transform="matrix(9.26126e-08 -1 -1 -9.26126e-08 172.5 180)" fill="#48FC34"/>
<rect width="7.5" height="7.5" transform="matrix(1 1.36324e-07 1.36324e-07 -1 30 127.5)" fill="#48FC34"/>
<rect width="7.5" height="7.5" transform="matrix(9.26126e-08 -1 -1 -9.26126e-08 187.5 210)" fill="#48FC34"/>
<rect width="7.5" height="7.5" transform="matrix(9.26126e-08 -1 -1 -9.26126e-08 202.5 135)" fill="#48FC34"/>
<rect width="7.5" height="7.5" transform="matrix(9.26126e-08 -1 -1 -9.26126e-08 202.5 127.5)" fill="#48FC34"/>
<rect width="7.5" height="7.5" transform="matrix(1 1.36324e-07 1.36324e-07 -1 217.5 172.5)" fill="#2DC91C"/>
<rect width="7.5" height="7.5" transform="matrix(9.26126e-08 -1 -1 -9.26126e-08 187.5 180)" fill="#48FC34"/>
<rect width="7.5" height="7.5" transform="matrix(1 1.36324e-07 1.36324e-07 -1 30 157.5)" fill="#48FC34"/>
<rect width="7.5" height="7.5" transform="matrix(9.26126e-08 -1 -1 -9.26126e-08 150 232.5)" fill="#2DC91C"/>
<rect width="7.5" height="7.5" transform="matrix(9.26126e-08 -1 -1 -9.26126e-08 150 210)" fill="#48FC34"/>
<rect width="7.5" height="7.5" transform="matrix(9.26126e-08 -1 -1 -9.26126e-08 150 180)" fill="#48FC34"/>
<rect width="7.5" height="7.5" transform="matrix(9.26126e-08 -1 -1 -9.26126e-08 150 135)" fill="#6EFF5E"/>
<rect width="7.5" height="7.5" transform="matrix(1 1.36324e-07 1.36324e-07 -1 232.5 150)" fill="#2DC91C"/>
<rect width="7.5" height="7.5" transform="matrix(1 1.36324e-07 1.36324e-07 -1 37.5 202.5)" fill="#2DC91C"/>
<rect width="7.5" height="7.5" transform="matrix(9.26126e-08 -1 -1 -9.26126e-08 202.5 210)" fill="#2DC91C"/>
<rect width="7.5" height="7.5" transform="matrix(1 1.36324e-07 1.36324e-07 -1 45 202.5)" fill="#48FC34"/>
<rect width="7.5" height="7.5" transform="matrix(9.26126e-08 -1 -1 -9.26126e-08 202.5 180)" fill="#48FC34"/>
<rect width="7.5" height="7.5" transform="matrix(9.26126e-08 -1 -1 -9.26126e-08 210 180)" fill="#48FC34"/>
<rect width="7.5" height="7.5" transform="matrix(9.26126e-08 -1 -1 -9.26126e-08 37.5 180)" fill="#48FC34"/>
<rect width="7.5" height="7.5" transform="matrix(1 1.36324e-07 1.36324e-07 -1 30 172.5)" fill="#48FC34"/>
<rect width="7.5" height="7.5" transform="matrix(1 1.36324e-07 1.36324e-07 -1 52.5 202.5)" fill="#48FC34"/>
<rect width="7.5" height="7.5" transform="matrix(9.26126e-08 -1 -1 -9.26126e-08 210 202.5)" fill="#2DC91C"/>
<rect width="7.5" height="7.5" transform="matrix(1 1.36324e-07 1.36324e-07 -1 60 202.5)" fill="#48FC34"/>
<rect width="7.5" height="7.5" transform="matrix(9.26126e-08 -1 -1 -9.26126e-08 217.5 195)" fill="#2DC91C"/>
<rect width="7.5" height="7.5" transform="matrix(9.26126e-08 -1 -1 -9.26126e-08 225 187.5)" fill="#2DC91C"/>
<rect width="7.5" height="7.5" transform="matrix(1 1.36324e-07 1.36324e-07 -1 37.5 172.5)" fill="#48FC34"/>
<rect width="7.5" height="7.5" transform="matrix(1 1.36324e-07 1.36324e-07 -1 67.5 202.5)" fill="#48FC34"/>
<rect width="7.5" height="7.5" transform="matrix(9.26126e-08 -1 -1 -9.26126e-08 225 180)" fill="#2DC91C"/>
<rect width="7.5" height="7.5" transform="matrix(1 1.36324e-07 1.36324e-07 -1 75 202.5)" fill="#48FC34"/>
<rect width="7.5" height="7.5" transform="matrix(9.26126e-08 -1 -1 -9.26126e-08 232.5 172.5)" fill="#2DC91C"/>
<rect width="7.5" height="7.5" transform="matrix(9.26126e-08 -1 -1 -9.26126e-08 232.5 165)" fill="#2DC91C"/>
<rect width="7.5" height="7.5" transform="matrix(1 1.36324e-07 1.36324e-07 -1 60 172.5)" fill="#48FC34"/>
<rect width="7.5" height="7.5" transform="matrix(1 1.36324e-07 1.36324e-07 -1 37.5 195)" fill="#48FC34"/>
<rect y="127.5" width="7.5" height="7.5" fill="#2DC91C"/>
<rect width="7.5" height="7.5" transform="matrix(1 1.36324e-07 1.36324e-07 -1 45 195)" fill="#48FC34"/>
<rect width="7.5" height="7.5" transform="matrix(1 1.36324e-07 1.36324e-07 -1 67.5 172.5)" fill="#48FC34"/>
<rect y="135" width="7.5" height="7.5" fill="#2DC91C"/>
<rect width="7.5" height="7.5" transform="matrix(1 1.36324e-07 1.36324e-07 -1 52.5 195)" fill="#48FC34"/>
<rect width="7.5" height="7.5" transform="matrix(1 1.36324e-07 1.36324e-07 -1 0 127.5)" fill="#2DC91C"/>
<rect width="7.5" height="7.5" transform="matrix(1 1.36324e-07 1.36324e-07 -1 75 172.5)" fill="#48FC34"/>
<rect width="7.5" height="7.5" transform="matrix(1 1.36324e-07 1.36324e-07 -1 37.5 150)" fill="#48FC34"/>
<rect width="7.5" height="7.5" transform="matrix(1 1.36324e-07 1.36324e-07 -1 37.5 142.5)" fill="#48FC34"/>
<rect width="7.5" height="7.5" transform="matrix(1 1.36324e-07 1.36324e-07 -1 60 195)" fill="#48FC34"/>
<rect width="7.5" height="7.5" transform="matrix(1 1.36324e-07 1.36324e-07 -1 0 157.5)" fill="#2DC91C"/>
<rect width="7.5" height="7.5" transform="matrix(1 1.36324e-07 1.36324e-07 -1 45 150)" fill="#48FC34"/>
<rect width="7.5" height="7.5" transform="matrix(1 1.36324e-07 1.36324e-07 -1 45 142.5)" fill="#48FC34"/>
<rect width="7.5" height="7.5" transform="matrix(1 1.36324e-07 1.36324e-07 -1 7.5 165)" fill="#2DC91C"/>
<rect width="7.5" height="7.5" transform="matrix(1 1.36324e-07 1.36324e-07 -1 37.5 165)" fill="#48FC34"/>
<rect width="7.5" height="7.5" transform="matrix(1 1.36324e-07 1.36324e-07 -1 67.5 195)" fill="#48FC34"/>
<rect width="7.5" height="7.5" transform="matrix(1 1.36324e-07 1.36324e-07 -1 52.5 150)" fill="#48FC34"/>
<rect width="7.5" height="7.5" transform="matrix(1 1.36324e-07 1.36324e-07 -1 52.5 142.5)" fill="#48FC34"/>
<rect width="7.5" height="7.5" transform="matrix(1 1.36324e-07 1.36324e-07 -1 15 180)" fill="#2DC91C"/>
<rect width="7.5" height="7.5" transform="matrix(1 1.36324e-07 1.36324e-07 -1 75 195)" fill="#48FC34"/>
<rect width="7.5" height="7.5" transform="matrix(1 1.36324e-07 1.36324e-07 -1 52.5 225)" fill="#2DC91C"/>
<rect width="7.5" height="7.5" transform="matrix(1 1.36324e-07 1.36324e-07 -1 45 217.5)" fill="#2DC91C"/>
<rect width="7.5" height="7.5" transform="matrix(1 1.36324e-07 1.36324e-07 -1 22.5 195)" fill="#2DC91C"/>
<rect width="7.5" height="7.5" transform="matrix(1 1.36324e-07 1.36324e-07 -1 52.5 217.5)" fill="#2DC91C"/>
<rect width="7.5" height="7.5" transform="matrix(1 1.36324e-07 1.36324e-07 -1 60 165)" fill="#6EFF5E"/>
<rect width="7.5" height="7.5" transform="matrix(1 1.36324e-07 1.36324e-07 -1 75 150)" fill="#48FC34"/>
<rect width="7.5" height="7.5" transform="matrix(1 1.36324e-07 1.36324e-07 -1 37.5 187.5)" fill="#48FC34"/>
<rect width="7.5" height="7.5" transform="matrix(1 1.36324e-07 1.36324e-07 -1 37.5 157.5)" fill="#48FC34"/>
<rect width="7.5" height="7.5" transform="matrix(1 1.36324e-07 1.36324e-07 -1 60 225)" fill="#2DC91C"/>
<rect width="7.5" height="7.5" transform="matrix(1 1.36324e-07 1.36324e-07 -1 60 217.5)" fill="#2DC91C"/>
<rect width="7.5" height="7.5" transform="matrix(1 1.36324e-07 1.36324e-07 -1 67.5 165)" fill="#48FC34"/>
<rect width="7.5" height="7.5" transform="matrix(1 1.36324e-07 1.36324e-07 -1 45 187.5)" fill="#48FC34"/>
<rect width="7.5" height="7.5" transform="matrix(1 1.36324e-07 1.36324e-07 -1 7.5 172.5)" fill="#2DC91C"/>
<rect width="7.5" height="7.5" transform="matrix(1 1.36324e-07 1.36324e-07 -1 75 165)" fill="#48FC34"/>
<rect width="7.5" height="7.5" transform="matrix(1 1.36324e-07 1.36324e-07 -1 52.5 187.5)" fill="#48FC34"/>
<rect width="7.5" height="7.5" transform="matrix(1 1.36324e-07 1.36324e-07 -1 67.5 217.5)" fill="#6EFF5E"/>
<rect width="7.5" height="7.5" transform="matrix(1 1.36324e-07 1.36324e-07 -1 67.5 225)" fill="#2DC91C"/>
<rect width="7.5" height="7.5" transform="matrix(1 1.36324e-07 1.36324e-07 -1 60 187.5)" fill="#48FC34"/>
<rect width="7.5" height="7.5" transform="matrix(1 1.36324e-07 1.36324e-07 -1 75 217.5)" fill="#6EFF5E"/>
<rect width="7.5" height="7.5" transform="matrix(1 1.36324e-07 1.36324e-07 -1 15 187.5)" fill="#2DC91C"/>
<rect width="7.5" height="7.5" transform="matrix(1 1.36324e-07 1.36324e-07 -1 67.5 187.5)" fill="#48FC34"/>
<rect width="7.5" height="7.5" transform="matrix(1 1.36324e-07 1.36324e-07 -1 75 225)" fill="#2DC91C"/>
<rect width="7.5" height="7.5" transform="matrix(1 1.36324e-07 1.36324e-07 -1 0 150)" fill="#2DC91C"/>
<rect width="7.5" height="7.5" transform="matrix(1 1.36324e-07 1.36324e-07 -1 75 187.5)" fill="#48FC34"/>
<rect width="7.5" height="7.5" transform="matrix(1 1.36324e-07 1.36324e-07 -1 75 157.5)" fill="#48FC34"/>
<rect width="7.5" height="7.5" transform="matrix(1 1.36324e-07 1.36324e-07 -1 30 202.5)" fill="#2DC91C"/>
<rect width="7.5" height="7.5" transform="matrix(1 1.36324e-07 1.36324e-07 -1 37.5 210)" fill="#2DC91C"/>
<rect width="7.5" height="7.5" transform="matrix(1 1.36324e-07 1.36324e-07 -1 37.5 180)" fill="#48FC34"/>
<rect width="7.5" height="7.5" transform="matrix(1 1.36324e-07 1.36324e-07 -1 37.5 135)" fill="#48FC34"/>
<rect width="7.5" height="7.5" transform="matrix(1 1.36324e-07 1.36324e-07 -1 37.5 127.5)" fill="#48FC34"/>
<rect width="7.5" height="7.5" transform="matrix(1 1.36324e-07 1.36324e-07 -1 45 210)" fill="#2DC91C"/>
<rect width="7.5" height="7.5" transform="matrix(1 1.36324e-07 1.36324e-07 -1 45 180)" fill="#48FC34"/>
<rect width="7.5" height="7.5" transform="matrix(1 1.36324e-07 1.36324e-07 -1 45 135)" fill="#48FC34"/>
<rect width="7.5" height="7.5" transform="matrix(1 1.36324e-07 1.36324e-07 -1 45 127.5)" fill="#48FC34"/>
<rect width="7.5" height="7.5" transform="matrix(1 1.36324e-07 1.36324e-07 -1 52.5 210)" fill="#6EFF5E"/>
<rect width="7.5" height="7.5" transform="matrix(1 1.36324e-07 1.36324e-07 -1 52.5 180)" fill="#48FC34"/>
<rect width="7.5" height="7.5" transform="matrix(1 1.36324e-07 1.36324e-07 -1 52.5 135)" fill="#48FC34"/>
<rect width="7.5" height="7.5" transform="matrix(1 1.36324e-07 1.36324e-07 -1 60 210)" fill="#6EFF5E"/>
<rect width="7.5" height="7.5" transform="matrix(1 1.36324e-07 1.36324e-07 -1 60 180)" fill="#48FC34"/>
<rect width="7.5" height="7.5" transform="matrix(1 1.36324e-07 1.36324e-07 -1 60 135)" fill="#48FC34"/>
<rect width="7.5" height="7.5" transform="matrix(1 1.36324e-07 1.36324e-07 -1 67.5 232.5)" fill="#2DC91C"/>
<rect width="7.5" height="7.5" transform="matrix(1 1.36324e-07 1.36324e-07 -1 67.5 210)" fill="#6EFF5E"/>
<rect width="7.5" height="7.5" transform="matrix(1 1.36324e-07 1.36324e-07 -1 67.5 180)" fill="#48FC34"/>
<rect width="7.5" height="7.5" transform="matrix(1 1.36324e-07 1.36324e-07 -1 75 232.5)" fill="#2DC91C"/>
<rect width="7.5" height="7.5" transform="matrix(1 1.36324e-07 1.36324e-07 -1 75 210)" fill="#48FC34"/>
<rect width="7.5" height="7.5" transform="matrix(1 1.36324e-07 1.36324e-07 -1 75 180)" fill="#48FC34"/>
<rect x="142.5" width="7.5" height="7.5" transform="rotate(90 142.5 0)" fill="#2DC91C"/>
<rect x="142.5" y="7.5" width="7.5" height="7.5" transform="rotate(90 142.5 7.5)" fill="#2DC91C"/>
<rect x="142.5" y="15" width="7.5" height="7.5" transform="rotate(90 142.5 15)" fill="#48FC34"/>
<rect x="142.5" y="22.5" width="7.5" height="7.5" transform="rotate(90 142.5 22.5)" fill="#48FC34"/>
<rect x="142.5" y="30" width="7.5" height="7.5" transform="rotate(90 142.5 30)" fill="#48FC34"/>
<rect x="142.5" y="37.5" width="7.5" height="7.5" transform="rotate(90 142.5 37.5)" fill="#48FC34"/>
<rect x="142.5" y="45" width="7.5" height="7.5" transform="rotate(90 142.5 45)" fill="#48FC34"/>
<rect x="142.5" y="52.5" width="7.5" height="7.5" transform="rotate(90 142.5 52.5)" fill="#48FC34"/>
<rect x="142.5" y="67.5" width="7.5" height="7.5" transform="rotate(90 142.5 67.5)" fill="#48FC34"/>
<rect x="142.5" y="82.5" width="7.5" height="7.5" transform="rotate(90 142.5 82.5)" fill="#48FC34"/>
<rect x="142.5" y="75" width="7.5" height="7.5" transform="rotate(90 142.5 75)" fill="#48FC34"/>
<rect x="142.5" y="60" width="7.5" height="7.5" transform="rotate(90 142.5 60)" fill="#48FC34"/>
<rect x="142.5" y="105" width="7.5" height="7.5" transform="rotate(90 142.5 105)" fill="#48FC34"/>
<rect x="142.5" y="112.5" width="7.5" height="7.5" transform="rotate(90 142.5 112.5)" fill="#48FC34"/>
<rect x="157.5" width="7.5" height="7.5" transform="rotate(90 157.5 0)" fill="#2DC91C"/>
<rect x="135" width="7.5" height="7.5" transform="rotate(90 135 0)" fill="#2DC91C"/>
<rect x="157.5" y="15" width="7.5" height="7.5" transform="rotate(90 157.5 15)" fill="#6EFF5E"/>
<rect x="157.5" y="37.5" width="7.5" height="7.5" transform="rotate(90 157.5 37.5)" fill="#48FC34"/>
<rect x="157.5" y="22.5" width="7.5" height="7.5" transform="rotate(90 157.5 22.5)" fill="#48FC34"/>
<rect x="157.5" y="45" width="7.5" height="7.5" transform="rotate(90 157.5 45)" fill="#48FC34"/>
<rect x="157.5" y="67.5" width="7.5" height="7.5" transform="rotate(90 157.5 67.5)" fill="#48FC34"/>
<rect x="157.5" y="7.5" width="7.5" height="7.5" transform="rotate(90 157.5 7.5)" fill="#2DC91C"/>
<rect x="157.5" y="52.5" width="7.5" height="7.5" transform="rotate(90 157.5 52.5)" fill="#48FC34"/>
<rect x="157.5" y="90" width="7.5" height="7.5" transform="rotate(90 157.5 90)" fill="#48FC34"/>
<rect x="157.5" y="97.5" width="7.5" height="7.5" transform="rotate(90 157.5 97.5)" fill="#48FC34"/>
<rect x="157.5" y="30" width="7.5" height="7.5" transform="rotate(90 157.5 30)" fill="#48FC34"/>
<rect x="157.5" y="60" width="7.5" height="7.5" transform="rotate(90 157.5 60)" fill="#48FC34"/>
<rect x="157.5" y="105" width="7.5" height="7.5" transform="rotate(90 157.5 105)" fill="#48FC34"/>
<rect x="135" y="37.5" width="7.5" height="7.5" transform="rotate(90 135 37.5)" fill="#48FC34"/>
<rect x="112.5" width="7.5" height="7.5" transform="rotate(90 112.5 0)" fill="#2DC91C"/>
<rect x="135" y="15" width="7.5" height="7.5" transform="rotate(90 135 15)" fill="#48FC34"/>
<rect x="135" y="67.5" width="7.5" height="7.5" transform="rotate(90 135 67.5)" fill="#48FC34"/>
<rect x="135" y="45" width="7.5" height="7.5" transform="rotate(90 135 45)" fill="#48FC34"/>
<rect x="135" y="22.5" width="7.5" height="7.5" transform="rotate(90 135 22.5)" fill="#48FC34"/>
<rect x="135" y="52.5" width="7.5" height="7.5" transform="rotate(90 135 52.5)" fill="#48FC34"/>
<rect x="135" y="75" width="7.5" height="7.5" transform="rotate(90 135 75)" fill="#48FC34"/>
<rect x="135" y="82.5" width="7.5" height="7.5" transform="rotate(90 135 82.5)" fill="#48FC34"/>
<rect x="112.5" y="37.5" width="7.5" height="7.5" transform="rotate(90 112.5 37.5)" fill="#48FC34"/>
<rect x="135" y="7.5" width="7.5" height="7.5" transform="rotate(90 135 7.5)" fill="#2DC91C"/>
<rect x="135" y="30" width="7.5" height="7.5" transform="rotate(90 135 30)" fill="#48FC34"/>
<rect x="135" y="60" width="7.5" height="7.5" transform="rotate(90 135 60)" fill="#48FC34"/>
<rect x="112.5" y="67.5" width="7.5" height="7.5" transform="rotate(90 112.5 67.5)" fill="#48FC34"/>
<rect x="135" y="105" width="7.5" height="7.5" transform="rotate(90 135 105)" fill="#48FC34"/>
<rect x="135" y="112.5" width="7.5" height="7.5" transform="rotate(90 135 112.5)" fill="#48FC34"/>
<rect x="112.5" y="45" width="7.5" height="7.5" transform="rotate(90 112.5 45)" fill="#48FC34"/>
<rect x="112.5" y="15" width="7.5" height="7.5" transform="rotate(90 112.5 15)" fill="#48FC34"/>
<rect x="112.5" y="22.5" width="7.5" height="7.5" transform="rotate(90 112.5 22.5)" fill="#48FC34"/>
<rect x="112.5" y="75" width="7.5" height="7.5" transform="rotate(90 112.5 75)" fill="#48FC34"/>
<rect x="112.5" y="52.5" width="7.5" height="7.5" transform="rotate(90 112.5 52.5)" fill="#48FC34"/>
<rect x="112.5" y="82.5" width="7.5" height="7.5" transform="rotate(90 112.5 82.5)" fill="#48FC34"/>
<rect x="150" width="7.5" height="7.5" transform="rotate(90 150 0)" fill="#2DC91C"/>
<rect x="112.5" y="7.5" width="7.5" height="7.5" transform="rotate(90 112.5 7.5)" fill="#2DC91C"/>
<rect x="112.5" y="30" width="7.5" height="7.5" transform="rotate(90 112.5 30)" fill="#48FC34"/>
<rect x="150" y="37.5" width="7.5" height="7.5" transform="rotate(90 150 37.5)" fill="#48FC34"/>
<rect x="112.5" y="60" width="7.5" height="7.5" transform="rotate(90 112.5 60)" fill="#48FC34"/>
<rect x="112.5" y="112.5" width="7.5" height="7.5" transform="rotate(90 112.5 112.5)" fill="#48FC34"/>
<rect x="105" width="7.5" height="7.5" transform="rotate(90 105 0)" fill="#2DC91C"/>
<rect x="105" y="37.5" width="7.5" height="7.5" transform="rotate(90 105 37.5)" fill="#48FC34"/>
<rect x="150" y="67.5" width="7.5" height="7.5" transform="rotate(90 150 67.5)" fill="#48FC34"/>
<rect x="150" y="15" width="7.5" height="7.5" transform="rotate(90 150 15)" fill="#48FC34"/>
<rect x="150" y="45" width="7.5" height="7.5" transform="rotate(90 150 45)" fill="#48FC34"/>
<rect x="7.5" y="112.5" width="7.5" height="7.5" transform="rotate(-180 7.5 112.5)" fill="#2DC91C"/>
<rect x="150" y="22.5" width="7.5" height="7.5" transform="rotate(90 150 22.5)" fill="#48FC34"/>
<rect x="105" y="67.5" width="7.5" height="7.5" transform="rotate(90 105 67.5)" fill="#48FC34"/>
<rect x="105" y="45" width="7.5" height="7.5" transform="rotate(90 105 45)" fill="#48FC34"/>
<rect x="105" y="15" width="7.5" height="7.5" transform="rotate(90 105 15)" fill="#48FC34"/>
<rect x="150" y="52.5" width="7.5" height="7.5" transform="rotate(90 150 52.5)" fill="#48FC34"/>
<rect x="105" y="22.5" width="7.5" height="7.5" transform="rotate(90 105 22.5)" fill="#48FC34"/>
<rect x="150" y="90" width="7.5" height="7.5" transform="rotate(90 150 90)" fill="#48FC34"/>
<rect x="150" y="97.5" width="7.5" height="7.5" transform="rotate(90 150 97.5)" fill="#48FC34"/>
<rect width="7.5" height="7.5" transform="matrix(-1.80035e-07 1 1 1.80035e-07 112.5 0)" fill="#2DC91C"/>
<rect x="105" y="75" width="7.5" height="7.5" transform="rotate(90 105 75)" fill="#48FC34"/>
<rect x="150" y="7.5" width="7.5" height="7.5" transform="rotate(90 150 7.5)" fill="#2DC91C"/>
<rect x="105" y="52.5" width="7.5" height="7.5" transform="rotate(90 105 52.5)" fill="#48FC34"/>
<rect x="105" y="82.5" width="7.5" height="7.5" transform="rotate(90 105 82.5)" fill="#48FC34"/>
<rect x="105" y="90" width="7.5" height="7.5" transform="rotate(90 105 90)" fill="#48FC34"/>
<rect width="7.5" height="7.5" transform="matrix(-1.80035e-07 1 1 1.80035e-07 112.5 37.5)" fill="#48FC34"/>
<rect x="150" y="30" width="7.5" height="7.5" transform="rotate(90 150 30)" fill="#48FC34"/>
<rect x="150" y="60" width="7.5" height="7.5" transform="rotate(90 150 60)" fill="#48FC34"/>
<rect x="150" y="105" width="7.5" height="7.5" transform="rotate(90 150 105)" fill="#48FC34"/>
<rect x="105" y="7.5" width="7.5" height="7.5" transform="rotate(90 105 7.5)" fill="#2DC91C"/>
<rect x="105" y="30" width="7.5" height="7.5" transform="rotate(90 105 30)" fill="#48FC34"/>
<rect width="7.5" height="7.5" transform="matrix(-1.80035e-07 1 1 1.80035e-07 112.5 67.5)" fill="#48FC34"/>
<rect x="105" y="60" width="7.5" height="7.5" transform="rotate(90 105 60)" fill="#48FC34"/>
<rect width="7.5" height="7.5" transform="matrix(-1.80035e-07 1 1 1.80035e-07 112.5 45)" fill="#48FC34"/>
<rect width="7.5" height="7.5" transform="matrix(-1.80035e-07 1 1 1.80035e-07 120 37.5)" fill="#48FC34"/>
<rect width="7.5" height="7.5" transform="matrix(-1.80035e-07 1 1 1.80035e-07 112.5 15)" fill="#48FC34"/>
<rect width="7.5" height="7.5" transform="matrix(-1.80035e-07 1 1 1.80035e-07 120 0)" fill="#2DC91C"/>
<rect width="7.5" height="7.5" transform="matrix(-1.80035e-07 1 1 1.80035e-07 112.5 22.5)" fill="#48FC34"/>
<rect width="7.5" height="7.5" transform="matrix(-1.80035e-07 1 1 1.80035e-07 82.5 0)" fill="#2DC91C"/>
<rect width="7.5" height="7.5" transform="matrix(-1.80035e-07 1 1 1.80035e-07 112.5 75)" fill="#48FC34"/>
<rect width="7.5" height="7.5" transform="matrix(-1.80035e-07 1 1 1.80035e-07 82.5 37.5)" fill="#48FC34"/>
<rect width="7.5" height="7.5" transform="matrix(-1.80035e-07 1 1 1.80035e-07 120 67.5)" fill="#48FC34"/>
<rect x="7.5" y="105" width="7.5" height="7.5" transform="rotate(-180 7.5 105)" fill="#2DC91C"/>
<rect width="7.5" height="7.5" transform="matrix(-1.80035e-07 1 1 1.80035e-07 112.5 52.5)" fill="#48FC34"/>
<rect width="7.5" height="7.5" transform="matrix(-1.80035e-07 1 1 1.80035e-07 112.5 82.5)" fill="#48FC34"/>
<rect width="7.5" height="7.5" transform="matrix(-1.80035e-07 1 1 1.80035e-07 120 45)" fill="#48FC34"/>
<rect width="7.5" height="7.5" transform="matrix(-1.80035e-07 1 1 1.80035e-07 120 15)" fill="#48FC34"/>
<rect width="7.5" height="7.5" transform="matrix(-1.80035e-07 1 1 1.80035e-07 112.5 7.5)" fill="#2DC91C"/>
<rect width="7.5" height="7.5" transform="matrix(-1.80035e-07 1 1 1.80035e-07 120 22.5)" fill="#48FC34"/>
<rect width="7.5" height="7.5" transform="matrix(-1.80035e-07 1 1 1.80035e-07 82.5 67.5)" fill="#48FC34"/>
<rect width="7.5" height="7.5" transform="matrix(-1.80035e-07 1 1 1.80035e-07 82.5 15)" fill="#6EFF5E"/>
<rect width="7.5" height="7.5" transform="matrix(-1.80035e-07 1 1 1.80035e-07 82.5 45)" fill="#48FC34"/>
<rect width="7.5" height="7.5" transform="matrix(-1.80035e-07 1 1 1.80035e-07 112.5 30)" fill="#48FC34"/>
<rect width="7.5" height="7.5" transform="matrix(-1.80035e-07 1 1 1.80035e-07 112.5 60)" fill="#48FC34"/>
<rect width="7.5" height="7.5" transform="matrix(-1.80035e-07 1 1 1.80035e-07 120 75)" fill="#48FC34"/>
<rect width="7.5" height="7.5" transform="matrix(-1.80035e-07 1 1 1.80035e-07 112.5 112.5)" fill="#48FC34"/>
<rect width="7.5" height="7.5" transform="matrix(-1.80035e-07 1 1 1.80035e-07 120 52.5)" fill="#48FC34"/>
<rect width="7.5" height="7.5" transform="matrix(-1.80035e-07 1 1 1.80035e-07 120 82.5)" fill="#48FC34"/>
<rect width="7.5" height="7.5" transform="matrix(-1.80035e-07 1 1 1.80035e-07 120 90)" fill="#48FC34"/>
<rect width="7.5" height="7.5" transform="matrix(-1.80035e-07 1 1 1.80035e-07 120 97.5)" fill="#48FC34"/>
<rect width="7.5" height="7.5" transform="matrix(-1.80035e-07 1 1 1.80035e-07 75 37.5)" fill="#48FC34"/>
<rect width="7.5" height="7.5" transform="matrix(-1.80035e-07 1 1 1.80035e-07 82.5 22.5)" fill="#6EFF5E"/>
<rect width="7.5" height="7.5" transform="matrix(-1 -2.23747e-07 -2.23747e-07 1 7.5 112.5)" fill="#2DC91C"/>
<rect width="7.5" height="7.5" transform="matrix(-1.80035e-07 1 1 1.80035e-07 60 37.5)" fill="#48FC34"/>
<rect width="7.5" height="7.5" transform="matrix(-1.80035e-07 1 1 1.80035e-07 75 15)" fill="#2DC91C"/>
<rect width="7.5" height="7.5" transform="matrix(-1.80035e-07 1 1 1.80035e-07 82.5 52.5)" fill="#48FC34"/>
<rect width="7.5" height="7.5" transform="matrix(-1.80035e-07 1 1 1.80035e-07 82.5 75)" fill="#48FC34"/>
<rect width="7.5" height="7.5" transform="matrix(-1.80035e-07 1 1 1.80035e-07 82.5 82.5)" fill="#48FC34"/>
<rect width="7.5" height="7.5" transform="matrix(-1.80035e-07 1 1 1.80035e-07 45 37.5)" fill="#6EFF5E"/>
<rect width="7.5" height="7.5" transform="matrix(-1.80035e-07 1 1 1.80035e-07 120 7.5)" fill="#2DC91C"/>
<rect width="7.5" height="7.5" transform="matrix(-1.80035e-07 1 1 1.80035e-07 120 30)" fill="#48FC34"/>
<rect width="7.5" height="7.5" transform="matrix(-1.80035e-07 1 1 1.80035e-07 120 60)" fill="#48FC34"/>
<rect width="7.5" height="7.5" transform="matrix(-1.80035e-07 1 1 1.80035e-07 82.5 90)" fill="#48FC34"/>
<rect width="7.5" height="7.5" transform="matrix(-1.80035e-07 1 1 1.80035e-07 82.5 97.5)" fill="#48FC34"/>
<rect width="7.5" height="7.5" transform="matrix(-1.80035e-07 1 1 1.80035e-07 120 105)" fill="#48FC34"/>
<rect width="7.5" height="7.5" transform="matrix(-1.80035e-07 1 1 1.80035e-07 120 112.5)" fill="#48FC34"/>
<rect width="7.5" height="7.5" transform="matrix(-1.80035e-07 1 1 1.80035e-07 67.5 37.5)" fill="#48FC34"/>
<rect width="7.5" height="7.5" transform="matrix(-1.80035e-07 1 1 1.80035e-07 60 15)" fill="#2DC91C"/>
<rect width="7.5" height="7.5" transform="matrix(-1.80035e-07 1 1 1.80035e-07 75 67.5)" fill="#48FC34"/>
<rect width="7.5" height="7.5" transform="matrix(-1.80035e-07 1 1 1.80035e-07 75 45)" fill="#48FC34"/>
<rect width="7.5" height="7.5" transform="matrix(-1.80035e-07 1 1 1.80035e-07 52.5 37.5)" fill="#6EFF5E"/>
<rect width="7.5" height="7.5" transform="matrix(-1.80035e-07 1 1 1.80035e-07 75 22.5)" fill="#6EFF5E"/>
<rect width="7.5" height="7.5" transform="matrix(-1.80035e-07 1 1 1.80035e-07 82.5 7.5)" fill="#2DC91C"/>
<rect width="7.5" height="7.5" transform="matrix(-1.80035e-07 1 1 1.80035e-07 90 37.5)" fill="#48FC34"/>
<rect width="7.5" height="7.5" transform="matrix(-1.80035e-07 1 1 1.80035e-07 60 67.5)" fill="#48FC34"/>
<rect width="7.5" height="7.5" transform="matrix(-1.80035e-07 1 1 1.80035e-07 60 45)" fill="#48FC34"/>
<rect width="7.5" height="7.5" transform="matrix(-1.80035e-07 1 1 1.80035e-07 82.5 30)" fill="#48FC34"/>
<rect width="7.5" height="7.5" transform="matrix(-1.80035e-07 1 1 1.80035e-07 82.5 60)" fill="#48FC34"/>
<rect width="7.5" height="7.5" transform="matrix(-1.80035e-07 1 1 1.80035e-07 45 67.5)" fill="#48FC34"/>
<rect width="7.5" height="7.5" transform="matrix(-1.80035e-07 1 1 1.80035e-07 82.5 105)" fill="#48FC34"/>
<rect width="7.5" height="7.5" transform="matrix(-1 -2.23747e-07 -2.23747e-07 1 37.5 90)" fill="#48FC34"/>
<rect width="7.5" height="7.5" transform="matrix(-1 -2.23747e-07 -2.23747e-07 1 225 90)" fill="#48FC34"/>
<rect width="7.5" height="7.5" transform="matrix(-1.80035e-07 1 1 1.80035e-07 45 45)" fill="#48FC34"/>
<rect width="7.5" height="7.5" transform="matrix(-1.80035e-07 1 1 1.80035e-07 37.5 37.5)" fill="#2DC91C"/>
<rect width="7.5" height="7.5" transform="matrix(-1.80035e-07 1 1 1.80035e-07 60 22.5)" fill="#2DC91C"/>
<rect width="7.5" height="7.5" transform="matrix(-1 -2.23747e-07 -2.23747e-07 1 30 90)" fill="#48FC34"/>
<rect width="7.5" height="7.5" transform="matrix(-1.80035e-07 1 1 1.80035e-07 67.5 67.5)" fill="#48FC34"/>
<rect width="7.5" height="7.5" transform="matrix(-1.80035e-07 1 1 1.80035e-07 45 22.5)" fill="#2DC91C"/>
<rect width="7.5" height="7.5" transform="matrix(-1 -2.23747e-07 -2.23747e-07 1 217.5 90)" fill="#48FC34"/>
<rect width="7.5" height="7.5" transform="matrix(-1.80035e-07 1 1 1.80035e-07 67.5 45)" fill="#48FC34"/>
<rect width="7.5" height="7.5" transform="matrix(-1.80035e-07 1 1 1.80035e-07 75 75)" fill="#48FC34"/>
<rect width="7.5" height="7.5" transform="matrix(-1.80035e-07 1 1 1.80035e-07 67.5 15)" fill="#2DC91C"/>
<rect width="7.5" height="7.5" transform="matrix(-1.80035e-07 1 1 1.80035e-07 52.5 67.5)" fill="#48FC34"/>
<rect width="7.5" height="7.5" transform="matrix(-1.80035e-07 1 1 1.80035e-07 75 52.5)" fill="#48FC34"/>
<rect width="7.5" height="7.5" transform="matrix(-1 -2.23747e-07 -2.23747e-07 1 37.5 97.5)" fill="#48FC34"/>
<rect width="7.5" height="7.5" transform="matrix(-1.80035e-07 1 1 1.80035e-07 75 82.5)" fill="#48FC34"/>
<rect width="7.5" height="7.5" transform="matrix(-1.80035e-07 1 1 1.80035e-07 52.5 45)" fill="#48FC34"/>
<rect width="7.5" height="7.5" transform="matrix(-1 -2.23747e-07 -2.23747e-07 1 7.5 82.5)" fill="#2DC91C"/>
<rect width="7.5" height="7.5" transform="matrix(-1.80035e-07 1 1 1.80035e-07 90 67.5)" fill="#48FC34"/>
<rect width="7.5" height="7.5" transform="matrix(-1.80035e-07 1 1 1.80035e-07 67.5 22.5)" fill="#6EFF5E"/>
<rect width="7.5" height="7.5" transform="matrix(-1 -2.23747e-07 -2.23747e-07 1 225 97.5)" fill="#48FC34"/>
<rect width="7.5" height="7.5" transform="matrix(-1.80035e-07 1 1 1.80035e-07 60 75)" fill="#48FC34"/>
<rect width="7.5" height="7.5" transform="matrix(-1 -2.23747e-07 -2.23747e-07 1 37.5 105)" fill="#48FC34"/>
<rect width="7.5" height="7.5" transform="matrix(-1 -2.23747e-07 -2.23747e-07 1 30 97.5)" fill="#48FC34"/>
<rect width="7.5" height="7.5" transform="matrix(-1 -2.23747e-07 -2.23747e-07 1 225 105)" fill="#48FC34"/>
<rect width="7.5" height="7.5" transform="matrix(-1.80035e-07 1 1 1.80035e-07 52.5 15)" fill="#2DC91C"/>
<rect width="7.5" height="7.5" transform="matrix(-1.80035e-07 1 1 1.80035e-07 90 45)" fill="#48FC34"/>
<rect width="7.5" height="7.5" transform="matrix(-1.80035e-07 1 1 1.80035e-07 45 75)" fill="#48FC34"/>
<rect width="7.5" height="7.5" transform="matrix(-1.80035e-07 1 1 1.80035e-07 60 82.5)" fill="#48FC34"/>
<rect width="7.5" height="7.5" transform="matrix(-1 -2.23747e-07 -2.23747e-07 1 37.5 75)" fill="#48FC34"/>
<rect width="7.5" height="7.5" transform="matrix(-1 -2.23747e-07 -2.23747e-07 1 217.5 97.5)" fill="#48FC34"/>
<rect width="7.5" height="7.5" transform="matrix(-1 -2.23747e-07 -2.23747e-07 1 30 105)" fill="#48FC34"/>
<rect width="7.5" height="7.5" transform="matrix(-1.80035e-07 1 1 1.80035e-07 60 52.5)" fill="#48FC34"/>
<rect width="7.5" height="7.5" transform="matrix(-1 -2.23747e-07 -2.23747e-07 1 225 75)" fill="#2DC91C"/>
<rect width="7.5" height="7.5" transform="matrix(-1 -2.23747e-07 -2.23747e-07 1 217.5 105)" fill="#48FC34"/>
<rect width="7.5" height="7.5" transform="matrix(-1.80035e-07 1 1 1.80035e-07 37.5 67.5)" fill="#48FC34"/>
<rect width="7.5" height="7.5" transform="matrix(-1.80035e-07 1 1 1.80035e-07 75 90)" fill="#48FC34"/>
<rect width="7.5" height="7.5" transform="matrix(-1.80035e-07 1 1 1.80035e-07 75 97.5)" fill="#48FC34"/>
<rect width="7.5" height="7.5" transform="matrix(-1.80035e-07 1 1 1.80035e-07 45 82.5)" fill="#48FC34"/>
<rect width="7.5" height="7.5" transform="matrix(-1.80035e-07 1 1 1.80035e-07 60 90)" fill="#48FC34"/>
<rect width="7.5" height="7.5" transform="matrix(-1.80035e-07 1 1 1.80035e-07 60 97.5)" fill="#48FC34"/>
<rect width="7.5" height="7.5" transform="matrix(-1.80035e-07 1 1 1.80035e-07 67.5 75)" fill="#48FC34"/>
<rect width="7.5" height="7.5" transform="matrix(-1.80035e-07 1 1 1.80035e-07 52.5 22.5)" fill="#2DC91C"/>
<rect width="7.5" height="7.5" transform="matrix(-1 -2.23747e-07 -2.23747e-07 1 30 75)" fill="#6EFF5E"/>
<rect width="7.5" height="7.5" transform="matrix(-1 -2.23747e-07 -2.23747e-07 1 22.5 90)" fill="#6EFF5E"/>
<rect width="7.5" height="7.5" transform="matrix(-1 -2.23747e-07 -2.23747e-07 1 15 90)" fill="#2DC91C"/>
<rect width="7.5" height="7.5" transform="matrix(-1 -2.23747e-07 -2.23747e-07 1 232.5 90)" fill="#2DC91C"/>
<rect width="7.5" height="7.5" transform="matrix(-1 -2.23747e-07 -2.23747e-07 1 37.5 112.5)" fill="#48FC34"/>
<rect width="7.5" height="7.5" transform="matrix(-1.80035e-07 1 1 1.80035e-07 45 52.5)" fill="#48FC34"/>
<rect width="7.5" height="7.5" transform="matrix(-1.80035e-07 1 1 1.80035e-07 52.5 75)" fill="#48FC34"/>
<rect width="7.5" height="7.5" transform="matrix(-1 -2.23747e-07 -2.23747e-07 1 217.5 75)" fill="#48FC34"/>
<rect width="7.5" height="7.5" transform="matrix(-1 -2.23747e-07 -2.23747e-07 1 217.5 60)" fill="#2DC91C"/>
<rect width="7.5" height="7.5" transform="matrix(-1 -2.23747e-07 -2.23747e-07 1 30 60)" fill="#2DC91C"/>
<rect width="7.5" height="7.5" transform="matrix(-1 -2.23747e-07 -2.23747e-07 1 37.5 82.5)" fill="#48FC34"/>
<rect width="7.5" height="7.5" transform="matrix(-1 -2.23747e-07 -2.23747e-07 1 225 112.5)" fill="#48FC34"/>
<rect width="7.5" height="7.5" transform="matrix(-1.80035e-07 1 1 1.80035e-07 67.5 82.5)" fill="#48FC34"/>
<rect width="7.5" height="7.5" transform="matrix(-1.80035e-07 1 1 1.80035e-07 67.5 90)" fill="#48FC34"/>
<rect width="7.5" height="7.5" transform="matrix(-1.80035e-07 1 1 1.80035e-07 67.5 97.5)" fill="#48FC34"/>
<rect width="7.5" height="7.5" transform="matrix(-1 -2.23747e-07 -2.23747e-07 1 22.5 97.5)" fill="#48FC34"/>
<rect width="7.5" height="7.5" transform="matrix(-1 -2.23747e-07 -2.23747e-07 1 15 97.5)" fill="#2DC91C"/>
<rect width="7.5" height="7.5" transform="matrix(-1.80035e-07 1 1 1.80035e-07 37.5 45)" fill="#48FC34"/>
<rect width="7.5" height="7.5" transform="matrix(-1.80035e-07 1 1 1.80035e-07 30 45)" fill="#2DC91C"/>
<rect width="7.5" height="7.5" transform="matrix(-1.80035e-07 1 1 1.80035e-07 202.5 45)" fill="#2DC91C"/>
<rect width="7.5" height="7.5" transform="matrix(-1 -2.23747e-07 -2.23747e-07 1 232.5 97.5)" fill="#2DC91C"/>
<rect width="7.5" height="7.5" transform="matrix(-1 -2.23747e-07 -2.23747e-07 1 210 90)" fill="#48FC34"/>
<rect width="7.5" height="7.5" transform="matrix(-1 -2.23747e-07 -2.23747e-07 1 30 112.5)" fill="#48FC34"/>
<rect width="7.5" height="7.5" transform="matrix(-1.80035e-07 1 1 1.80035e-07 75 7.5)" fill="#2DC91C"/>
<rect width="7.5" height="7.5" transform="matrix(-1.80035e-07 1 1 1.80035e-07 90 22.5)" fill="#48FC34"/>
<rect width="7.5" height="7.5" transform="matrix(-1 -2.23747e-07 -2.23747e-07 1 225 82.5)" fill="#6EFF5E"/>
<rect width="7.5" height="7.5" transform="matrix(-1.80035e-07 1 1 1.80035e-07 90 15)" fill="#48FC34"/>
<rect width="7.5" height="7.5" transform="matrix(-1.80035e-07 1 1 1.80035e-07 52.5 82.5)" fill="#48FC34"/>
<rect width="7.5" height="7.5" transform="matrix(-1.80035e-07 1 1 1.80035e-07 67.5 52.5)" fill="#48FC34"/>
<rect width="7.5" height="7.5" transform="matrix(-1 -2.23747e-07 -2.23747e-07 1 217.5 112.5)" fill="#48FC34"/>
<rect width="7.5" height="7.5" transform="matrix(-1 -2.23747e-07 -2.23747e-07 1 30 82.5)" fill="#6EFF5E"/>
<rect width="7.5" height="7.5" transform="matrix(-1.80035e-07 1 1 1.80035e-07 75 30)" fill="#48FC34"/>
<rect width="7.5" height="7.5" transform="matrix(-1.80035e-07 1 1 1.80035e-07 37.5 75)" fill="#48FC34"/>
<rect width="7.5" height="7.5" transform="matrix(-1.80035e-07 1 1 1.80035e-07 90 75)" fill="#48FC34"/>
<rect width="7.5" height="7.5" transform="matrix(-1.80035e-07 1 1 1.80035e-07 75 60)" fill="#48FC34"/>
<rect width="7.5" height="7.5" transform="matrix(-1 -2.23747e-07 -2.23747e-07 1 210 97.5)" fill="#48FC34"/>
<rect width="7.5" height="7.5" transform="matrix(-1.80035e-07 1 1 1.80035e-07 75 105)" fill="#48FC34"/>
<rect width="7.5" height="7.5" transform="matrix(-1.80035e-07 1 1 1.80035e-07 75 112.5)" fill="#6EFF5E"/>
<rect width="7.5" height="7.5" transform="matrix(-1.80035e-07 1 1 1.80035e-07 37.5 90)" fill="#48FC34"/>
<rect width="7.5" height="7.5" transform="matrix(-1 -2.23747e-07 -2.23747e-07 1 37.5 67.5)" fill="#48FC34"/>
<rect width="7.5" height="7.5" transform="matrix(-1.80035e-07 1 1 1.80035e-07 52.5 52.5)" fill="#48FC34"/>
<rect width="7.5" height="7.5" transform="matrix(-1 -2.23747e-07 -2.23747e-07 1 217.5 82.5)" fill="#48FC34"/>
<rect width="7.5" height="7.5" transform="matrix(-1.80035e-07 1 1 1.80035e-07 90 0)" fill="#2DC91C"/>
<rect width="7.5" height="7.5" transform="matrix(-1 -2.23747e-07 -2.23747e-07 1 22.5 105)" fill="#48FC34"/>
<rect width="7.5" height="7.5" transform="matrix(-1.80035e-07 1 1 1.80035e-07 90 90)" fill="#48FC34"/>
<rect width="7.5" height="7.5" transform="matrix(-1.80035e-07 1 1 1.80035e-07 90 97.5)" fill="#48FC34"/>
<rect width="7.5" height="7.5" transform="matrix(-1 -2.23747e-07 -2.23747e-07 1 15 105)" fill="#2DC91C"/>
<rect width="7.5" height="7.5" transform="matrix(-1 -2.23747e-07 -2.23747e-07 1 232.5 105)" fill="#2DC91C"/>
<rect width="7.5" height="7.5" transform="matrix(-1.80035e-07 1 1 1.80035e-07 45 112.5)" fill="#48FC34"/>
<rect width="7.5" height="7.5" transform="matrix(-1.80035e-07 1 1 1.80035e-07 37.5 82.5)" fill="#48FC34"/>
<rect width="7.5" height="7.5" transform="matrix(-1.80035e-07 1 1 1.80035e-07 60 30)" fill="#48FC34"/>
<rect width="7.5" height="7.5" transform="matrix(-1 -2.23747e-07 -2.23747e-07 1 22.5 75)" fill="#2DC91C"/>
<rect width="7.5" height="7.5" transform="matrix(-1 -2.23747e-07 -2.23747e-07 1 225 67.5)" fill="#2DC91C"/>
<rect width="7.5" height="7.5" transform="matrix(-1 -2.23747e-07 -2.23747e-07 1 30 67.5)" fill="#48FC34"/>
<rect width="7.5" height="7.5" transform="matrix(-1.80035e-07 1 1 1.80035e-07 90 52.5)" fill="#48FC34"/>
<rect width="7.5" height="7.5" transform="matrix(-1.80035e-07 1 1 1.80035e-07 90 82.5)" fill="#48FC34"/>
<rect width="7.5" height="7.5" transform="matrix(-1 -2.23747e-07 -2.23747e-07 1 22.5 112.5)" fill="#48FC34"/>
<rect width="7.5" height="7.5" transform="matrix(-1 -2.23747e-07 -2.23747e-07 1 15 112.5)" fill="#2DC91C"/>
<rect width="7.5" height="7.5" transform="matrix(-1.80035e-07 1 1 1.80035e-07 60 60)" fill="#48FC34"/>
<rect width="7.5" height="7.5" transform="matrix(-1 -2.23747e-07 -2.23747e-07 1 232.5 112.5)" fill="#2DC91C"/>
<rect width="7.5" height="7.5" transform="matrix(-1 -2.23747e-07 -2.23747e-07 1 210 105)" fill="#48FC34"/>
<rect width="7.5" height="7.5" transform="matrix(-1 -2.23747e-07 -2.23747e-07 1 22.5 82.5)" fill="#6EFF5E"/>
<rect width="7.5" height="7.5" transform="matrix(-1 -2.23747e-07 -2.23747e-07 1 15 82.5)" fill="#2DC91C"/>
<rect width="7.5" height="7.5" transform="matrix(-1.80035e-07 1 1 1.80035e-07 45 30)" fill="#2DC91C"/>
<rect width="7.5" height="7.5" transform="matrix(-1 -2.23747e-07 -2.23747e-07 1 232.5 82.5)" fill="#2DC91C"/>
<rect width="7.5" height="7.5" transform="matrix(-1.80035e-07 1 1 1.80035e-07 45 60)" fill="#48FC34"/>
<rect width="7.5" height="7.5" transform="matrix(-1 -2.23747e-07 -2.23747e-07 1 210 75)" fill="#48FC34"/>
<rect width="7.5" height="7.5" transform="matrix(-1.80035e-07 1 1 1.80035e-07 37.5 52.5)" fill="#48FC34"/>
<rect width="7.5" height="7.5" transform="matrix(-1.80035e-07 1 1 1.80035e-07 30 52.5)" fill="#6EFF5E"/>
<rect width="7.5" height="7.5" transform="matrix(-1.80035e-07 1 1 1.80035e-07 202.5 52.5)" fill="#6EFF5E"/>
<rect width="7.5" height="7.5" transform="matrix(-1 -2.23747e-07 -2.23747e-07 1 217.5 52.5)" fill="#2DC91C"/>
<rect width="7.5" height="7.5" transform="matrix(-1 -2.23747e-07 -2.23747e-07 1 217.5 67.5)" fill="#48FC34"/>
<rect width="7.5" height="7.5" transform="matrix(-1 -2.23747e-07 -2.23747e-07 1 30 52.5)" fill="#2DC91C"/>
<rect width="7.5" height="7.5" transform="matrix(-1.80035e-07 1 1 1.80035e-07 67.5 7.5)" fill="#2DC91C"/>
<rect width="7.5" height="7.5" transform="matrix(-1.80035e-07 1 1 1.80035e-07 67.5 30)" fill="#48FC34"/>
<rect width="7.5" height="7.5" transform="matrix(-1.80035e-07 1 1 1.80035e-07 67.5 60)" fill="#48FC34"/>
<rect width="7.5" height="7.5" transform="matrix(-1 -2.23747e-07 -2.23747e-07 1 210 112.5)" fill="#48FC34"/>
<rect width="7.5" height="7.5" transform="matrix(-1.80035e-07 1 1 1.80035e-07 52.5 30)" fill="#6EFF5E"/>
<rect width="7.5" height="7.5" transform="matrix(-1.80035e-07 1 1 1.80035e-07 37.5 112.5)" fill="#48FC34"/>
<rect width="7.5" height="7.5" transform="matrix(-1 -2.23747e-07 -2.23747e-07 1 22.5 67.5)" fill="#2DC91C"/>
<rect width="7.5" height="7.5" transform="matrix(-1.80035e-07 1 1 1.80035e-07 52.5 60)" fill="#48FC34"/>
<rect width="7.5" height="7.5" transform="matrix(-1 -2.23747e-07 -2.23747e-07 1 210 82.5)" fill="#48FC34"/>
<rect width="7.5" height="7.5" transform="matrix(-1.80035e-07 1 1 1.80035e-07 90 7.5)" fill="#2DC91C"/>
<rect width="7.5" height="7.5" transform="matrix(-1.80035e-07 1 1 1.80035e-07 90 30)" fill="#48FC34"/>
<rect width="7.5" height="7.5" transform="matrix(-1.80035e-07 1 1 1.80035e-07 90 60)" fill="#48FC34"/>
<rect x="112.5" y="172.5" width="7.5" height="7.5" transform="rotate(-90 112.5 172.5)" fill="#48FC34"/>
<rect x="97.5" y="172.5" width="7.5" height="7.5" transform="rotate(-90 97.5 172.5)" fill="#48FC34"/>
<rect x="97.5" y="157.5" width="7.5" height="7.5" transform="rotate(-90 97.5 157.5)" fill="#48FC34"/>
<rect x="97.5" y="165" width="7.5" height="7.5" transform="rotate(-90 97.5 165)" fill="#48FC34"/>
<rect x="82.5" y="157.5" width="7.5" height="7.5" transform="rotate(-90 82.5 157.5)" fill="#48FC34"/>
<rect x="82.5" y="150" width="7.5" height="7.5" transform="rotate(-90 82.5 150)" fill="#48FC34"/>
<rect width="7.5" height="7.5" transform="matrix(1 1.36324e-07 1.36324e-07 -1 52.5 127.5)" fill="#48FC34"/>
<rect width="7.5" height="7.5" transform="matrix(1 1.36324e-07 1.36324e-07 -1 67.5 135)" fill="#48FC34"/>
<rect x="105" y="97.5" width="7.5" height="7.5" transform="rotate(90 105 97.5)" fill="#48FC34"/>
<rect width="7.5" height="7.5" transform="matrix(-1.80035e-07 1 1 1.80035e-07 82.5 112.5)" fill="#48FC34"/>
<rect width="7.5" height="7.5" transform="matrix(-1.80035e-07 1 1 1.80035e-07 37.5 97.5)" fill="#48FC34"/>
<rect width="7.5" height="7.5" transform="matrix(-1.80035e-07 1 1 1.80035e-07 52.5 112.5)" fill="#48FC34"/>
<rect width="7.5" height="7.5" transform="matrix(-1.80035e-07 1 1 1.80035e-07 37.5 105)" fill="#48FC34"/>
<rect x="97.5" y="150" width="7.5" height="7.5" transform="rotate(-90 97.5 150)" fill="#2DC91C"/>
<rect x="97.5" y="142.5" width="7.5" height="7.5" transform="rotate(-90 97.5 142.5)" fill="#2DC91C"/>
<rect x="97.5" y="120" width="7.5" height="7.5" transform="rotate(-90 97.5 120)" fill="#2DC91C"/>
<rect x="82.5" y="135" width="7.5" height="7.5" transform="rotate(-90 82.5 135)" fill="#2DC91C"/>
<rect x="82.5" y="127.5" width="7.5" height="7.5" transform="rotate(-90 82.5 127.5)" fill="#2DC91C"/>
<rect width="7.5" height="7.5" transform="matrix(9.26126e-08 -1 -1 -9.26126e-08 120 165)" fill="#2DC91C"/>
<rect width="7.5" height="7.5" transform="matrix(9.26126e-08 -1 -1 -9.26126e-08 120 157.5)" fill="#2DC91C"/>
<rect width="7.5" height="7.5" transform="matrix(1 1.36324e-07 1.36324e-07 -1 67.5 120)" fill="#2DC91C"/>
<rect x="105" y="105" width="7.5" height="7.5" transform="rotate(90 105 105)" fill="#2DC91C"/>
<rect width="7.5" height="7.5" transform="matrix(-1.80035e-07 1 1 1.80035e-07 112.5 90)" fill="#2DC91C"/>
<rect width="7.5" height="7.5" transform="matrix(-1.80035e-07 1 1 1.80035e-07 112.5 97.5)" fill="#2DC91C"/>
<rect width="7.5" height="7.5" transform="matrix(-1.80035e-07 1 1 1.80035e-07 52.5 90)" fill="#2DC91C"/>
<rect width="7.5" height="7.5" transform="matrix(-1.80035e-07 1 1 1.80035e-07 67.5 105)" fill="#2DC91C"/>
<rect width="7.5" height="7.5" transform="matrix(-1.80035e-07 1 1 1.80035e-07 52.5 97.5)" fill="#2DC91C"/>
<rect x="105" y="165" width="7.5" height="7.5" transform="rotate(-90 105 165)" fill="#2DC91C"/>
<rect x="105" y="157.5" width="7.5" height="7.5" transform="rotate(-90 105 157.5)" fill="#2DC91C"/>
<rect x="90" y="150" width="7.5" height="7.5" transform="rotate(-90 90 150)" fill="#2DC91C"/>
<rect x="90" y="142.5" width="7.5" height="7.5" transform="rotate(-90 90 142.5)" fill="#2DC91C"/>
<rect x="90" y="120" width="7.5" height="7.5" transform="rotate(-90 90 120)" fill="#2DC91C"/>
<rect width="7.5" height="7.5" transform="matrix(1 1.36324e-07 1.36324e-07 -1 45 165)" fill="#2DC91C"/>
<rect width="7.5" height="7.5" transform="matrix(1 1.36324e-07 1.36324e-07 -1 52.5 165)" fill="#2DC91C"/>
<rect width="7.5" height="7.5" transform="matrix(1 1.36324e-07 1.36324e-07 -1 45 157.5)" fill="#2DC91C"/>
<rect width="7.5" height="7.5" transform="matrix(1 1.36324e-07 1.36324e-07 -1 60 142.5)" fill="#2DC91C"/>
<rect width="7.5" height="7.5" transform="matrix(1 1.36324e-07 1.36324e-07 -1 52.5 157.5)" fill="#2DC91C"/>
<rect width="7.5" height="7.5" transform="matrix(1 1.36324e-07 1.36324e-07 -1 67.5 142.5)" fill="#2DC91C"/>
<rect width="7.5" height="7.5" transform="matrix(1 1.36324e-07 1.36324e-07 -1 75 135)" fill="#2DC91C"/>
<rect width="7.5" height="7.5" transform="matrix(1 1.36324e-07 1.36324e-07 -1 60 150)" fill="#2DC91C"/>
<rect width="7.5" height="7.5" transform="matrix(1 1.36324e-07 1.36324e-07 -1 67.5 150)" fill="#2DC91C"/>
<rect width="7.5" height="7.5" transform="matrix(1 1.36324e-07 1.36324e-07 -1 60 120)" fill="#2DC91C"/>
<rect width="7.5" height="7.5" transform="matrix(1 1.36324e-07 1.36324e-07 -1 75 127.5)" fill="#2DC91C"/>
<rect x="112.5" y="90" width="7.5" height="7.5" transform="rotate(90 112.5 90)" fill="#2DC91C"/>
<rect x="112.5" y="97.5" width="7.5" height="7.5" transform="rotate(90 112.5 97.5)" fill="#2DC91C"/>
<rect width="7.5" height="7.5" transform="matrix(-1.80035e-07 1 1 1.80035e-07 45 90)" fill="#2DC91C"/>
<rect width="7.5" height="7.5" transform="matrix(-1.80035e-07 1 1 1.80035e-07 60 105)" fill="#2DC91C"/>
<rect width="7.5" height="7.5" transform="matrix(-1.80035e-07 1 1 1.80035e-07 45 97.5)" fill="#2DC91C"/>
<rect width="7.5" height="7.5" transform="matrix(-1.80035e-07 1 1 1.80035e-07 90 105)" fill="#2DC91C"/>
<rect width="7.5" height="7.5" transform="matrix(-1 -2.23747e-07 -2.23747e-07 1 7.5 90)" fill="#2DC91C"/>
<rect width="7.5" height="7.5" transform="matrix(-1 -2.23747e-07 -2.23747e-07 1 202.5 37.5)" fill="#2DC91C"/>
<rect width="7.5" height="7.5" transform="matrix(-1.80035e-07 1 1 1.80035e-07 37.5 30)" fill="#2DC91C"/>
<rect width="7.5" height="7.5" transform="matrix(-1 -2.23747e-07 -2.23747e-07 1 195 37.5)" fill="#6EFF5E"/>
<rect width="7.5" height="7.5" transform="matrix(-1.80035e-07 1 1 1.80035e-07 37.5 60)" fill="#48FC34"/>
<rect width="7.5" height="7.5" transform="matrix(-1.80035e-07 1 1 1.80035e-07 30 60)" fill="#6EFF5E"/>
<rect width="7.5" height="7.5" transform="matrix(-1.80035e-07 1 1 1.80035e-07 202.5 60)" fill="#6EFF5E"/>
<rect width="7.5" height="7.5" transform="matrix(-1 -2.23747e-07 -2.23747e-07 1 210 67.5)" fill="#48FC34"/>
<rect width="7.5" height="7.5" transform="matrix(-1 -2.23747e-07 -2.23747e-07 1 187.5 37.5)" fill="#48FC34"/>
<rect width="7.5" height="7.5" transform="matrix(-1.80035e-07 1 1 1.80035e-07 30 37.5)" fill="#2DC91C"/>
<rect width="7.5" height="7.5" transform="matrix(-1 -2.23747e-07 -2.23747e-07 1 180 37.5)" fill="#48FC34"/>
<rect width="7.5" height="7.5" transform="matrix(-1.80035e-07 1 1 1.80035e-07 22.5 45)" fill="#2DC91C"/>
<rect width="7.5" height="7.5" transform="matrix(-1.80035e-07 1 1 1.80035e-07 15 52.5)" fill="#2DC91C"/>
<rect width="7.5" height="7.5" transform="matrix(-1 -2.23747e-07 -2.23747e-07 1 202.5 67.5)" fill="#48FC34"/>
<rect width="7.5" height="7.5" transform="matrix(-1 -2.23747e-07 -2.23747e-07 1 172.5 37.5)" fill="#48FC34"/>
<rect width="7.5" height="7.5" transform="matrix(-1.80035e-07 1 1 1.80035e-07 15 60)" fill="#2DC91C"/>
<rect width="7.5" height="7.5" transform="matrix(-1 -2.23747e-07 -2.23747e-07 1 195 67.5)" fill="#48FC34"/>
<rect width="7.5" height="7.5" transform="matrix(-1 -2.23747e-07 -2.23747e-07 1 165 37.5)" fill="#48FC34"/>
<rect width="7.5" height="7.5" transform="matrix(-1.80035e-07 1 1 1.80035e-07 7.5 67.5)" fill="#2DC91C"/>
<rect width="7.5" height="7.5" transform="matrix(-1 -2.23747e-07 -2.23747e-07 1 187.5 67.5)" fill="#48FC34"/>
<rect width="7.5" height="7.5" transform="matrix(-1.80035e-07 1 1 1.80035e-07 7.5 75)" fill="#2DC91C"/>
<rect width="7.5" height="7.5" transform="matrix(-1 -2.23747e-07 -2.23747e-07 1 180 67.5)" fill="#48FC34"/>
<rect width="7.5" height="7.5" transform="matrix(-1 -2.23747e-07 -2.23747e-07 1 202.5 45)" fill="#48FC34"/>
<rect x="240" y="112.5" width="7.5" height="7.5" transform="rotate(-180 240 112.5)" fill="#2DC91C"/>
<rect width="7.5" height="7.5" transform="matrix(-1 -2.23747e-07 -2.23747e-07 1 195 45)" fill="#48FC34"/>
<rect width="7.5" height="7.5" transform="matrix(-1 -2.23747e-07 -2.23747e-07 1 172.5 67.5)" fill="#48FC34"/>
<rect x="240" y="105" width="7.5" height="7.5" transform="rotate(-180 240 105)" fill="#2DC91C"/>
<rect width="7.5" height="7.5" transform="matrix(-1 -2.23747e-07 -2.23747e-07 1 187.5 45)" fill="#48FC34"/>
<rect width="7.5" height="7.5" transform="matrix(-1 -2.23747e-07 -2.23747e-07 1 240 112.5)" fill="#2DC91C"/>
<rect width="7.5" height="7.5" transform="matrix(-1 -2.23747e-07 -2.23747e-07 1 165 67.5)" fill="#48FC34"/>
<rect width="7.5" height="7.5" transform="matrix(-1 -2.23747e-07 -2.23747e-07 1 180 45)" fill="#48FC34"/>
<rect width="7.5" height="7.5" transform="matrix(-1 -2.23747e-07 -2.23747e-07 1 240 82.5)" fill="#2DC91C"/>
<rect width="7.5" height="7.5" transform="matrix(-1 -2.23747e-07 -2.23747e-07 1 232.5 75)" fill="#2DC91C"/>
<rect width="7.5" height="7.5" transform="matrix(-1 -2.23747e-07 -2.23747e-07 1 202.5 75)" fill="#48FC34"/>
<rect width="7.5" height="7.5" transform="matrix(-1 -2.23747e-07 -2.23747e-07 1 172.5 45)" fill="#48FC34"/>
<rect width="7.5" height="7.5" transform="matrix(-1 -2.23747e-07 -2.23747e-07 1 187.5 90)" fill="#6EFF5E"/>
<rect width="7.5" height="7.5" transform="matrix(-1 -2.23747e-07 -2.23747e-07 1 187.5 97.5)" fill="#6EFF5E"/>
<rect width="7.5" height="7.5" transform="matrix(-1 -2.23747e-07 -2.23747e-07 1 225 60)" fill="#2DC91C"/>
<rect width="7.5" height="7.5" transform="matrix(-1 -2.23747e-07 -2.23747e-07 1 195 75)" fill="#48FC34"/>
<rect width="7.5" height="7.5" transform="matrix(-1 -2.23747e-07 -2.23747e-07 1 180 90)" fill="#6EFF5E"/>
<rect width="7.5" height="7.5" transform="matrix(-1 -2.23747e-07 -2.23747e-07 1 180 97.5)" fill="#48FC34"/>
<rect width="7.5" height="7.5" transform="matrix(-1 -2.23747e-07 -2.23747e-07 1 165 45)" fill="#48FC34"/>
<rect width="7.5" height="7.5" transform="matrix(-1 -2.23747e-07 -2.23747e-07 1 187.5 15)" fill="#2DC91C"/>
<rect width="7.5" height="7.5" transform="matrix(-1 -2.23747e-07 -2.23747e-07 1 172.5 90)" fill="#48FC34"/>
<rect width="7.5" height="7.5" transform="matrix(-1 -2.23747e-07 -2.23747e-07 1 172.5 97.5)" fill="#48FC34"/>
<rect width="7.5" height="7.5" transform="matrix(-1 -2.23747e-07 -2.23747e-07 1 195 22.5)" fill="#2DC91C"/>
<rect width="7.5" height="7.5" transform="matrix(-1 -2.23747e-07 -2.23747e-07 1 217.5 45)" fill="#2DC91C"/>
<rect width="7.5" height="7.5" transform="matrix(-1 -2.23747e-07 -2.23747e-07 1 187.5 22.5)" fill="#2DC91C"/>
<rect width="7.5" height="7.5" transform="matrix(-1 -2.23747e-07 -2.23747e-07 1 165 90)" fill="#48FC34"/>
<rect width="7.5" height="7.5" transform="matrix(-1 -2.23747e-07 -2.23747e-07 1 165 97.5)" fill="#48FC34"/>
<rect width="7.5" height="7.5" transform="matrix(-1 -2.23747e-07 -2.23747e-07 1 202.5 52.5)" fill="#48FC34"/>
<rect width="7.5" height="7.5" transform="matrix(-1 -2.23747e-07 -2.23747e-07 1 202.5 82.5)" fill="#48FC34"/>
<rect width="7.5" height="7.5" transform="matrix(-1 -2.23747e-07 -2.23747e-07 1 180 15)" fill="#2DC91C"/>
<rect width="7.5" height="7.5" transform="matrix(-1 -2.23747e-07 -2.23747e-07 1 180 22.5)" fill="#2DC91C"/>
<rect width="7.5" height="7.5" transform="matrix(-1 -2.23747e-07 -2.23747e-07 1 195 52.5)" fill="#48FC34"/>
<rect width="7.5" height="7.5" transform="matrix(-1 -2.23747e-07 -2.23747e-07 1 195 82.5)" fill="#48FC34"/>
<rect width="7.5" height="7.5" transform="matrix(-1 -2.23747e-07 -2.23747e-07 1 232.5 67.5)" fill="#2DC91C"/>
<rect width="7.5" height="7.5" transform="matrix(-1 -2.23747e-07 -2.23747e-07 1 187.5 52.5)" fill="#48FC34"/>
<rect width="7.5" height="7.5" transform="matrix(-1 -2.23747e-07 -2.23747e-07 1 172.5 22.5)" fill="#6EFF5E"/>
<rect width="7.5" height="7.5" transform="matrix(-1 -2.23747e-07 -2.23747e-07 1 172.5 15)" fill="#2DC91C"/>
<rect width="7.5" height="7.5" transform="matrix(-1 -2.23747e-07 -2.23747e-07 1 180 52.5)" fill="#48FC34"/>
<rect width="7.5" height="7.5" transform="matrix(-1 -2.23747e-07 -2.23747e-07 1 165 22.5)" fill="#48FC34"/>
<rect width="7.5" height="7.5" transform="matrix(-1 -2.23747e-07 -2.23747e-07 1 225 52.5)" fill="#2DC91C"/>
<rect width="7.5" height="7.5" transform="matrix(-1 -2.23747e-07 -2.23747e-07 1 172.5 52.5)" fill="#48FC34"/>
<rect width="7.5" height="7.5" transform="matrix(-1 -2.23747e-07 -2.23747e-07 1 165 15)" fill="#2DC91C"/>
<rect width="7.5" height="7.5" transform="matrix(-1 -2.23747e-07 -2.23747e-07 1 240 90)" fill="#2DC91C"/>
<rect width="7.5" height="7.5" transform="matrix(-1 -2.23747e-07 -2.23747e-07 1 165 52.5)" fill="#48FC34"/>
<rect width="7.5" height="7.5" transform="matrix(-1 -2.23747e-07 -2.23747e-07 1 210 37.5)" fill="#2DC91C"/>
<rect width="7.5" height="7.5" transform="matrix(-1 -2.23747e-07 -2.23747e-07 1 202.5 30)" fill="#2DC91C"/>
<rect width="7.5" height="7.5" transform="matrix(-1 -2.23747e-07 -2.23747e-07 1 202.5 60)" fill="#48FC34"/>
<rect width="7.5" height="7.5" transform="matrix(-1 -2.23747e-07 -2.23747e-07 1 202.5 112.5)" fill="#48FC34"/>
<rect width="7.5" height="7.5" transform="matrix(-1 -2.23747e-07 -2.23747e-07 1 195 30)" fill="#2DC91C"/>
<rect width="7.5" height="7.5" transform="matrix(-1 -2.23747e-07 -2.23747e-07 1 195 60)" fill="#48FC34"/>
<rect width="7.5" height="7.5" transform="matrix(-1 -2.23747e-07 -2.23747e-07 1 195 112.5)" fill="#6EFF5E"/>
<rect width="7.5" height="7.5" transform="matrix(-1 -2.23747e-07 -2.23747e-07 1 187.5 30)" fill="#48FC34"/>
<rect width="7.5" height="7.5" transform="matrix(-1 -2.23747e-07 -2.23747e-07 1 187.5 60)" fill="#48FC34"/>
<rect width="7.5" height="7.5" transform="matrix(-1 -2.23747e-07 -2.23747e-07 1 187.5 105)" fill="#48FC34"/>
<rect width="7.5" height="7.5" transform="matrix(-1 -2.23747e-07 -2.23747e-07 1 180 30)" fill="#48FC34"/>
<rect width="7.5" height="7.5" transform="matrix(-1 -2.23747e-07 -2.23747e-07 1 180 60)" fill="#48FC34"/>
<rect width="7.5" height="7.5" transform="matrix(-1 -2.23747e-07 -2.23747e-07 1 180 105)" fill="#48FC34"/>
<rect width="7.5" height="7.5" transform="matrix(-1 -2.23747e-07 -2.23747e-07 1 172.5 7.5)" fill="#2DC91C"/>
<rect width="7.5" height="7.5" transform="matrix(-1 -2.23747e-07 -2.23747e-07 1 172.5 30)" fill="#48FC34"/>
<rect width="7.5" height="7.5" transform="matrix(-1 -2.23747e-07 -2.23747e-07 1 172.5 60)" fill="#48FC34"/>
<rect width="7.5" height="7.5" transform="matrix(-1 -2.23747e-07 -2.23747e-07 1 172.5 105)" fill="#48FC34"/>
<rect width="7.5" height="7.5" transform="matrix(-1 -2.23747e-07 -2.23747e-07 1 165 7.5)" fill="#2DC91C"/>
<rect width="7.5" height="7.5" transform="matrix(-1 -2.23747e-07 -2.23747e-07 1 165 30)" fill="#48FC34"/>
<rect width="7.5" height="7.5" transform="matrix(-1 -2.23747e-07 -2.23747e-07 1 165 60)" fill="#48FC34"/>
<rect width="7.5" height="7.5" transform="matrix(-1 -2.23747e-07 -2.23747e-07 1 165 105)" fill="#48FC34"/>
<rect x="127.5" y="150" width="7.5" height="7.5" transform="rotate(-90 127.5 150)" fill="#2DC91C"/>
<rect x="127.5" y="142.5" width="7.5" height="7.5" transform="rotate(-90 127.5 142.5)" fill="#2DC91C"/>
<rect x="127.5" y="157.5" width="7.5" height="7.5" transform="rotate(-90 127.5 157.5)" fill="#2DC91C"/>
<rect x="127.5" y="135" width="7.5" height="7.5" transform="rotate(-90 127.5 135)" fill="#2DC91C"/>
<rect x="135" y="157.5" width="7.5" height="7.5" transform="rotate(-90 135 157.5)" fill="#2DC91C"/>
<rect x="135" y="150" width="7.5" height="7.5" transform="rotate(-90 135 150)" fill="#2DC91C"/>
<rect x="135" y="142.5" width="7.5" height="7.5" transform="rotate(-90 135 142.5)" fill="#2DC91C"/>
<rect x="135" y="135" width="7.5" height="7.5" transform="rotate(-90 135 135)" fill="#2DC91C"/>
<rect width="7.5" height="7.5" transform="matrix(9.26126e-08 -1 -1 -9.26126e-08 157.5 172.5)" fill="#2DC91C"/>
<rect width="7.5" height="7.5" transform="matrix(9.26126e-08 -1 -1 -9.26126e-08 157.5 165)" fill="#2DC91C"/>
<rect width="7.5" height="7.5" transform="matrix(9.26126e-08 -1 -1 -9.26126e-08 165 172.5)" fill="#2DC91C"/>
<rect width="7.5" height="7.5" transform="matrix(9.26126e-08 -1 -1 -9.26126e-08 180 172.5)" fill="#2DC91C"/>
<rect width="7.5" height="7.5" transform="matrix(9.26126e-08 -1 -1 -9.26126e-08 157.5 127.5)" fill="#2DC91C"/>
<rect width="7.5" height="7.5" transform="matrix(9.26126e-08 -1 -1 -9.26126e-08 172.5 172.5)" fill="#2DC91C"/>
<rect width="7.5" height="7.5" transform="matrix(9.26126e-08 -1 -1 -9.26126e-08 165 165)" fill="#2DC91C"/>
<rect width="7.5" height="7.5" transform="matrix(9.26126e-08 -1 -1 -9.26126e-08 187.5 172.5)" fill="#2DC91C"/>
<rect width="7.5" height="7.5" transform="matrix(9.26126e-08 -1 -1 -9.26126e-08 150 172.5)" fill="#2DC91C"/>
<rect width="7.5" height="7.5" transform="matrix(9.26126e-08 -1 -1 -9.26126e-08 180 165)" fill="#2DC91C"/>
<rect width="7.5" height="7.5" transform="matrix(9.26126e-08 -1 -1 -9.26126e-08 195 157.5)" fill="#2DC91C"/>
<rect width="7.5" height="7.5" transform="matrix(9.26126e-08 -1 -1 -9.26126e-08 172.5 165)" fill="#2DC91C"/>
<rect width="7.5" height="7.5" transform="matrix(9.26126e-08 -1 -1 -9.26126e-08 195 150)" fill="#2DC91C"/>
<rect width="7.5" height="7.5" transform="matrix(9.26126e-08 -1 -1 -9.26126e-08 187.5 165)" fill="#2DC91C"/>
<rect width="7.5" height="7.5" transform="matrix(9.26126e-08 -1 -1 -9.26126e-08 150 165)" fill="#2DC91C"/>
<rect width="7.5" height="7.5" transform="matrix(9.26126e-08 -1 -1 -9.26126e-08 165 127.5)" fill="#2DC91C"/>
<rect width="7.5" height="7.5" transform="matrix(9.26126e-08 -1 -1 -9.26126e-08 202.5 150)" fill="#2DC91C"/>
<rect width="7.5" height="7.5" transform="matrix(9.26126e-08 -1 -1 -9.26126e-08 180 127.5)" fill="#2DC91C"/>
<rect width="7.5" height="7.5" transform="matrix(9.26126e-08 -1 -1 -9.26126e-08 202.5 157.5)" fill="#2DC91C"/>
<rect width="7.5" height="7.5" transform="matrix(9.26126e-08 -1 -1 -9.26126e-08 172.5 127.5)" fill="#2DC91C"/>
<rect width="7.5" height="7.5" transform="matrix(9.26126e-08 -1 -1 -9.26126e-08 187.5 127.5)" fill="#2DC91C"/>
<rect width="7.5" height="7.5" transform="matrix(9.26126e-08 -1 -1 -9.26126e-08 150 127.5)" fill="#2DC91C"/>
<rect x="142.5" y="90" width="7.5" height="7.5" transform="rotate(90 142.5 90)" fill="#2DC91C"/>
<rect x="142.5" y="97.5" width="7.5" height="7.5" transform="rotate(90 142.5 97.5)" fill="#2DC91C"/>
<rect x="157.5" y="75" width="7.5" height="7.5" transform="rotate(90 157.5 75)" fill="#2DC91C"/>
<rect x="157.5" y="82.5" width="7.5" height="7.5" transform="rotate(90 157.5 82.5)" fill="#2DC91C"/>
<rect x="157.5" y="112.5" width="7.5" height="7.5" transform="rotate(90 157.5 112.5)" fill="#2DC91C"/>
<rect x="135" y="90" width="7.5" height="7.5" transform="rotate(90 135 90)" fill="#2DC91C"/>
<rect x="135" y="97.5" width="7.5" height="7.5" transform="rotate(90 135 97.5)" fill="#2DC91C"/>
<rect x="150" y="75" width="7.5" height="7.5" transform="rotate(90 150 75)" fill="#2DC91C"/>
<rect x="150" y="82.5" width="7.5" height="7.5" transform="rotate(90 150 82.5)" fill="#2DC91C"/>
<rect x="150" y="112.5" width="7.5" height="7.5" transform="rotate(90 150 112.5)" fill="#2DC91C"/>
<rect width="7.5" height="7.5" transform="matrix(-1 -2.23747e-07 -2.23747e-07 1 202.5 90)" fill="#2DC91C"/>
<rect width="7.5" height="7.5" transform="matrix(-1 -2.23747e-07 -2.23747e-07 1 202.5 97.5)" fill="#2DC91C"/>
<rect width="7.5" height="7.5" transform="matrix(-1 -2.23747e-07 -2.23747e-07 1 195 90)" fill="#2DC91C"/>
<rect width="7.5" height="7.5" transform="matrix(-1 -2.23747e-07 -2.23747e-07 1 195 97.5)" fill="#2DC91C"/>
<rect width="7.5" height="7.5" transform="matrix(-1 -2.23747e-07 -2.23747e-07 1 187.5 75)" fill="#2DC91C"/>
<rect width="7.5" height="7.5" transform="matrix(-1 -2.23747e-07 -2.23747e-07 1 180 75)" fill="#2DC91C"/>
<rect width="7.5" height="7.5" transform="matrix(-1 -2.23747e-07 -2.23747e-07 1 172.5 75)" fill="#2DC91C"/>
<rect width="7.5" height="7.5" transform="matrix(-1 -2.23747e-07 -2.23747e-07 1 165 75)" fill="#2DC91C"/>
<rect width="7.5" height="7.5" transform="matrix(-1 -2.23747e-07 -2.23747e-07 1 187.5 82.5)" fill="#2DC91C"/>
<rect width="7.5" height="7.5" transform="matrix(-1 -2.23747e-07 -2.23747e-07 1 180 82.5)" fill="#2DC91C"/>
<rect width="7.5" height="7.5" transform="matrix(-1 -2.23747e-07 -2.23747e-07 1 172.5 82.5)" fill="#2DC91C"/>
<rect width="7.5" height="7.5" transform="matrix(-1 -2.23747e-07 -2.23747e-07 1 165 82.5)" fill="#2DC91C"/>
<rect width="7.5" height="7.5" transform="matrix(-1 -2.23747e-07 -2.23747e-07 1 202.5 105)" fill="#2DC91C"/>
<rect width="7.5" height="7.5" transform="matrix(-1 -2.23747e-07 -2.23747e-07 1 195 105)" fill="#2DC91C"/>
<rect width="7.5" height="7.5" transform="matrix(-1 -2.23747e-07 -2.23747e-07 1 187.5 112.5)" fill="#2DC91C"/>
<rect width="7.5" height="7.5" transform="matrix(-1 -2.23747e-07 -2.23747e-07 1 180 112.5)" fill="#2DC91C"/>
<rect width="7.5" height="7.5" transform="matrix(-1 -2.23747e-07 -2.23747e-07 1 172.5 112.5)" fill="#2DC91C"/>
<rect width="7.5" height="7.5" transform="matrix(-1 -2.23747e-07 -2.23747e-07 1 165 112.5)" fill="#2DC91C"/>
<rect width="7.5" height="7.5" transform="matrix(1 1.36324e-07 1.36324e-07 -1 60 157.5)" fill="#6EFF5E"/>
<rect width="7.5" height="7.5" transform="matrix(1 1.36324e-07 1.36324e-07 -1 45 172.5)" fill="#48FC34"/>
<rect width="7.5" height="7.5" transform="matrix(1 1.36324e-07 1.36324e-07 -1 52.5 172.5)" fill="#48FC34"/>
<rect width="7.5" height="7.5" transform="matrix(1 1.36324e-07 1.36324e-07 -1 75 142.5)" fill="#6EFF5E"/>
<rect x="112.5" y="105" width="7.5" height="7.5" transform="rotate(90 112.5 105)" fill="#6EFF5E"/>
<rect width="7.5" height="7.5" transform="matrix(-1.80035e-07 1 1 1.80035e-07 112.5 105)" fill="#48FC34"/>
<rect width="7.5" height="7.5" transform="matrix(-1.80035e-07 1 1 1.80035e-07 45 105)" fill="#48FC34"/>
<rect width="7.5" height="7.5" transform="matrix(-1.80035e-07 1 1 1.80035e-07 52.5 105)" fill="#48FC34"/>
<rect width="7.5" height="7.5" transform="matrix(-1.80035e-07 1 1 1.80035e-07 60 120)" fill="#48FC34"/>
<rect width="7.5" height="7.5" transform="matrix(-1.80035e-07 1 1 1.80035e-07 67.5 120)" fill="#48FC34"/>
<rect width="7.5" height="7.5" transform="matrix(-1.80035e-07 1 1 1.80035e-07 90 120)" fill="#6EFF5E"/>
<rect x="82.5" y="142.5" width="7.5" height="7.5" transform="rotate(-90 82.5 142.5)" fill="#48FC34"/>
<rect width="7.5" height="7.5" transform="matrix(1 1.36324e-07 1.36324e-07 -1 67.5 157.5)" fill="#48FC34"/>
<rect x="105" y="120" width="7.5" height="7.5" transform="rotate(90 105 120)" fill="#6EFF5E"/>
</svg>
