<svg width="150" height="420" viewBox="0 0 150 420" fill="none" xmlns="http://www.w3.org/2000/svg">
<rect x="50" width="10" height="10" fill="#201F20"/>
<rect x="60" width="10" height="10" fill="#201F20"/>
<rect x="70" width="10" height="10" fill="#201F20"/>
<rect x="80" width="10" height="10" fill="#201F20"/>
<rect x="90" width="10" height="10" fill="#201F20"/>
<rect x="50" y="10" width="10" height="10" fill="#DD6366"/>
<rect x="60" y="10" width="10" height="10" fill="#DD6366"/>
<rect x="70" y="10" width="10" height="10" fill="#D02626"/>
<rect x="80" y="10" width="10" height="10" fill="#DD6366"/>
<rect x="90" y="10" width="10" height="10" fill="#D02626"/>
<rect x="100" y="10" width="10" height="10" fill="#201F20"/>
<rect x="40" y="10" width="10" height="10" fill="#201F20"/>
<rect x="50" y="20" width="10" height="10" fill="#DD6366"/>
<rect x="60" y="20" width="10" height="10" fill="#D02626"/>
<rect x="70" y="20" width="10" height="10" fill="#D02626"/>
<rect x="90" y="20" width="10" height="10" fill="#D02626"/>
<rect x="100" y="20" width="10" height="10" fill="#201F20"/>
<rect x="80" y="20" width="10" height="10" fill="#D02626"/>
<rect x="40" y="20" width="10" height="10" fill="#201F20"/>
<rect x="50" y="30" width="10" height="10" fill="#AB2320"/>
<rect x="60" y="30" width="10" height="10" fill="#D54A46"/>
<rect x="90" y="30" width="10" height="10" fill="#AB2320"/>
<rect x="100" y="30" width="10" height="10" fill="#201F20"/>
<rect x="100" y="50" width="10" height="10" fill="#201F20"/>
<rect x="100" y="60" width="10" height="10" fill="#58C1D5"/>
<rect x="110" y="60" width="10" height="10" fill="#201F20"/>
<rect x="100" y="70" width="10" height="10" fill="#5172C4"/>
<rect x="110" y="70" width="10" height="10" fill="#58C1D5"/>
<rect x="100" y="80" width="10" height="10" fill="#5172C4"/>
<rect x="100" y="90" width="10" height="10" fill="#C1D2F3"/>
<rect x="100" y="100" width="10" height="10" fill="#C1D2F3"/>
<rect x="100" y="110" width="10" height="10" fill="#C1D2F3"/>
<rect x="100" y="150" width="10" height="10" fill="#5172C4"/>
<rect x="100" y="190" width="10" height="10" fill="#5172C4"/>
<rect x="100" y="230" width="10" height="10" fill="#C1D2F3"/>
<rect x="100" y="120" width="10" height="10" fill="#5172C4"/>
<rect x="100" y="200" width="10" height="10" fill="#5172C4"/>
<rect x="100" y="160" width="10" height="10" fill="#5172C4"/>
<rect x="100" y="240" width="10" height="10" fill="#C1D2F3"/>
<rect x="100" y="210" width="10" height="10" fill="#5172C4"/>
<rect x="100" y="270" width="10" height="10" fill="#C1D2F3"/>
<rect x="100" y="300" width="10" height="10" fill="#C1D2F3"/>
<rect x="100" y="330" width="10" height="10" fill="#C1D2F3"/>
<rect x="100" y="360" width="10" height="10" fill="#C1D2F3"/>
<rect x="100" y="130" width="10" height="10" fill="#5172C4"/>
<rect x="100" y="220" width="10" height="10" fill="#C1D2F3"/>
<rect x="100" y="280" width="10" height="10" fill="#C1D2F3"/>
<rect x="100" y="290" width="10" height="10" fill="#C1D2F3"/>
<rect x="100" y="170" width="10" height="10" fill="#5172C4"/>
<rect x="100" y="310" width="10" height="10" fill="#C1D2F3"/>
<rect x="100" y="340" width="10" height="10" fill="#C1D2F3"/>
<rect x="100" y="370" width="10" height="10" fill="#C1D2F3"/>
<rect x="100" y="380" width="10" height="10" fill="#C1D2F3"/>
<rect x="100" y="390" width="10" height="10" fill="#58C1D5"/>
<rect x="100" y="320" width="10" height="10" fill="#C1D2F3"/>
<rect x="100" y="350" width="10" height="10" fill="#C1D2F3"/>
<rect x="100" y="250" width="10" height="10" fill="#C1D2F3"/>
<rect x="100" y="140" width="10" height="10" fill="#5172C4"/>
<rect x="100" y="180" width="10" height="10" fill="#5172C4"/>
<rect x="110" y="190" width="10" height="10" fill="#5172C4"/>
<rect x="100" y="260" width="10" height="10" fill="#C1D2F3"/>
<rect x="110" y="80" width="10" height="10" fill="#58C1D5"/>
<rect x="110" y="200" width="10" height="10" fill="#5172C4"/>
<rect x="110" y="110" width="10" height="10" fill="#5172C4"/>
<rect x="110" y="150" width="10" height="10" fill="#5172C4"/>
<rect x="110" y="210" width="10" height="10" fill="#5172C4"/>
<rect x="110" y="270" width="10" height="10" fill="#5172C4"/>
<rect x="110" y="230" width="10" height="10" fill="#5172C4"/>
<rect x="110" y="120" width="10" height="10" fill="#5172C4"/>
<rect x="110" y="280" width="10" height="10" fill="#5172C4"/>
<rect x="110" y="290" width="10" height="10" fill="#C1D2F3"/>
<rect x="110" y="220" width="10" height="10" fill="#5172C4"/>
<rect x="110" y="300" width="10" height="10" fill="#5172C4"/>
<rect x="110" y="330" width="10" height="10" fill="#5172C4"/>
<rect x="110" y="360" width="10" height="10" fill="#C1D2F3"/>
<rect x="110" y="160" width="10" height="10" fill="#5172C4"/>
<rect x="110" y="240" width="10" height="10" fill="#5172C4"/>
<rect x="110" y="310" width="10" height="10" fill="#5172C4"/>
<rect x="110" y="340" width="10" height="10" fill="#5172C4"/>
<rect x="110" y="370" width="10" height="10" fill="#C1D2F3"/>
<rect x="110" y="380" width="10" height="10" fill="#C1D2F3"/>
<rect x="110" y="390" width="10" height="10" fill="#58C1D5"/>
<rect x="110" y="350" width="10" height="10" fill="#C1D2F3"/>
<rect x="110" y="320" width="10" height="10" fill="#C1D2F3"/>
<rect x="110" y="90" width="10" height="10" fill="#5172C4"/>
<rect x="110" y="100" width="10" height="10" fill="#5172C4"/>
<rect x="120" y="190" width="10" height="10" fill="#5172C4"/>
<rect x="110" y="130" width="10" height="10" fill="#5172C4"/>
<rect x="110" y="170" width="10" height="10" fill="#5172C4"/>
<rect x="120" y="200" width="10" height="10" fill="#5172C4"/>
<rect x="110" y="250" width="10" height="10" fill="#5172C4"/>
<rect x="110" y="140" width="10" height="10" fill="#5172C4"/>
<rect x="110" y="180" width="10" height="10" fill="#5172C4"/>
<rect x="110" y="260" width="10" height="10" fill="#5172C4"/>
<rect x="120" y="110" width="10" height="10" fill="#5172C4"/>
<rect x="120" y="150" width="10" height="10" fill="#5172C4"/>
<rect x="120" y="230" width="10" height="10" fill="#58C1D5"/>
<rect x="120" y="120" width="10" height="10" fill="#5172C4"/>
<rect x="120" y="160" width="10" height="10" fill="#5172C4"/>
<rect x="120" y="240" width="10" height="10" fill="#58C1D5"/>
<rect x="130" y="110" width="10" height="10" fill="#58C1D5"/>
<rect x="130" y="150" width="10" height="10" fill="#58C1D5"/>
<rect x="20" y="190" width="10" height="10" fill="#5AC0D5"/>
<rect x="130" y="190" width="10" height="10" fill="#58C1D5"/>
<rect x="130" y="120" width="10" height="10" fill="#58C1D5"/>
<rect x="20" y="200" width="10" height="10" fill="#5AC0D5"/>
<rect x="130" y="160" width="10" height="10" fill="#58C1D5"/>
<rect x="130" y="200" width="10" height="10" fill="#58C1D5"/>
<rect x="120" y="70" width="10" height="10" fill="#201F20"/>
<rect x="120" y="80" width="10" height="10" fill="#201F20"/>
<rect x="120" y="270" width="10" height="10" fill="#5172C4"/>
<rect x="120" y="210" width="10" height="10" fill="#5172C4"/>
<rect x="120" y="90" width="10" height="10" fill="#58C1D5"/>
<rect x="120" y="280" width="10" height="10" fill="#5172C4"/>
<rect x="120" y="290" width="10" height="10" fill="#5172C4"/>
<rect x="120" y="100" width="10" height="10" fill="#58C1D5"/>
<rect x="120" y="220" width="10" height="10" fill="#EFF3F6"/>
<rect x="20" y="110" width="10" height="10" fill="#5AC0D5"/>
<rect x="20" y="150" width="10" height="10" fill="#5AC0D5"/>
<rect x="120" y="300" width="10" height="10" fill="#5172C4"/>
<rect x="120" y="330" width="10" height="10" fill="#5172C4"/>
<rect x="120" y="360" width="10" height="10" fill="#5172C4"/>
<rect x="20" y="230" width="10" height="10" fill="#8FD9E2"/>
<rect x="20" y="120" width="10" height="10" fill="#5AC0D5"/>
<rect x="120" y="310" width="10" height="10" fill="#5172C4"/>
<rect x="120" y="340" width="10" height="10" fill="#5172C4"/>
<rect x="120" y="370" width="10" height="10" fill="#5172C4"/>
<rect x="120" y="380" width="10" height="10" fill="#5172C4"/>
<rect x="120" y="390" width="10" height="10" fill="#58C1D5"/>
<rect x="120" y="320" width="10" height="10" fill="#5172C4"/>
<rect x="120" y="350" width="10" height="10" fill="#5172C4"/>
<rect x="20" y="160" width="10" height="10" fill="#5AC0D5"/>
<rect x="20" y="240" width="10" height="10" fill="#8FD9E2"/>
<rect x="10" y="110" width="10" height="10" fill="#8FD9E2"/>
<rect x="10" y="150" width="10" height="10" fill="#8FD9E2"/>
<rect x="10" y="190" width="10" height="10" fill="#5AC0D5"/>
<rect x="10" y="120" width="10" height="10" fill="#8FD9E2"/>
<rect x="20" y="210" width="10" height="10" fill="#5AC0D5"/>
<rect x="20" y="270" width="10" height="10" fill="#5AC0D5"/>
<rect x="10" y="160" width="10" height="10" fill="#8FD9E2"/>
<rect x="10" y="200" width="10" height="10" fill="#5AC0D5"/>
<rect x="20" y="280" width="10" height="10" fill="#5AC0D5"/>
<rect x="20" y="290" width="10" height="10" fill="#C1D2F3"/>
<rect x="20" y="220" width="10" height="10" fill="#5AC0D5"/>
<rect x="120" y="130" width="10" height="10" fill="#5172C4"/>
<rect x="130" y="270" width="10" height="10" fill="#58C1D5"/>
<rect x="120" y="170" width="10" height="10" fill="#5172C4"/>
<rect x="130" y="210" width="10" height="10" fill="#58C1D5"/>
<rect x="130" y="280" width="10" height="10" fill="#58C1D5"/>
<rect x="120" y="250" width="10" height="10" fill="#58C1D5"/>
<rect x="120" y="140" width="10" height="10" fill="#5172C4"/>
<rect x="130" y="220" width="10" height="10" fill="#58C1D5"/>
<rect x="20" y="300" width="10" height="10" fill="#F0F2F8"/>
<rect x="20" y="330" width="10" height="10" fill="#F0F2F8"/>
<rect x="20" y="360" width="10" height="10" fill="#F0F2F8"/>
<rect x="120" y="180" width="10" height="10" fill="#5172C4"/>
<rect x="120" y="260" width="10" height="10" fill="#58C1D5"/>
<rect x="20" y="310" width="10" height="10" fill="#F0F2F8"/>
<rect x="20" y="340" width="10" height="10" fill="#F0F2F8"/>
<rect x="20" y="370" width="10" height="10" fill="#F0F2F8"/>
<rect x="20" y="380" width="10" height="10" fill="#C1D2F3"/>
<rect x="20" y="390" width="10" height="10" fill="#5172C4"/>
<rect x="20" y="320" width="10" height="10" fill="#C1D2F3"/>
<rect x="20" y="350" width="10" height="10" fill="#C1D2F3"/>
<rect x="130" y="130" width="10" height="10" fill="#58C1D5"/>
<rect x="130" y="170" width="10" height="10" fill="#58C1D5"/>
<rect x="130" y="300" width="10" height="10" fill="#58C1D5"/>
<rect x="130" y="330" width="10" height="10" fill="#58C1D5"/>
<rect x="130" y="360" width="10" height="10" fill="#58C1D5"/>
<rect x="130" y="140" width="10" height="10" fill="#58C1D5"/>
<rect x="130" y="180" width="10" height="10" fill="#58C1D5"/>
<rect x="130" y="310" width="10" height="10" fill="#58C1D5"/>
<rect x="130" y="340" width="10" height="10" fill="#58C1D5"/>
<rect x="130" y="370" width="10" height="10" fill="#58C1D5"/>
<rect x="130" y="380" width="10" height="10" fill="#5172C4"/>
<rect x="10" y="270" width="10" height="10" fill="#8FD9E2"/>
<rect x="20" y="70" width="10" height="10" fill="#201F20"/>
<rect x="20" y="80" width="10" height="10" fill="#201F20"/>
<rect x="10" y="280" width="10" height="10" fill="#5AC0D5"/>
<rect x="10" y="210" width="10" height="10" fill="#5AC0D5"/>
<rect x="20" y="90" width="10" height="10" fill="#8FD9E2"/>
<rect x="20" y="100" width="10" height="10" fill="#5AC0D5"/>
<rect x="10" y="220" width="10" height="10" fill="#5AC0D5"/>
<rect x="20" y="130" width="10" height="10" fill="#5AC0D5"/>
<rect x="20" y="170" width="10" height="10" fill="#5AC0D5"/>
<rect x="20" y="250" width="10" height="10" fill="#8FD9E2"/>
<rect x="20" y="140" width="10" height="10" fill="#5AC0D5"/>
<rect x="20" y="180" width="10" height="10" fill="#5AC0D5"/>
<rect x="20" y="260" width="10" height="10" fill="#5AC0D5"/>
<rect x="10" y="130" width="10" height="10" fill="#8FD9E2"/>
<rect x="10" y="170" width="10" height="10" fill="#5AC0D5"/>
<rect x="10" y="300" width="10" height="10" fill="#AFC0C7"/>
<rect x="10" y="330" width="10" height="10" fill="#AFC0C7"/>
<rect x="10" y="360" width="10" height="10" fill="#AFC0C7"/>
<rect x="10" y="140" width="10" height="10" fill="#8FD9E2"/>
<rect x="10" y="180" width="10" height="10" fill="#8FD9E2"/>
<rect x="10" y="310" width="10" height="10" fill="#AFC0C7"/>
<rect x="10" y="340" width="10" height="10" fill="#AFC0C7"/>
<rect x="10" y="370" width="10" height="10" fill="#AFC0C7"/>
<rect x="10" y="380" width="10" height="10" fill="#AFC0C7"/>
<rect x="10" y="90" width="10" height="10" fill="#201F20"/>
<rect x="10" y="100" width="10" height="10" fill="#201F20"/>
<rect y="110" width="10" height="10" fill="#201F20"/>
<rect y="120" width="10" height="10" fill="#201F20"/>
<rect y="130" width="10" height="10" fill="#201F20"/>
<rect y="140" width="10" height="10" fill="#201F20"/>
<rect y="150" width="10" height="10" fill="#201F20"/>
<rect y="190" width="10" height="10" fill="#201F20"/>
<rect y="160" width="10" height="10" fill="#201F20"/>
<rect y="200" width="10" height="10" fill="#201F20"/>
<rect y="170" width="10" height="10" fill="#201F20"/>
<rect y="210" width="10" height="10" fill="#201F20"/>
<rect y="180" width="10" height="10" fill="#201F20"/>
<rect y="220" width="10" height="10" fill="#201F20"/>
<rect x="140" y="110" width="10" height="10" fill="#201F20"/>
<rect x="140" y="120" width="10" height="10" fill="#201F20"/>
<rect x="140" y="130" width="10" height="10" fill="#201F20"/>
<rect x="140" y="140" width="10" height="10" fill="#201F20"/>
<rect x="140" y="150" width="10" height="10" fill="#201F20"/>
<rect x="140" y="190" width="10" height="10" fill="#201F20"/>
<rect x="130" y="230" width="10" height="10" fill="#201F20"/>
<rect x="10" y="230" width="10" height="10" fill="#201F20"/>
<rect x="140" y="200" width="10" height="10" fill="#201F20"/>
<rect x="140" y="160" width="10" height="10" fill="#201F20"/>
<rect x="130" y="240" width="10" height="10" fill="#201F20"/>
<rect x="140" y="210" width="10" height="10" fill="#201F20"/>
<rect x="10" y="240" width="10" height="10" fill="#201F20"/>
<rect x="130" y="250" width="10" height="10" fill="#201F20"/>
<rect x="140" y="270" width="10" height="10" fill="#201F20"/>
<rect x="140" y="300" width="10" height="10" fill="#201F20"/>
<rect x="140" y="330" width="10" height="10" fill="#201F20"/>
<rect x="140" y="360" width="10" height="10" fill="#201F20"/>
<rect x="130" y="260" width="10" height="10" fill="#201F20"/>
<rect x="140" y="280" width="10" height="10" fill="#201F20"/>
<rect x="130" y="290" width="10" height="10" fill="#201F20"/>
<rect x="140" y="310" width="10" height="10" fill="#201F20"/>
<rect x="130" y="320" width="10" height="10" fill="#201F20"/>
<rect x="140" y="220" width="10" height="10" fill="#201F20"/>
<rect x="140" y="340" width="10" height="10" fill="#201F20"/>
<rect x="140" y="370" width="10" height="10" fill="#201F20"/>
<rect x="140" y="380" width="10" height="10" fill="#201F20"/>
<rect x="130" y="350" width="10" height="10" fill="#201F20"/>
<rect x="140" y="170" width="10" height="10" fill="#201F20"/>
<rect x="10" y="250" width="10" height="10" fill="#201F20"/>
<rect y="270" width="10" height="10" fill="#201F20"/>
<rect y="300" width="10" height="10" fill="#201F20"/>
<rect y="330" width="10" height="10" fill="#201F20"/>
<rect y="360" width="10" height="10" fill="#201F20"/>
<rect x="10" y="260" width="10" height="10" fill="#201F20"/>
<rect x="90" y="190" width="10" height="10" fill="#C1D2F3"/>
<rect y="280" width="10" height="10" fill="#201F20"/>
<rect x="10" y="290" width="10" height="10" fill="#201F20"/>
<rect x="90" y="200" width="10" height="10" fill="#C1D2F3"/>
<rect x="90" y="270" width="10" height="10" fill="#C1D2F3"/>
<rect y="310" width="10" height="10" fill="#201F20"/>
<rect x="10" y="320" width="10" height="10" fill="#201F20"/>
<rect x="90" y="280" width="10" height="10" fill="#C1D2F3"/>
<rect x="90" y="290" width="10" height="10" fill="#C1D2F3"/>
<rect x="90" y="210" width="10" height="10" fill="#C1D2F3"/>
<rect x="140" y="180" width="10" height="10" fill="#201F20"/>
<rect y="340" width="10" height="10" fill="#201F20"/>
<rect y="370" width="10" height="10" fill="#201F20"/>
<rect y="380" width="10" height="10" fill="#201F20"/>
<rect x="90" y="220" width="10" height="10" fill="#C1D2F3"/>
<rect x="10" y="350" width="10" height="10" fill="#201F20"/>
<rect x="90" y="110" width="10" height="10" fill="#C1D2F3"/>
<rect x="90" y="150" width="10" height="10" fill="#C1D2F3"/>
<rect x="90" y="300" width="10" height="10" fill="#C1D2F3"/>
<rect x="90" y="330" width="10" height="10" fill="#C1D2F3"/>
<rect x="90" y="360" width="10" height="10" fill="#C1D2F3"/>
<rect x="90" y="230" width="10" height="10" fill="#C1D2F3"/>
<rect x="90" y="120" width="10" height="10" fill="#C1D2F3"/>
<rect x="90" y="310" width="10" height="10" fill="#C1D2F3"/>
<rect x="90" y="350" width="10" height="10" fill="#C1D2F3"/>
<rect x="90" y="340" width="10" height="10" fill="#C1D2F3"/>
<rect x="90" y="370" width="10" height="10" fill="#C1D2F3"/>
<rect x="90" y="380" width="10" height="10" fill="#58C1D5"/>
<rect x="90" y="390" width="10" height="10" fill="#5172C4"/>
<rect x="90" y="320" width="10" height="10" fill="#C1D2F3"/>
<rect x="90" y="160" width="10" height="10" fill="#C1D2F3"/>
<rect x="90" y="240" width="10" height="10" fill="#C1D2F3"/>
<rect x="50" y="190" width="10" height="10" fill="#EFF3F6"/>
<rect x="130" y="90" width="10" height="10" fill="#201F20"/>
<rect x="130" y="100" width="10" height="10" fill="#201F20"/>
<rect x="50" y="200" width="10" height="10" fill="#EFF3F6"/>
<rect x="90" y="60" width="10" height="10" fill="#5172C4"/>
<rect x="90" y="70" width="10" height="10" fill="#C1D2F3"/>
<rect x="90" y="40" width="10" height="10" fill="#201F20"/>
<rect x="90" y="50" width="10" height="10" fill="#58C1D5"/>
<rect x="90" y="80" width="10" height="10" fill="#C1D2F3"/>
<rect x="90" y="90" width="10" height="10" fill="#C1D2F3"/>
<rect x="90" y="100" width="10" height="10" fill="#C1D2F3"/>
<rect x="90" y="130" width="10" height="10" fill="#C1D2F3"/>
<rect x="90" y="170" width="10" height="10" fill="#C1D2F3"/>
<rect x="90" y="250" width="10" height="10" fill="#C1D2F3"/>
<rect x="90" y="140" width="10" height="10" fill="#C1D2F3"/>
<rect x="50" y="270" width="10" height="10" fill="#F0F2F8"/>
<rect x="90" y="180" width="10" height="10" fill="#C1D2F3"/>
<rect x="80" y="190" width="10" height="10" fill="#C1D2F3"/>
<rect x="50" y="280" width="10" height="10" fill="#C1D2F3"/>
<rect x="50" y="290" width="10" height="10" fill="#C1D2F3"/>
<rect x="90" y="260" width="10" height="10" fill="#C1D2F3"/>
<rect x="50" y="210" width="10" height="10" fill="#EFF3F6"/>
<rect x="70" y="30" width="10" height="10" fill="#D54A46"/>
<rect x="80" y="200" width="10" height="10" fill="#C1D2F3"/>
<rect x="50" y="220" width="10" height="10" fill="#EFF3F6"/>
<rect x="80" y="30" width="10" height="10" fill="#B0221F"/>
<rect x="50" y="40" width="10" height="10" fill="#201F20"/>
<rect x="50" y="110" width="10" height="10" fill="#EFF3F6"/>
<rect x="50" y="150" width="10" height="10" fill="#EFF3F6"/>
<rect x="50" y="230" width="10" height="10" fill="#C1D2F3"/>
<rect x="50" y="120" width="10" height="10" fill="#EFF3F6"/>
<rect x="60" y="190" width="10" height="10" fill="#EFF3F6"/>
<rect x="50" y="160" width="10" height="10" fill="#EFF3F6"/>
<rect x="50" y="240" width="10" height="10" fill="#C1D2F3"/>
<rect x="60" y="200" width="10" height="10" fill="#EFF3F6"/>
<rect x="80" y="40" width="10" height="10" fill="#5172C4"/>
<rect x="60" y="40" width="10" height="10" fill="#5AC0D5"/>
<rect x="50" y="300" width="10" height="10" fill="#F0F2F8"/>
<rect x="50" y="330" width="10" height="10" fill="#F0F2F8"/>
<rect x="50" y="360" width="10" height="10" fill="#F0F2F8"/>
<rect x="50" y="60" width="10" height="10" fill="#5AC0D5"/>
<rect x="70" y="40" width="10" height="10" fill="#5AC0D5"/>
<rect x="50" y="350" width="10" height="10" fill="#C1D2F3"/>
<rect x="50" y="310" width="10" height="10" fill="#C1D2F3"/>
<rect x="50" y="340" width="10" height="10" fill="#C1D2F3"/>
<rect x="50" y="370" width="10" height="10" fill="#C1D2F3"/>
<rect x="50" y="380" width="10" height="10" fill="#C1D2F3"/>
<rect x="50" y="390" width="10" height="10" fill="#58C1D5"/>
<rect x="50" y="320" width="10" height="10" fill="#C1D2F3"/>
<rect x="80" y="60" width="10" height="10" fill="#5172C4"/>
<rect x="40" y="30" width="10" height="10" fill="#201F20"/>
<rect x="50" y="70" width="10" height="10" fill="#C1D2F3"/>
<rect x="60" y="60" width="10" height="10" fill="#5AC0D5"/>
<rect x="70" y="190" width="10" height="10" fill="#C1D2F3"/>
<rect x="50" y="50" width="10" height="10" fill="#8FD9E2"/>
<rect x="70" y="60" width="10" height="10" fill="#5AC0D5"/>
<rect x="70" y="200" width="10" height="10" fill="#C1D2F3"/>
<rect x="80" y="110" width="10" height="10" fill="#C1D2F3"/>
<rect x="80" y="150" width="10" height="10" fill="#C1D2F3"/>
<rect x="80" y="230" width="10" height="10" fill="#C1D2F3"/>
<rect x="80" y="120" width="10" height="10" fill="#C1D2F3"/>
<rect x="80" y="160" width="10" height="10" fill="#C1D2F3"/>
<rect x="80" y="270" width="10" height="10" fill="#C1D2F3"/>
<rect x="80" y="240" width="10" height="10" fill="#C1D2F3"/>
<rect x="80" y="210" width="10" height="10" fill="#C1D2F3"/>
<rect x="40" y="190" width="10" height="10" fill="#EFF3F6"/>
<rect x="80" y="280" width="10" height="10" fill="#C1D2F3"/>
<rect x="80" y="290" width="10" height="10" fill="#C1D2F3"/>
<rect x="80" y="70" width="10" height="10" fill="#C1D2F3"/>
<rect x="80" y="220" width="10" height="10" fill="#C1D2F3"/>
<rect x="50" y="80" width="10" height="10" fill="#EFF3F6"/>
<rect x="40" y="200" width="10" height="10" fill="#EFF3F6"/>
<rect x="50" y="90" width="10" height="10" fill="#EFF3F6"/>
<rect x="50" y="100" width="10" height="10" fill="#EFF3F6"/>
<rect x="60" y="110" width="10" height="10" fill="#EFF3F6"/>
<rect x="60" y="150" width="10" height="10" fill="#EFF3F6"/>
<rect x="60" y="270" width="10" height="10" fill="#F0F2F8"/>
<rect x="60" y="210" width="10" height="10" fill="#EFF3F6"/>
<rect x="60" y="230" width="10" height="10" fill="#C1D2F3"/>
<rect x="60" y="280" width="10" height="10" fill="#C1D2F3"/>
<rect x="60" y="290" width="10" height="10" fill="#C1D2F3"/>
<rect x="30" y="190" width="10" height="10" fill="#C1D2F3"/>
<rect x="60" y="220" width="10" height="10" fill="#EFF3F6"/>
<rect x="60" y="120" width="10" height="10" fill="#EFF3F6"/>
<rect x="60" y="160" width="10" height="10" fill="#EFF3F6"/>
<rect x="30" y="200" width="10" height="10" fill="#C1D2F3"/>
<rect x="60" y="240" width="10" height="10" fill="#C1D2F3"/>
<rect x="50" y="130" width="10" height="10" fill="#EFF3F6"/>
<rect x="50" y="170" width="10" height="10" fill="#EFF3F6"/>
<rect x="70" y="270" width="10" height="10" fill="#F0F2F8"/>
<rect x="70" y="210" width="10" height="10" fill="#C1D2F3"/>
<rect x="80" y="300" width="10" height="10" fill="#C1D2F3"/>
<rect x="80" y="330" width="10" height="10" fill="#C1D2F3"/>
<rect x="80" y="360" width="10" height="10" fill="#C1D2F3"/>
<rect x="70" y="280" width="10" height="10" fill="#C1D2F3"/>
<rect x="70" y="290" width="10" height="10" fill="#C1D2F3"/>
<rect x="50" y="250" width="10" height="10" fill="#C1D2F3"/>
<rect x="70" y="220" width="10" height="10" fill="#C1D2F3"/>
<rect x="80" y="350" width="10" height="10" fill="#C1D2F3"/>
<rect x="50" y="140" width="10" height="10" fill="#EFF3F6"/>
<rect x="80" y="310" width="10" height="10" fill="#C1D2F3"/>
<rect x="80" y="340" width="10" height="10" fill="#C1D2F3"/>
<rect x="80" y="370" width="10" height="10" fill="#C1D2F3"/>
<rect x="80" y="380" width="10" height="10" fill="#C1D2F3"/>
<rect x="80" y="390" width="10" height="10" fill="#58C1D5"/>
<rect x="80" y="320" width="10" height="10" fill="#C1D2F3"/>
<rect x="50" y="180" width="10" height="10" fill="#EFF3F6"/>
<rect x="40" y="270" width="10" height="10" fill="#F0F2F8"/>
<rect x="50" y="260" width="10" height="10" fill="#C1D2F3"/>
<rect x="40" y="280" width="10" height="10" fill="#C1D2F3"/>
<rect x="40" y="290" width="10" height="10" fill="#C1D2F3"/>
<rect x="40" y="60" width="10" height="10" fill="#8FD9E2"/>
<rect x="40" y="210" width="10" height="10" fill="#EFF3F6"/>
<rect x="70" y="110" width="10" height="10" fill="#C1D2F3"/>
<rect x="70" y="150" width="10" height="10" fill="#C1D2F3"/>
<rect x="40" y="220" width="10" height="10" fill="#EFF3F6"/>
<rect x="30" y="270" width="10" height="10" fill="#C1D2F3"/>
<rect x="60" y="300" width="10" height="10" fill="#F0F2F8"/>
<rect x="60" y="330" width="10" height="10" fill="#F0F2F8"/>
<rect x="60" y="360" width="10" height="10" fill="#F0F2F8"/>
<rect x="70" y="230" width="10" height="10" fill="#C1D2F3"/>
<rect x="30" y="280" width="10" height="10" fill="#C1D2F3"/>
<rect x="60" y="350" width="10" height="10" fill="#C1D2F3"/>
<rect x="30" y="290" width="10" height="10" fill="#C1D2F3"/>
<rect x="70" y="120" width="10" height="10" fill="#C1D2F3"/>
<rect x="60" y="310" width="10" height="10" fill="#C1D2F3"/>
<rect x="60" y="340" width="10" height="10" fill="#C1D2F3"/>
<rect x="60" y="370" width="10" height="10" fill="#C1D2F3"/>
<rect x="60" y="380" width="10" height="10" fill="#58C1D5"/>
<rect x="60" y="390" width="10" height="10" fill="#5172C4"/>
<rect x="60" y="320" width="10" height="10" fill="#C1D2F3"/>
<rect x="70" y="160" width="10" height="10" fill="#C1D2F3"/>
<rect x="30" y="210" width="10" height="10" fill="#C1D2F3"/>
<rect x="70" y="240" width="10" height="10" fill="#C1D2F3"/>
<rect x="70" y="70" width="10" height="10" fill="#C1D2F3"/>
<rect x="30" y="220" width="10" height="10" fill="#C1D2F3"/>
<rect x="30" y="60" width="10" height="10" fill="#201F20"/>
<rect x="40" y="70" width="10" height="10" fill="#5AC0D5"/>
<rect x="30" y="70" width="10" height="10" fill="#8FD9E2"/>
<rect x="70" y="300" width="10" height="10" fill="#F0F2F8"/>
<rect x="70" y="350" width="10" height="10" fill="#C1D2F3"/>
<rect x="70" y="330" width="10" height="10" fill="#F0F2F8"/>
<rect x="70" y="360" width="10" height="10" fill="#F0F2F8"/>
<rect x="40" y="110" width="10" height="10" fill="#EFF3F6"/>
<rect x="40" y="150" width="10" height="10" fill="#EFF3F6"/>
<rect x="70" y="310" width="10" height="10" fill="#C1D2F3"/>
<rect x="70" y="340" width="10" height="10" fill="#C1D2F3"/>
<rect x="70" y="370" width="10" height="10" fill="#C1D2F3"/>
<rect x="70" y="380" width="10" height="10" fill="#C1D2F3"/>
<rect x="70" y="390" width="10" height="10" fill="#58C1D5"/>
<rect x="70" y="320" width="10" height="10" fill="#C1D2F3"/>
<rect x="40" y="230" width="10" height="10" fill="#C1D2F3"/>
<rect x="40" y="120" width="10" height="10" fill="#EFF3F6"/>
<rect x="40" y="160" width="10" height="10" fill="#EFF3F6"/>
<rect x="40" y="240" width="10" height="10" fill="#C1D2F3"/>
<rect x="80" y="50" width="10" height="10" fill="#5172C4"/>
<rect x="80" y="80" width="10" height="10" fill="#C1D2F3"/>
<rect x="40" y="350" width="10" height="10" fill="#C1D2F3"/>
<rect x="40" y="300" width="10" height="10" fill="#F0F2F8"/>
<rect x="40" y="330" width="10" height="10" fill="#F0F2F8"/>
<rect x="40" y="360" width="10" height="10" fill="#F0F2F8"/>
<rect x="80" y="90" width="10" height="10" fill="#C1D2F3"/>
<rect x="30" y="110" width="10" height="10" fill="#C1D2F3"/>
<rect x="40" y="310" width="10" height="10" fill="#C1D2F3"/>
<rect x="40" y="340" width="10" height="10" fill="#C1D2F3"/>
<rect x="40" y="370" width="10" height="10" fill="#C1D2F3"/>
<rect x="40" y="380" width="10" height="10" fill="#C1D2F3"/>
<rect x="40" y="390" width="10" height="10" fill="#C1D2F3"/>
<rect x="40" y="320" width="10" height="10" fill="#C1D2F3"/>
<rect x="30" y="150" width="10" height="10" fill="#C1D2F3"/>
<rect x="30" y="230" width="10" height="10" fill="#5AC0D5"/>
<rect x="30" y="120" width="10" height="10" fill="#C1D2F3"/>
<rect x="30" y="160" width="10" height="10" fill="#C1D2F3"/>
<rect x="30" y="350" width="10" height="10" fill="#C1D2F3"/>
<rect x="30" y="240" width="10" height="10" fill="#5AC0D5"/>
<rect x="30" y="300" width="10" height="10" fill="#F0F2F8"/>
<rect x="30" y="330" width="10" height="10" fill="#F0F2F8"/>
<rect x="30" y="360" width="10" height="10" fill="#F0F2F8"/>
<rect x="80" y="100" width="10" height="10" fill="#C1D2F3"/>
<rect x="80" y="130" width="10" height="10" fill="#C1D2F3"/>
<rect x="30" y="310" width="10" height="10" fill="#F0F2F8"/>
<rect x="30" y="340" width="10" height="10" fill="#F0F2F8"/>
<rect x="30" y="370" width="10" height="10" fill="#F0F2F8"/>
<rect x="30" y="380" width="10" height="10" fill="#C1D2F3"/>
<rect x="30" y="390" width="10" height="10" fill="#C1D2F3"/>
<rect x="30" y="320" width="10" height="10" fill="#C1D2F3"/>
<rect x="80" y="170" width="10" height="10" fill="#C1D2F3"/>
<rect x="80" y="250" width="10" height="10" fill="#C1D2F3"/>
<rect x="80" y="140" width="10" height="10" fill="#C1D2F3"/>
<rect x="80" y="180" width="10" height="10" fill="#C1D2F3"/>
<rect x="80" y="260" width="10" height="10" fill="#C1D2F3"/>
<rect x="60" y="50" width="10" height="10" fill="#5172C4"/>
<rect x="60" y="80" width="10" height="10" fill="#EFF3F6"/>
<rect x="60" y="70" width="10" height="10" fill="#EFF3F6"/>
<rect x="60" y="90" width="10" height="10" fill="#EFF3F6"/>
<rect x="60" y="100" width="10" height="10" fill="#EFF3F6"/>
<rect x="60" y="130" width="10" height="10" fill="#EFF3F6"/>
<rect x="60" y="170" width="10" height="10" fill="#EFF3F6"/>
<rect x="60" y="250" width="10" height="10" fill="#C1D2F3"/>
<rect x="60" y="140" width="10" height="10" fill="#EFF3F6"/>
<rect x="60" y="180" width="10" height="10" fill="#EFF3F6"/>
<rect x="60" y="260" width="10" height="10" fill="#C1D2F3"/>
<rect x="70" y="50" width="10" height="10" fill="#5172C4"/>
<rect x="70" y="80" width="10" height="10" fill="#C1D2F3"/>
<rect x="70" y="90" width="10" height="10" fill="#C1D2F3"/>
<rect x="70" y="100" width="10" height="10" fill="#C1D2F3"/>
<rect x="70" y="130" width="10" height="10" fill="#C1D2F3"/>
<rect x="70" y="170" width="10" height="10" fill="#C1D2F3"/>
<rect x="70" y="250" width="10" height="10" fill="#C1D2F3"/>
<rect x="70" y="140" width="10" height="10" fill="#C1D2F3"/>
<rect x="70" y="180" width="10" height="10" fill="#C1D2F3"/>
<rect x="70" y="260" width="10" height="10" fill="#C1D2F3"/>
<rect x="40" y="50" width="10" height="10" fill="#201F20"/>
<rect x="40" y="80" width="10" height="10" fill="#C1D2F3"/>
<rect x="40" y="90" width="10" height="10" fill="#EFF3F6"/>
<rect x="40" y="100" width="10" height="10" fill="#EFF3F6"/>
<rect x="40" y="130" width="10" height="10" fill="#EFF3F6"/>
<rect x="40" y="170" width="10" height="10" fill="#EFF3F6"/>
<rect x="40" y="250" width="10" height="10" fill="#C1D2F3"/>
<rect x="40" y="140" width="10" height="10" fill="#EFF3F6"/>
<rect x="40" y="180" width="10" height="10" fill="#EFF3F6"/>
<rect x="40" y="260" width="10" height="10" fill="#C1D2F3"/>
<rect x="30" y="80" width="10" height="10" fill="#5AC0D5"/>
<rect x="30" y="90" width="10" height="10" fill="#5AC0D5"/>
<rect x="30" y="100" width="10" height="10" fill="#C1D2F3"/>
<rect x="30" y="130" width="10" height="10" fill="#C1D2F3"/>
<rect x="30" y="170" width="10" height="10" fill="#C1D2F3"/>
<rect x="30" y="250" width="10" height="10" fill="#5AC0D5"/>
<rect x="30" y="140" width="10" height="10" fill="#C1D2F3"/>
<rect x="30" y="180" width="10" height="10" fill="#C1D2F3"/>
<rect x="30" y="260" width="10" height="10" fill="#5AC0D5"/>
<rect x="100" y="400" width="10" height="10" fill="#5172C4"/>
<rect x="110" y="400" width="10" height="10" fill="#58C1D5"/>
<rect x="120" y="400" width="10" height="10" fill="#201F20"/>
<rect x="20" y="400" width="10" height="10" fill="#201F20"/>
<rect x="10" y="390" width="10" height="10" fill="#201F20"/>
<rect x="130" y="390" width="10" height="10" fill="#201F20"/>
<rect x="30" y="410" width="10" height="10" fill="#201F20"/>
<rect x="40" y="410" width="10" height="10" fill="#201F20"/>
<rect x="50" y="410" width="10" height="10" fill="#201F20"/>
<rect x="60" y="410" width="10" height="10" fill="#201F20"/>
<rect x="70" y="410" width="10" height="10" fill="#201F20"/>
<rect x="80" y="410" width="10" height="10" fill="#201F20"/>
<rect x="90" y="400" width="10" height="10" fill="#5172C4"/>
<rect x="90" y="410" width="10" height="10" fill="#201F20"/>
<rect x="100" y="410" width="10" height="10" fill="#201F20"/>
<rect x="110" y="410" width="10" height="10" fill="#201F20"/>
<rect x="50" y="400" width="10" height="10" fill="#5172C4"/>
<rect x="80" y="400" width="10" height="10" fill="#5172C4"/>
<rect x="60" y="400" width="10" height="10" fill="#5172C4"/>
<rect x="70" y="400" width="10" height="10" fill="#5172C4"/>
<rect x="40" y="400" width="10" height="10" fill="#58C1D5"/>
<rect x="30" y="400" width="10" height="10" fill="#5172C4"/>
</svg>
