<svg width="350" height="350" viewBox="0 0 350 350" fill="none" xmlns="http://www.w3.org/2000/svg">
<path d="M13.446 80.77H0V94.2148H13.446V80.77Z" fill="#52A0B2"/>
<path d="M13.446 67.3242H0V80.769H13.446V67.3242Z" fill="#52A0B2"/>
<path d="M13.446 53.8794H0V67.3241H13.446V53.8794Z" fill="#52A0B2"/>
<path d="M13.446 40.4019H0V53.8466H13.446V40.4019Z" fill="#52A0B2"/>
<path d="M26.8921 121.171H13.446V134.616H26.8921V121.171Z" fill="#52A0B2"/>
<path d="M26.8921 107.693H13.446V121.138H26.8921V107.693Z" fill="#52A0B2"/>
<path d="M26.8921 94.2476H13.446V107.692H26.8921V94.2476Z" fill="#52A0B2"/>
<path d="M26.8921 80.77H13.446V94.2148H26.8921V80.77Z" fill="#9AA4A5"/>
<path d="M26.8921 67.3242H13.446V80.769H26.8921V67.3242Z" fill="#9AA4A5"/>
<path d="M26.8921 53.8794H13.446V67.3241H26.8921V53.8794Z" fill="#EDEFEF"/>
<path d="M26.8921 40.4019H13.446V53.8466H26.8921V40.4019Z" fill="#EDEFEF"/>
<path d="M26.8921 26.9561H13.446V40.4008H26.8921V26.9561Z" fill="#52A0B2"/>
<path d="M40.3718 148.094H26.9258V161.538H40.3718V148.094Z" fill="#52A0B2"/>
<path d="M40.3718 134.615H26.9258V148.06H40.3718V134.615Z" fill="#52A0B2"/>
<path d="M40.3718 121.171H26.9258V134.616H40.3718V121.171Z" fill="#9AA4A5"/>
<path d="M40.3718 107.693H26.9258V121.138H40.3718V107.693Z" fill="#9AA4A5"/>
<path d="M40.3718 94.2476H26.9258V107.692H40.3718V94.2476Z" fill="#9AA4A5"/>
<path d="M40.3718 80.77H26.9258V94.2148H40.3718V80.77Z" fill="#BCCACE"/>
<path d="M40.3718 67.3242H26.9258V80.769H40.3718V67.3242Z" fill="#EDEFEF"/>
<path d="M40.3718 53.8794H26.9258V67.3241H40.3718V53.8794Z" fill="#EDEFEF"/>
<path d="M40.3718 40.4019H26.9258V53.8466H40.3718V40.4019Z" fill="#EDEFEF"/>
<path d="M40.3718 26.9561H26.9258V40.4008H40.3718V26.9561Z" fill="#EDEFEF"/>
<path d="M40.3718 13.4785H26.9258V26.9233H40.3718V13.4785Z" fill="#EDEFEF"/>
<path d="M53.8181 161.539H40.3721V174.983H53.8181V161.539Z" fill="#52A0B2"/>
<path d="M53.8181 148.094H40.3721V161.538H53.8181V148.094Z" fill="#9AA4A5"/>
<path d="M53.8181 134.615H40.3721V148.06H53.8181V134.615Z" fill="#9AA4A5"/>
<path d="M53.8181 121.171H40.3721V134.616H53.8181V121.171Z" fill="#BCCACE"/>
<path d="M53.8181 107.693H40.3721V121.138H53.8181V107.693Z" fill="#BCCACE"/>
<path d="M53.8181 94.2476H40.3721V107.692H53.8181V94.2476Z" fill="#BCCACE"/>
<path d="M53.8181 80.77H40.3721V94.2148H53.8181V80.77Z" fill="#BCCACE"/>
<path d="M53.8181 67.3242H40.3721V80.769H53.8181V67.3242Z" fill="#EDEFEF"/>
<path d="M53.8181 53.8794H40.3721V67.3241H53.8181V53.8794Z" fill="#EDEFEF"/>
<path d="M53.8181 40.4019H40.3721V53.8466H53.8181V40.4019Z" fill="#EDEFEF"/>
<path d="M53.8181 26.9561H40.3721V40.4008H53.8181V26.9561Z" fill="#EDEFEF"/>
<path d="M53.8181 13.4785H40.3721V26.9233H53.8181V13.4785Z" fill="#EDEFEF"/>
<path d="M53.8181 0H40.3721V13.4784H53.8181V0Z" fill="#EDEFEF"/>
<path d="M67.2976 188.461H53.8516V201.906H67.2976V188.461Z" fill="#52A0B2"/>
<path d="M67.2976 175.017H53.8516V188.462H67.2976V175.017Z" fill="#52A0B2"/>
<path d="M67.2976 161.539H53.8516V174.983H67.2976V161.539Z" fill="#9AA4A5"/>
<path d="M67.2976 148.094H53.8516V161.538H67.2976V148.094Z" fill="#BCCACE"/>
<path d="M67.2976 134.615H53.8516V148.06H67.2976V134.615Z" fill="#BCCACE"/>
<path d="M67.2976 121.171H53.8516V134.616H67.2976V121.171Z" fill="#BCCACE"/>
<path d="M67.2976 107.693H53.8516V121.138H67.2976V107.693Z" fill="#BCCACE"/>
<path d="M67.2976 94.2476H53.8516V107.692H67.2976V94.2476Z" fill="#BCCACE"/>
<path d="M67.2976 80.77H53.8516V94.2148H67.2976V80.77Z" fill="#EDEFEF"/>
<path d="M67.2976 67.3242H53.8516V80.769H67.2976V67.3242Z" fill="#EDEFEF"/>
<path d="M67.2976 53.8794H53.8516V67.3241H67.2976V53.8794Z" fill="#EDEFEF"/>
<path d="M67.2976 40.4019H53.8516V53.8466H67.2976V40.4019Z" fill="#EDEFEF"/>
<path d="M67.2976 26.9561H53.8516V40.4008H67.2976V26.9561Z" fill="#EDEFEF"/>
<path d="M67.2976 13.4785H53.8516V26.9233H67.2976V13.4785Z" fill="#EDEFEF"/>
<path d="M67.2976 0H53.8516V13.4784H67.2976V0Z" fill="#EDEFEF"/>
<path d="M80.7434 201.94H67.2974V215.385H80.7434V201.94Z" fill="#52A0B2"/>
<path d="M80.7434 188.461H67.2974V201.906H80.7434V188.461Z" fill="#9AA4A5"/>
<path d="M80.7434 175.017H67.2974V188.462H80.7434V175.017Z" fill="#9AA4A5"/>
<path d="M80.7434 161.539H67.2974V174.983H80.7434V161.539Z" fill="#BCCACE"/>
<path d="M80.7434 148.094H67.2974V161.538H80.7434V148.094Z" fill="#BCCACE"/>
<path d="M80.7434 134.615H67.2974V148.06H80.7434V134.615Z" fill="#BCCACE"/>
<path d="M80.7434 121.171H67.2974V134.616H80.7434V121.171Z" fill="#BCCACE"/>
<path d="M80.7434 107.693H67.2974V121.138H80.7434V107.693Z" fill="#BCCACE"/>
<path d="M80.7434 94.2476H67.2974V107.692H80.7434V94.2476Z" fill="#EDEFEF"/>
<path d="M80.7434 80.77H67.2974V94.2148H80.7434V80.77Z" fill="#EDEFEF"/>
<path d="M80.7434 67.3242H67.2974V80.769H80.7434V67.3242Z" fill="#EDEFEF"/>
<path d="M80.7434 53.8794H67.2974V67.3241H80.7434V53.8794Z" fill="#EDEFEF"/>
<path d="M80.7434 40.4019H67.2974V53.8466H80.7434V40.4019Z" fill="#EDEFEF"/>
<path d="M80.7434 26.9561H67.2974V40.4008H80.7434V26.9561Z" fill="#EDEFEF"/>
<path d="M80.7434 13.4785H67.2974V26.9233H80.7434V13.4785Z" fill="#EDEFEF"/>
<path d="M80.7434 0H67.2974V13.4784H80.7434V0Z" fill="#EDEFEF"/>
<path d="M94.2229 215.385H80.7769V228.83H94.2229V215.385Z" fill="#52A0B2"/>
<path d="M94.2229 201.94H80.7769V215.385H94.2229V201.94Z" fill="#9AA4A5"/>
<path d="M94.2229 188.461H80.7769V201.906H94.2229V188.461Z" fill="#BCCACE"/>
<path d="M94.2229 175.017H80.7769V188.462H94.2229V175.017Z" fill="#BCCACE"/>
<path d="M94.2229 161.539H80.7769V174.983H94.2229V161.539Z" fill="#BCCACE"/>
<path d="M94.2229 148.094H80.7769V161.538H94.2229V148.094Z" fill="#BCCACE"/>
<path d="M94.2229 134.615H80.7769V148.06H94.2229V134.615Z" fill="#BCCACE"/>
<path d="M94.2229 121.171H80.7769V134.616H94.2229V121.171Z" fill="#BCCACE"/>
<path d="M94.2229 107.693H80.7769V121.138H94.2229V107.693Z" fill="#BCCACE"/>
<path d="M94.2229 94.2476H80.7769V107.692H94.2229V94.2476Z" fill="#EDEFEF"/>
<path d="M94.2229 80.77H80.7769V94.2148H94.2229V80.77Z" fill="#EDEFEF"/>
<path d="M94.2229 67.3242H80.7769V80.769H94.2229V67.3242Z" fill="#EDEFEF"/>
<path d="M94.2229 53.8794H80.7769V67.3241H94.2229V53.8794Z" fill="#EDEFEF"/>
<path d="M94.2229 40.4019H80.7769V53.8466H94.2229V40.4019Z" fill="#EDEFEF"/>
<path d="M94.2229 26.9561H80.7769V40.4008H94.2229V26.9561Z" fill="#EDEFEF"/>
<path d="M94.2229 13.4785H80.7769V26.9233H94.2229V13.4785Z" fill="#EDEFEF"/>
<path d="M94.2229 0H80.7769V13.4784H94.2229V0Z" fill="#EDEFEF"/>
<path d="M107.669 242.308H94.2231V255.753H107.669V242.308Z" fill="#52A0B2"/>
<path d="M107.669 228.83H94.2231V242.274H107.669V228.83Z" fill="#52A0B2"/>
<path d="M107.669 215.385H94.2231V228.83H107.669V215.385Z" fill="#9AA4A5"/>
<path d="M107.669 201.94H94.2231V215.385H107.669V201.94Z" fill="#BCCACE"/>
<path d="M107.669 188.461H94.2231V201.906H107.669V188.461Z" fill="#BCCACE"/>
<path d="M107.669 175.017H94.2231V188.462H107.669V175.017Z" fill="#BCCACE"/>
<path d="M107.669 161.539H94.2231V174.983H107.669V161.539Z" fill="#BCCACE"/>
<path d="M107.669 148.094H94.2231V161.538H107.669V148.094Z" fill="#BCCACE"/>
<path d="M107.669 134.615H94.2231V148.06H107.669V134.615Z" fill="#BCCACE"/>
<path d="M107.669 121.171H94.2231V134.616H107.669V121.171Z" fill="#BCCACE"/>
<path d="M107.669 107.693H94.2231V121.138H107.669V107.693Z" fill="#EDEFEF"/>
<path d="M107.669 94.2476H94.2231V107.692H107.669V94.2476Z" fill="#EDEFEF"/>
<path d="M107.669 80.77H94.2231V94.2148H107.669V80.77Z" fill="#EDEFEF"/>
<path d="M107.669 67.3242H94.2231V80.769H107.669V67.3242Z" fill="#EDEFEF"/>
<path d="M107.669 53.8794H94.2231V67.3241H107.669V53.8794Z" fill="#EDEFEF"/>
<path d="M107.669 40.4019H94.2231V53.8466H107.669V40.4019Z" fill="#EDEFEF"/>
<path d="M107.669 26.9561H94.2231V40.4008H107.669V26.9561Z" fill="#EDEFEF"/>
<path d="M107.669 13.4785H94.2231V26.9233H107.669V13.4785Z" fill="#EDEFEF"/>
<path d="M107.669 0H94.2231V13.4784H107.669V0Z" fill="#EDEFEF"/>
<path d="M121.183 255.752H107.703V269.197H121.183V255.752Z" fill="#52A0B2"/>
<path d="M121.183 242.308H107.703V255.753H121.183V242.308Z" fill="#9AA4A5"/>
<path d="M121.183 228.83H107.703V242.274H121.183V228.83Z" fill="#9AA4A5"/>
<path d="M121.183 215.385H107.703V228.83H121.183V215.385Z" fill="#BCCACE"/>
<path d="M121.183 201.94H107.703V215.385H121.183V201.94Z" fill="#BCCACE"/>
<path d="M121.183 188.461H107.703V201.906H121.183V188.461Z" fill="#BCCACE"/>
<path d="M121.183 175.017H107.703V188.462H121.183V175.017Z" fill="#BCCACE"/>
<path d="M121.183 161.539H107.703V174.983H121.183V161.539Z" fill="#BCCACE"/>
<path d="M121.183 148.094H107.703V161.538H121.183V148.094Z" fill="#BCCACE"/>
<path d="M121.183 134.615H107.703V148.06H121.183V134.615Z" fill="#BCCACE"/>
<path d="M121.183 121.171H107.703V134.616H121.183V121.171Z" fill="#EDEFEF"/>
<path d="M121.183 107.693H107.703V121.138H121.183V107.693Z" fill="#EDEFEF"/>
<path d="M121.183 94.2476H107.703V107.692H121.183V94.2476Z" fill="#EDEFEF"/>
<path d="M121.183 80.77H107.703V94.2148H121.183V80.77Z" fill="#EDEFEF"/>
<path d="M121.183 67.3242H107.703V80.769H121.183V67.3242Z" fill="#EDEFEF"/>
<path d="M121.183 53.8794H107.703V67.3241H121.183V53.8794Z" fill="#EDEFEF"/>
<path d="M121.183 40.4019H107.703V53.8466H121.183V40.4019Z" fill="#EDEFEF"/>
<path d="M121.183 26.9561H107.703V40.4008H121.183V26.9561Z" fill="#EDEFEF"/>
<path d="M121.183 13.4785H107.703V26.9233H121.183V13.4785Z" fill="#EDEFEF"/>
<path d="M121.183 0H107.703V13.4784H121.183V0Z" fill="#EDEFEF"/>
<path d="M134.628 269.23H121.182V282.709H134.628V269.23Z" fill="#52A0B2"/>
<path d="M134.628 255.752H121.182V269.197H134.628V255.752Z" fill="#9AA4A5"/>
<path d="M134.628 242.308H121.182V255.753H134.628V242.308Z" fill="#BCCACE"/>
<path d="M134.628 228.83H121.182V242.274H134.628V228.83Z" fill="#BCCACE"/>
<path d="M134.628 215.385H121.182V228.83H134.628V215.385Z" fill="#BCCACE"/>
<path d="M134.628 201.94H121.182V215.385H134.628V201.94Z" fill="#BCCACE"/>
<path d="M134.628 188.461H121.182V201.906H134.628V188.461Z" fill="#BCCACE"/>
<path d="M134.628 175.017H121.182V188.462H134.628V175.017Z" fill="#BCCACE"/>
<path d="M134.628 161.539H121.182V174.983H134.628V161.539Z" fill="#BCCACE"/>
<path d="M134.628 148.094H121.182V161.538H134.628V148.094Z" fill="#BCCACE"/>
<path d="M134.628 134.615H121.182V148.06H134.628V134.615Z" fill="#BCCACE"/>
<path d="M134.628 121.171H121.182V134.616H134.628V121.171Z" fill="#EDEFEF"/>
<path d="M134.628 107.693H121.182V121.138H134.628V107.693Z" fill="#EDEFEF"/>
<path d="M134.628 94.2476H121.182V107.692H134.628V94.2476Z" fill="#EDEFEF"/>
<path d="M134.628 80.77H121.182V94.2148H134.628V80.77Z" fill="#EDEFEF"/>
<path d="M134.628 67.3242H121.182V80.769H134.628V67.3242Z" fill="#EDEFEF"/>
<path d="M134.628 53.8794H121.182V67.3241H134.628V53.8794Z" fill="#EDEFEF"/>
<path d="M134.628 40.4019H121.182V53.8466H134.628V40.4019Z" fill="#EDEFEF"/>
<path d="M134.628 26.9561H121.182V40.4008H134.628V26.9561Z" fill="#EDEFEF"/>
<path d="M134.628 13.4785H121.182V26.9233H134.628V13.4785Z" fill="#21201E"/>
<path d="M148.074 282.709H134.628V296.154H148.074V282.709Z" fill="#52A0B2"/>
<path d="M148.074 269.23H134.628V282.709H148.074V269.23Z" fill="#9AA4A5"/>
<path d="M148.074 255.752H134.628V269.197H148.074V255.752Z" fill="#C4D1D4"/>
<path d="M148.074 242.308H134.628V255.753H148.074V242.308Z" fill="#C4D1D4"/>
<path d="M148.074 228.83H134.628V242.274H148.074V228.83Z" fill="#BCCACE"/>
<path d="M148.074 215.385H134.628V228.83H148.074V215.385Z" fill="#BCCACE"/>
<path d="M148.074 201.94H134.628V215.385H148.074V201.94Z" fill="#BCCACE"/>
<path d="M148.074 188.461H134.628V201.906H148.074V188.461Z" fill="#BCCACE"/>
<path d="M148.074 175.017H134.628V188.462H148.074V175.017Z" fill="#BCCACE"/>
<path d="M148.074 161.539H134.628V174.983H148.074V161.539Z" fill="#BCCACE"/>
<path d="M148.074 148.094H134.628V161.538H148.074V148.094Z" fill="#BCCACE"/>
<path d="M148.074 134.615H134.628V148.06H148.074V134.615Z" fill="#EDEFEF"/>
<path d="M148.074 121.171H134.628V134.616H148.074V121.171Z" fill="#EDEFEF"/>
<path d="M148.074 107.693H134.628V121.138H148.074V107.693Z" fill="#EDEFEF"/>
<path d="M148.074 94.2476H134.628V107.692H148.074V94.2476Z" fill="#EDEFEF"/>
<path d="M148.074 80.77H134.628V94.2148H148.074V80.77Z" fill="#EDEFEF"/>
<path d="M148.074 67.3242H134.628V80.769H148.074V67.3242Z" fill="#EDEFEF"/>
<path d="M148.074 53.8794H134.628V67.3241H148.074V53.8794Z" fill="#EDEFEF"/>
<path d="M148.074 40.4019H134.628V53.8466H148.074V40.4019Z" fill="#BCCACE"/>
<path d="M148.074 26.9561H134.628V40.4008H148.074V26.9561Z" fill="#21201E"/>
<path d="M148.074 13.4785H134.628V26.9233H148.074V13.4785Z" fill="#BCCACE"/>
<path d="M161.554 282.709H148.108V296.154H161.554V282.709Z" fill="#52A0B2"/>
<path d="M161.554 269.23H148.108V282.709H161.554V269.23Z" fill="#9AA4A5"/>
<path d="M161.554 255.752H148.108V269.197H161.554V255.752Z" fill="#BCCACE"/>
<path d="M161.554 242.308H148.108V255.753H161.554V242.308Z" fill="#C4D1D4"/>
<path d="M161.554 228.83H148.108V242.274H161.554V228.83Z" fill="#C4D1D4"/>
<path d="M161.554 215.385H148.108V228.83H161.554V215.385Z" fill="#BCCACE"/>
<path d="M161.554 201.94H148.108V215.385H161.554V201.94Z" fill="#BCCACE"/>
<path d="M161.554 188.461H148.108V201.906H161.554V188.461Z" fill="#BCCACE"/>
<path d="M161.554 175.017H148.108V188.462H161.554V175.017Z" fill="#BCCACE"/>
<path d="M161.554 161.539H148.108V174.983H161.554V161.539Z" fill="#BCCACE"/>
<path d="M161.554 148.094H148.108V161.538H161.554V148.094Z" fill="#32348D"/>
<path d="M161.554 134.615H148.108V148.06H161.554V134.615Z" fill="#32348D"/>
<path d="M161.554 121.171H148.108V134.616H161.554V121.171Z" fill="#32348D"/>
<path d="M161.554 107.693H148.108V121.138H161.554V107.693Z" fill="#BCCACE"/>
<path d="M161.103 94.3359H147.657V107.781H161.103V94.3359Z" fill="#EDEFEF"/>
<path d="M161.554 80.77H148.108V94.2148H161.554V80.77Z" fill="#21201E"/>
<path d="M161.554 67.3242H148.108V80.769H161.554V67.3242Z" fill="#BCCACE"/>
<path d="M161.554 53.8794H148.108V67.3241H161.554V53.8794Z" fill="#21201E"/>
<path d="M161.554 40.4019H148.108V53.8466H161.554V40.4019Z" fill="#21201E"/>
<path d="M161.554 26.9561H148.108V40.4008H161.554V26.9561Z" fill="#BCCACE"/>
<path d="M175 296.154H161.554V309.599H175V296.154Z" fill="#52A0B2"/>
<path d="M175 282.709H161.554V296.154H175V282.709Z" fill="#9AA4A5"/>
<path d="M175 269.23H161.554V282.709H175V269.23Z" fill="#BCCACE"/>
<path d="M175 255.752H161.554V269.197H175V255.752Z" fill="#BCCACE"/>
<path d="M175 242.308H161.554V255.753H175V242.308Z" fill="#BCCACE"/>
<path d="M175 228.83H161.554V242.274H175V228.83Z" fill="#C4D1D4"/>
<path d="M175 215.385H161.554V228.83H175V215.385Z" fill="#C4D1D4"/>
<path d="M175 201.94H161.554V215.385H175V201.94Z" fill="#BCCACE"/>
<path d="M175 188.461H161.554V201.906H175V188.461Z" fill="#BCCACE"/>
<path d="M175 175.017H161.554V188.462H175V175.017Z" fill="#BCCACE"/>
<path d="M175 161.539H161.554V174.983H175V161.539Z" fill="#32348D"/>
<path d="M175 134.615H161.554V148.06H175V134.615Z" fill="#52A0B2"/>
<path d="M175 121.171H161.554V134.616H175V121.171Z" fill="#21201E"/>
<path d="M175 107.693H161.554V121.138H175V107.693Z" fill="#BCCACE"/>
<path d="M175 94.2476H161.554V107.692H175V94.2476Z" fill="#21201E"/>
<path d="M175 80.77H161.554V94.2148H175V80.77Z" fill="#21201E"/>
<path d="M175 67.3242H161.554V80.769H175V67.3242Z" fill="#21201E"/>
<path d="M175 53.8794H161.554V67.3241H175V53.8794Z" fill="#21201E"/>
<path d="M175 40.4019H161.554V53.8466H175V40.4019Z" fill="#BCCACE"/>
<path d="M175 26.9561H161.554V40.4008H175V26.9561Z" fill="#BCCACE"/>
<path d="M188.48 309.632H175.034V323.077H188.48V309.632Z" fill="#52A0B2"/>
<path d="M188.48 296.154H175.034V309.599H188.48V296.154Z" fill="#BCCACE"/>
<path d="M188.48 282.709H175.034V296.154H188.48V282.709Z" fill="#BCCACE"/>
<path d="M188.48 269.23H175.034V282.709H188.48V269.23Z" fill="#BCCACE"/>
<path d="M188.48 255.752H175.034V269.197H188.48V255.752Z" fill="#BCCACE"/>
<path d="M188.48 242.308H175.034V255.753H188.48V242.308Z" fill="#BCCACE"/>
<path d="M188.48 228.83H175.034V242.274H188.48V228.83Z" fill="#BCCACE"/>
<path d="M188.48 215.385H175.034V228.83H188.48V215.385Z" fill="#C4D1D4"/>
<path d="M188.48 201.94H175.034V215.385H188.48V201.94Z" fill="#C4D1D4"/>
<path d="M188.48 188.461H175.034V201.906H188.48V188.461Z" fill="#BCCACE"/>
<path d="M188.48 175.017H175.034V188.462H188.48V175.017Z" fill="#32348D"/>
<path d="M188.48 134.615H175.034V148.06H188.48V134.615Z" fill="#21201E"/>
<path d="M188.48 121.171H175.034V134.616H188.48V121.171Z" fill="#BCCACE"/>
<path d="M188.48 107.693H175.034V121.138H188.48V107.693Z" fill="#21201E"/>
<path d="M188.48 94.2476H175.034V107.692H188.48V94.2476Z" fill="#21201E"/>
<path d="M188.48 80.77H175.034V94.2148H188.48V80.77Z" fill="#BCCACE"/>
<path d="M188.48 67.3242H175.034V80.769H188.48V67.3242Z" fill="#BCCACE"/>
<path d="M188.48 53.8794H175.034V67.3241H188.48V53.8794Z" fill="#BCCACE"/>
<path d="M188.48 40.4019H175.034V53.8466H188.48V40.4019Z" fill="#BCCACE"/>
<path d="M201.926 309.632H188.48V323.077H201.926V309.632Z" fill="#52A0B2"/>
<path d="M201.926 296.154H188.48V309.599H201.926V296.154Z" fill="#EDEFEF"/>
<path d="M201.926 282.709H188.48V296.154H201.926V282.709Z" fill="#EDEFEF"/>
<path d="M201.926 269.23H188.48V282.709H201.926V269.23Z" fill="#EDEFEF"/>
<path d="M201.926 255.752H188.48V269.197H201.926V255.752Z" fill="#EDEFEF"/>
<path d="M201.926 242.308H188.48V255.753H201.926V242.308Z" fill="#EDEFEF"/>
<path d="M201.926 228.83H188.48V242.274H201.926V228.83Z" fill="#EDEFEF"/>
<path d="M201.926 215.385H188.48V228.83H201.926V215.385Z" fill="#EDEFEF"/>
<path d="M201.926 201.94H188.48V215.385H201.926V201.94Z" fill="#C4D1D4"/>
<path d="M201.926 188.461H188.48V201.906H201.926V188.461Z" fill="#32348D"/>
<path d="M201.926 148.094H188.48V161.538H201.926V148.094Z" fill="#21201E"/>
<path d="M201.926 134.615H188.48V148.06H201.926V134.615Z" fill="#21201E"/>
<path d="M201.926 121.171H188.48V134.616H201.926V121.171Z" fill="#EDEFEF"/>
<path d="M201.926 107.693H188.48V121.138H201.926V107.693Z" fill="#EDEFEF"/>
<path d="M201.926 94.2476H188.48V107.692H201.926V94.2476Z" fill="#EDEFEF"/>
<path d="M201.926 80.77H188.48V94.2148H201.926V80.77Z" fill="#EDEFEF"/>
<path d="M201.926 67.3242H188.48V80.769H201.926V67.3242Z" fill="#EDEFEF"/>
<path d="M201.926 53.8794H188.48V67.3241H201.926V53.8794Z" fill="#EDEFEF"/>
<path d="M201.926 40.4019H188.48V53.8466H201.926V40.4019Z" fill="#EDEFEF"/>
<path d="M215.372 323.077H201.926V336.522H215.372V323.077Z" fill="#52A0B2"/>
<path d="M215.372 309.632H201.926V323.077H215.372V309.632Z" fill="#9AA4A5"/>
<path d="M215.372 296.154H201.926V309.599H215.372V296.154Z" fill="#BCCACE"/>
<path d="M215.372 282.709H201.926V296.154H215.372V282.709Z" fill="#BCCACE"/>
<path d="M215.372 269.23H201.926V282.709H215.372V269.23Z" fill="#BCCACE"/>
<path d="M215.372 255.752H201.926V269.197H215.372V255.752Z" fill="#BCCACE"/>
<path d="M215.372 242.308H201.926V255.753H215.372V242.308Z" fill="#BCCACE"/>
<path d="M215.372 228.83H201.926V242.274H215.372V228.83Z" fill="#BCCACE"/>
<path d="M215.372 215.385H201.926V228.83H215.372V215.385Z" fill="#BCCACE"/>
<path d="M215.372 201.94H201.926V215.385H215.372V201.94Z" fill="#32348D"/>
<path d="M215.372 161.539H201.926V174.983H215.372V161.539Z" fill="#21201E"/>
<path d="M215.372 148.094H201.926V161.538H215.372V148.094Z" fill="#32348D"/>
<path d="M215.372 134.615H201.926V148.06H215.372V134.615Z" fill="#EDEFEF"/>
<path d="M215.372 121.171H201.926V134.616H215.372V121.171Z" fill="#EDEFEF"/>
<path d="M215.372 107.693H201.926V121.138H215.372V107.693Z" fill="#BCCACE"/>
<path d="M215.372 94.2476H201.926V107.692H215.372V94.2476Z" fill="#BCCACE"/>
<path d="M215.372 80.77H201.926V94.2148H215.372V80.77Z" fill="#BCCACE"/>
<path d="M215.372 67.3242H201.926V80.769H215.372V67.3242Z" fill="#BCCACE"/>
<path d="M215.372 53.8794H201.926V67.3241H215.372V53.8794Z" fill="#BCCACE"/>
<path d="M228.852 323.077H215.406V336.522H228.852V323.077Z" fill="#52A0B2"/>
<path d="M228.852 309.632H215.406V323.077H228.852V309.632Z" fill="#9AA4A5"/>
<path d="M228.852 296.154H215.406V309.599H228.852V296.154Z" fill="#BCCACE"/>
<path d="M228.852 282.709H215.406V296.154H228.852V282.709Z" fill="#BCCACE"/>
<path d="M228.852 269.23H215.406V282.709H228.852V269.23Z" fill="#BCCACE"/>
<path d="M228.852 255.752H215.406V269.197H228.852V255.752Z" fill="#BCCACE"/>
<path d="M228.852 242.308H215.406V255.753H228.852V242.308Z" fill="#BCCACE"/>
<path d="M228.852 228.83H215.406V242.274H228.852V228.83Z" fill="#BCCACE"/>
<path d="M228.852 215.385H215.406V228.83H228.852V215.385Z" fill="#EDEFEF"/>
<path d="M228.852 201.94H215.406V215.385H228.852V201.94Z" fill="#32348D"/>
<path d="M228.852 188.461H215.406V201.906H228.852V188.461Z" fill="#52A0B2"/>
<path d="M228.852 175.017H215.406V188.462H228.852V175.017Z" fill="#52A0B2"/>
<path d="M228.852 161.539H215.406V174.983H228.852V161.539Z" fill="#32348D"/>
<path d="M228.852 148.094H215.406V161.538H228.852V148.094Z" fill="#21201E"/>
<path d="M228.852 134.615H215.406V148.06H228.852V134.615Z" fill="#21201E"/>
<path d="M228.852 121.171H215.406V134.616H228.852V121.171Z" fill="#EDEFEF"/>
<path d="M228.852 107.693H215.406V121.138H228.852V107.693Z" fill="#EDEFEF"/>
<path d="M228.852 94.2476H215.406V107.692H228.852V94.2476Z" fill="#EDEFEF"/>
<path d="M228.852 80.77H215.406V94.2148H228.852V80.77Z" fill="#BCCACE"/>
<path d="M228.852 67.3242H215.406V80.769H228.852V67.3242Z" fill="#BCCACE"/>
<path d="M242.298 336.555H228.852V350H242.298V336.555Z" fill="#52A0B2"/>
<path d="M242.298 323.077H228.852V336.522H242.298V323.077Z" fill="#9AA4A5"/>
<path d="M242.298 309.632H228.852V323.077H242.298V309.632Z" fill="#BCCACE"/>
<path d="M242.298 296.154H228.852V309.599H242.298V296.154Z" fill="#BCCACE"/>
<path d="M242.298 282.709H228.852V296.154H242.298V282.709Z" fill="#BCCACE"/>
<path d="M242.298 269.23H228.852V282.709H242.298V269.23Z" fill="#BCCACE"/>
<path d="M242.298 255.752H228.852V269.197H242.298V255.752Z" fill="#BCCACE"/>
<path d="M242.298 242.308H228.852V255.753H242.298V242.308Z" fill="#EDEFEF"/>
<path d="M242.298 228.83H228.852V242.274H242.298V228.83Z" fill="#EDEFEF"/>
<path d="M242.298 215.385H228.852V228.83H242.298V215.385Z" fill="#EDEFEF"/>
<path d="M242.298 201.94H228.852V215.385H242.298V201.94Z" fill="#21201E"/>
<path d="M242.298 188.461H228.852V201.906H242.298V188.461Z" fill="#32348D"/>
<path d="M242.298 175.017H228.852V188.462H242.298V175.017Z" fill="#32348D"/>
<path d="M242.298 161.539H228.852V174.983H242.298V161.539Z" fill="#BCCACE"/>
<path d="M242.298 148.094H228.852V161.538H242.298V148.094Z" fill="#BCCACE"/>
<path d="M242.298 134.615H228.852V148.06H242.298V134.615Z" fill="#21201E"/>
<path d="M242.298 121.171H228.852V134.616H242.298V121.171Z" fill="#BCCACE"/>
<path d="M242.298 107.693H228.852V121.138H242.298V107.693Z" fill="#EDEFEF"/>
<path d="M242.298 94.2476H228.852V107.692H242.298V94.2476Z" fill="#EDEFEF"/>
<path d="M242.298 80.77H228.852V94.2148H242.298V80.77Z" fill="#EDEFEF"/>
<path d="M255.778 336.555H242.332V350H255.778V336.555Z" fill="#52A0B2"/>
<path d="M255.778 323.077H242.332V336.522H255.778V323.077Z" fill="#9AA4A5"/>
<path d="M255.778 309.632H242.332V323.077H255.778V309.632Z" fill="#BCCACE"/>
<path d="M255.778 296.154H242.332V309.599H255.778V296.154Z" fill="#BCCACE"/>
<path d="M255.778 282.709H242.332V296.154H255.778V282.709Z" fill="#BCCACE"/>
<path d="M255.778 269.23H242.332V282.709H255.778V269.23Z" fill="#BCCACE"/>
<path d="M255.778 255.752H242.332V269.197H255.778V255.752Z" fill="#EDEFEF"/>
<path d="M255.778 242.308H242.332V255.753H255.778V242.308Z" fill="#EDEFEF"/>
<path d="M255.778 228.83H242.332V242.274H255.778V228.83Z" fill="#21201E"/>
<path d="M255.778 215.385H242.332V228.83H255.778V215.385Z" fill="#21201E"/>
<path d="M255.778 201.94H242.332V215.385H255.778V201.94Z" fill="#EDEFEF"/>
<path d="M255.778 188.461H242.332V201.906H255.778V188.461Z" fill="#BCCACE"/>
<path d="M255.778 175.017H242.332V188.462H255.778V175.017Z" fill="#BCCACE"/>
<path d="M255.778 161.539H242.332V174.983H255.778V161.539Z" fill="#BCCACE"/>
<path d="M255.778 148.094H242.332V161.538H255.778V148.094Z" fill="#BCCACE"/>
<path d="M255.778 134.615H242.332V148.06H255.778V134.615Z" fill="#BCCACE"/>
<path d="M255.778 121.171H242.332V134.616H255.778V121.171Z" fill="#BCCACE"/>
<path d="M255.778 107.693H242.332V121.138H255.778V107.693Z" fill="#BCCACE"/>
<path d="M255.778 94.2476H242.332V107.692H255.778V94.2476Z" fill="#EDEFEF"/>
<path d="M269.223 336.555H255.777V350H269.223V336.555Z" fill="#52A0B2"/>
<path d="M269.223 323.077H255.777V336.522H269.223V323.077Z" fill="#9AA4A5"/>
<path d="M269.223 309.632H255.777V323.077H269.223V309.632Z" fill="#BCCACE"/>
<path d="M269.223 296.154H255.777V309.599H269.223V296.154Z" fill="#BCCACE"/>
<path d="M269.223 282.709H255.777V296.154H269.223V282.709Z" fill="#EDEFEF"/>
<path d="M269.223 269.23H255.777V282.709H269.223V269.23Z" fill="#EDEFEF"/>
<path d="M269.223 255.752H255.777V269.197H269.223V255.752Z" fill="#EDEFEF"/>
<path d="M269.223 242.308H255.777V255.753H269.223V242.308Z" fill="#EDEFEF"/>
<path d="M269.223 228.83H255.777V242.274H269.223V228.83Z" fill="#21201E"/>
<path d="M269.223 215.385H255.777V228.83H269.223V215.385Z" fill="#EDEFEF"/>
<path d="M269.223 201.94H255.777V215.385H269.223V201.94Z" fill="#EDEFEF"/>
<path d="M269.223 188.461H255.777V201.906H269.223V188.461Z" fill="#BCCACE"/>
<path d="M269.223 175.017H255.777V188.462H269.223V175.017Z" fill="#BCCACE"/>
<path d="M269.223 161.539H255.777V174.983H269.223V161.539Z" fill="#BCCACE"/>
<path d="M269.223 148.094H255.777V161.538H269.223V148.094Z" fill="#BCCACE"/>
<path d="M269.223 134.615H255.777V148.06H269.223V134.615Z" fill="#BCCACE"/>
<path d="M269.223 121.171H255.777V134.616H269.223V121.171Z" fill="#BCCACE"/>
<path d="M269.223 107.693H255.777V121.138H269.223V107.693Z" fill="#BCCACE"/>
<path d="M282.703 336.555H269.257V350H282.703V336.555Z" fill="#52A0B2"/>
<path d="M282.703 323.077H269.257V336.522H282.703V323.077Z" fill="#9AA4A5"/>
<path d="M282.703 309.632H269.257V323.077H282.703V309.632Z" fill="#BCCACE"/>
<path d="M282.703 296.154H269.257V309.599H282.703V296.154Z" fill="#EDEFEF"/>
<path d="M282.703 282.709H269.257V296.154H282.703V282.709Z" fill="#EDEFEF"/>
<path d="M282.703 269.23H269.257V282.709H282.703V269.23Z" fill="#EDEFEF"/>
<path d="M282.703 255.752H269.257V269.197H282.703V255.752Z" fill="#EDEFEF"/>
<path d="M282.703 242.308H269.257V255.753H282.703V242.308Z" fill="#21201E"/>
<path d="M282.703 228.83H269.257V242.274H282.703V228.83Z" fill="#21201E"/>
<path d="M282.703 215.385H269.257V228.83H282.703V215.385Z" fill="#EDEFEF"/>
<path d="M282.703 201.94H269.257V215.385H282.703V201.94Z" fill="#BCCACE"/>
<path d="M282.703 188.461H269.257V201.906H282.703V188.461Z" fill="#BCCACE"/>
<path d="M282.703 175.017H269.257V188.462H282.703V175.017Z" fill="#BCCACE"/>
<path d="M282.703 161.539H269.257V174.983H282.703V161.539Z" fill="#BCCACE"/>
<path d="M282.703 148.094H269.257V161.538H282.703V148.094Z" fill="#BCCACE"/>
<path d="M282.703 134.615H269.257V148.06H282.703V134.615Z" fill="#BCCACE"/>
<path d="M282.703 121.171H269.257V134.616H282.703V121.171Z" fill="#BCCACE"/>
<path d="M296.149 336.555H282.703V350H296.149V336.555Z" fill="#52A0B2"/>
<path d="M296.149 323.077H282.703V336.522H296.149V323.077Z" fill="#EDEFEF"/>
<path d="M296.149 309.632H282.703V323.077H296.149V309.632Z" fill="#EDEFEF"/>
<path d="M296.149 296.154H282.703V309.599H296.149V296.154Z" fill="#EDEFEF"/>
<path d="M296.149 282.709H282.703V296.154H296.149V282.709Z" fill="#EDEFEF"/>
<path d="M296.149 269.23H282.703V282.709H296.149V269.23Z" fill="#21201E"/>
<path d="M296.149 255.752H282.703V269.197H296.149V255.752Z" fill="#21201E"/>
<path d="M296.149 242.308H282.703V255.753H296.149V242.308Z" fill="#21201E"/>
<path d="M296.149 228.83H282.703V242.274H296.149V228.83Z" fill="#EDEFEF"/>
<path d="M296.149 215.385H282.703V228.83H296.149V215.385Z" fill="#BCCACE"/>
<path d="M296.149 201.94H282.703V215.385H296.149V201.94Z" fill="#BCCACE"/>
<path d="M296.149 188.461H282.703V201.906H296.149V188.461Z" fill="#BCCACE"/>
<path d="M296.149 175.017H282.703V188.462H296.149V175.017Z" fill="#BCCACE"/>
<path d="M296.149 161.539H282.703V174.983H296.149V161.539Z" fill="#BCCACE"/>
<path d="M296.149 148.094H282.703V161.538H296.149V148.094Z" fill="#BCCACE"/>
<path d="M309.629 336.555H296.183V350H309.629V336.555Z" fill="#52A0B2"/>
<path d="M309.629 323.077H296.183V336.522H309.629V323.077Z" fill="#EDEFEF"/>
<path d="M309.629 309.632H296.183V323.077H309.629V309.632Z" fill="#EDEFEF"/>
<path d="M309.629 296.154H296.183V309.599H309.629V296.154Z" fill="#EDEFEF"/>
<path d="M309.629 282.709H296.183V296.154H309.629V282.709Z" fill="#21201E"/>
<path d="M309.629 269.23H296.183V282.709H309.629V269.23Z" fill="#21201E"/>
<path d="M309.629 255.752H296.183V269.197H309.629V255.752Z" fill="#EDEFEF"/>
<path d="M309.629 242.308H296.183V255.753H309.629V242.308Z" fill="#EDEFEF"/>
<path d="M309.629 228.83H296.183V242.274H309.629V228.83Z" fill="#EDEFEF"/>
<path d="M309.629 215.385H296.183V228.83H309.629V215.385Z" fill="#BCCACE"/>
<path d="M309.629 201.94H296.183V215.385H309.629V201.94Z" fill="#BCCACE"/>
<path d="M309.629 188.461H296.183V201.906H309.629V188.461Z" fill="#BCCACE"/>
<path d="M309.629 175.017H296.183V188.462H309.629V175.017Z" fill="#BCCACE"/>
<path d="M309.629 161.539H296.183V174.983H309.629V161.539Z" fill="#BCCACE"/>
<path d="M323.075 336.555H309.629V350H323.075V336.555Z" fill="#52A0B2"/>
<path d="M323.075 323.077H309.629V336.522H323.075V323.077Z" fill="#EDEFEF"/>
<path d="M323.075 309.632H309.629V323.077H323.075V309.632Z" fill="#EDEFEF"/>
<path d="M323.075 296.154H309.629V309.599H323.075V296.154Z" fill="#EDEFEF"/>
<path d="M323.075 282.709H309.629V296.154H323.075V282.709Z" fill="#21201E"/>
<path d="M323.075 269.23H309.629V282.709H323.075V269.23Z" fill="#EDEFEF"/>
<path d="M323.075 255.752H309.629V269.197H323.075V255.752Z" fill="#EDEFEF"/>
<path d="M323.075 242.308H309.629V255.753H323.075V242.308Z" fill="#EDEFEF"/>
<path d="M323.075 228.83H309.629V242.274H323.075V228.83Z" fill="#BCCACE"/>
<path d="M323.075 215.385H309.629V228.83H323.075V215.385Z" fill="#BCCACE"/>
<path d="M323.075 201.94H309.629V215.385H323.075V201.94Z" fill="#BCCACE"/>
<path d="M323.075 188.461H309.629V201.906H323.075V188.461Z" fill="#BCCACE"/>
<path d="M336.554 323.077H323.108V336.522H336.554V323.077Z" fill="#EDEFEF"/>
<path d="M336.554 309.632H323.108V323.077H336.554V309.632Z" fill="#EDEFEF"/>
<path d="M336.554 296.154H323.108V309.599H336.554V296.154Z" fill="#21201E"/>
<path d="M336.554 282.709H323.108V296.154H336.554V282.709Z" fill="#21201E"/>
<path d="M336.554 269.23H323.108V282.709H336.554V269.23Z" fill="#EDEFEF"/>
<path d="M336.554 255.752H323.108V269.197H336.554V255.752Z" fill="#EDEFEF"/>
<path d="M336.554 242.308H323.108V255.753H336.554V242.308Z" fill="#EDEFEF"/>
<path d="M336.554 228.83H323.108V242.274H336.554V228.83Z" fill="#BCCACE"/>
<path d="M336.554 215.385H323.108V228.83H336.554V215.385Z" fill="#BCCACE"/>
<path d="M350 309.632H336.554V323.077H350V309.632Z" fill="#EDEFEF"/>
<path d="M350 296.154H336.554V309.599H350V296.154Z" fill="#21201E"/>
<path d="M350 282.709H336.554V296.154H350V282.709Z" fill="#EDEFEF"/>
<path d="M350 269.23H336.554V282.709H350V269.23Z" fill="#EDEFEF"/>
<path d="M350 255.752H336.554V269.197H350V255.752Z" fill="#EDEFEF"/>
<path d="M350 242.308H336.554V255.753H350V242.308Z" fill="#EDEFEF"/>
<path d="M309.595 148.06H296.149V161.538H309.595V148.06Z" fill="#BCCACE"/>
<path d="M296.149 134.582H282.703V148.027H296.149V134.582Z" fill="#BCCACE"/>
<path d="M296.149 121.137H282.703V134.581H296.149V121.137Z" fill="#BCCACE"/>
<path d="M282.703 134.582H269.257V148.027H282.703V134.582Z" fill="#BCCACE"/>
<path d="M282.703 121.137H269.257V134.581H282.703V121.137Z" fill="#BCCACE"/>
<path d="M282.703 107.693H269.257V121.138H282.703V107.693Z" fill="#BCCACE"/>
<path d="M269.257 161.539H255.811V174.983H269.257V161.539Z" fill="#BCCACE"/>
<path d="M269.257 148.06H255.811V161.538H269.257V148.06Z" fill="#BCCACE"/>
<path d="M269.257 134.582H255.811V148.027H269.257V134.582Z" fill="#BCCACE"/>
<path d="M269.257 121.137H255.811V134.581H269.257V121.137Z" fill="#BCCACE"/>
<path d="M269.257 107.693H255.811V121.138H269.257V107.693Z" fill="#21201E"/>
<path d="M269.257 94.2476H255.811V107.692H269.257V94.2476Z" fill="#21201E"/>
<path d="M255.811 134.582H242.365V148.027H255.811V134.582Z" fill="#BCCACE"/>
<path d="M255.811 121.137H242.365V134.581H255.811V121.137Z" fill="#21201E"/>
<path d="M255.811 107.693H242.365V121.138H255.811V107.693Z" fill="#21201E"/>
<path d="M242.332 121.137H228.885V134.581H242.332V121.137Z" fill="#21201E"/>
<path d="M228.885 121.137H215.439V134.581H228.885V121.137Z" fill="#EDEFEF"/>
</svg>
