<svg width="420" height="319" viewBox="0 0 420 319" fill="none" xmlns="http://www.w3.org/2000/svg">
<rect x="246.207" y="304.138" width="14.4828" height="14.4828" transform="rotate(90 246.207 304.138)" fill="#24201B"/>
<rect y="101.379" width="14.4828" height="14.4828" fill="#462A2D"/>
<rect x="217.241" y="304.138" width="14.4828" height="14.4828" transform="rotate(90 217.241 304.138)" fill="#24201B"/>
<rect x="318.621" y="115.862" width="14.4828" height="14.4828" fill="#24201B"/>
<rect x="304.138" y="101.379" width="14.4828" height="14.4828" fill="#24201B"/>
<rect x="318.621" y="86.8965" width="14.4828" height="14.4828" fill="#24201B"/>
<rect x="318.621" y="72.4136" width="14.4828" height="14.4828" fill="#24201B"/>
<rect x="333.103" y="57.9312" width="14.4828" height="14.4828" fill="#24201B"/>
<rect x="347.586" y="43.4482" width="14.4828" height="14.4828" fill="#24201B"/>
<rect x="362.069" y="43.4482" width="14.4828" height="14.4828" fill="#24201B"/>
<rect x="376.552" y="43.4482" width="14.4828" height="14.4828" fill="#24201B"/>
<rect x="391.034" y="43.4482" width="14.4828" height="14.4828" fill="#462A2D"/>
<rect x="405.517" y="28.9653" width="14.4828" height="14.4828" fill="#24201B"/>
<rect x="405.517" y="14.4829" width="14.4828" height="14.4828" fill="#24201B"/>
<rect x="391.034" width="14.4828" height="14.4828" fill="#24201B"/>
<rect x="376.552" width="14.4828" height="14.4828" fill="#24201B"/>
<rect x="362.069" width="14.4828" height="14.4828" fill="#24201B"/>
<rect x="347.586" width="14.4828" height="14.4828" fill="#24201B"/>
<rect x="333.103" width="14.4828" height="14.4828" fill="#24201B"/>
<rect x="318.621" width="14.4828" height="14.4828" fill="#24201B"/>
<rect x="304.138" y="14.4829" width="14.4828" height="14.4828" fill="#24201B"/>
<rect x="318.621" y="14.4829" width="14.4828" height="14.4828" fill="#E3D3BA"/>
<rect x="304.138" y="28.9653" width="14.4828" height="14.4828" fill="#E3D3BA"/>
<rect x="289.655" y="43.4482" width="14.4828" height="14.4828" fill="#E3D3BA"/>
<rect x="333.103" y="14.4829" width="14.4828" height="14.4828" fill="#E3D3BA"/>
<rect x="347.586" y="14.4829" width="14.4828" height="14.4828" fill="#B9A790"/>
<rect x="333.103" y="28.9653" width="14.4828" height="14.4828" fill="#B9A790"/>
<rect x="318.621" y="28.9653" width="14.4828" height="14.4828" fill="#B9A790"/>
<rect x="318.621" y="43.4482" width="14.4828" height="14.4828" fill="#B9A790"/>
<rect x="304.138" y="57.9312" width="14.4828" height="14.4828" fill="#B9A790"/>
<rect x="304.138" y="43.4482" width="14.4828" height="14.4828" fill="#B9A790"/>
<rect x="289.655" y="57.9312" width="14.4828" height="14.4828" fill="#B9A790"/>
<rect x="362.069" y="14.4829" width="14.4828" height="14.4828" fill="#B9A790"/>
<rect x="376.552" y="14.4829" width="14.4828" height="14.4828" fill="#B9A790"/>
<rect x="391.034" y="14.4829" width="14.4828" height="14.4828" fill="#3A3329"/>
<rect x="376.552" y="28.9653" width="14.4828" height="14.4828" fill="#3A3329"/>
<rect x="391.034" y="28.9653" width="14.4828" height="14.4828" fill="#462A2D"/>
<rect x="362.069" y="28.9653" width="14.4828" height="14.4828" fill="#706051"/>
<rect x="347.586" y="28.9653" width="14.4828" height="14.4828" fill="#706051"/>
<rect x="333.103" y="43.4482" width="14.4828" height="14.4828" fill="#706051"/>
<rect x="318.621" y="57.9312" width="14.4828" height="14.4828" fill="#706051"/>
<rect x="304.138" y="72.4136" width="14.4828" height="14.4828" fill="#706051"/>
<rect x="289.655" y="72.4136" width="14.4828" height="14.4828" fill="#706051"/>
<rect x="405.517" y="14.4829" width="14.4828" height="14.4828" fill="#24201B"/>
<rect x="289.655" y="28.9653" width="14.4828" height="14.4828" fill="#24201B"/>
<rect x="275.172" y="43.4482" width="14.4828" height="14.4828" fill="#24201B"/>
<rect x="246.207" y="57.9312" width="14.4828" height="14.4828" fill="#4B4A4F"/>
<rect x="260.69" y="57.9312" width="14.4828" height="14.4828" fill="#4B4A4F"/>
<rect x="260.69" y="43.4482" width="14.4828" height="14.4828" fill="#4B4A4F"/>
<rect x="260.69" y="72.4136" width="14.4828" height="14.4828" fill="#323134"/>
<rect x="275.172" y="57.9312" width="14.4828" height="14.4828" fill="#323134"/>
<rect x="275.172" y="72.4136" width="14.4828" height="14.4828" fill="#323134"/>
<rect x="275.172" y="86.8965" width="14.4828" height="14.4828" fill="#323134"/>
<rect x="289.655" y="86.8965" width="14.4828" height="14.4828" fill="#323134"/>
<rect x="304.138" y="86.8965" width="14.4828" height="14.4828" fill="#323134"/>
<rect x="289.655" y="101.379" width="14.4828" height="14.4828" fill="#323134"/>
<rect x="231.724" y="304.138" width="14.4828" height="14.4828" transform="rotate(90 231.724 304.138)" fill="#24201B"/>
<rect x="202.759" y="304.138" width="14.4828" height="14.4828" transform="rotate(90 202.759 304.138)" fill="#24201B"/>
<rect y="115.862" width="14.4828" height="14.4828" fill="#24201B"/>
<rect x="188.276" y="304.138" width="14.4828" height="14.4828" transform="rotate(90 188.276 304.138)" fill="#24201B"/>
<rect x="318.621" y="130.345" width="14.4828" height="14.4828" fill="#24201B"/>
<rect x="318.621" y="304.138" width="14.4828" height="14.4828" transform="rotate(90 318.621 304.138)" fill="#24201B"/>
<rect x="159.31" y="304.138" width="14.4828" height="14.4828" transform="rotate(90 159.31 304.138)" fill="#24201B"/>
<rect y="130.345" width="14.4828" height="14.4828" fill="#24201B"/>
<rect x="14.4828" y="57.9312" width="14.4828" height="14.4828" fill="#24201B"/>
<rect x="14.4828" y="43.4482" width="14.4828" height="14.4828" fill="#462A2D"/>
<rect x="14.4828" y="72.4136" width="14.4828" height="14.4828" fill="#24201B"/>
<rect x="14.4828" y="86.8965" width="14.4828" height="14.4828" fill="#24201B"/>
<rect x="57.931" y="57.9312" width="14.4828" height="14.4828" fill="#24201B"/>
<rect x="57.931" y="43.4482" width="14.4828" height="14.4828" fill="#24201B"/>
<rect x="57.931" y="72.4136" width="14.4828" height="14.4828" fill="#24201B"/>
<rect x="72.4138" y="72.4136" width="14.4828" height="14.4828" fill="#24201B"/>
<rect x="28.9655" y="72.4136" width="14.4828" height="14.4828" fill="#97312F"/>
<rect x="14.4828" y="101.379" width="14.4828" height="14.4828" fill="#97312F"/>
<rect x="43.4483" y="72.4136" width="14.4828" height="14.4828" fill="#97312F"/>
<rect x="86.8965" y="72.4136" width="14.4828" height="14.4828" fill="#97312F"/>
<rect x="101.379" y="57.9312" width="14.4828" height="14.4828" fill="#97312F"/>
<rect x="115.862" y="43.4482" width="14.4828" height="14.4828" fill="#97312F"/>
<rect x="72.4138" y="86.8965" width="14.4828" height="14.4828" fill="#24201B"/>
<rect x="57.931" y="86.8965" width="14.4828" height="14.4828" fill="#97312F"/>
<rect x="28.9655" y="86.8965" width="14.4828" height="14.4828" fill="#8A2225"/>
<rect x="43.4483" y="86.8965" width="14.4828" height="14.4828" fill="#8A2225"/>
<rect x="86.8965" y="57.9312" width="14.4828" height="14.4828" fill="#24201B"/>
<rect x="101.379" y="43.4482" width="14.4828" height="14.4828" fill="#24201B"/>
<rect x="115.862" y="28.9653" width="14.4828" height="14.4828" fill="#24201B"/>
<rect x="130.345" y="28.9653" width="14.4828" height="14.4828" fill="#24201B"/>
<rect x="144.828" y="28.9653" width="14.4828" height="14.4828" fill="#24201B"/>
<rect x="159.31" y="28.9653" width="14.4828" height="14.4828" fill="#24201B"/>
<rect x="173.793" y="28.9653" width="14.4828" height="14.4828" fill="#24201B"/>
<rect x="188.276" y="28.9653" width="14.4828" height="14.4828" fill="#24201B"/>
<rect x="202.759" y="28.9653" width="14.4828" height="14.4828" fill="#24201B"/>
<rect x="217.241" y="28.9653" width="14.4828" height="14.4828" fill="#24201B"/>
<rect x="231.724" y="43.4482" width="14.4828" height="14.4828" fill="#24201B"/>
<rect x="115.862" y="57.9312" width="14.4828" height="14.4828" fill="#F78F77"/>
<rect x="130.345" y="43.4482" width="14.4828" height="14.4828" fill="#F78F77"/>
<rect x="144.828" y="43.4482" width="14.4828" height="14.4828" fill="#24201B"/>
<rect x="28.9655" y="43.4482" width="14.4828" height="14.4828" transform="rotate(-90 28.9655 43.4482)" fill="#24201B"/>
<rect x="43.4483" y="43.4482" width="14.4828" height="14.4828" transform="rotate(-90 43.4483 43.4482)" fill="#24201B"/>
<rect x="318.621" y="144.828" width="14.4828" height="14.4828" fill="#24201B"/>
<rect x="304.138" y="304.138" width="14.4828" height="14.4828" transform="rotate(90 304.138 304.138)" fill="#462A2D"/>
<rect y="159.311" width="14.4828" height="14.4828" fill="#24201B"/>
<rect x="318.621" y="173.793" width="14.4828" height="14.4828" fill="#24201B"/>
<rect x="144.828" y="304.138" width="14.4828" height="14.4828" transform="rotate(90 144.828 304.138)" fill="#462A2D"/>
<rect x="275.172" y="304.138" width="14.4828" height="14.4828" transform="rotate(90 275.172 304.138)" fill="#24201B"/>
<rect y="231.724" width="14.4828" height="14.4828" fill="#24201B"/>
<rect x="318.621" y="246.207" width="14.4828" height="14.4828" fill="#24201B"/>
<rect x="86.8965" y="304.138" width="14.4828" height="14.4828" transform="rotate(90 86.8965 304.138)" fill="#24201B"/>
<rect y="173.793" width="14.4828" height="14.4828" fill="#24201B"/>
<rect x="318.621" y="188.276" width="14.4828" height="14.4828" fill="#462A2D"/>
<rect x="260.69" y="304.138" width="14.4828" height="14.4828" transform="rotate(90 260.69 304.138)" fill="#24201B"/>
<rect y="188.276" width="14.4828" height="14.4828" fill="#24201B"/>
<rect x="318.621" y="202.759" width="14.4828" height="14.4828" fill="#462A2D"/>
<rect x="130.345" y="304.138" width="14.4828" height="14.4828" transform="rotate(90 130.345 304.138)" fill="#24201B"/>
<rect y="217.241" width="14.4828" height="14.4828" fill="#24201B"/>
<rect x="173.793" y="304.138" width="14.4828" height="14.4828" transform="rotate(90 173.793 304.138)" fill="#24201B"/>
<rect x="318.621" y="231.724" width="14.4828" height="14.4828" fill="#24201B"/>
<rect x="101.379" y="304.138" width="14.4828" height="14.4828" transform="rotate(90 101.379 304.138)" fill="#24201B"/>
<rect y="202.759" width="14.4828" height="14.4828" fill="#24201B"/>
<rect x="318.621" y="217.241" width="14.4828" height="14.4828" fill="#24201B"/>
<rect x="115.862" y="304.138" width="14.4828" height="14.4828" transform="rotate(90 115.862 304.138)" fill="#24201B"/>
<rect y="144.828" width="14.4828" height="14.4828" fill="#24201B"/>
<rect x="318.621" y="159.311" width="14.4828" height="14.4828" fill="#24201B"/>
<rect x="289.655" y="304.138" width="14.4828" height="14.4828" transform="rotate(90 289.655 304.138)" fill="#462A2D"/>
<rect y="246.207" width="14.4828" height="14.4828" fill="#24201B"/>
<rect x="318.621" y="260.689" width="14.4828" height="14.4828" fill="#24201B"/>
<rect x="72.4138" y="304.138" width="14.4828" height="14.4828" transform="rotate(90 72.4138 304.138)" fill="#24201B"/>
<rect y="260.689" width="14.4828" height="14.4828" fill="#24201B"/>
<rect x="318.621" y="275.172" width="14.4828" height="14.4828" fill="#24201B"/>
<rect x="57.931" y="304.138" width="14.4828" height="14.4828" transform="rotate(90 57.931 304.138)" fill="#24201B"/>
<rect y="275.172" width="14.4828" height="14.4828" fill="#24201B"/>
<rect x="14.4828" y="289.655" width="14.4828" height="14.4828" fill="#24201B"/>
<rect x="14.4828" y="275.172" width="14.4828" height="14.4828" fill="#9D3129"/>
<rect x="14.4828" y="260.689" width="14.4828" height="14.4828" fill="#462A2D"/>
<rect x="28.9655" y="246.207" width="14.4828" height="14.4828" fill="#9D3129"/>
<rect x="14.4828" y="231.724" width="14.4828" height="14.4828" fill="#9D3129"/>
<rect x="14.4828" y="246.207" width="14.4828" height="14.4828" fill="#D24748"/>
<rect x="28.9655" y="260.689" width="14.4828" height="14.4828" fill="#462A2D"/>
<rect x="43.4483" y="275.172" width="14.4828" height="14.4828" fill="#462A2D"/>
<rect x="72.4138" y="275.172" width="14.4828" height="14.4828" fill="#D24748"/>
<rect x="101.379" y="275.172" width="14.4828" height="14.4828" fill="#D24748"/>
<rect x="86.8965" y="275.172" width="14.4828" height="14.4828" fill="#D24748"/>
<rect x="115.862" y="275.172" width="14.4828" height="14.4828" fill="#D24748"/>
<rect x="130.345" y="275.172" width="14.4828" height="14.4828" fill="#D24748"/>
<rect x="159.31" y="275.172" width="14.4828" height="14.4828" fill="#D24748"/>
<rect x="188.276" y="275.172" width="14.4828" height="14.4828" fill="#D24748"/>
<rect x="217.241" y="275.172" width="14.4828" height="14.4828" fill="#D24748"/>
<rect x="246.207" y="275.172" width="14.4828" height="14.4828" fill="#D24748"/>
<rect x="275.172" y="275.172" width="14.4828" height="14.4828" fill="#9D3129"/>
<rect x="72.4138" y="246.207" width="14.4828" height="14.4828" fill="#D24748"/>
<rect x="101.379" y="246.207" width="14.4828" height="14.4828" fill="#D24748"/>
<rect x="144.828" y="275.172" width="14.4828" height="14.4828" fill="#D24748"/>
<rect x="202.759" y="275.172" width="14.4828" height="14.4828" fill="#D24748"/>
<rect x="72.4138" y="260.689" width="14.4828" height="14.4828" fill="#D24748"/>
<rect x="101.379" y="260.689" width="14.4828" height="14.4828" fill="#D24748"/>
<rect x="260.69" y="275.172" width="14.4828" height="14.4828" fill="#D24748"/>
<rect x="86.8965" y="246.207" width="14.4828" height="14.4828" fill="#D24748"/>
<rect x="173.793" y="275.172" width="14.4828" height="14.4828" fill="#D24748"/>
<rect x="115.862" y="246.207" width="14.4828" height="14.4828" fill="#D24748"/>
<rect x="231.724" y="275.172" width="14.4828" height="14.4828" fill="#24201B"/>
<rect x="86.8965" y="260.689" width="14.4828" height="14.4828" fill="#D24748"/>
<rect x="130.345" y="246.207" width="14.4828" height="14.4828" fill="#D24748"/>
<rect x="115.862" y="260.689" width="14.4828" height="14.4828" fill="#D24748"/>
<rect x="289.655" y="275.172" width="14.4828" height="14.4828" fill="#9D3129"/>
<rect x="304.138" y="275.172" width="14.4828" height="14.4828" fill="#692118"/>
<rect x="72.4138" y="202.759" width="14.4828" height="14.4828" fill="#D24748"/>
<rect x="14.4828" y="202.759" width="14.4828" height="14.4828" fill="#D24748"/>
<rect x="188.276" y="246.207" width="14.4828" height="14.4828" fill="#D24748"/>
<rect x="159.31" y="246.207" width="14.4828" height="14.4828" fill="#D24748"/>
<rect x="130.345" y="260.689" width="14.4828" height="14.4828" fill="#D24748"/>
<rect x="159.31" y="260.689" width="14.4828" height="14.4828" fill="#D24748"/>
<rect x="246.207" y="246.207" width="14.4828" height="14.4828" fill="#D24748"/>
<rect x="72.4138" y="231.724" width="14.4828" height="14.4828" fill="#D24748"/>
<rect x="101.379" y="231.724" width="14.4828" height="14.4828" fill="#D24748"/>
<rect x="72.4138" y="217.241" width="14.4828" height="14.4828" fill="#D24748"/>
<rect x="217.241" y="246.207" width="14.4828" height="14.4828" fill="#24201B"/>
<rect x="188.276" y="260.689" width="14.4828" height="14.4828" fill="#D24748"/>
<rect x="217.241" y="260.689" width="14.4828" height="14.4828" fill="#24201B"/>
<rect x="144.828" y="246.207" width="14.4828" height="14.4828" fill="#D24748"/>
<rect x="173.793" y="246.207" width="14.4828" height="14.4828" fill="#D24748"/>
<rect x="144.828" y="260.689" width="14.4828" height="14.4828" fill="#D24748"/>
<rect x="173.793" y="260.689" width="14.4828" height="14.4828" fill="#D24748"/>
<rect x="275.172" y="246.207" width="14.4828" height="14.4828" fill="#D24748"/>
<rect x="246.207" y="260.689" width="14.4828" height="14.4828" fill="#D24748"/>
<rect x="275.172" y="260.689" width="14.4828" height="14.4828" fill="#D24748"/>
<rect x="86.8965" y="231.724" width="14.4828" height="14.4828" fill="#D24748"/>
<rect x="130.345" y="231.724" width="14.4828" height="14.4828" fill="#D24748"/>
<rect x="159.31" y="231.724" width="14.4828" height="14.4828" fill="#D24748"/>
<rect x="202.759" y="246.207" width="14.4828" height="14.4828" fill="#D24748"/>
<rect x="231.724" y="246.207" width="14.4828" height="14.4828" fill="#D24748"/>
<rect x="202.759" y="260.689" width="14.4828" height="14.4828" fill="#D24748"/>
<rect x="231.724" y="260.689" width="14.4828" height="14.4828" fill="#D24748"/>
<rect x="115.862" y="231.724" width="14.4828" height="14.4828" fill="#D24748"/>
<rect x="86.8965" y="217.241" width="14.4828" height="14.4828" fill="#D24748"/>
<rect x="144.828" y="231.724" width="14.4828" height="14.4828" fill="#D24748"/>
<rect x="188.276" y="231.724" width="14.4828" height="14.4828" fill="#24201B"/>
<rect x="217.241" y="231.724" width="14.4828" height="14.4828" fill="#D24748"/>
<rect x="173.793" y="231.724" width="14.4828" height="14.4828" fill="#D24748"/>
<rect x="144.828" y="217.241" width="14.4828" height="14.4828" fill="#D24748"/>
<rect x="202.759" y="231.724" width="14.4828" height="14.4828" fill="#24201B"/>
<rect x="231.724" y="231.724" width="14.4828" height="14.4828" fill="#D24748"/>
<rect x="86.8965" y="202.759" width="14.4828" height="14.4828" fill="#D24748"/>
<rect x="202.759" y="217.241" width="14.4828" height="14.4828" fill="#D24748"/>
<rect x="28.9655" y="202.759" width="14.4828" height="14.4828" fill="#D24748"/>
<rect x="260.69" y="246.207" width="14.4828" height="14.4828" fill="#D24748"/>
<rect x="289.655" y="246.207" width="14.4828" height="14.4828" fill="#85160D"/>
<rect x="304.138" y="246.207" width="14.4828" height="14.4828" fill="#692118"/>
<rect x="115.862" y="202.759" width="14.4828" height="14.4828" fill="#462A2D"/>
<rect x="260.69" y="260.689" width="14.4828" height="14.4828" fill="#D24748"/>
<rect x="289.655" y="260.689" width="14.4828" height="14.4828" fill="#85160D"/>
<rect x="304.138" y="260.689" width="14.4828" height="14.4828" fill="#692118"/>
<rect x="57.931" y="202.759" width="14.4828" height="14.4828" fill="#D24748"/>
<rect x="188.276" y="202.759" width="14.4828" height="14.4828" fill="#D24748"/>
<rect x="246.207" y="231.724" width="14.4828" height="14.4828" fill="#D24748"/>
<rect x="275.172" y="231.724" width="14.4828" height="14.4828" fill="#D24748"/>
<rect x="275.172" y="217.241" width="14.4828" height="14.4828" fill="#D24748"/>
<rect x="246.207" y="202.759" width="14.4828" height="14.4828" fill="#D24748"/>
<rect x="275.172" y="202.759" width="14.4828" height="14.4828" fill="#D24748"/>
<rect x="260.69" y="231.724" width="14.4828" height="14.4828" fill="#D24748"/>
<rect x="289.655" y="231.724" width="14.4828" height="14.4828" fill="#85160D"/>
<rect x="304.138" y="231.724" width="14.4828" height="14.4828" fill="#973631"/>
<rect x="260.69" y="217.241" width="14.4828" height="14.4828" fill="#D24748"/>
<rect x="72.4138" y="188.276" width="14.4828" height="14.4828" fill="#D24748"/>
<rect x="289.655" y="217.241" width="14.4828" height="14.4828" fill="#85160D"/>
<rect x="86.8965" y="173.793" width="14.4828" height="14.4828" fill="#D24748"/>
<rect x="304.138" y="217.241" width="14.4828" height="14.4828" fill="#973631"/>
<rect x="115.862" y="173.793" width="14.4828" height="14.4828" fill="#D24748"/>
<rect x="14.4828" y="173.793" width="14.4828" height="14.4828" fill="#D24748"/>
<rect x="86.8965" y="188.276" width="14.4828" height="14.4828" fill="#D24748"/>
<rect x="115.862" y="188.276" width="14.4828" height="14.4828" fill="#D24748"/>
<rect x="144.828" y="202.759" width="14.4828" height="14.4828" fill="#D24748"/>
<rect x="202.759" y="202.759" width="14.4828" height="14.4828" fill="#D24748"/>
<rect x="14.4828" y="188.276" width="14.4828" height="14.4828" fill="#D24748"/>
<rect x="260.69" y="202.759" width="14.4828" height="14.4828" fill="#462A2D"/>
<rect x="28.9655" y="173.793" width="14.4828" height="14.4828" fill="#D24748"/>
<rect x="173.793" y="202.759" width="14.4828" height="14.4828" fill="#24201B"/>
<rect x="231.724" y="202.759" width="14.4828" height="14.4828" fill="#D24748"/>
<rect x="72.4138" y="159.311" width="14.4828" height="14.4828" fill="#D24748"/>
<rect x="72.4138" y="130.345" width="14.4828" height="14.4828" fill="#D24748"/>
<rect x="101.379" y="159.311" width="14.4828" height="14.4828" fill="#D24748"/>
<rect x="101.379" y="130.345" width="14.4828" height="14.4828" fill="#D24748"/>
<rect x="72.4138" y="115.862" width="14.4828" height="14.4828" fill="#D24748"/>
<rect x="28.9655" y="188.276" width="14.4828" height="14.4828" fill="#D24748"/>
<rect x="57.931" y="188.276" width="14.4828" height="14.4828" fill="#D24748"/>
<rect x="101.379" y="144.828" width="14.4828" height="14.4828" fill="#24201B"/>
<rect x="115.862" y="115.862" width="14.4828" height="14.4828" fill="#D24748"/>
<rect x="101.379" y="115.862" width="14.4828" height="14.4828" fill="#24201B"/>
<rect x="289.655" y="202.759" width="14.4828" height="14.4828" fill="#462A2D"/>
<rect x="304.138" y="202.759" width="14.4828" height="14.4828" fill="#462A2D"/>
<rect x="57.931" y="260.689" width="14.4828" height="14.4828" fill="#D24748"/>
<rect x="188.276" y="173.793" width="14.4828" height="14.4828" fill="#D24748"/>
<rect x="43.4483" y="246.207" width="14.4828" height="14.4828" fill="#D24748"/>
<rect x="86.8965" y="159.311" width="14.4828" height="14.4828" fill="#D24748"/>
<rect x="86.8965" y="130.345" width="14.4828" height="14.4828" fill="#D24748"/>
<rect x="246.207" y="173.793" width="14.4828" height="14.4828" fill="#D24748"/>
<rect x="14.4828" y="159.311" width="14.4828" height="14.4828" fill="#D24748"/>
<rect x="14.4828" y="130.345" width="14.4828" height="14.4828" fill="#D24748"/>
<rect x="43.4483" y="130.345" width="14.4828" height="14.4828" fill="#D24748"/>
<rect x="14.4828" y="144.828" width="14.4828" height="14.4828" fill="#462A2D"/>
<rect x="14.4828" y="115.862" width="14.4828" height="14.4828" fill="#462A2D"/>
<rect x="188.276" y="188.276" width="14.4828" height="14.4828" fill="#D24748"/>
<rect x="115.862" y="159.311" width="14.4828" height="14.4828" fill="#D24748"/>
<rect x="115.862" y="130.345" width="14.4828" height="14.4828" fill="#24201B"/>
<rect x="86.8965" y="115.862" width="14.4828" height="14.4828" fill="#24201B"/>
<rect x="115.862" y="144.828" width="14.4828" height="14.4828" fill="#24201B"/>
<rect x="130.345" y="115.862" width="14.4828" height="14.4828" fill="#D24748"/>
<rect x="43.4483" y="115.862" width="14.4828" height="14.4828" fill="#D24748"/>
<rect x="144.828" y="173.793" width="14.4828" height="14.4828" fill="#24201B"/>
<rect x="173.793" y="173.793" width="14.4828" height="14.4828" fill="#D24748"/>
<rect x="144.828" y="188.276" width="14.4828" height="14.4828" fill="#24201B"/>
<rect x="275.172" y="173.793" width="14.4828" height="14.4828" fill="#462A2D"/>
<rect x="246.207" y="188.276" width="14.4828" height="14.4828" fill="#D24748"/>
<rect x="275.172" y="188.276" width="14.4828" height="14.4828" fill="#462A2D"/>
<rect x="28.9655" y="159.311" width="14.4828" height="14.4828" fill="#D24748"/>
<rect x="28.9655" y="130.345" width="14.4828" height="14.4828" fill="#462A2D"/>
<rect x="130.345" y="130.345" width="14.4828" height="14.4828" fill="#D24748"/>
<rect x="159.31" y="130.345" width="14.4828" height="14.4828" fill="#D24748"/>
<rect x="130.345" y="144.828" width="14.4828" height="14.4828" fill="#24201B"/>
<rect x="159.31" y="144.828" width="14.4828" height="14.4828" fill="#D24748"/>
<rect x="202.759" y="173.793" width="14.4828" height="14.4828" fill="#D24748"/>
<rect x="231.724" y="173.793" width="14.4828" height="14.4828" fill="#D24748"/>
<rect x="202.759" y="188.276" width="14.4828" height="14.4828" fill="#D24748"/>
<rect x="231.724" y="188.276" width="14.4828" height="14.4828" fill="#D24748"/>
<rect x="57.931" y="159.311" width="14.4828" height="14.4828" fill="#D24748"/>
<rect x="57.931" y="130.345" width="14.4828" height="14.4828" fill="#D24748"/>
<rect x="28.9655" y="144.828" width="14.4828" height="14.4828" fill="#D24748"/>
<rect x="28.9655" y="115.862" width="14.4828" height="14.4828" fill="#462A2D"/>
<rect x="57.931" y="115.862" width="14.4828" height="14.4828" fill="#D24748"/>
<rect x="72.4138" y="101.379" width="14.4828" height="14.4828" fill="#24201B"/>
<rect x="101.379" y="101.379" width="14.4828" height="14.4828" fill="#D24748"/>
<rect x="86.8965" y="101.379" width="14.4828" height="14.4828" fill="#D24748"/>
<rect x="86.8965" y="86.8965" width="14.4828" height="14.4828" fill="#D24748"/>
<rect x="101.379" y="72.4136" width="14.4828" height="14.4828" fill="#D24748"/>
<rect x="43.4483" y="101.379" width="14.4828" height="14.4828" fill="#D24748"/>
<rect x="28.9655" y="101.379" width="14.4828" height="14.4828" fill="#462A2D"/>
<rect x="57.931" y="101.379" width="14.4828" height="14.4828" fill="#D24748"/>
<rect x="144.828" y="159.311" width="14.4828" height="14.4828" fill="#24201B"/>
<rect x="144.828" y="130.345" width="14.4828" height="14.4828" fill="#D24748"/>
<rect x="188.276" y="130.345" width="14.4828" height="14.4828" fill="#D24748"/>
<rect x="217.241" y="130.345" width="14.4828" height="14.4828" fill="#D24748"/>
<rect x="188.276" y="144.828" width="14.4828" height="14.4828" fill="#D24748"/>
<rect x="217.241" y="144.828" width="14.4828" height="14.4828" fill="#D24748"/>
<rect x="217.241" y="115.862" width="14.4828" height="14.4828" fill="#D24748"/>
<rect x="173.793" y="130.345" width="14.4828" height="14.4828" fill="#D24748"/>
<rect x="144.828" y="144.828" width="14.4828" height="14.4828" fill="#D24748"/>
<rect x="173.793" y="144.828" width="14.4828" height="14.4828" fill="#D24748"/>
<rect x="202.759" y="159.311" width="14.4828" height="14.4828" fill="#D24748"/>
<rect x="202.759" y="130.345" width="14.4828" height="14.4828" fill="#D24748"/>
<rect x="231.724" y="159.311" width="14.4828" height="14.4828" fill="#D24748"/>
<rect x="231.724" y="130.345" width="14.4828" height="14.4828" fill="#D24748"/>
<rect x="202.759" y="144.828" width="14.4828" height="14.4828" fill="#D24748"/>
<rect x="202.759" y="115.862" width="14.4828" height="14.4828" fill="#D24748"/>
<rect x="231.724" y="144.828" width="14.4828" height="14.4828" fill="#D24748"/>
<rect x="231.724" y="115.862" width="14.4828" height="14.4828" fill="#D24748"/>
<rect x="57.931" y="246.207" width="14.4828" height="14.4828" fill="#462A2D"/>
<rect x="260.69" y="173.793" width="14.4828" height="14.4828" fill="#D24748"/>
<rect x="289.655" y="173.793" width="14.4828" height="14.4828" fill="#462A2D"/>
<rect x="304.138" y="173.793" width="14.4828" height="14.4828" fill="#973631"/>
<rect x="260.69" y="188.276" width="14.4828" height="14.4828" fill="#462A2D"/>
<rect x="289.655" y="188.276" width="14.4828" height="14.4828" fill="#462A2D"/>
<rect x="304.138" y="188.276" width="14.4828" height="14.4828" fill="#462A2D"/>
<rect x="28.9655" y="231.724" width="14.4828" height="14.4828" fill="#D24748"/>
<rect x="14.4828" y="217.241" width="14.4828" height="14.4828" fill="#D24748"/>
<rect x="43.4483" y="231.724" width="14.4828" height="14.4828" fill="#D24748"/>
<rect x="101.379" y="202.759" width="14.4828" height="14.4828" fill="#97312F"/>
<rect x="43.4483" y="202.759" width="14.4828" height="14.4828" fill="#97312F"/>
<rect x="101.379" y="217.241" width="14.4828" height="14.4828" fill="#462A2D"/>
<rect x="130.345" y="217.241" width="14.4828" height="14.4828" fill="#97312F"/>
<rect x="159.31" y="217.241" width="14.4828" height="14.4828" fill="#97312F"/>
<rect x="115.862" y="217.241" width="14.4828" height="14.4828" fill="#462A2D"/>
<rect x="188.276" y="217.241" width="14.4828" height="14.4828" fill="#24201B"/>
<rect x="217.241" y="217.241" width="14.4828" height="14.4828" fill="#97312F"/>
<rect x="173.793" y="217.241" width="14.4828" height="14.4828" fill="#97312F"/>
<rect x="231.724" y="217.241" width="14.4828" height="14.4828" fill="#97312F"/>
<rect x="130.345" y="202.759" width="14.4828" height="14.4828" fill="#97312F"/>
<rect x="159.31" y="202.759" width="14.4828" height="14.4828" fill="#24201B"/>
<rect x="246.207" y="217.241" width="14.4828" height="14.4828" fill="#462A2D"/>
<rect x="217.241" y="202.759" width="14.4828" height="14.4828" fill="#97312F"/>
<rect x="72.4138" y="173.793" width="14.4828" height="14.4828" fill="#97312F"/>
<rect x="101.379" y="173.793" width="14.4828" height="14.4828" fill="#97312F"/>
<rect x="101.379" y="188.276" width="14.4828" height="14.4828" fill="#97312F"/>
<rect x="43.4483" y="173.793" width="14.4828" height="14.4828" fill="#97312F"/>
<rect x="43.4483" y="188.276" width="14.4828" height="14.4828" fill="#97312F"/>
<rect x="57.931" y="173.793" width="14.4828" height="14.4828" fill="#97312F"/>
<rect x="72.4138" y="144.828" width="14.4828" height="14.4828" fill="#97312F"/>
<rect x="130.345" y="173.793" width="14.4828" height="14.4828" fill="#97312F"/>
<rect x="159.31" y="173.793" width="14.4828" height="14.4828" fill="#97312F"/>
<rect x="130.345" y="188.276" width="14.4828" height="14.4828" fill="#97312F"/>
<rect x="159.31" y="188.276" width="14.4828" height="14.4828" fill="#97312F"/>
<rect x="43.4483" y="159.311" width="14.4828" height="14.4828" fill="#97312F"/>
<rect x="217.241" y="173.793" width="14.4828" height="14.4828" fill="#97312F"/>
<rect x="217.241" y="188.276" width="14.4828" height="14.4828" fill="#97312F"/>
<rect x="86.8965" y="144.828" width="14.4828" height="14.4828" fill="#97312F"/>
<rect x="43.4483" y="144.828" width="14.4828" height="14.4828" fill="#97312F"/>
<rect x="173.793" y="188.276" width="14.4828" height="14.4828" fill="#97312F"/>
<rect x="130.345" y="159.311" width="14.4828" height="14.4828" fill="#97312F"/>
<rect x="159.31" y="159.311" width="14.4828" height="14.4828" fill="#97312F"/>
<rect x="57.931" y="144.828" width="14.4828" height="14.4828" fill="#97312F"/>
<rect x="188.276" y="159.311" width="14.4828" height="14.4828" fill="#97312F"/>
<rect x="217.241" y="159.311" width="14.4828" height="14.4828" fill="#97312F"/>
<rect x="173.793" y="159.311" width="14.4828" height="14.4828" fill="#97312F"/>
<rect x="43.4483" y="217.241" width="14.4828" height="14.4828" fill="#97312F"/>
<rect x="246.207" y="159.311" width="14.4828" height="14.4828" fill="#D24748"/>
<rect x="246.207" y="130.345" width="14.4828" height="14.4828" fill="#D24748"/>
<rect x="275.172" y="159.311" width="14.4828" height="14.4828" fill="#D24748"/>
<rect x="275.172" y="130.345" width="14.4828" height="14.4828" fill="#F78F77"/>
<rect x="246.207" y="144.828" width="14.4828" height="14.4828" fill="#D24748"/>
<rect x="246.207" y="115.862" width="14.4828" height="14.4828" fill="#462A2D"/>
<rect x="231.724" y="101.379" width="14.4828" height="14.4828" fill="#D24748"/>
<rect x="246.207" y="101.379" width="14.4828" height="14.4828" fill="#462A2D"/>
<rect x="275.172" y="144.828" width="14.4828" height="14.4828" fill="#F78F77"/>
<rect x="275.172" y="115.862" width="14.4828" height="14.4828" fill="#F78F77"/>
<rect x="260.69" y="101.379" width="14.4828" height="14.4828" fill="#F78F77"/>
<rect x="246.207" y="86.8965" width="14.4828" height="14.4828" fill="#F78F77"/>
<rect x="231.724" y="72.4136" width="14.4828" height="14.4828" fill="#F78F77"/>
<rect x="217.241" y="57.9312" width="14.4828" height="14.4828" fill="#F78F77"/>
<rect x="202.759" y="57.9312" width="14.4828" height="14.4828" fill="#97312F"/>
<rect x="202.759" y="43.4482" width="14.4828" height="14.4828" fill="#F78F77"/>
<rect x="188.276" y="43.4482" width="14.4828" height="14.4828" fill="#F78F77"/>
<rect x="173.793" y="43.4482" width="14.4828" height="14.4828" fill="#F78F77"/>
<rect x="159.31" y="43.4482" width="14.4828" height="14.4828" fill="#F78F77"/>
<rect x="144.828" y="43.4482" width="14.4828" height="14.4828" fill="#F78F77"/>
<rect x="28.9655" y="43.4482" width="14.4828" height="14.4828" fill="#24201B"/>
<rect x="43.4483" y="43.4482" width="14.4828" height="14.4828" fill="#F78F77"/>
<rect x="28.9655" y="43.4482" width="14.4828" height="14.4828" fill="#F78F77"/>
<rect x="28.9655" y="57.9312" width="14.4828" height="14.4828" fill="#24201B"/>
<rect x="43.4483" y="57.9312" width="14.4828" height="14.4828" fill="#B94C4A"/>
<rect x="28.9655" y="57.9312" width="14.4828" height="14.4828" fill="#B94C4A"/>
<rect x="28.9655" y="57.9312" width="14.4828" height="14.4828" fill="#24201B"/>
<rect x="43.4483" y="57.9312" width="14.4828" height="14.4828" fill="#B94C4A"/>
<rect x="28.9655" y="57.9312" width="14.4828" height="14.4828" fill="#B94C4A"/>
<rect x="57.931" y="231.724" width="14.4828" height="14.4828" fill="#D24748"/>
<rect x="57.931" y="217.241" width="14.4828" height="14.4828" fill="#D24748"/>
<rect x="28.9655" y="217.241" width="14.4828" height="14.4828" fill="#D24748"/>
<rect x="260.69" y="159.311" width="14.4828" height="14.4828" fill="#D24748"/>
<rect x="260.69" y="130.345" width="14.4828" height="14.4828" fill="#D24748"/>
<rect x="289.655" y="159.311" width="14.4828" height="14.4828" fill="#85160D"/>
<rect x="289.655" y="130.345" width="14.4828" height="14.4828" fill="#85160D"/>
<rect x="275.172" y="101.379" width="14.4828" height="14.4828" fill="#85160D"/>
<rect x="260.69" y="86.8965" width="14.4828" height="14.4828" fill="#85160D"/>
<rect x="246.207" y="72.4136" width="14.4828" height="14.4828" fill="#85160D"/>
<rect x="231.724" y="57.9312" width="14.4828" height="14.4828" fill="#85160D"/>
<rect x="217.241" y="43.4482" width="14.4828" height="14.4828" fill="#85160D"/>
<rect x="144.828" y="57.9312" width="14.4828" height="14.4828" fill="#85160D"/>
<rect x="130.345" y="57.9312" width="14.4828" height="14.4828" fill="#97312F"/>
<rect x="159.31" y="57.9312" width="14.4828" height="14.4828" fill="#85160D"/>
<rect x="173.793" y="57.9312" width="14.4828" height="14.4828" fill="#85160D"/>
<rect x="173.793" y="57.9312" width="14.4828" height="14.4828" fill="#85160D"/>
<rect x="188.276" y="57.9312" width="14.4828" height="14.4828" fill="#85160D"/>
<rect x="202.759" y="72.4136" width="14.4828" height="14.4828" fill="#85160D"/>
<rect x="217.241" y="72.4136" width="14.4828" height="14.4828" fill="#85160D"/>
<rect x="217.241" y="101.379" width="14.4828" height="14.4828" fill="#85160D"/>
<rect x="231.724" y="86.8965" width="14.4828" height="14.4828" fill="#85160D"/>
<rect x="217.241" y="86.8965" width="14.4828" height="14.4828" fill="#85160D"/>
<rect x="202.759" y="101.379" width="14.4828" height="14.4828" fill="#85160D"/>
<rect x="188.276" y="115.862" width="14.4828" height="14.4828" fill="#85160D"/>
<rect x="202.759" y="115.862" width="14.4828" height="14.4828" fill="#85160D"/>
<rect x="173.793" y="115.862" width="14.4828" height="14.4828" fill="#85160D"/>
<rect x="159.31" y="115.862" width="14.4828" height="14.4828" fill="#85160D"/>
<rect x="144.828" y="115.862" width="14.4828" height="14.4828" fill="#85160D"/>
<rect x="130.345" y="115.862" width="14.4828" height="14.4828" fill="#85160D"/>
<rect x="130.345" y="101.379" width="14.4828" height="14.4828" fill="#462A2D"/>
<rect x="115.862" y="86.8965" width="14.4828" height="14.4828" fill="#85160D"/>
<rect x="130.345" y="72.4136" width="14.4828" height="14.4828" fill="#85160D"/>
<rect x="115.862" y="72.4136" width="14.4828" height="14.4828" fill="#85160D"/>
<rect x="115.862" y="101.379" width="14.4828" height="14.4828" fill="#85160D"/>
<rect x="101.379" y="86.8965" width="14.4828" height="14.4828" fill="#85160D"/>
<rect x="304.138" y="159.311" width="14.4828" height="14.4828" fill="#462A2D"/>
<rect x="304.138" y="130.345" width="14.4828" height="14.4828" fill="#692118"/>
<rect x="260.69" y="144.828" width="14.4828" height="14.4828" fill="#D24748"/>
<rect x="260.69" y="115.862" width="14.4828" height="14.4828" fill="#462A2D"/>
<rect x="289.655" y="144.828" width="14.4828" height="14.4828" fill="#85160D"/>
<rect x="289.655" y="115.862" width="14.4828" height="14.4828" fill="#692118"/>
<rect x="304.138" y="144.828" width="14.4828" height="14.4828" fill="#973631"/>
<rect x="304.138" y="115.862" width="14.4828" height="14.4828" fill="#692118"/>
<rect x="28.9655" y="275.172" width="14.4828" height="14.4828" fill="#462A2D"/>
<rect x="43.4483" y="260.689" width="14.4828" height="14.4828" fill="#462A2D"/>
<rect x="57.931" y="275.172" width="14.4828" height="14.4828" fill="#9D3129"/>
<rect x="28.9655" y="289.655" width="14.4828" height="14.4828" fill="#9D3129"/>
<rect x="43.4483" y="289.655" width="14.4828" height="14.4828" fill="#462A2D"/>
<rect x="57.931" y="289.655" width="14.4828" height="14.4828" fill="#462A2D"/>
<rect x="72.4138" y="289.655" width="14.4828" height="14.4828" fill="#9D3129"/>
<rect x="86.8965" y="289.655" width="14.4828" height="14.4828" fill="#9D3129"/>
<rect x="101.379" y="289.655" width="14.4828" height="14.4828" fill="#9D3129"/>
<rect x="115.862" y="289.655" width="14.4828" height="14.4828" fill="#9D3129"/>
<rect x="130.345" y="289.655" width="14.4828" height="14.4828" fill="#9D3129"/>
<rect x="144.828" y="289.655" width="14.4828" height="14.4828" fill="#462A2D"/>
<rect x="159.31" y="289.655" width="14.4828" height="14.4828" fill="#462A2D"/>
<rect x="173.793" y="289.655" width="14.4828" height="14.4828" fill="#9D3129"/>
<rect x="188.276" y="289.655" width="14.4828" height="14.4828" fill="#9D3129"/>
<rect x="202.759" y="289.655" width="14.4828" height="14.4828" fill="#9D3129"/>
<rect x="260.69" y="289.655" width="14.4828" height="14.4828" fill="#24201B"/>
<rect x="217.241" y="289.655" width="14.4828" height="14.4828" fill="#9D3129"/>
<rect x="275.172" y="289.655" width="14.4828" height="14.4828" fill="#692118"/>
<rect x="231.724" y="289.655" width="14.4828" height="14.4828" fill="#9D3129"/>
<rect x="289.655" y="289.655" width="14.4828" height="14.4828" fill="#692118"/>
<rect x="246.207" y="289.655" width="14.4828" height="14.4828" fill="#24201B"/>
<rect x="304.138" y="289.655" width="14.4828" height="14.4828" fill="#462A2D"/>
<rect x="318.621" y="289.655" width="14.4828" height="14.4828" fill="#24201B"/>
<rect x="43.4483" y="304.138" width="14.4828" height="14.4828" transform="rotate(90 43.4483 304.138)" fill="#24201B"/>
<rect x="202.759" y="72.4136" width="14.4828" height="14.4828" transform="rotate(90 202.759 72.4136)" fill="#24201B"/>
<rect x="217.241" y="86.8965" width="14.4828" height="14.4828" transform="rotate(90 217.241 86.8965)" fill="#24201B"/>
<rect x="188.276" y="72.4136" width="14.4828" height="14.4828" transform="rotate(90 188.276 72.4136)" fill="#24201B"/>
<rect x="173.793" y="72.4136" width="14.4828" height="14.4828" transform="rotate(90 173.793 72.4136)" fill="#24201B"/>
<rect x="159.31" y="72.4136" width="14.4828" height="14.4828" transform="rotate(90 159.31 72.4136)" fill="#24201B"/>
<rect x="144.828" y="86.8965" width="14.4828" height="14.4828" transform="rotate(90 144.828 86.8965)" fill="#462A2D"/>
<rect x="202.759" y="101.379" width="14.4828" height="14.4828" transform="rotate(90 202.759 101.379)" fill="#24201B"/>
<rect x="188.276" y="101.379" width="14.4828" height="14.4828" transform="rotate(90 188.276 101.379)" fill="#24201B"/>
<rect x="173.793" y="101.379" width="14.4828" height="14.4828" transform="rotate(90 173.793 101.379)" fill="#24201B"/>
<rect x="159.31" y="101.379" width="14.4828" height="14.4828" transform="rotate(90 159.31 101.379)" fill="#462A2D"/>
</svg>
