<svg width="420" height="343" viewBox="0 0 420 343" fill="none" xmlns="http://www.w3.org/2000/svg">
<rect x="155.556" width="15.5556" height="15.5556" fill="#938D8F"/>
<rect x="124.444" y="326.667" width="15.5556" height="15.5556" fill="#938D8F"/>
<rect x="217.778" y="295.556" width="15.5556" height="15.5556" fill="#938D8F"/>
<rect x="171.111" y="264.445" width="15.5556" height="15.5556" fill="#938D8F"/>
<rect x="93.3334" y="264.445" width="15.5556" height="15.5556" fill="#938D8F"/>
<rect x="124.444" y="280" width="15.5556" height="15.5556" fill="#938D8F"/>
<rect x="155.556" y="311.111" width="15.5556" height="15.5556" fill="#938D8F"/>
<rect x="171.111" y="295.556" width="15.5556" height="15.5556" fill="#938D8F"/>
<rect x="93.3334" y="77.7783" width="15.5556" height="15.5556" fill="#AFADAE"/>
<rect x="108.889" width="15.5556" height="15.5556" fill="#938D8F"/>
<rect x="124.444" width="15.5556" height="15.5556" fill="#938D8F"/>
<rect x="140" width="15.5556" height="15.5556" fill="#938D8F"/>
<rect x="326.667" y="62.2222" width="15.5556" height="15.5556" fill="#938D8F"/>
<rect x="280" y="62.2222" width="15.5556" height="15.5556" fill="#938D8F"/>
<rect x="264.444" y="62.2222" width="15.5556" height="15.5556" fill="#938D8F"/>
<rect x="295.556" y="62.2222" width="15.5556" height="15.5556" fill="#938D8F"/>
<rect x="311.111" y="62.2222" width="15.5556" height="15.5556" fill="#938D8F"/>
<rect x="93.3334" y="15.5557" width="15.5556" height="15.5556" fill="#938D8F"/>
<rect x="93.3334" y="31.1113" width="15.5556" height="15.5556" fill="#938D8F"/>
<rect x="93.3334" y="62.2222" width="15.5556" height="15.5556" fill="#938D8F"/>
<rect x="77.7778" y="62.2222" width="15.5556" height="15.5556" fill="#938D8F"/>
<rect x="77.7778" y="77.7783" width="15.5556" height="15.5556" fill="#938D8F"/>
<rect x="93.3334" y="46.667" width="15.5556" height="15.5556" fill="#938D8F"/>
<rect x="77.7778" y="46.667" width="15.5556" height="15.5556" fill="#938D8F"/>
<rect x="108.889" y="15.5557" width="15.5556" height="15.5556" fill="#938D8F"/>
<rect x="62.2222" y="77.7783" width="15.5556" height="15.5556" fill="#938D8F"/>
<rect x="46.6666" y="77.7783" width="15.5556" height="15.5556" fill="#938D8F"/>
<rect x="46.6666" y="93.3335" width="15.5556" height="15.5556" fill="#938D8F"/>
<rect x="31.1111" y="93.3335" width="15.5556" height="15.5556" fill="#938D8F"/>
<rect x="31.1111" y="108.889" width="15.5556" height="15.5556" fill="#938D8F"/>
<rect x="31.1111" y="124.444" width="15.5556" height="15.5556" fill="#938D8F"/>
<rect x="15.5555" y="124.444" width="15.5556" height="15.5556" fill="#938D8F"/>
<rect x="15.5555" y="140" width="15.5556" height="15.5556" fill="#938D8F"/>
<rect y="202.223" width="15.5556" height="15.5556" fill="#938D8F"/>
<rect y="217.778" width="15.5556" height="15.5556" fill="#938D8F"/>
<rect x="15.5555" y="217.778" width="15.5556" height="15.5556" fill="#938D8F"/>
<rect x="15.5555" y="233.333" width="15.5556" height="15.5556" fill="#938D8F"/>
<rect x="62.2222" y="233.333" width="15.5556" height="15.5556" transform="rotate(90 62.2222 233.333)" fill="#938D8F"/>
<rect x="46.6666" y="233.333" width="15.5556" height="15.5556" transform="rotate(90 46.6666 233.333)" fill="#938D8F"/>
<rect x="77.7778" y="280" width="15.5556" height="15.5556" fill="#938D8F"/>
<rect x="77.7778" y="295.556" width="15.5556" height="15.5556" fill="#938D8F"/>
<rect x="108.889" y="295.556" width="15.5556" height="15.5556" transform="rotate(90 108.889 295.556)" fill="#938D8F"/>
<rect x="31.1111" y="155.556" width="15.5556" height="15.5556" fill="#938D8F"/>
<rect x="46.6666" y="155.556" width="15.5556" height="15.5556" fill="#938D8F"/>
<rect x="46.6666" y="171.111" width="15.5556" height="15.5556" fill="#938D8F"/>
<rect x="62.2222" y="171.111" width="15.5556" height="15.5556" fill="#938D8F"/>
<rect x="46.6666" y="186.667" width="15.5556" height="15.5556" fill="#938D8F"/>
<rect x="31.1111" y="186.667" width="15.5556" height="15.5556" fill="#938D8F"/>
<rect x="15.5555" y="186.667" width="15.5556" height="15.5556" fill="#938D8F"/>
<rect x="93.3334" y="186.667" width="15.5556" height="15.5556" fill="#938D8F"/>
<rect x="77.7778" y="186.667" width="15.5556" height="15.5556" fill="#938D8F"/>
<rect x="62.2222" y="186.667" width="15.5556" height="15.5556" fill="#938D8F"/>
<rect x="124.444" y="186.667" width="15.5556" height="15.5556" fill="#938D8F"/>
<rect x="108.889" y="186.667" width="15.5556" height="15.5556" fill="#938D8F"/>
<rect x="124.444" y="248.889" width="15.5556" height="15.5556" fill="#938D8F"/>
<rect x="155.556" y="248.889" width="15.5556" height="15.5556" fill="#938D8F"/>
<rect x="140" y="248.889" width="15.5556" height="15.5556" fill="#938D8F"/>
<rect x="140" y="311.111" width="15.5556" height="15.5556" fill="#938D8F"/>
<rect x="124.444" y="311.111" width="15.5556" height="15.5556" fill="#938D8F"/>
<rect x="217.778" y="326.667" width="15.5556" height="15.5556" fill="#938D8F"/>
<rect x="171.111" y="311.111" width="15.5556" height="15.5556" fill="#938D8F"/>
<rect x="233.333" y="311.111" width="15.5556" height="15.5556" fill="#938D8F"/>
<rect x="217.778" y="311.111" width="15.5556" height="15.5556" fill="#938D8F"/>
<rect x="202.222" y="311.111" width="15.5556" height="15.5556" fill="#938D8F"/>
<rect x="248.889" y="311.111" width="15.5556" height="15.5556" fill="#938D8F"/>
<rect x="171.111" y="77.7783" width="15.5556" height="15.5556" fill="#AFADAE"/>
<rect x="217.778" y="77.7783" width="15.5556" height="15.5556" fill="#AFADAE"/>
<rect x="202.222" y="77.7783" width="15.5556" height="15.5556" fill="#AFADAE"/>
<rect x="186.667" y="77.7783" width="15.5556" height="15.5556" fill="#AFADAE"/>
<rect x="248.889" y="77.7783" width="15.5556" height="15.5556" fill="#AFADAE"/>
<rect x="233.333" y="77.7783" width="15.5556" height="15.5556" fill="#AFADAE"/>
<rect x="217.778" y="93.3335" width="15.5556" height="15.5556" fill="#AFADAE"/>
<rect x="248.889" y="93.3335" width="15.5556" height="15.5556" fill="#CCCCCC"/>
<rect x="233.333" y="93.3335" width="15.5556" height="15.5556" fill="#CCCCCC"/>
<rect x="171.111" y="15.5557" width="15.5556" height="15.5556" fill="#938D8F"/>
<rect x="171.111" y="46.667" width="15.5556" height="15.5556" fill="#938D8F"/>
<rect x="171.111" y="31.1113" width="15.5556" height="15.5556" fill="#938D8F"/>
<rect x="186.667" y="264.445" width="15.5556" height="15.5556" fill="#938D8F"/>
<rect x="186.667" y="295.556" width="15.5556" height="15.5556" fill="#938D8F"/>
<rect x="186.667" y="280" width="15.5556" height="15.5556" fill="#938D8F"/>
<rect x="233.333" y="264.445" width="15.5556" height="15.5556" fill="#CCCCCC"/>
<rect x="233.333" y="295.556" width="15.5556" height="15.5556" fill="#AFADAE"/>
<rect x="233.333" y="280" width="15.5556" height="15.5556" fill="#938D8F"/>
<rect x="280" y="280" width="15.5556" height="15.5556" fill="#938D8F"/>
<rect x="280" y="311.111" width="15.5556" height="15.5556" fill="#938D8F"/>
<rect x="280" y="295.556" width="15.5556" height="15.5556" fill="#938D8F"/>
<rect x="357.778" y="280" width="15.5556" height="15.5556" fill="#938D8F"/>
<rect x="342.222" y="280" width="15.5556" height="15.5556" fill="#938D8F"/>
<rect x="357.778" y="311.111" width="15.5556" height="15.5556" fill="#938D8F"/>
<rect x="357.778" y="295.556" width="15.5556" height="15.5556" fill="#938D8F"/>
<rect x="342.222" y="233.333" width="15.5556" height="15.5556" fill="#938D8F"/>
<rect x="342.222" y="264.445" width="15.5556" height="15.5556" fill="#938D8F"/>
<rect x="342.222" y="248.889" width="15.5556" height="15.5556" fill="#938D8F"/>
<rect x="388.889" y="186.667" width="15.5556" height="15.5556" fill="#938D8F"/>
<rect x="388.889" y="217.778" width="15.5556" height="15.5556" fill="#938D8F"/>
<rect x="388.889" y="202.223" width="15.5556" height="15.5556" fill="#938D8F"/>
<rect x="373.333" y="171.111" width="15.5556" height="15.5556" fill="#938D8F"/>
<rect x="373.333" y="202.223" width="15.5556" height="15.5556" fill="#938D8F"/>
<rect x="373.333" y="186.667" width="15.5556" height="15.5556" fill="#938D8F"/>
<rect x="357.778" y="248.889" width="15.5556" height="15.5556" fill="#938D8F"/>
<rect x="373.333" y="233.333" width="15.5556" height="15.5556" fill="#938D8F"/>
<rect x="248.889" y="264.445" width="15.5556" height="15.5556" fill="#938D8F"/>
<rect x="264.444" y="264.445" width="15.5556" height="15.5556" fill="#938D8F"/>
<rect x="311.111" y="326.667" width="15.5556" height="15.5556" fill="#938D8F"/>
<rect x="326.667" y="326.667" width="15.5556" height="15.5556" fill="#938D8F"/>
<rect x="342.222" y="326.667" width="15.5556" height="15.5556" fill="#938D8F"/>
<rect x="357.778" y="326.667" width="15.5556" height="15.5556" fill="#938D8F"/>
<rect x="357.778" y="124.444" width="15.5556" height="15.5556" fill="#938D8F"/>
<rect x="373.333" y="124.444" width="15.5556" height="15.5556" fill="#938D8F"/>
<rect x="373.333" y="108.889" width="15.5556" height="15.5556" fill="#938D8F"/>
<rect x="373.333" y="77.7783" width="15.5556" height="15.5556" fill="#938D8F"/>
<rect x="388.889" y="124.444" width="15.5556" height="15.5556" fill="#938D8F"/>
<rect x="388.889" y="140" width="15.5556" height="15.5556" fill="#938D8F"/>
<rect x="404.444" y="155.556" width="15.5556" height="15.5556" fill="#938D8F"/>
<rect x="404.444" y="171.111" width="15.5556" height="15.5556" fill="#938D8F"/>
<rect x="357.778" y="155.556" width="15.5556" height="15.5556" fill="#938D8F"/>
<rect x="357.778" y="140" width="15.5556" height="15.5556" fill="#938D8F"/>
<rect x="342.222" y="140" width="15.5556" height="15.5556" fill="#938D8F"/>
<rect x="326.667" y="124.444" width="15.5556" height="15.5556" fill="#938D8F"/>
<rect x="357.778" y="171.111" width="15.5556" height="15.5556" fill="#938D8F"/>
<rect x="264.444" y="280" width="15.5556" height="15.5556" fill="#938D8F"/>
<rect x="295.556" y="326.667" width="15.5556" height="15.5556" fill="#938D8F"/>
<rect x="248.889" y="295.556" width="15.5556" height="15.5556" fill="#938D8F"/>
<rect x="248.889" y="280" width="15.5556" height="15.5556" fill="#938D8F"/>
<rect x="186.667" y="46.667" width="15.5556" height="15.5556" fill="#938D8F"/>
<rect x="186.667" y="31.1113" width="15.5556" height="15.5556" fill="#938D8F"/>
<rect x="217.778" y="62.2222" width="15.5556" height="15.5556" transform="rotate(-90 217.778 62.2222)" fill="#938D8F"/>
<rect x="202.222" y="62.2222" width="15.5556" height="15.5556" transform="rotate(-90 202.222 62.2222)" fill="#938D8F"/>
<rect x="217.778" y="62.2222" width="15.5556" height="15.5556" fill="#938D8F"/>
<rect x="342.222" y="93.3335" width="15.5556" height="15.5556" fill="#938D8F"/>
<rect x="342.222" y="77.7783" width="15.5556" height="15.5556" fill="#938D8F"/>
<rect x="186.667" y="62.2222" width="15.5556" height="15.5556" fill="#CCCCCC"/>
<rect x="202.222" y="62.2222" width="15.5556" height="15.5556" fill="#CCCCCC"/>
<rect x="108.889" y="31.1113" width="15.5556" height="15.5556" fill="#AFADAE"/>
<rect x="140" y="31.1113" width="15.5556" height="15.5556" fill="#AFADAE"/>
<rect x="124.444" y="31.1113" width="15.5556" height="15.5556" fill="#AFADAE"/>
<rect x="108.889" y="46.667" width="15.5556" height="15.5556" fill="#AFADAE"/>
<rect x="140" y="46.667" width="15.5556" height="15.5556" fill="#AFADAE"/>
<rect x="124.444" y="46.667" width="15.5556" height="15.5556" fill="#938D8F"/>
<rect x="124.444" y="15.5557" width="15.5556" height="15.5556" fill="#AFADAE"/>
<rect x="140" y="15.5557" width="15.5556" height="15.5556" fill="#AFADAE"/>
<rect x="108.889" y="62.2222" width="15.5556" height="15.5556" fill="#AFADAE"/>
<rect x="171.111" y="62.2222" width="15.5556" height="15.5556" fill="#AFADAE"/>
<rect x="140" y="62.2222" width="15.5556" height="15.5556" fill="#AFADAE"/>
<rect x="155.556" y="31.1113" width="15.5556" height="15.5556" fill="#AFADAE"/>
<rect x="155.556" y="46.667" width="15.5556" height="15.5556" fill="#AFADAE"/>
<rect x="155.556" y="15.5557" width="15.5556" height="15.5556" fill="#AFADAE"/>
<rect x="155.556" y="62.2222" width="15.5556" height="15.5556" fill="#AFADAE"/>
<rect x="124.444" y="62.2222" width="15.5556" height="15.5556" fill="#AFADAE"/>
<rect x="202.222" y="62.2222" width="15.5556" height="15.5556" fill="#CCCCCC"/>
<rect x="186.667" y="62.2222" width="15.5556" height="15.5556" fill="#CCCCCC"/>
<rect x="124.444" y="93.3335" width="15.5556" height="15.5556" transform="rotate(-90 124.444 93.3335)" fill="#AFADAE"/>
<rect x="140" y="93.3335" width="15.5556" height="15.5556" transform="rotate(-90 140 93.3335)" fill="#AFADAE"/>
<rect x="108.889" y="93.3335" width="15.5556" height="15.5556" transform="rotate(-90 108.889 93.3335)" fill="#AFADAE"/>
<rect x="155.556" y="93.3335" width="15.5556" height="15.5556" transform="rotate(-90 155.556 93.3335)" fill="#CCCCCC"/>
<rect x="124.444" y="93.3335" width="15.5556" height="15.5556" fill="#AFADAE"/>
<rect x="171.111" y="93.3335" width="15.5556" height="15.5556" fill="#AFADAE"/>
<rect x="155.556" y="93.3335" width="15.5556" height="15.5556" fill="#938D8F"/>
<rect x="140" y="93.3335" width="15.5556" height="15.5556" fill="#AFADAE"/>
<rect x="202.222" y="93.3335" width="15.5556" height="15.5556" fill="#AFADAE"/>
<rect x="186.667" y="93.3335" width="15.5556" height="15.5556" fill="#AFADAE"/>
<rect x="295.556" y="77.7783" width="15.5556" height="15.5556" fill="#AFADAE"/>
<rect x="280" y="77.7783" width="15.5556" height="15.5556" fill="#CCCCCC"/>
<rect x="264.444" y="77.7783" width="15.5556" height="15.5556" fill="#CCCCCC"/>
<rect x="326.667" y="77.7783" width="15.5556" height="15.5556" fill="#AFADAE"/>
<rect x="311.111" y="77.7783" width="15.5556" height="15.5556" fill="#AFADAE"/>
<rect x="295.556" y="93.3335" width="15.5556" height="15.5556" fill="#CCCCCC"/>
<rect x="326.667" y="93.3335" width="15.5556" height="15.5556" fill="#AFADAE"/>
<rect x="311.111" y="93.3335" width="15.5556" height="15.5556" fill="#AFADAE"/>
<rect x="295.556" y="108.889" width="15.5556" height="15.5556" fill="#CCCCCC"/>
<rect x="311.111" y="108.889" width="15.5556" height="15.5556" fill="#CCCCCC"/>
<rect x="295.556" y="124.444" width="15.5556" height="15.5556" fill="#AFADAE"/>
<rect x="311.111" y="124.444" width="15.5556" height="15.5556" fill="#AFADAE"/>
<rect x="280" y="93.3335" width="15.5556" height="15.5556" fill="#CCCCCC"/>
<rect x="264.444" y="93.3335" width="15.5556" height="15.5556" fill="#AFADAE"/>
<rect x="77.7778" y="108.889" width="15.5556" height="15.5556" transform="rotate(-90 77.7778 108.889)" fill="#CCCCCC"/>
<rect x="93.3334" y="108.889" width="15.5556" height="15.5556" transform="rotate(-90 93.3334 108.889)" fill="#CCCCCC"/>
<rect x="62.2222" y="108.889" width="15.5556" height="15.5556" transform="rotate(-90 62.2222 108.889)" fill="#AFADAE"/>
<rect x="108.889" y="108.889" width="15.5556" height="15.5556" transform="rotate(-90 108.889 108.889)" fill="#938D8F"/>
<rect x="108.889" y="108.889" width="15.5556" height="15.5556" fill="#CCCCCC"/>
<rect x="155.556" y="108.889" width="15.5556" height="15.5556" fill="#AFADAE"/>
<rect x="140" y="108.889" width="15.5556" height="15.5556" fill="#AFADAE"/>
<rect x="124.444" y="108.889" width="15.5556" height="15.5556" fill="#AFADAE"/>
<rect x="186.667" y="108.889" width="15.5556" height="15.5556" fill="#CCCCCC"/>
<rect x="171.111" y="108.889" width="15.5556" height="15.5556" fill="#938D8F"/>
<rect x="62.2222" y="124.444" width="15.5556" height="15.5556" transform="rotate(-90 62.2222 124.444)" fill="#AFADAE"/>
<rect x="77.7778" y="124.444" width="15.5556" height="15.5556" transform="rotate(-90 77.7778 124.444)" fill="#AFADAE"/>
<rect x="46.6666" y="124.444" width="15.5556" height="15.5556" transform="rotate(-90 46.6666 124.444)" fill="#AFADAE"/>
<rect x="93.3334" y="124.444" width="15.5556" height="15.5556" transform="rotate(-90 93.3334 124.444)" fill="#CCCCCC"/>
<rect x="108.889" y="124.444" width="15.5556" height="15.5556" fill="#AFADAE"/>
<rect x="155.556" y="124.444" width="15.5556" height="15.5556" fill="#AFADAE"/>
<rect x="140" y="124.444" width="15.5556" height="15.5556" fill="#AFADAE"/>
<rect x="124.444" y="124.444" width="15.5556" height="15.5556" fill="#AFADAE"/>
<rect x="186.667" y="124.444" width="15.5556" height="15.5556" fill="#938D8F"/>
<rect x="171.111" y="124.444" width="15.5556" height="15.5556" fill="#CCCCCC"/>
<rect x="62.2222" y="140" width="15.5556" height="15.5556" transform="rotate(-90 62.2222 140)" fill="#AFADAE"/>
<rect x="77.7778" y="140" width="15.5556" height="15.5556" transform="rotate(-90 77.7778 140)" fill="#AFADAE"/>
<rect x="46.6666" y="140" width="15.5556" height="15.5556" transform="rotate(-90 46.6666 140)" fill="#AFADAE"/>
<rect x="93.3334" y="140" width="15.5556" height="15.5556" transform="rotate(-90 93.3334 140)" fill="#AFADAE"/>
<rect x="93.3334" y="140" width="15.5556" height="15.5556" fill="#938D8F"/>
<rect x="140" y="140" width="15.5556" height="15.5556" fill="#AFADAE"/>
<rect x="124.444" y="140" width="15.5556" height="15.5556" fill="#AFADAE"/>
<rect x="108.889" y="140" width="15.5556" height="15.5556" fill="#938D8F"/>
<rect x="171.111" y="140" width="15.5556" height="15.5556" fill="#CCCCCC"/>
<rect x="186.667" y="140" width="15.5556" height="15.5556" fill="#CCCCCC"/>
<rect x="155.556" y="140" width="15.5556" height="15.5556" fill="#AFADAE"/>
<rect x="46.6666" y="155.556" width="15.5556" height="15.5556" transform="rotate(-90 46.6666 155.556)" fill="#AFADAE"/>
<rect x="62.2222" y="155.556" width="15.5556" height="15.5556" transform="rotate(-90 62.2222 155.556)" fill="#AFADAE"/>
<rect x="31.1111" y="155.556" width="15.5556" height="15.5556" transform="rotate(-90 31.1111 155.556)" fill="#AFADAE"/>
<rect x="77.7778" y="155.556" width="15.5556" height="15.5556" transform="rotate(-90 77.7778 155.556)" fill="#938D8F"/>
<rect x="124.444" y="155.556" width="15.5556" height="15.5556" fill="#AFADAE"/>
<rect x="171.111" y="155.556" width="15.5556" height="15.5556" fill="#AFADAE"/>
<rect x="155.556" y="155.556" width="15.5556" height="15.5556" fill="#938D8F"/>
<rect x="140" y="155.556" width="15.5556" height="15.5556" fill="#938D8F"/>
<rect x="202.222" y="155.556" width="15.5556" height="15.5556" fill="#CCCCCC"/>
<rect x="186.667" y="155.556" width="15.5556" height="15.5556" fill="#CCCCCC"/>
<rect x="77.7778" y="171.111" width="15.5556" height="15.5556" transform="rotate(-90 77.7778 171.111)" fill="#938D8F"/>
<rect x="93.3334" y="171.111" width="15.5556" height="15.5556" transform="rotate(-90 93.3334 171.111)" fill="#938D8F"/>
<rect x="62.2222" y="171.111" width="15.5556" height="15.5556" transform="rotate(-90 62.2222 171.111)" fill="#AFADAE"/>
<rect x="108.889" y="171.111" width="15.5556" height="15.5556" transform="rotate(-90 108.889 171.111)" fill="#AFADAE"/>
<rect x="140" y="171.111" width="15.5556" height="15.5556" fill="#938D8F"/>
<rect x="186.667" y="171.111" width="15.5556" height="15.5556" fill="#938D8F"/>
<rect x="171.111" y="171.111" width="15.5556" height="15.5556" fill="#938D8F"/>
<rect x="155.556" y="171.111" width="15.5556" height="15.5556" fill="#AFADAE"/>
<rect x="217.778" y="171.111" width="15.5556" height="15.5556" fill="#AFADAE"/>
<rect x="202.222" y="171.111" width="15.5556" height="15.5556" fill="#AFADAE"/>
<rect x="248.889" y="108.889" width="15.5556" height="15.5556" fill="#AFADAE"/>
<rect x="233.333" y="108.889" width="15.5556" height="15.5556" fill="#CCCCCC"/>
<rect x="280" y="108.889" width="15.5556" height="15.5556" fill="#AFADAE"/>
<rect x="264.444" y="108.889" width="15.5556" height="15.5556" fill="#AFADAE"/>
<rect x="248.889" y="124.444" width="15.5556" height="15.5556" fill="#AFADAE"/>
<rect x="233.333" y="124.444" width="15.5556" height="15.5556" fill="#AFADAE"/>
<rect x="280" y="124.444" width="15.5556" height="15.5556" fill="#AFADAE"/>
<rect x="264.444" y="124.444" width="15.5556" height="15.5556" fill="#AFADAE"/>
<rect x="233.333" y="140" width="15.5556" height="15.5556" fill="#938D8F"/>
<rect x="264.444" y="140" width="15.5556" height="15.5556" fill="#938D8F"/>
<rect x="248.889" y="140" width="15.5556" height="15.5556" fill="#938D8F"/>
<rect x="217.778" y="108.889" width="15.5556" height="15.5556" fill="#AFADAE"/>
<rect x="202.222" y="108.889" width="15.5556" height="15.5556" fill="#CCCCCC"/>
<rect x="217.778" y="124.444" width="15.5556" height="15.5556" fill="#CCCCCC"/>
<rect x="202.222" y="124.444" width="15.5556" height="15.5556" fill="#AFADAE"/>
<rect x="202.222" y="140" width="15.5556" height="15.5556" fill="#938D8F"/>
<rect x="217.778" y="140" width="15.5556" height="15.5556" fill="#938D8F"/>
<rect x="295.556" y="140" width="15.5556" height="15.5556" fill="#AFADAE"/>
<rect x="326.667" y="140" width="15.5556" height="15.5556" fill="#AFADAE"/>
<rect x="311.111" y="140" width="15.5556" height="15.5556" fill="#AFADAE"/>
<rect x="280" y="140" width="15.5556" height="15.5556" fill="#AFADAE"/>
<rect x="264.444" y="155.556" width="15.5556" height="15.5556" fill="#AFADAE"/>
<rect x="248.889" y="155.556" width="15.5556" height="15.5556" fill="#938D8F"/>
<rect x="233.333" y="155.556" width="15.5556" height="15.5556" fill="#AFADAE"/>
<rect x="217.778" y="155.556" width="15.5556" height="15.5556" fill="#AFADAE"/>
<rect x="295.556" y="155.556" width="15.5556" height="15.5556" fill="#CCCCCC"/>
<rect x="280" y="155.556" width="15.5556" height="15.5556" fill="#CCCCCC"/>
<rect x="311.111" y="155.556" width="15.5556" height="15.5556" fill="#CCCCCC"/>
<rect x="342.222" y="155.556" width="15.5556" height="15.5556" fill="#AFADAE"/>
<rect x="326.667" y="155.556" width="15.5556" height="15.5556" fill="#CCCCCC"/>
<rect x="342.222" y="171.111" width="15.5556" height="15.5556" fill="#AFADAE"/>
<rect x="326.667" y="171.111" width="15.5556" height="15.5556" fill="#CCCCCC"/>
<rect x="233.333" y="171.111" width="15.5556" height="15.5556" fill="#AFADAE"/>
<rect x="280" y="171.111" width="15.5556" height="15.5556" fill="#AFADAE"/>
<rect x="264.444" y="171.111" width="15.5556" height="15.5556" fill="#AFADAE"/>
<rect x="248.889" y="171.111" width="15.5556" height="15.5556" fill="#938D8F"/>
<rect x="155.556" y="186.667" width="15.5556" height="15.5556" fill="#CCCCCC"/>
<rect x="140" y="186.667" width="15.5556" height="15.5556" fill="#938D8F"/>
<rect x="186.667" y="186.667" width="15.5556" height="15.5556" fill="#AFADAE"/>
<rect x="171.111" y="186.667" width="15.5556" height="15.5556" fill="#CCCCCC"/>
<rect x="140" y="202.223" width="15.5556" height="15.5556" fill="#AFADAE"/>
<rect x="171.111" y="202.223" width="15.5556" height="15.5556" fill="#AFADAE"/>
<rect x="186.667" y="202.223" width="15.5556" height="15.5556" fill="#AFADAE"/>
<rect x="155.556" y="202.223" width="15.5556" height="15.5556" fill="#AFADAE"/>
<rect x="171.111" y="217.778" width="15.5556" height="15.5556" fill="#AFADAE"/>
<rect x="155.556" y="217.778" width="15.5556" height="15.5556" fill="#AFADAE"/>
<rect x="140" y="217.778" width="15.5556" height="15.5556" fill="#AFADAE"/>
<rect x="202.222" y="217.778" width="15.5556" height="15.5556" fill="#AFADAE"/>
<rect x="186.667" y="217.778" width="15.5556" height="15.5556" fill="#AFADAE"/>
<rect x="140" y="233.333" width="15.5556" height="15.5556" fill="#AFADAE"/>
<rect x="186.667" y="233.333" width="15.5556" height="15.5556" fill="#CCCCCC"/>
<rect x="171.111" y="233.333" width="15.5556" height="15.5556" fill="#AFADAE"/>
<rect x="155.556" y="233.333" width="15.5556" height="15.5556" fill="#AFADAE"/>
<rect x="77.7778" y="202.223" width="15.5556" height="15.5556" fill="#AFADAE"/>
<rect x="108.889" y="202.223" width="15.5556" height="15.5556" fill="#938D8F"/>
<rect x="124.444" y="202.223" width="15.5556" height="15.5556" fill="#AFADAE"/>
<rect x="93.3334" y="202.223" width="15.5556" height="15.5556" fill="#AFADAE"/>
<rect x="15.5555" y="202.223" width="15.5556" height="15.5556" fill="#AFADAE"/>
<rect x="46.6666" y="202.223" width="15.5556" height="15.5556" fill="#AFADAE"/>
<rect x="62.2222" y="202.223" width="15.5556" height="15.5556" fill="#CCCCCC"/>
<rect x="31.1111" y="202.223" width="15.5556" height="15.5556" fill="#AFADAE"/>
<rect x="46.6666" y="217.778" width="15.5556" height="15.5556" fill="#AFADAE"/>
<rect x="62.2222" y="217.778" width="15.5556" height="15.5556" fill="#AFADAE"/>
<rect x="31.1111" y="217.778" width="15.5556" height="15.5556" fill="#AFADAE"/>
<rect x="108.889" y="217.778" width="15.5556" height="15.5556" fill="#CCCCCC"/>
<rect x="93.3334" y="217.778" width="15.5556" height="15.5556" fill="#CCCCCC"/>
<rect x="77.7778" y="217.778" width="15.5556" height="15.5556" fill="#AFADAE"/>
<rect x="124.444" y="217.778" width="15.5556" height="15.5556" fill="#AFADAE"/>
<rect x="77.7778" y="233.333" width="15.5556" height="15.5556" fill="#AFADAE"/>
<rect x="124.444" y="233.333" width="15.5556" height="15.5556" fill="#AFADAE"/>
<rect x="108.889" y="233.333" width="15.5556" height="15.5556" fill="#AFADAE"/>
<rect x="93.3334" y="233.333" width="15.5556" height="15.5556" fill="#AFADAE"/>
<rect x="124.444" y="264.445" width="15.5556" height="15.5556" fill="#AFADAE"/>
<rect x="155.556" y="264.445" width="15.5556" height="15.5556" fill="#AFADAE"/>
<rect x="140" y="264.445" width="15.5556" height="15.5556" fill="#AFADAE"/>
<rect x="140" y="280" width="15.5556" height="15.5556" fill="#AFADAE"/>
<rect x="171.111" y="280" width="15.5556" height="15.5556" fill="#AFADAE"/>
<rect x="155.556" y="280" width="15.5556" height="15.5556" fill="#AFADAE"/>
<rect x="124.444" y="295.556" width="15.5556" height="15.5556" fill="#AFADAE"/>
<rect x="155.556" y="295.556" width="15.5556" height="15.5556" fill="#AFADAE"/>
<rect x="140" y="295.556" width="15.5556" height="15.5556" fill="#CCCCCC"/>
<rect x="77.7778" y="248.889" width="15.5556" height="15.5556" fill="#AFADAE"/>
<rect x="77.7778" y="264.445" width="15.5556" height="15.5556" fill="#AFADAE"/>
<rect x="108.889" y="248.889" width="15.5556" height="15.5556" fill="#AFADAE"/>
<rect x="108.889" y="264.445" width="15.5556" height="15.5556" fill="#AFADAE"/>
<rect x="108.889" y="280" width="15.5556" height="15.5556" fill="#AFADAE"/>
<rect x="93.3334" y="280" width="15.5556" height="15.5556" fill="#AFADAE"/>
<rect x="108.889" y="295.556" width="15.5556" height="15.5556" fill="#AFADAE"/>
<rect x="93.3334" y="248.889" width="15.5556" height="15.5556" fill="#AFADAE"/>
<rect x="217.778" y="233.333" width="15.5556" height="15.5556" fill="#AFADAE"/>
<rect x="202.222" y="233.333" width="15.5556" height="15.5556" fill="#CCCCCC"/>
<rect x="186.667" y="248.889" width="15.5556" height="15.5556" fill="#CCCCCC"/>
<rect x="171.111" y="248.889" width="15.5556" height="15.5556" fill="#CCCCCC"/>
<rect x="217.778" y="248.889" width="15.5556" height="15.5556" fill="#AFADAE"/>
<rect x="202.222" y="248.889" width="15.5556" height="15.5556" fill="#AFADAE"/>
<rect x="217.778" y="264.445" width="15.5556" height="15.5556" fill="#AFADAE"/>
<rect x="202.222" y="264.445" width="15.5556" height="15.5556" fill="#AFADAE"/>
<rect x="217.778" y="280" width="15.5556" height="15.5556" fill="#AFADAE"/>
<rect x="202.222" y="280" width="15.5556" height="15.5556" fill="#CCCCCC"/>
<rect x="202.222" y="295.556" width="15.5556" height="15.5556" fill="#CCCCCC"/>
<rect x="248.889" y="186.667" width="15.5556" height="15.5556" fill="#AFADAE"/>
<rect x="233.333" y="186.667" width="15.5556" height="15.5556" fill="#AFADAE"/>
<rect x="264.444" y="186.667" width="15.5556" height="15.5556" fill="#AFADAE"/>
<rect x="233.333" y="202.223" width="15.5556" height="15.5556" fill="#AFADAE"/>
<rect x="264.444" y="202.223" width="15.5556" height="15.5556" fill="#938D8F"/>
<rect x="248.889" y="202.223" width="15.5556" height="15.5556" fill="#AFADAE"/>
<rect x="217.778" y="186.667" width="15.5556" height="15.5556" fill="#AFADAE"/>
<rect x="202.222" y="186.667" width="15.5556" height="15.5556" fill="#938D8F"/>
<rect x="202.222" y="202.223" width="15.5556" height="15.5556" fill="#938D8F"/>
<rect x="217.778" y="202.223" width="15.5556" height="15.5556" fill="#938D8F"/>
<rect x="264.444" y="217.778" width="15.5556" height="15.5556" fill="#AFADAE"/>
<rect x="248.889" y="217.778" width="15.5556" height="15.5556" fill="#938D8F"/>
<rect x="233.333" y="217.778" width="15.5556" height="15.5556" fill="#AFADAE"/>
<rect x="217.778" y="217.778" width="15.5556" height="15.5556" fill="#AFADAE"/>
<rect x="233.333" y="233.333" width="15.5556" height="15.5556" fill="#AFADAE"/>
<rect x="264.444" y="233.333" width="15.5556" height="15.5556" fill="#AFADAE"/>
<rect x="248.889" y="233.333" width="15.5556" height="15.5556" fill="#938D8F"/>
<rect x="233.333" y="248.889" width="15.5556" height="15.5556" fill="#AFADAE"/>
<rect x="264.444" y="248.889" width="15.5556" height="15.5556" fill="#AFADAE"/>
<rect x="248.889" y="248.889" width="15.5556" height="15.5556" fill="#AFADAE"/>
<rect x="233.333" y="248.889" width="15.5556" height="15.5556" fill="#AFADAE"/>
<rect x="264.444" y="248.889" width="15.5556" height="15.5556" fill="#AFADAE"/>
<rect x="248.889" y="248.889" width="15.5556" height="15.5556" fill="#938D8F"/>
<rect x="280" y="233.333" width="15.5556" height="15.5556" fill="#938D8F"/>
<rect x="311.111" y="186.667" width="15.5556" height="15.5556" fill="#AFADAE"/>
<rect x="295.556" y="186.667" width="15.5556" height="15.5556" fill="#AFADAE"/>
<rect x="326.667" y="186.667" width="15.5556" height="15.5556" fill="#AFADAE"/>
<rect x="295.556" y="202.223" width="15.5556" height="15.5556" fill="#AFADAE"/>
<rect x="326.667" y="202.223" width="15.5556" height="15.5556" fill="#AFADAE"/>
<rect x="311.111" y="202.223" width="15.5556" height="15.5556" fill="#AFADAE"/>
<rect x="280" y="186.667" width="15.5556" height="15.5556" fill="#CCCCCC"/>
<rect x="280" y="202.223" width="15.5556" height="15.5556" fill="#AFADAE"/>
<rect x="326.667" y="217.778" width="15.5556" height="15.5556" fill="#AFADAE"/>
<rect x="311.111" y="217.778" width="15.5556" height="15.5556" fill="#AFADAE"/>
<rect x="295.556" y="217.778" width="15.5556" height="15.5556" fill="#AFADAE"/>
<rect x="311.111" y="186.667" width="15.5556" height="15.5556" fill="#CCCCCC"/>
<rect x="295.556" y="186.667" width="15.5556" height="15.5556" fill="#AFADAE"/>
<rect x="326.667" y="186.667" width="15.5556" height="15.5556" fill="#CCCCCC"/>
<rect x="295.556" y="186.667" width="15.5556" height="15.5556" fill="#CCCCCC"/>
<rect x="326.667" y="202.223" width="15.5556" height="15.5556" fill="#CCCCCC"/>
<rect x="311.111" y="202.223" width="15.5556" height="15.5556" fill="#AFADAE"/>
<rect x="326.667" y="217.778" width="15.5556" height="15.5556" fill="#AFADAE"/>
<rect x="311.111" y="217.778" width="15.5556" height="15.5556" fill="#AFADAE"/>
<rect x="342.222" y="186.667" width="15.5556" height="15.5556" fill="#AFADAE"/>
<rect x="357.778" y="186.667" width="15.5556" height="15.5556" fill="#AFADAE"/>
<rect x="357.778" y="202.223" width="15.5556" height="15.5556" fill="#AFADAE"/>
<rect x="342.222" y="202.223" width="15.5556" height="15.5556" fill="#AFADAE"/>
<rect x="357.778" y="217.778" width="15.5556" height="15.5556" fill="#AFADAE"/>
<rect x="342.222" y="217.778" width="15.5556" height="15.5556" fill="#AFADAE"/>
<rect x="342.222" y="186.667" width="15.5556" height="15.5556" fill="#AFADAE"/>
<rect x="357.778" y="186.667" width="15.5556" height="15.5556" fill="#AFADAE"/>
<rect x="357.778" y="202.223" width="15.5556" height="15.5556" fill="#AFADAE"/>
<rect x="342.222" y="202.223" width="15.5556" height="15.5556" fill="#AFADAE"/>
<rect x="357.778" y="217.778" width="15.5556" height="15.5556" fill="#AFADAE"/>
<rect x="373.333" y="217.778" width="15.5556" height="15.5556" fill="#AFADAE"/>
<rect x="357.778" y="233.333" width="15.5556" height="15.5556" fill="#AFADAE"/>
<rect x="342.222" y="217.778" width="15.5556" height="15.5556" fill="#AFADAE"/>
<rect x="295.556" y="217.778" width="15.5556" height="15.5556" fill="#AFADAE"/>
<rect x="280" y="217.778" width="15.5556" height="15.5556" fill="#AFADAE"/>
<rect x="295.556" y="233.333" width="15.5556" height="15.5556" fill="#938D8F"/>
<rect x="326.667" y="233.333" width="15.5556" height="15.5556" fill="#AFADAE"/>
<rect x="311.111" y="233.333" width="15.5556" height="15.5556" fill="#AFADAE"/>
<rect x="280" y="264.445" width="15.5556" height="15.5556" fill="#AFADAE"/>
<rect x="326.667" y="248.889" width="15.5556" height="15.5556" fill="#AFADAE"/>
<rect x="311.111" y="248.889" width="15.5556" height="15.5556" fill="#CCCCCC"/>
<rect x="295.556" y="248.889" width="15.5556" height="15.5556" fill="#938D8F"/>
<rect x="280" y="248.889" width="15.5556" height="15.5556" fill="#AFADAE"/>
<rect x="295.556" y="264.445" width="15.5556" height="15.5556" fill="#AFADAE"/>
<rect x="326.667" y="264.445" width="15.5556" height="15.5556" fill="#AFADAE"/>
<rect x="311.111" y="264.445" width="15.5556" height="15.5556" fill="#938D8F"/>
<rect x="295.556" y="280" width="15.5556" height="15.5556" fill="#AFADAE"/>
<rect x="326.667" y="280" width="15.5556" height="15.5556" fill="#AFADAE"/>
<rect x="311.111" y="280" width="15.5556" height="15.5556" fill="#AFADAE"/>
<rect x="326.667" y="295.556" width="15.5556" height="15.5556" fill="#AFADAE"/>
<rect x="311.111" y="295.556" width="15.5556" height="15.5556" fill="#AFADAE"/>
<rect x="295.556" y="295.556" width="15.5556" height="15.5556" fill="#AFADAE"/>
<rect x="295.556" y="311.111" width="15.5556" height="15.5556" fill="#938D8F"/>
<rect x="326.667" y="311.111" width="15.5556" height="15.5556" fill="#AFADAE"/>
<rect x="342.222" y="295.556" width="15.5556" height="15.5556" fill="#AFADAE"/>
<rect x="342.222" y="311.111" width="15.5556" height="15.5556" fill="#AFADAE"/>
<rect x="311.111" y="311.111" width="15.5556" height="15.5556" fill="#AFADAE"/>
<rect x="311.111" y="171.111" width="15.5556" height="15.5556" fill="#CCCCCC"/>
<rect x="295.556" y="171.111" width="17.1111" height="15.5556" fill="#CCCCCC"/>
<rect x="93.3334" y="186.667" width="15.5556" height="15.5556" transform="rotate(-90 93.3334 186.667)" fill="#AFADAE"/>
<rect x="108.889" y="186.667" width="15.5556" height="15.5556" transform="rotate(-90 108.889 186.667)" fill="#AFADAE"/>
<rect x="77.7778" y="186.667" width="15.5556" height="15.5556" transform="rotate(-90 77.7778 186.667)" fill="#AFADAE"/>
<rect x="124.444" y="186.667" width="15.5556" height="15.5556" transform="rotate(-90 124.444 186.667)" fill="#938D8F"/>
<rect x="62.2222" y="233.333" width="15.5556" height="15.5556" fill="#938D8F"/>
<rect x="62.2222" y="264.445" width="15.5556" height="15.5556" fill="#938D8F"/>
<rect x="62.2222" y="248.889" width="15.5556" height="15.5556" fill="#938D8F"/>
<rect x="62.2222" y="280" width="15.5556" height="15.5556" fill="#938D8F"/>
<rect x="93.3334" y="311.111" width="15.5556" height="15.5556" fill="#938D8F"/>
<rect x="124.444" y="311.111" width="15.5556" height="15.5556" transform="rotate(90 124.444 311.111)" fill="#938D8F"/>
</svg>
