<svg width="273" height="400" viewBox="0 0 273 400" fill="none" xmlns="http://www.w3.org/2000/svg">
<rect x="36.3636" y="72.7271" width="200" height="254.545" fill="white"/>
<rect x="72.7273" y="54.5454" width="127.273" height="18.1818" fill="white"/>
<rect x="127.273" width="18.1818" height="18.1818" fill="#85160D"/>
<rect x="145.455" width="18.1818" height="18.1818" fill="#24201B"/>
<rect x="109.091" width="18.1818" height="18.1818" fill="#24201B"/>
<rect x="90.9091" y="18.1816" width="18.1818" height="18.1818" fill="#24201B"/>
<rect x="109.091" y="18.1816" width="18.1818" height="18.1818" fill="#564EEE"/>
<rect x="145.455" y="18.1816" width="18.1818" height="18.1818" fill="#85160D"/>
<rect x="127.273" y="18.1816" width="18.1818" height="18.1818" fill="#564EEE"/>
<rect x="127.273" y="36.3638" width="18.1818" height="18.1818" fill="#564EEE"/>
<rect x="145.455" y="36.3638" width="18.1818" height="18.1818" fill="#564EEE"/>
<rect x="163.636" y="36.3638" width="18.1818" height="18.1818" fill="#564EEE"/>
<rect x="109.091" y="36.3638" width="18.1818" height="18.1818" fill="#564EEE"/>
<rect x="127.273" y="109.091" width="18.1818" height="18.1818" fill="#564EEE"/>
<rect x="145.455" y="109.091" width="18.1818" height="18.1818" fill="#564EEE"/>
<rect x="109.091" y="109.091" width="18.1818" height="18.1818" fill="#564EEE"/>
<rect x="109.091" y="127.273" width="18.1818" height="18.1818" fill="#24201B"/>
<rect x="127.273" y="163.636" width="18.1818" height="18.1818" fill="#24201B"/>
<rect x="127.273" y="145.455" width="18.1818" height="18.1818" fill="#24201B"/>
<rect x="145.455" y="163.636" width="18.1818" height="18.1818" fill="#24201B"/>
<rect x="127.273" y="181.818" width="18.1818" height="18.1818" fill="#85160D"/>
<rect x="145.455" y="181.818" width="18.1818" height="18.1818" fill="#564EEE"/>
<rect x="109.091" y="181.818" width="18.1818" height="18.1818" fill="#85160D"/>
<rect x="36.3636" y="272.727" width="18.1818" height="18.1818" fill="#85160D"/>
<rect x="36.3636" y="290.909" width="18.1818" height="18.1818" fill="#564EEE"/>
<rect x="218.182" y="272.727" width="18.1818" height="18.1818" fill="#564EEE"/>
<rect x="218.182" y="290.909" width="18.1818" height="18.1818" fill="#564EEE"/>
<rect x="127.273" y="254.545" width="18.1818" height="18.1818" fill="#564EEE"/>
<rect x="127.273" y="272.727" width="18.1818" height="18.1818" fill="#564EEE"/>
<rect x="163.636" y="145.455" width="18.1818" height="18.1818" fill="#564EEE"/>
<rect x="163.636" y="127.273" width="18.1818" height="18.1818" fill="#564EEE"/>
<rect x="163.636" y="163.636" width="18.1818" height="18.1818" fill="#564EEE"/>
<rect x="90.9091" y="145.455" width="18.1818" height="18.1818" fill="#564EEE"/>
<rect x="90.9091" y="127.273" width="18.1818" height="18.1818" fill="#564EEE"/>
<rect x="90.9091" y="163.636" width="18.1818" height="18.1818" fill="#564EEE"/>
<rect x="90.9091" y="36.3638" width="18.1818" height="18.1818" fill="#564EEE"/>
<rect x="72.7273" y="54.5454" width="18.1818" height="18.1818" fill="#D9D9D9"/>
<rect x="181.818" y="54.5454" width="18.1818" height="18.1818" fill="#D9D9D9"/>
<rect x="200" y="72.7271" width="18.1818" height="18.1818" fill="#D9D9D9"/>
<rect x="218.182" y="90.9092" width="18.1818" height="18.1818" fill="#85160D"/>
<rect x="218.182" y="109.091" width="18.1818" height="18.1818" fill="#D9D9D9"/>
<rect x="218.182" y="127.273" width="18.1818" height="18.1818" fill="#D9D9D9"/>
<rect x="218.182" y="145.455" width="18.1818" height="18.1818" fill="#85160D"/>
<rect x="218.182" y="163.636" width="18.1818" height="18.1818" fill="#973631"/>
<rect x="254.545" y="18.1816" width="18.1818" height="18.1818" fill="#973631"/>
<rect x="54.5454" y="381.818" width="18.1818" height="18.1818" fill="#973631"/>
<rect x="200" y="181.818" width="18.1818" height="18.1818" fill="#973631"/>
<rect x="181.818" y="309.091" width="18.1818" height="18.1818" fill="#973631"/>
<rect x="90.9091" y="200" width="18.1818" height="18.1818" fill="#973631"/>
<rect x="72.7273" y="90.9092" width="18.1818" height="18.1818" fill="#973631"/>
<rect y="163.636" width="18.1818" height="18.1818" fill="#973631"/>
<rect x="163.636" y="36.3638" width="18.1818" height="18.1818" fill="#973631"/>
<rect x="218.182" y="181.818" width="18.1818" height="18.1818" fill="#D9D9D9"/>
<rect x="218.182" y="200" width="18.1818" height="18.1818" fill="#D9D9D9"/>
<rect x="218.182" y="236.364" width="18.1818" height="18.1818" fill="#D9D9D9"/>
<rect x="200" y="254.545" width="18.1818" height="18.1818" fill="#D9D9D9"/>
<rect x="200" y="272.727" width="18.1818" height="18.1818" fill="#D9D9D9"/>
<rect x="200" y="309.091" width="18.1818" height="18.1818" fill="#D9D9D9"/>
<rect x="200" y="327.273" width="18.1818" height="18.1818" fill="#D9D9D9"/>
<rect x="181.818" y="290.909" width="18.1818" height="18.1818" fill="#85160D"/>
<rect x="54.5454" y="72.7271" width="18.1818" height="18.1818" fill="#85160D"/>
<rect x="36.3636" y="90.9092" width="18.1818" height="18.1818" fill="#D9D9D9"/>
<rect x="36.3636" y="109.091" width="18.1818" height="18.1818" fill="#D9D9D9"/>
<rect x="36.3636" y="127.273" width="18.1818" height="18.1818" fill="#D9D9D9"/>
<rect x="36.3636" y="145.455" width="18.1818" height="18.1818" fill="#D9D9D9"/>
<rect x="36.3636" y="181.818" width="18.1818" height="18.1818" fill="#D9D9D9"/>
<rect x="36.3636" y="163.636" width="18.1818" height="18.1818" fill="#D9D9D9"/>
<rect x="36.3636" y="200" width="18.1818" height="18.1818" fill="#D9D9D9"/>
<rect x="36.3636" y="236.364" width="18.1818" height="18.1818" fill="#D9D9D9"/>
<rect x="54.5454" y="254.545" width="18.1818" height="18.1818" fill="#D9D9D9"/>
<rect x="54.5454" y="272.727" width="18.1818" height="18.1818" fill="#85160D"/>
<rect x="54.5454" y="309.091" width="18.1818" height="18.1818" fill="#D9D9D9"/>
<rect x="36.3636" y="309.091" width="18.1818" height="18.1818" fill="#C677F7"/>
<rect x="54.5454" y="290.909" width="18.1818" height="18.1818" fill="#C677F7"/>
<rect x="72.7273" y="309.091" width="18.1818" height="18.1818" fill="#C677F7"/>
<rect x="90.9091" y="309.091" width="18.1818" height="18.1818" fill="#24201B"/>
<rect x="90.9091" y="327.273" width="18.1818" height="18.1818" fill="#24201B"/>
<rect x="109.091" y="309.091" width="18.1818" height="18.1818" fill="#C677F7"/>
<rect x="109.091" y="327.273" width="18.1818" height="18.1818" fill="#24201B"/>
<rect x="127.273" y="309.091" width="18.1818" height="18.1818" fill="#C677F7"/>
<rect x="145.455" y="309.091" width="18.1818" height="18.1818" fill="#85160D"/>
<rect x="163.636" y="309.091" width="18.1818" height="18.1818" fill="#C677F7"/>
<rect x="200" y="290.909" width="18.1818" height="18.1818" fill="#C677F7"/>
<rect x="218.182" y="309.091" width="18.1818" height="18.1818" fill="#C677F7"/>
<rect x="54.5454" y="327.273" width="18.1818" height="18.1818" fill="#D9D9D9"/>
<rect x="72.7273" y="290.909" width="18.1818" height="18.1818" fill="#D9D9D9"/>
<rect x="72.7273" y="36.3638" width="18.1818" height="18.1818" fill="#24201B"/>
<rect x="54.5454" y="54.5454" width="18.1818" height="18.1818" fill="#85160D"/>
<rect x="36.3636" y="72.7271" width="18.1818" height="18.1818" fill="#24201B"/>
<rect x="18.1818" y="90.9092" width="18.1818" height="18.1818" fill="#24201B"/>
<rect x="18.1818" y="109.091" width="18.1818" height="18.1818" fill="#24201B"/>
<rect x="18.1818" y="127.273" width="18.1818" height="18.1818" fill="#24201B"/>
<rect x="18.1818" y="145.455" width="18.1818" height="18.1818" fill="#24201B"/>
<rect x="18.1818" y="163.636" width="18.1818" height="18.1818" fill="#24201B"/>
<rect x="18.1818" y="181.818" width="18.1818" height="18.1818" fill="#24201B"/>
<rect x="18.1818" y="200" width="18.1818" height="18.1818" fill="#24201B"/>
<rect x="18.1818" y="236.364" width="18.1818" height="18.1818" fill="#24201B"/>
<rect x="36.3636" y="254.545" width="18.1818" height="18.1818" fill="#85160D"/>
<rect x="18.1818" y="272.727" width="18.1818" height="18.1818" fill="#24201B"/>
<rect x="18.1818" y="290.909" width="18.1818" height="18.1818" fill="#24201B"/>
<rect x="18.1818" y="309.091" width="18.1818" height="18.1818" fill="#24201B"/>
<rect x="18.1818" y="327.273" width="18.1818" height="18.1818" fill="#973631"/>
<rect y="345.455" width="18.1818" height="18.1818" fill="#973631"/>
<rect x="36.3636" y="327.273" width="18.1818" height="18.1818" fill="#24201B"/>
<rect width="18.1818" height="18.1818" transform="matrix(-1 0 0 1 181.818 18.1816)" fill="#24201B"/>
<rect width="18.1818" height="18.1818" transform="matrix(-1 0 0 1 200 36.3638)" fill="#24201B"/>
<rect width="18.1818" height="18.1818" transform="matrix(-1 0 0 1 218.182 54.5454)" fill="#24201B"/>
<rect width="18.1818" height="18.1818" transform="matrix(-1 0 0 1 236.364 72.7271)" fill="#85160D"/>
<rect width="18.1818" height="18.1818" transform="matrix(-1 0 0 1 254.545 90.9092)" fill="#24201B"/>
<rect width="18.1818" height="18.1818" transform="matrix(-1 0 0 1 254.545 109.091)" fill="#24201B"/>
<rect width="18.1818" height="18.1818" transform="matrix(-1 0 0 1 254.545 127.273)" fill="#24201B"/>
<rect width="18.1818" height="18.1818" transform="matrix(-1 0 0 1 254.545 145.455)" fill="#24201B"/>
<rect width="18.1818" height="18.1818" transform="matrix(-1 0 0 1 254.545 163.636)" fill="#85160D"/>
<rect width="18.1818" height="18.1818" transform="matrix(-1 0 0 1 254.545 181.818)" fill="#24201B"/>
<rect width="18.1818" height="18.1818" transform="matrix(-1 0 0 1 254.545 200)" fill="#24201B"/>
<rect x="218.182" y="218.182" width="18.1818" height="18.1818" fill="#D9D9D9"/>
<rect x="36.3636" y="218.182" width="18.1818" height="18.1818" fill="#D9D9D9"/>
<rect x="18.1818" y="218.182" width="18.1818" height="18.1818" fill="#24201B"/>
<rect width="18.1818" height="18.1818" transform="matrix(-1 0 0 1 254.545 218.182)" fill="#24201B"/>
<rect width="18.1818" height="18.1818" transform="matrix(-1 0 0 1 254.545 236.364)" fill="#24201B"/>
<rect width="18.1818" height="18.1818" transform="matrix(-1 0 0 1 236.364 254.545)" fill="#24201B"/>
<rect width="18.1818" height="18.1818" transform="matrix(-1 0 0 1 254.545 272.727)" fill="#24201B"/>
<rect width="18.1818" height="18.1818" transform="matrix(-1 0 0 1 254.545 290.909)" fill="#85160D"/>
<rect width="18.1818" height="18.1818" transform="matrix(-1 0 0 1 254.545 309.091)" fill="#24201B"/>
<rect width="18.1818" height="18.1818" transform="matrix(-1 0 0 1 254.545 327.273)" fill="#24201B"/>
<rect width="18.1818" height="18.1818" transform="matrix(-1 0 0 1 236.364 327.273)" fill="#24201B"/>
</svg>
