<svg width="200" height="421" viewBox="0 0 200 421" fill="none" xmlns="http://www.w3.org/2000/svg">
<path d="M199.01 376.403H176.94V398.508H199.01V376.403Z" fill="#21201E"/>
<path d="M199.01 354.298H176.94V376.403H199.01V354.298Z" fill="#21201E"/>
<path d="M199.01 332.192H176.94V354.297H199.01V332.192Z" fill="#21201E"/>
<path d="M199.01 310.087H176.94V332.192H199.01V310.087Z" fill="#21201E"/>
<path d="M199.01 287.982H176.94V310.088H199.01V287.982Z" fill="#21201E"/>
<path d="M199.01 265.876H176.94V287.981H199.01V265.876Z" fill="#21201E"/>
<path d="M199.01 243.771H176.94V265.877H199.01V243.771Z" fill="#21201E"/>
<path d="M199.01 221.667H176.94V243.772H199.01V221.667Z" fill="#21201E"/>
<path d="M199.01 199.561H176.94V221.666H199.01V199.561Z" fill="#21201E"/>
<path d="M199.01 177.456H176.94V199.561H199.01V177.456Z" fill="#21201E"/>
<path d="M199.01 155.35H176.94V177.455H199.01V155.35Z" fill="#21201E"/>
<path d="M199.01 133.245H176.94V155.35H199.01V133.245Z" fill="#21201E"/>
<path d="M199.01 111.139H176.94V133.244H199.01V111.139Z" fill="#21201E"/>
<path d="M176.94 398.508H154.869V420.614H176.94V398.508Z" fill="#21201E"/>
<path d="M176.94 376.403H154.869V398.508H176.94V376.403Z" fill="#A4CDFF"/>
<path d="M176.94 354.298H154.869V376.403H176.94V354.298Z" fill="#A4CDFF"/>
<path d="M176.94 332.192H154.869V354.297H176.94V332.192Z" fill="#A4CDFF"/>
<path d="M176.94 310.087H154.869V332.192H176.94V310.087Z" fill="#A4CDFF"/>
<path d="M176.94 287.982H154.869V310.088H176.94V287.982Z" fill="#A4CDFF"/>
<path d="M176.94 265.876H154.869V287.981H176.94V265.876Z" fill="#A4CDFF"/>
<path d="M176.94 243.771H154.869V265.877H176.94V243.771Z" fill="#A4CDFF"/>
<path d="M176.94 221.667H154.869V243.772H176.94V221.667Z" fill="#A4CDFF"/>
<path d="M176.94 199.561H154.869V221.666H176.94V199.561Z" fill="#A4CDFF"/>
<path d="M176.94 177.456H154.869V199.561H176.94V177.456Z" fill="#A4CDFF"/>
<path d="M176.94 155.35H154.869V177.455H176.94V155.35Z" fill="#A4CDFF"/>
<path d="M176.94 133.245H154.869V155.35H176.94V133.245Z" fill="#FF9C31"/>
<path d="M176.94 111.139H154.869V133.244H176.94V111.139Z" fill="#FF9C31"/>
<path d="M176.94 89.0342H154.869V111.139H176.94V89.0342Z" fill="#21201E"/>
<path d="M154.869 398.508H132.798V420.614H154.869V398.508Z" fill="#21201E"/>
<path d="M154.869 376.403H132.798V398.508H154.869V376.403Z" fill="#43A1FF"/>
<path d="M154.869 354.298H132.798V376.403H154.869V354.298Z" fill="#43A1FF"/>
<path d="M154.869 332.192H132.798V354.297H154.869V332.192Z" fill="#43A1FF"/>
<path d="M154.869 310.087H132.798V332.192H154.869V310.087Z" fill="#43A1FF"/>
<path d="M154.869 287.982H132.798V310.088H154.869V287.982Z" fill="#43A1FF"/>
<path d="M154.869 265.876H132.798V287.981H154.869V265.876Z" fill="#43A1FF"/>
<path d="M154.869 243.771H132.798V265.877H154.869V243.771Z" fill="#43A1FF"/>
<path d="M154.869 221.667H132.798V243.772H154.869V221.667Z" fill="#43A1FF"/>
<path d="M154.869 199.561H132.798V221.666H154.869V199.561Z" fill="#43A1FF"/>
<path d="M154.869 177.456H132.798V199.561H154.869V177.456Z" fill="#FF9C31"/>
<path d="M154.869 155.35H132.798V177.455H154.869V155.35Z" fill="#FF9C31"/>
<path d="M154.869 133.245H132.798V155.35H154.869V133.245Z" fill="#FF9C31"/>
<path d="M154.869 111.139H132.798V133.244H154.869V111.139Z" fill="#FF9C31"/>
<path d="M154.869 89.0342H132.798V111.139H154.869V89.0342Z" fill="#21201E"/>
<path d="M154.869 66.9297H132.798V89.0349H154.869V66.9297Z" fill="#21201E"/>
<path d="M132.799 398.508H110.728V420.614H132.799V398.508Z" fill="#21201E"/>
<path d="M132.799 376.403H110.728V398.508H132.799V376.403Z" fill="#83B6FF"/>
<path d="M132.799 354.298H110.728V376.403H132.799V354.298Z" fill="#83B6FF"/>
<path d="M132.799 332.192H110.728V354.297H132.799V332.192Z" fill="#83B6FF"/>
<path d="M132.799 310.087H110.728V332.192H132.799V310.087Z" fill="#83B6FF"/>
<path d="M132.799 287.982H110.728V310.088H132.799V287.982Z" fill="#83B6FF"/>
<path d="M132.799 265.876H110.728V287.981H132.799V265.876Z" fill="#83B6FF"/>
<path d="M132.799 243.771H110.728V265.877H132.799V243.771Z" fill="#83B6FF"/>
<path d="M132.799 221.667H110.728V243.772H132.799V221.667Z" fill="#83B6FF"/>
<path d="M132.799 199.561H110.728V221.666H132.799V199.561Z" fill="#83B6FF"/>
<path d="M132.799 177.456H110.728V199.561H132.799V177.456Z" fill="#83B6FF"/>
<path d="M132.799 155.35H110.728V177.455H132.799V155.35Z" fill="#83B6FF"/>
<path d="M132.799 133.245H110.728V155.35H132.799V133.245Z" fill="#FF9C31"/>
<path d="M132.799 111.139H110.728V133.244H132.799V111.139Z" fill="#FF9C31"/>
<path d="M132.799 89.0342H110.728V111.139H132.799V89.0342Z" fill="#21201E"/>
<path d="M132.799 66.9297H110.728V89.0349H132.799V66.9297Z" fill="#EAEAEA"/>
<path d="M132.799 44.8232H110.728V66.9285H132.799V44.8232Z" fill="#21201E"/>
<path d="M132.799 22.7188H110.728V44.824H132.799V22.7188Z" fill="#21201E"/>
<path d="M132.799 0.61377H110.728V22.719H132.799V0.61377Z" fill="#21201E"/>
<path d="M110.728 398.508H88.6572V420.614H110.728V398.508Z" fill="#21201E"/>
<path d="M110.728 376.403H88.6572V398.508H110.728V376.403Z" fill="#83B6FF"/>
<path d="M110.728 354.298H88.6572V376.403H110.728V354.298Z" fill="#83B6FF"/>
<path d="M110.728 332.192H88.6572V354.297H110.728V332.192Z" fill="#83B6FF"/>
<path d="M110.728 310.087H88.6572V332.192H110.728V310.087Z" fill="#83B6FF"/>
<path d="M110.728 287.982H88.6572V310.088H110.728V287.982Z" fill="#83B6FF"/>
<path d="M110.728 265.876H88.6572V287.981H110.728V265.876Z" fill="#83B6FF"/>
<path d="M110.728 243.771H88.6572V265.877H110.728V243.771Z" fill="#83B6FF"/>
<path d="M110.728 221.667H88.6572V243.772H110.728V221.667Z" fill="#83B6FF"/>
<path d="M110.728 199.561H88.6572V221.666H110.728V199.561Z" fill="#83B6FF"/>
<path d="M110.728 177.456H88.6572V199.561H110.728V177.456Z" fill="#83B6FF"/>
<path d="M110.728 155.35H88.6572V177.455H110.728V155.35Z" fill="#83B6FF"/>
<path d="M110.728 133.245H88.6572V155.35H110.728V133.245Z" fill="#FF9C31"/>
<path d="M110.728 111.139H88.6572V133.244H110.728V111.139Z" fill="#FF9C31"/>
<path d="M110.728 89.0342H88.6572V111.139H110.728V89.0342Z" fill="#21201E"/>
<path d="M110.728 66.9297H88.6572V89.0349H110.728V66.9297Z" fill="#EAEAEA"/>
<path d="M110.728 44.8232H88.6572V66.9285H110.728V44.8232Z" fill="#21201E"/>
<path d="M110.728 22.7188H88.6572V44.824H110.728V22.7188Z" fill="#FF9C31"/>
<path d="M110.728 0.61377H88.6572V22.719H110.728V0.61377Z" fill="#21201E"/>
<path d="M88.6574 398.508H66.5868V420.614H88.6574V398.508Z" fill="#21201E"/>
<path d="M88.6574 376.403H66.5868V398.508H88.6574V376.403Z" fill="#A4CDFF"/>
<path d="M88.6574 354.298H66.5868V376.403H88.6574V354.298Z" fill="#A4CDFF"/>
<path d="M88.6574 332.192H66.5868V354.297H88.6574V332.192Z" fill="#A4CDFF"/>
<path d="M88.6574 310.087H66.5868V332.192H88.6574V310.087Z" fill="#A4CDFF"/>
<path d="M88.6574 287.982H66.5868V310.088H88.6574V287.982Z" fill="#A4CDFF"/>
<path d="M88.6574 265.876H66.5868V287.981H88.6574V265.876Z" fill="#A4CDFF"/>
<path d="M88.6574 243.771H66.5868V265.877H88.6574V243.771Z" fill="#A4CDFF"/>
<path d="M88.6574 221.667H66.5868V243.772H88.6574V221.667Z" fill="#A4CDFF"/>
<path d="M88.6574 199.561H66.5868V221.666H88.6574V199.561Z" fill="#FF9C31"/>
<path d="M88.6574 177.456H66.5868V199.561H88.6574V177.456Z" fill="#FF9C31"/>
<path d="M88.6574 155.35H66.5868V177.455H88.6574V155.35Z" fill="#FF9C31"/>
<path d="M88.6574 133.245H66.5868V155.35H88.6574V133.245Z" fill="#FF9C31"/>
<path d="M88.6574 111.139H66.5868V133.244H88.6574V111.139Z" fill="#FF9C31"/>
<path d="M88.6574 89.0342H66.5868V111.139H88.6574V89.0342Z" fill="#21201E"/>
<path d="M88.6574 66.9297H66.5868V89.0349H88.6574V66.9297Z" fill="#EAEAEA"/>
<path d="M88.6574 44.8232H66.5868V66.9285H88.6574V44.8232Z" fill="#21201E"/>
<path d="M88.6574 22.7188H66.5868V44.824H88.6574V22.7188Z" fill="#21201E"/>
<path d="M88.6574 0.61377H66.5868V22.719H88.6574V0.61377Z" fill="#21201E"/>
<path d="M66.5868 398.508H44.5162V420.614H66.5868V398.508Z" fill="#21201E"/>
<path d="M66.5868 376.403H44.5162V398.508H66.5868V376.403Z" fill="#43A1FF"/>
<path d="M66.5868 354.298H44.5162V376.403H66.5868V354.298Z" fill="#43A1FF"/>
<path d="M66.5868 332.192H44.5162V354.297H66.5868V332.192Z" fill="#43A1FF"/>
<path d="M66.5868 310.087H44.5162V332.192H66.5868V310.087Z" fill="#43A1FF"/>
<path d="M66.5868 287.982H44.5162V310.088H66.5868V287.982Z" fill="#43A1FF"/>
<path d="M66.5868 265.876H44.5162V287.981H66.5868V265.876Z" fill="#43A1FF"/>
<path d="M66.5868 243.771H44.5162V265.877H66.5868V243.771Z" fill="#43A1FF"/>
<path d="M66.5868 221.667H44.5162V243.772H66.5868V221.667Z" fill="#43A1FF"/>
<path d="M66.5868 199.561H44.5162V221.666H66.5868V199.561Z" fill="#43A1FF"/>
<path d="M66.5868 177.456H44.5162V199.561H66.5868V177.456Z" fill="#43A1FF"/>
<path d="M66.5868 155.35H44.5162V177.455H66.5868V155.35Z" fill="#43A1FF"/>
<path d="M66.5868 133.245H44.5162V155.35H66.5868V133.245Z" fill="#43A1FF"/>
<path d="M66.5868 111.139H44.5162V133.244H66.5868V111.139Z" fill="#FF9C31"/>
<path d="M66.5868 89.0342H44.5162V111.139H66.5868V89.0342Z" fill="#21201E"/>
<path d="M66.5868 66.9297H44.5162V89.0349H66.5868V66.9297Z" fill="#21201E"/>
<path d="M44.5161 398.508H22.4456V420.614H44.5161V398.508Z" fill="#21201E"/>
<path d="M44.5161 376.403H22.4456V398.508H44.5161V376.403Z" fill="#43A1FF"/>
<path d="M44.5161 354.298H22.4456V376.403H44.5161V354.298Z" fill="#43A1FF"/>
<path d="M44.5161 332.192H22.4456V354.297H44.5161V332.192Z" fill="#43A1FF"/>
<path d="M44.5161 310.087H22.4456V332.192H44.5161V310.087Z" fill="#43A1FF"/>
<path d="M44.5161 287.982H22.4456V310.088H44.5161V287.982Z" fill="#43A1FF"/>
<path d="M44.5161 265.876H22.4456V287.981H44.5161V265.876Z" fill="#43A1FF"/>
<path d="M44.5161 243.771H22.4456V265.877H44.5161V243.771Z" fill="#43A1FF"/>
<path d="M44.5161 221.667H22.4456V243.772H44.5161V221.667Z" fill="#43A1FF"/>
<path d="M44.5161 199.561H22.4456V221.666H44.5161V199.561Z" fill="#43A1FF"/>
<path d="M44.5161 177.456H22.4456V199.561H44.5161V177.456Z" fill="#43A1FF"/>
<path d="M44.5161 155.35H22.4456V177.455H44.5161V155.35Z" fill="#43A1FF"/>
<path d="M44.5161 133.245H22.4456V155.35H44.5161V133.245Z" fill="#43A1FF"/>
<path d="M44.5161 111.139H22.4456V133.244H44.5161V111.139Z" fill="#FF9C31"/>
<path d="M44.5161 89.0342H22.4456V111.139H44.5161V89.0342Z" fill="#21201E"/>
<path d="M22.4456 376.403H0.375V398.508H22.4456V376.403Z" fill="#21201E"/>
<path d="M22.4456 354.298H0.375V376.403H22.4456V354.298Z" fill="#21201E"/>
<path d="M22.4456 332.192H0.375V354.297H22.4456V332.192Z" fill="#21201E"/>
<path d="M22.4456 310.087H0.375V332.192H22.4456V310.087Z" fill="#21201E"/>
<path d="M22.4456 287.982H0.375V310.088H22.4456V287.982Z" fill="#21201E"/>
<path d="M22.4456 265.876H0.375V287.981H22.4456V265.876Z" fill="#21201E"/>
<path d="M22.4456 243.771H0.375V265.877H22.4456V243.771Z" fill="#21201E"/>
<path d="M22.4456 221.667H0.375V243.772H22.4456V221.667Z" fill="#21201E"/>
<path d="M22.4456 199.561H0.375V221.666H22.4456V199.561Z" fill="#21201E"/>
<path d="M22.4456 177.456H0.375V199.561H22.4456V177.456Z" fill="#21201E"/>
<path d="M22.4456 155.35H0.375V177.455H22.4456V155.35Z" fill="#21201E"/>
<path d="M22.4456 133.245H0.375V155.35H22.4456V133.245Z" fill="#21201E"/>
<path d="M22.4456 111.139H0.375V133.244H22.4456V111.139Z" fill="#21201E"/>
</svg>
