<svg width="1920" height="1080" viewBox="0 0 1920 1080" fill="none" xmlns="http://www.w3.org/2000/svg">
<path d="M1920 0H0V1080H1920V0Z" fill="#181425"/>
<path d="M1336.5 945H1309.5V961.875H1336.5V945Z" fill="#133B5F"/>
<path d="M229.5 911.25H202.5V928.125H229.5V911.25Z" fill="#133B5F"/>
<path d="M1444.5 894.375H1417.5V911.25H1444.5V894.375Z" fill="#133B5F"/>
<path d="M1309.5 776.25H1282.5V793.125H1309.5V776.25Z" fill="#133B5F"/>
<path d="M283.5 776.25H256.5V793.125H283.5V776.25Z" fill="#0099DB"/>
<path d="M310.5 759.375H283.5V776.25H310.5V759.375Z" fill="#0B6FAE"/>
<path d="M1755 895H1728V911.875H1755V895Z" fill="#133B5F"/>
<path d="M1782 962.375H1755V979.25H1782V962.375Z" fill="#0099DB"/>
<path d="M1066.5 725.625H1039.5V742.5H1066.5V725.625Z" fill="#0099DB"/>
<path d="M634.5 725.625H607.5V742.5H634.5V725.625Z" fill="#133B5F"/>
<path d="M1878.37 574L1878.38 547L1861.5 547L1861.5 574L1878.37 574Z" fill="#133B5F"/>
<path d="M1674 894.875H1647V911.75H1674V894.875Z" fill="#0099DB"/>
<path d="M1769 700.75H1742V717.625H1769V700.75Z" fill="#0B6FAE"/>
<path d="M1647 878H1620V894.875H1647V878Z" fill="#0B6FAE"/>
<path d="M499.5 641.25H472.5V658.125H499.5V641.25Z" fill="#0B6FAE"/>
<path d="M1472 726.125H1445V743H1472V726.125Z" fill="#133B5F"/>
<path d="M121.5 607.5H94.5V624.375H121.5V607.5Z" fill="#133B5F"/>
<path d="M1579.5 573.75H1552.5V590.625H1579.5V573.75Z" fill="#0B6FAE"/>
<path d="M607.5 573.75H580.5V590.625H607.5V573.75Z" fill="#0099DB"/>
<path d="M1579.5 489.375H1552.5V506.25H1579.5V489.375Z" fill="#133B5F"/>
<path d="M1418 608H1391V624.875H1418V608Z" fill="#0099DB"/>
<path d="M904.5 472.5H877.5V489.375H904.5V472.5Z" fill="#133B5F"/>
<path d="M445.5 455.625H418.5V472.5H445.5V455.625Z" fill="#133B5F"/>
<path d="M1660.5 438.75H1633.5V455.625H1660.5V438.75Z" fill="#133B5F"/>
<path d="M1244 497H1217V513.875H1244V497Z" fill="#133B5F"/>
<path d="M985.5 388.125H958.5V405H985.5V388.125Z" fill="#0099DB"/>
<path d="M1390.5 371.25H1363.5V388.125H1390.5V371.25Z" fill="#133B5F"/>
<path d="M850.5 371.25H823.5V388.125H850.5V371.25Z" fill="#0099DB"/>
<path d="M1687.5 354.375H1660.5V371.25H1687.5V354.375Z" fill="#0B6FAE"/>
<path d="M580.5 337.5H553.5V354.375H580.5V337.5Z" fill="#0B6FAE"/>
<path d="M1228.5 303.75H1201.5V320.625H1228.5V303.75Z" fill="#0B6FAE"/>
<path d="M958.5 303.75H931.5V320.625H958.5V303.75Z" fill="#133B5F"/>
<path d="M742.5 303.75H715.5V320.625H742.5V303.75Z" fill="#0099DB"/>
<path d="M1183.37 666.25L1183.38 639.25L1166.5 639.25L1166.5 666.25L1183.37 666.25Z" fill="#0099DB"/>
<path d="M688.5 219.375H661.5V236.25H688.5V219.375Z" fill="#0B6FAE"/>
<path d="M1267.75 612.25L1267.75 585.25L1250.88 585.25L1250.87 612.25L1267.75 612.25Z" fill="#0B6FAE"/>
<path d="M472.5 202.5H445.5V219.375H472.5V202.5Z" fill="#0B6FAE"/>
<path d="M337.5 202.5H310.5V219.375H337.5V202.5Z" fill="#133B5F"/>
<path d="M1147.5 185.625H1120.5V202.5H1147.5V185.625Z" fill="#0099DB"/>
<path d="M391.5 151.875H364.5V168.75H391.5V151.875Z" fill="#133B5F"/>
<path d="M1471.5 135H1444.5V151.875H1471.5V135Z" fill="#133B5F"/>
<path d="M1174.5 1046.25H1147.5V1063.12H1174.5V1046.25Z" fill="#171E33"/>
<path d="M418.5 978.75H391.5V995.625H418.5V978.75Z" fill="#171E33"/>
<path d="M445.5 961.875H418.5V978.75H445.5V961.875Z" fill="#171E33"/>
<path d="M769.5 928.125H742.5V945H769.5V928.125Z" fill="#171E33"/>
<path d="M607.5 928.125H580.5V945H607.5V928.125Z" fill="#171E33"/>
<path d="M1675.87 547L1675.88 520L1659 520L1659 547L1675.87 547Z" fill="#171E33"/>
<path d="M337.5 928.125H310.5V945H337.5V928.125Z" fill="#171E33"/>
<path d="M364.5 911.25H337.5V928.125H364.5V911.25Z" fill="#171E33"/>
<path d="M1039.5 843.75H1012.5V860.625H1039.5V843.75Z" fill="#171E33"/>
<path d="M607.5 826.875H580.5V843.75H607.5V826.875Z" fill="#171E33"/>
<path d="M1777.12 547L1777.12 520L1760.25 520L1760.25 547L1777.12 547Z" fill="#171E33"/>
<path d="M796.5 810H769.5V826.875H796.5V810Z" fill="#171E33"/>
<path d="M580.5 810H553.5V826.875H580.5V810Z" fill="#171E33"/>
<path d="M1794 520L1794 493L1777.12 493L1777.12 520L1794 520Z" fill="#171E33"/>
<path d="M553.5 793.125H526.5V810H553.5V793.125Z" fill="#171E33"/>
<path d="M1810.87 493L1810.88 466L1794 466L1794 493L1810.87 493Z" fill="#171E33"/>
<path d="M1742 734.5H1715V751.375H1742V734.5Z" fill="#171E33"/>
<path d="M148.5 691.875H121.5V708.75H148.5V691.875Z" fill="#171E33"/>
<path d="M1715 717.625H1688V734.5H1715V717.625Z" fill="#171E33"/>
<path d="M931.5 658.125H904.5V675H931.5V658.125Z" fill="#171E33"/>
<path d="M1823 683.875H1796V700.75H1823V683.875Z" fill="#171E33"/>
<path d="M1796 667H1769V683.875H1796V667Z" fill="#171E33"/>
<path d="M67.5 506.25H40.5V523.125H67.5V506.25Z" fill="#171E33"/>
<path d="M661.5 489.375H634.5V506.25H661.5V489.375Z" fill="#171E33"/>
<path d="M1701 219.625H1674V236.5H1701V219.625Z" fill="#171E33"/>
<path d="M1066.5 455.625H1039.5V472.5H1066.5V455.625Z" fill="#171E33"/>
<path d="M607.5 421.875H580.5V472.5H607.5V421.875Z" fill="#171E33"/>
<path d="M1444.5 286.875H1417.5V303.75H1444.5V286.875Z" fill="#171E33"/>
<path d="M1818 82H1791V98.875H1818V82Z" fill="#171E33"/>
<path d="M1390.5 219.375H1363.5V270H1390.5V219.375Z" fill="#171E33"/>
<path d="M823.5 236.25H796.5V253.125H823.5V236.25Z" fill="#171E33"/>
<path d="M1498.5 219.375H1471.5V236.25H1498.5V219.375Z" fill="#171E33"/>
<path d="M715.5 135H688.5V151.875H715.5V135Z" fill="#171E33"/>
<path d="M175.5 135H148.5V151.875H175.5V135Z" fill="#171E33"/>
<path d="M1633.5 101.25H1606.5V118.125H1633.5V101.25Z" fill="#0099DB"/>
<path d="M742.5 843.75H715.5V860.625H742.5V843.75Z" fill="#152742"/>
<path d="M634.5 843.75H607.5V860.625H634.5V843.75Z" fill="#152742"/>
<path d="M1760.25 574L1760.25 547L1743.38 547L1743.37 574L1760.25 574Z" fill="#152742"/>
<path d="M1796 683.875H1769V700.75H1796V683.875Z" fill="#152742"/>
<path d="M283.5 540H256.5V556.875H283.5V540Z" fill="#152742"/>
<path d="M1163 547.625H1136V564.5H1163V547.625Z" fill="#152742"/>
<path d="M715.5 438.75H688.5V455.625H715.5V438.75Z" fill="#152742"/>
<path d="M1755 169H1728V185.875H1755V169Z" fill="#152742"/>
<path d="M256.5 320.625H229.5V337.5H256.5V320.625Z" fill="#152742"/>
<path d="M634.5 101.25H607.5V118.125H634.5V101.25Z" fill="#152742"/>
<path d="M1390.5 67.5H1363.5V84.375H1390.5V67.5Z" fill="#0B6FAE"/>
<path d="M1039.5 67.5H1012.5V84.375H1039.5V67.5Z" fill="#0B6FAE"/>
<path d="M823.5 67.5H796.5V84.375H823.5V67.5Z" fill="#0099DB"/>
<path d="M1579.5 50.625H1552.5V67.5H1579.5V50.625Z" fill="#0099DB"/>
<path d="M796.5 50.625H769.5V67.5H796.5V50.625Z" fill="#0B6FAE"/>
<path d="M337.5 978.75H310.5V995.625H337.5V978.75Z" fill="#123A5F"/>
<path d="M1498.5 961.875H1471.5V978.75H1498.5V961.875Z" fill="#123A5F"/>
<path d="M418.5 961.875H391.5V978.75H418.5V961.875Z" fill="#123A5F"/>
<path d="M364.5 928.125H337.5V945H364.5V928.125Z" fill="#123A5F"/>
<path d="M904.5 911.25H877.5V928.125H904.5V911.25Z" fill="#123A5F"/>
<path d="M1201.5 860.625H1174.5V877.5H1201.5V860.625Z" fill="#123A5F"/>
<path d="M904.5 776.25H877.5V793.125H904.5V776.25Z" fill="#123A5F"/>
<path d="M796.5 556.875H769.5V573.75H796.5V556.875Z" fill="#123A5F"/>
<path d="M1836 287.125H1809V304H1836V287.125Z" fill="#123A5F"/>
<path d="M202.5 354.375H175.5V371.25H202.5V354.375Z" fill="#123A5F"/>
<path d="M877.5 202.5H850.5V219.375H877.5V202.5Z" fill="#123A5F"/>
<path d="M121.5 50.625H94.5V67.5H121.5V50.625Z" fill="#123A5F"/>
<path d="M526.5 33.75H499.5V50.625H526.5V33.75Z" fill="#133B5F"/>
<path d="M1228.5 16.875H1201.5V33.75H1228.5V16.875Z" fill="#133B5F"/>
<path d="M985.5 0H958.5V16.875H985.5V0Z" fill="#172634"/>
<path d="M958.5 0H931.5V16.875H958.5V0Z" fill="#172634"/>
<path d="M1458 297.675H1431V314.55H1458V297.675Z" fill="#171E33"/>
<path d="M1831.5 92.8H1804.5V109.675H1831.5V92.8Z" fill="#171E33"/>
</svg>
