<svg width="1280" height="800" viewBox="0 0 1280 800" fill="none" xmlns="http://www.w3.org/2000/svg">
<g clip-path="url(#clip0_101_104)">
<path d="M1280 0H0V800H1280V0Z" fill="#1C2A3F"/>
<path d="M990 700H970V712.5H990V700Z" fill="#3C89CD" fill-opacity="0.59"/>
<path d="M170 675H150V687.5H170V675Z" fill="#3C89CD" fill-opacity="0.59"/>
<path d="M1070 662.5H1050V675H1070V662.5Z" fill="#3C89CD" fill-opacity="0.59"/>
<path d="M970 575H950V587.5H970V575Z" fill="#3C89CD" fill-opacity="0.59"/>
<path d="M210 575H190V587.5H210V575Z" fill="#81AFC3" fill-opacity="0.46"/>
<path d="M230 562.5H210V575H230V562.5Z" fill="#5194BF" fill-opacity="0.56"/>
<path d="M1230 550H1210V562.5H1230V550Z" fill="#3C89CD" fill-opacity="0.59"/>
<path d="M1150 537.5H1130V550H1150V537.5Z" fill="#81AFC3" fill-opacity="0.46"/>
<path d="M790 537.5H770V550H790V537.5Z" fill="#81AFC3" fill-opacity="0.46"/>
<path d="M470 537.5H450V550H470V537.5Z" fill="#3C89CD" fill-opacity="0.59"/>
<path d="M1070 487.5H1050V500H1070V487.5Z" fill="#81AFC3" fill-opacity="0.46"/>
<path d="M950 487.5H930V500H950V487.5Z" fill="#5194BF" fill-opacity="0.56"/>
<path d="M1050 475H1030V487.5H1050V475Z" fill="#5194BF" fill-opacity="0.56"/>
<path d="M370 475H350V487.5H370V475Z" fill="#5194BF" fill-opacity="0.56"/>
<path d="M1090 450H1070V462.5H1090V450Z" fill="#3C89CD" fill-opacity="0.59"/>
<path d="M90 450H70V462.5H90V450Z" fill="#3C89CD" fill-opacity="0.59"/>
<path d="M1170 425H1150V437.5H1170V425Z" fill="#5194BF" fill-opacity="0.56"/>
<path d="M450 425H430V437.5H450V425Z" fill="#81AFC3" fill-opacity="0.46"/>
<path d="M1170 362.5H1150V375H1170V362.5Z" fill="#3C89CD" fill-opacity="0.59"/>
<path d="M1050 362.5H1030V375H1050V362.5Z" fill="#81AFC3" fill-opacity="0.46"/>
<path d="M670 350H650V362.5H670V350Z" fill="#3C89CD" fill-opacity="0.59"/>
<path d="M330 337.5H310V350H330V337.5Z" fill="#3C89CD" fill-opacity="0.59"/>
<path d="M1230 325H1210V337.5H1230V325Z" fill="#3C89CD" fill-opacity="0.59"/>
<path d="M910 325H890V337.5H910V325Z" fill="#3C89CD" fill-opacity="0.59"/>
<path d="M730 287.5H710V300H730V287.5Z" fill="#81AFC3" fill-opacity="0.46"/>
<path d="M1030 275H1010V287.5H1030V275Z" fill="#3C89CD" fill-opacity="0.59"/>
<path d="M630 275H610V287.5H630V275Z" fill="#81AFC3" fill-opacity="0.46"/>
<path d="M1250 262.5H1230V275H1250V262.5Z" fill="#5194BF" fill-opacity="0.56"/>
<path d="M430 250H410V262.5H430V250Z" fill="#5194BF" fill-opacity="0.56"/>
<path d="M910 225H890V237.5H910V225Z" fill="#5194BF" fill-opacity="0.56"/>
<path d="M710 225H690V237.5H710V225Z" fill="#3C89CD" fill-opacity="0.59"/>
<path d="M550 225H530V237.5H550V225Z" fill="#81AFC3" fill-opacity="0.46"/>
<path d="M510 162.5H490V175H510V162.5Z" fill="#5194BF" fill-opacity="0.56"/>
<path d="M350 150H330V162.5H350V150Z" fill="#5194BF" fill-opacity="0.56"/>
<path d="M250 150H230V162.5H250V150Z" fill="#3C89CD" fill-opacity="0.59"/>
<path d="M850 137.5H830V150H850V137.5Z" fill="#81AFC3" fill-opacity="0.46"/>
<path d="M290 112.5H270V125H290V112.5Z" fill="#3C89CD" fill-opacity="0.59"/>
<path d="M1090 100H1070V112.5H1090V100Z" fill="#3C89CD" fill-opacity="0.59"/>
<path d="M870 775H850V787.5H870V775Z" fill="#4667CA" fill-opacity="0.54"/>
<path d="M310 725H290V737.5H310V725Z" fill="#4667CA" fill-opacity="0.54"/>
<path d="M330 712.5H310V725H330V712.5Z" fill="#4667CA" fill-opacity="0.54"/>
<path d="M570 687.5H550V700H570V687.5Z" fill="#4667CA" fill-opacity="0.54"/>
<path d="M450 687.5H430V700H450V687.5Z" fill="#4667CA" fill-opacity="0.54"/>
<path d="M250 687.5H230V700H250V687.5Z" fill="#4667CA" fill-opacity="0.54"/>
<path d="M270 675H250V687.5H270V675Z" fill="#4667CA" fill-opacity="0.54"/>
<path d="M770 625H750V637.5H770V625Z" fill="#4667CA" fill-opacity="0.54"/>
<path d="M450 612.5H430V625H450V612.5Z" fill="#4667CA" fill-opacity="0.54"/>
<path d="M590 600H570V612.5H590V600Z" fill="#4667CA" fill-opacity="0.54"/>
<path d="M430 600H410V612.5H430V600Z" fill="#4667CA" fill-opacity="0.54"/>
<path d="M410 587.5H390V600H410V587.5Z" fill="#4667CA" fill-opacity="0.54"/>
<path d="M930 512.5H910V525H930V512.5Z" fill="#4667CA" fill-opacity="0.54"/>
<path d="M110 512.5H90V525H110V512.5Z" fill="#4667CA" fill-opacity="0.54"/>
<path d="M910 500H890V512.5H910V500Z" fill="#4667CA" fill-opacity="0.54"/>
<path d="M690 487.5H670V500H690V487.5Z" fill="#4667CA" fill-opacity="0.54"/>
<path d="M990 475H970V487.5H990V475Z" fill="#4667CA" fill-opacity="0.54"/>
<path d="M970 462.5H950V475H970V462.5Z" fill="#4667CA" fill-opacity="0.54"/>
<path d="M50 375H30V387.5H50V375Z" fill="#4667CA" fill-opacity="0.54"/>
<path d="M490 362.5H470V375H490V362.5Z" fill="#4667CA" fill-opacity="0.54"/>
<path d="M790 337.5H770V350H790V337.5Z" fill="#4667CA" fill-opacity="0.54"/>
<path d="M450 312.5H430V350H450V312.5Z" fill="#4667CA" fill-opacity="0.54"/>
<path d="M1070 212.5H1050V225H1070V212.5Z" fill="#4667CA" fill-opacity="0.54"/>
<path d="M1030 162.5H1010V200H1030V162.5Z" fill="#4667CA" fill-opacity="0.54"/>
<path d="M610 175H590V187.5H610V175Z" fill="#4667CA" fill-opacity="0.54"/>
<path d="M1110 162.5H1090V175H1110V162.5Z" fill="#4667CA" fill-opacity="0.54"/>
<path d="M530 100H510V112.5H530V100Z" fill="#4667CA" fill-opacity="0.54"/>
<path d="M130 100H110V112.5H130V100Z" fill="#4667CA" fill-opacity="0.54"/>
<path d="M1210 75H1190V87.5H1210V75Z" fill="#81AFC3" fill-opacity="0.46"/>
<path d="M550 625H530V637.5H550V625Z" fill="#1C2A3F"/>
<path d="M470 625H450V637.5H470V625Z" fill="#1C2A3F"/>
<path d="M970 475H950V487.5H970V475Z" fill="#1C2A3F"/>
<path d="M210 400H190V412.5H210V400Z" fill="#1C2A3F"/>
<path d="M850 362.5H830V375H850V362.5Z" fill="#1C2A3F"/>
<path d="M530 325H510V337.5H530V325Z" fill="#1C2A3F"/>
<path d="M190 237.5H170V250H190V237.5Z" fill="#1C2A3F"/>
<path d="M470 75H450V87.5H470V75Z" fill="#1C2A3F"/>
<path d="M1030 50H1010V62.5H1030V50Z" fill="#5194BF" fill-opacity="0.56"/>
<path d="M770 50H750V62.5H770V50Z" fill="#5194BF" fill-opacity="0.56"/>
<path d="M610 50H590V62.5H610V50Z" fill="#81AFC3" fill-opacity="0.46"/>
<path d="M1170 37.5H1150V50H1170V37.5Z" fill="#81AFC3" fill-opacity="0.46"/>
<path d="M590 37.5H570V50H590V37.5Z" fill="#5194BF" fill-opacity="0.56"/>
<path d="M250 725H230V737.5H250V725Z" fill="#466B8E"/>
<path d="M1110 712.5H1090V725H1110V712.5Z" fill="#466B8E"/>
<path d="M310 712.5H290V725H310V712.5Z" fill="#466B8E"/>
<path d="M270 687.5H250V700H270V687.5Z" fill="#466B8E"/>
<path d="M670 675H650V687.5H670V675Z" fill="#466B8E"/>
<path d="M890 637.5H870V650H890V637.5Z" fill="#466B8E"/>
<path d="M670 575H650V587.5H670V575Z" fill="#466B8E"/>
<path d="M590 412.5H570V425H590V412.5Z" fill="#466B8E"/>
<path d="M150 262.5H130V275H150V262.5Z" fill="#466B8E"/>
<path d="M650 150H630V162.5H650V150Z" fill="#466B8E"/>
<path d="M90 37.5H70V50H90V37.5Z" fill="#466B8E"/>
<path d="M390 25H370V37.5H390V25Z" fill="#3C89CD" fill-opacity="0.59"/>
<path d="M910 12.5H890V25H910V12.5Z" fill="#3C89CD" fill-opacity="0.59"/>
<path d="M730 0H710V12.5H730V0Z" fill="#38648C"/>
<path d="M710 0H690V12.5H710V0Z" fill="#38648C"/>
<path d="M1080 220.5H1060V233H1080V220.5Z" fill="#4667CA" fill-opacity="0.54"/>
</g>
<defs>
<clipPath id="clip0_101_104">
<rect width="1280" height="800" fill="white"/>
</clipPath>
</defs>
</svg>
